<svg version="1.1" viewBox="0.0 0.0 600.0 371.0" fill="none" stroke="none" stroke-linecap="square" stroke-miterlimit="10" width="600" height="371" xmlns:xlink="http://www.w3.org/1999/xlink" xmlns="http://www.w3.org/2000/svg"><path fill="#ffffff" d="M0 0L600.0 0L600.0 371.0L0 371.0L0 0Z" fill-rule="nonzero"/><path stroke="#333333" stroke-width="1.0" stroke-linecap="butt" d="M77.5 300.5L581.5 300.5" fill-rule="nonzero"/><path stroke="#cccccc" stroke-width="1.0" stroke-linecap="butt" d="M77.5 260.5L581.5 260.5" fill-rule="nonzero"/><path stroke="#cccccc" stroke-width="1.0" stroke-linecap="butt" d="M77.5 220.5L581.5 220.5" fill-rule="nonzero"/><path stroke="#cccccc" stroke-width="1.0" stroke-linecap="butt" d="M77.5 181.5L581.5 181.5" fill-rule="nonzero"/><path stroke="#cccccc" stroke-width="1.0" stroke-linecap="butt" d="M77.5 141.5L581.5 141.5" fill-rule="nonzero"/><path stroke="#cccccc" stroke-width="1.0" stroke-linecap="butt" d="M77.5 101.5L581.5 101.5" fill-rule="nonzero"/><path stroke="#cccccc" stroke-width="1.0" stroke-linecap="butt" d="M77.5 61.5L581.5 61.5" fill-rule="nonzero"/><clipPath id="id_0"><path d="M77.55 61.916668L581.45 61.916668L581.45 300.45L77.55 300.45L77.55 61.916668Z" clip-rule="nonzero"/></clipPath><path stroke="#000000" stroke-width="2.0" stroke-linecap="butt" stroke-opacity="0.0" clip-path="url(#id_0)" d="M132.0 300.0L97.0 300.0L97.0 64.0C97.0 62.89543 97.89543 62.0 99.0 62.0L130.0 62.0C131.10457 62.0 132.0 62.89543 132.0 64.0Z" fill-rule="nonzero"/><path fill="#0000ff" clip-path="url(#id_0)" d="M132.0 300.0L97.0 300.0L97.0 64.0C97.0 62.89543 97.89543 62.0 99.0 62.0L130.0 62.0C131.10457 62.0 132.0 62.89543 132.0 64.0Z" fill-rule="nonzero"/><path stroke="#000000" stroke-width="2.0" stroke-linecap="butt" stroke-opacity="0.0" clip-path="url(#id_0)" d="M186.0 300.0L151.0 300.0L151.0 84.0C151.0 82.89543 151.89543 82.0 153.0 82.0L184.0 82.0C185.10457 82.0 186.0 82.89543 186.0 84.0Z" fill-rule="nonzero"/><path fill="#0000ff" clip-path="url(#id_0)" d="M186.0 300.0L151.0 300.0L151.0 84.0C151.0 82.89543 151.89543 82.0 153.0 82.0L184.0 82.0C185.10457 82.0 186.0 82.89543 186.0 84.0Z" fill-rule="nonzero"/><path stroke="#000000" stroke-width="2.0" stroke-linecap="butt" stroke-opacity="0.0" clip-path="url(#id_0)" d="M240.0 300.0L205.0 300.0L205.0 84.0C205.0 82.89543 205.89543 82.0 207.0 82.0L238.0 82.0C239.10457 82.0 240.0 82.89543 240.0 84.0Z" fill-rule="nonzero"/><path fill="#0000ff" clip-path="url(#id_0)" d="M240.0 300.0L205.0 300.0L205.0 84.0C205.0 82.89543 205.89543 82.0 207.0 82.0L238.0 82.0C239.10457 82.0 240.0 82.89543 240.0 84.0Z" fill-rule="nonzero"/><path stroke="#000000" stroke-width="2.0" stroke-linecap="butt" stroke-opacity="0.0" clip-path="url(#id_0)" d="M294.0 300.0L259.0 300.0L259.0 133.0C259.0 131.89543 259.89542 131.0 261.0 131.0L292.0 131.0C293.10458 131.0 294.0 131.89543 294.0 133.0Z" fill-rule="nonzero"/><path fill="#0000ff" clip-path="url(#id_0)" d="M294.0 300.0L259.0 300.0L259.0 133.0C259.0 131.89543 259.89542 131.0 261.0 131.0L292.0 131.0C293.10458 131.0 294.0 131.89543 294.0 133.0Z" fill-rule="nonzero"/><path stroke="#000000" stroke-width="2.0" stroke-linecap="butt" stroke-opacity="0.0" clip-path="url(#id_0)" d="M348.0 300.0L313.0 300.0L313.0 193.0C313.0 191.89543 313.89542 191.0 315.0 191.0L346.0 191.0C347.10458 191.0 348.0 191.89543 348.0 193.0Z" fill-rule="nonzero"/><path fill="#0000ff" clip-path="url(#id_0)" d="M348.0 300.0L313.0 300.0L313.0 193.0C313.0 191.89543 313.89542 191.0 315.0 191.0L346.0 191.0C347.10458 191.0 348.0 191.89543 348.0 193.0Z" fill-rule="nonzero"/><path stroke="#000000" stroke-width="2.0" stroke-linecap="butt" stroke-opacity="0.0" clip-path="url(#id_0)" d="M401.0 300.0L366.0 300.0L366.0 183.0C366.0 181.89543 366.89542 181.0 368.0 181.0L399.0 181.0C400.10458 181.0 401.0 181.89543 401.0 183.0Z" fill-rule="nonzero"/><path fill="#0000ff" clip-path="url(#id_0)" d="M401.0 300.0L366.0 300.0L366.0 183.0C366.0 181.89543 366.89542 181.0 368.0 181.0L399.0 181.0C400.10458 181.0 401.0 181.89543 401.0 183.0Z" fill-rule="nonzero"/><path stroke="#000000" stroke-width="2.0" stroke-linecap="butt" stroke-opacity="0.0" clip-path="url(#id_0)" d="M455.0 300.0L420.0 300.0L420.0 283.0C420.0 281.89542 420.89542 281.0 422.0 281.0L453.0 281.0C454.10458 281.0 455.0 281.89542 455.0 283.0Z" fill-rule="nonzero"/><path fill="#0000ff" clip-path="url(#id_0)" d="M455.0 300.0L420.0 300.0L420.0 283.0C420.0 281.89542 420.89542 281.0 422.0 281.0L453.0 281.0C454.10458 281.0 455.0 281.89542 455.0 283.0Z" fill-rule="nonzero"/><path stroke="#000000" stroke-width="2.0" stroke-linecap="butt" stroke-opacity="0.0" clip-path="url(#id_0)" d="M509.0 300.0L474.0 300.0L474.0 293.0C474.0 291.89542 474.89542 291.0 476.0 291.0L507.0 291.0C508.10458 291.0 509.0 291.89542 509.0 293.0Z" fill-rule="nonzero"/><path fill="#0000ff" clip-path="url(#id_0)" d="M509.0 300.0L474.0 300.0L474.0 293.0C474.0 291.89542 474.89542 291.0 476.0 291.0L507.0 291.0C508.10458 291.0 509.0 291.89542 509.0 293.0Z" fill-rule="nonzero"/><path stroke="#000000" stroke-width="2.0" stroke-linecap="butt" stroke-opacity="0.0" clip-path="url(#id_0)" d="M563.0 300.0L528.0 300.0L528.0 293.0C528.0 291.89542 528.89545 291.0 530.0 291.0L561.0 291.0C562.10455 291.0 563.0 291.89542 563.0 293.0Z" fill-rule="nonzero"/><path fill="#0000ff" clip-path="url(#id_0)" d="M563.0 300.0L528.0 300.0L528.0 293.0C528.0 291.89542 528.89545 291.0 530.0 291.0L561.0 291.0C562.10455 291.0 563.0 291.89542 563.0 293.0Z" fill-rule="nonzero"/><path stroke="#ffffff" stroke-width="3.0" stroke-linejoin="round" stroke-linecap="round" d="M111.265625 46.916668L110.1875 46.916668L110.1875 39.697918L108.0 40.494793L108.0 39.510418L111.109375 38.338543L111.265625 38.338543L111.265625 46.916668ZM120.296875 46.916668L114.703125 46.916668L114.703125 46.135418L117.65625 42.854168Q118.3125 42.104168 118.5625 41.651043Q118.8125 41.182293 118.8125 40.682293Q118.8125 40.010418 118.40625 39.588543Q118.015625 39.151043 117.328125 39.151043Q116.53125 39.151043 116.078125 39.619793Q115.625 40.072918 115.625 40.901043L114.546875 40.901043Q114.546875 39.713543 115.296875 38.994793Q116.0625 38.260418 117.328125 38.260418Q118.53125 38.260418 119.21875 38.885418Q119.90625 39.510418 119.90625 40.557293Q119.90625 41.807293 118.296875 43.557293L116.015625 46.026043L120.296875 46.026043L120.296875 46.916668Z" fill-rule="nonzero"/><path fill="#0000ff" d="M111.265625 46.916668L110.1875 46.916668L110.1875 39.697918L108.0 40.494793L108.0 39.510418L111.109375 38.338543L111.265625 38.338543L111.265625 46.916668ZM120.296875 46.916668L114.703125 46.916668L114.703125 46.135418L117.65625 42.854168Q118.3125 42.104168 118.5625 41.651043Q118.8125 41.182293 118.8125 40.682293Q118.8125 40.010418 118.40625 39.588543Q118.015625 39.151043 117.328125 39.151043Q116.53125 39.151043 116.078125 39.619793Q115.625 40.072918 115.625 40.901043L114.546875 40.901043Q114.546875 39.713543 115.296875 38.994793Q116.0625 38.260418 117.328125 38.260418Q118.53125 38.260418 119.21875 38.885418Q119.90625 39.510418 119.90625 40.557293Q119.90625 41.807293 118.296875 43.557293L116.015625 46.026043L120.296875 46.026043L120.296875 46.916668Z" fill-rule="nonzero"/><path stroke="#ffffff" stroke-width="3.0" stroke-linejoin="round" stroke-linecap="round" d="M165.26562 66.79444L164.1875 66.79444L164.1875 59.575695L162.0 60.37257L162.0 59.388195L165.10938 58.21632L165.26562 58.21632L165.26562 66.79444ZM172.26562 66.79444L171.1875 66.79444L171.1875 59.575695L169.0 60.37257L169.0 59.388195L172.10938 58.21632L172.26562 58.21632L172.26562 66.79444Z" fill-rule="nonzero"/><path fill="#0000ff" d="M165.26562 66.79444L164.1875 66.79444L164.1875 59.57569L162.0 60.372566L162.0 59.38819L165.10938 58.216316L165.26562 58.216316L165.26562 66.79444ZM172.26562 66.79444L171.1875 66.79444L171.1875 59.57569L169.0 60.372566L169.0 59.38819L172.10938 58.216316L172.26562 58.216316L172.26562 66.79444Z" fill-rule="nonzero"/><path stroke="#ffffff" stroke-width="3.0" stroke-linejoin="round" stroke-linecap="round" d="M219.26562 66.79444L218.1875 66.79444L218.1875 59.575695L216.0 60.37257L216.0 59.388195L219.10938 58.21632L219.26562 58.21632L219.26562 66.79444ZM226.26562 66.79444L225.1875 66.79444L225.1875 59.575695L223.0 60.37257L223.0 59.388195L226.10938 58.21632L226.26562 58.21632L226.26562 66.79444Z" fill-rule="nonzero"/><path fill="#0000ff" d="M219.26562 66.79444L218.1875 66.79444L218.1875 59.57569L216.0 60.372566L216.0 59.38819L219.10938 58.216316L219.26562 58.216316L219.26562 66.79444ZM226.26562 66.79444L225.1875 66.79444L225.1875 59.57569L223.0 60.372566L223.0 59.38819L226.10938 58.216316L226.26562 58.216316L226.26562 66.79444Z" fill-rule="nonzero"/><path stroke="#ffffff" stroke-width="3.0" stroke-linejoin="round" stroke-linecap="round" d="M273.89062 110.17639Q273.89062 110.81702 273.54688 111.31702Q273.20312 111.81702 272.64062 112.09827Q273.29688 112.37952 273.6875 112.94202Q274.07812 113.48889 274.07812 114.19202Q274.07812 115.28577 273.32812 115.95764Q272.59375 116.61389 271.375 116.61389Q270.14062 116.61389 269.39062 115.95764Q268.65625 115.28577 268.65625 114.19202Q268.65625 113.48889 269.03125 112.94202Q269.40625 112.37952 270.07812 112.09827Q269.51562 111.81702 269.1875 111.31702Q268.85938 110.81702 268.85938 110.17639Q268.85938 109.09827 269.54688 108.47327Q270.23438 107.83264 271.375 107.83264Q272.5 107.83264 273.1875 108.47327Q273.89062 109.09827 273.89062 110.17639ZM273.0 114.16077Q273.0 113.44202 272.54688 113.00452Q272.09375 112.55139 271.35938 112.55139Q270.625 112.55139 270.17188 113.00452Q269.73438 113.44202 269.73438 114.17639Q269.73438 114.89514 270.17188 115.31702Q270.60938 115.72327 271.375 115.72327Q272.125 115.72327 272.5625 115.30139Q273.0 114.87952 273.0 114.16077ZM271.375 108.72327Q270.73438 108.72327 270.32812 109.12952Q269.9375 109.52014 269.9375 110.20764Q269.9375 110.84827 270.32812 111.25452Q270.71875 111.66077 271.35938 111.66077Q272.01562 111.66077 272.40625 111.25452Q272.79688 110.84827 272.79688 110.20764Q272.79688 109.55139 272.39062 109.14514Q271.98438 108.72327 271.375 108.72327ZM275.78125 118.19202L275.17188 117.77014Q275.71875 117.00452 275.75 116.17639L275.75 115.20764L276.8125 115.20764L276.8125 116.05139Q276.8125 116.64514 276.51562 117.23889Q276.21875 117.83264 275.78125 118.19202ZM278.20312 112.20764L278.64062 107.95764L283.01562 107.95764L283.01562 108.95764L279.5625 108.95764L279.29688 111.28577Q279.9375 110.91077 280.73438 110.91077Q281.89062 110.91077 282.57812 111.69202Q283.26562 112.45764 283.26562 113.77014Q283.26562 115.08264 282.54688 115.84827Q281.84375 116.61389 280.5625 116.61389Q279.4375 116.61389 278.71875 115.98889Q278.0 115.34827 277.90625 114.23889L278.92188 114.23889Q279.03125 114.97327 279.45312 115.34827Q279.875 115.72327 280.5625 115.72327Q281.3125 115.72327 281.75 115.20764Q282.1875 114.69202 282.1875 113.78577Q282.1875 112.92639 281.71875 112.41077Q281.25 111.89514 280.46875 111.89514Q279.76562 111.89514 279.35938 112.19202L279.07812 112.42639L278.20312 112.20764Z" fill-rule="nonzero"/><path fill="#0000ff" d="M273.89062 110.17639Q273.89062 110.81702 273.54688 111.31702Q273.20312 111.81702 272.64062 112.09827Q273.29688 112.37952 273.6875 112.94202Q274.07812 113.48889 274.07812 114.19202Q274.07812 115.28577 273.32812 115.95764Q272.59375 116.61389 271.375 116.61389Q270.14062 116.61389 269.39062 115.95764Q268.65625 115.28577 268.65625 114.19202Q268.65625 113.48889 269.03125 112.94202Q269.40625 112.37952 270.07812 112.09827Q269.51562 111.81702 269.1875 111.31702Q268.85938 110.81702 268.85938 110.17639Q268.85938 109.09827 269.54688 108.47327Q270.23438 107.83264 271.375 107.83264Q272.5 107.83264 273.1875 108.47327Q273.89062 109.09827 273.89062 110.17639ZM273.0 114.16077Q273.0 113.44202 272.54688 113.00452Q272.09375 112.55139 271.35938 112.55139Q270.625 112.55139 270.17188 113.00452Q269.73438 113.44202 269.73438 114.17639Q269.73438 114.89514 270.17188 115.31702Q270.60938 115.72327 271.375 115.72327Q272.125 115.72327 272.5625 115.30139Q273.0 114.87952 273.0 114.16077ZM271.375 108.72327Q270.73438 108.72327 270.32812 109.12952Q269.9375 109.52014 269.9375 110.20764Q269.9375 110.84827 270.32812 111.25452Q270.71875 111.66077 271.35938 111.66077Q272.01562 111.66077 272.40625 111.25452Q272.79688 110.84827 272.79688 110.20764Q272.79688 109.55139 272.39062 109.14514Q271.98438 108.72327 271.375 108.72327ZM275.78125 118.19202L275.17188 117.77014Q275.71875 117.00452 275.75 116.17639L275.75 115.20764L276.8125 115.20764L276.8125 116.05139Q276.8125 116.64514 276.51562 117.23889Q276.21875 117.83264 275.78125 118.19202ZM278.20312 112.20764L278.64062 107.95764L283.01562 107.95764L283.01562 108.95764L279.5625 108.95764L279.29688 111.28577Q279.9375 110.91077 280.73438 110.91077Q281.89062 110.91077 282.57812 111.69202Q283.26562 112.45764 283.26562 113.77014Q283.26562 115.08264 282.54688 115.84827Q281.84375 116.61389 280.5625 116.61389Q279.4375 116.61389 278.71875 115.98889Q278.0 115.34827 277.90625 114.23889L278.92188 114.23889Q279.03125 114.97327 279.45312 115.34827Q279.875 115.72327 280.5625 115.72327Q281.3125 115.72327 281.75 115.20764Q282.1875 114.69202 282.1875 113.78577Q282.1875 112.92639 281.71875 112.41077Q281.25 111.89514 280.46875 111.89514Q279.76562 111.89514 279.35938 112.19202L279.07812 112.42639L278.20312 112.20764Z" fill-rule="nonzero"/><path stroke="#ffffff" stroke-width="3.0" stroke-linejoin="round" stroke-linecap="round" d="M323.20312 171.84097L323.64062 167.59097L328.01562 167.59097L328.01562 168.59097L324.5625 168.59097L324.29688 170.9191Q324.9375 170.5441 325.73438 170.5441Q326.89062 170.5441 327.57812 171.32535Q328.26562 172.09097 328.26562 173.40347Q328.26562 174.71597 327.54688 175.4816Q326.84375 176.24722 325.5625 176.24722Q324.4375 176.24722 323.71875 175.62222Q323.0 174.9816 322.90625 173.87222L323.92188 173.87222Q324.03125 174.6066 324.45312 174.9816Q324.875 175.3566 325.5625 175.3566Q326.3125 175.3566 326.75 174.84097Q327.1875 174.32535 327.1875 173.4191Q327.1875 172.55972 326.71875 172.0441Q326.25 171.52847 325.46875 171.52847Q324.76562 171.52847 324.35938 171.82535L324.07812 172.05972L323.20312 171.84097ZM329.78125 177.82535L329.17188 177.40347Q329.71875 176.63785 329.75 175.80972L329.75 174.84097L330.8125 174.84097L330.8125 175.68472Q330.8125 176.27847 330.51562 176.87222Q330.21875 177.46597 329.78125 177.82535ZM332.20312 171.84097L332.64062 167.59097L337.01562 167.59097L337.01562 168.59097L333.5625 168.59097L333.29688 170.9191Q333.9375 170.5441 334.73438 170.5441Q335.89062 170.5441 336.57812 171.32535Q337.26562 172.09097 337.26562 173.40347Q337.26562 174.71597 336.54688 175.4816Q335.84375 176.24722 334.5625 176.24722Q333.4375 176.24722 332.71875 175.62222Q332.0 174.9816 331.90625 173.87222L332.92188 173.87222Q333.03125 174.6066 333.45312 174.9816Q333.875 175.3566 334.5625 175.3566Q335.3125 175.3566 335.75 174.84097Q336.1875 174.32535 336.1875 173.4191Q336.1875 172.55972 335.71875 172.0441Q335.25 171.52847 334.46875 171.52847Q333.76562 171.52847 333.35938 171.82535L333.07812 172.05972L332.20312 171.84097Z" fill-rule="nonzero"/><path fill="#0000ff" d="M323.20312 171.84097L323.64062 167.59097L328.01562 167.59097L328.01562 168.59097L324.5625 168.59097L324.29688 170.9191Q324.9375 170.5441 325.73438 170.5441Q326.89062 170.5441 327.57812 171.32535Q328.26562 172.09097 328.26562 173.40347Q328.26562 174.71597 327.54688 175.4816Q326.84375 176.24722 325.5625 176.24722Q324.4375 176.24722 323.71875 175.62222Q323.0 174.9816 322.90625 173.87222L323.92188 173.87222Q324.03125 174.6066 324.45312 174.9816Q324.875 175.3566 325.5625 175.3566Q326.3125 175.3566 326.75 174.84097Q327.1875 174.32535 327.1875 173.4191Q327.1875 172.55972 326.71875 172.0441Q326.25 171.52847 325.46875 171.52847Q324.76562 171.52847 324.35938 171.82535L324.07812 172.05972L323.20312 171.84097ZM329.78125 177.82535L329.17188 177.40347Q329.71875 176.63785 329.75 175.80972L329.75 174.84097L330.8125 174.84097L330.8125 175.68472Q330.8125 176.27847 330.51562 176.87222Q330.21875 177.46597 329.78125 177.82535ZM332.20312 171.84097L332.64062 167.59097L337.01562 167.59097L337.01562 168.59097L333.5625 168.59097L333.29688 170.9191Q333.9375 170.5441 334.73438 170.5441Q335.89062 170.5441 336.57812 171.32535Q337.26562 172.09097 337.26562 173.40347Q337.26562 174.71597 336.54688 175.4816Q335.84375 176.24722 334.5625 176.24722Q333.4375 176.24722 332.71875 175.62222Q332.0 174.9816 331.90625 173.87222L332.92188 173.87222Q333.03125 174.6066 333.45312 174.9816Q333.875 175.3566 334.5625 175.3566Q335.3125 175.3566 335.75 174.84097Q336.1875 174.32535 336.1875 173.4191Q336.1875 172.55972 335.71875 172.0441Q335.25 171.52847 334.46875 171.52847Q333.76562 171.52847 333.35938 171.82535L333.07812 172.05972L332.20312 171.84097Z" fill-rule="nonzero"/><path stroke="#ffffff" stroke-width="3.0" stroke-linejoin="round" stroke-linecap="round" d="M384.46875 157.65208L384.46875 158.55833L384.26562 158.55833Q383.0 158.58958 382.25 159.32396Q381.5 160.04271 381.375 161.35521Q382.0625 160.58958 383.21875 160.58958Q384.32812 160.58958 385.0 161.37083Q385.67188 162.15208 385.67188 163.40208Q385.67188 164.71458 384.95312 165.51146Q384.23438 166.30833 383.01562 166.30833Q381.79688 166.30833 381.03125 165.37083Q380.28125 164.41771 380.28125 162.93333L380.28125 162.52708Q380.28125 160.16771 381.28125 158.91771Q382.28125 157.66771 384.26562 157.65208L384.46875 157.65208ZM383.04688 161.49583Q382.48438 161.49583 382.01562 161.82396Q381.54688 162.15208 381.35938 162.66771L381.35938 163.05833Q381.35938 164.12083 381.82812 164.76146Q382.3125 165.40208 383.01562 165.40208Q383.75 165.40208 384.17188 164.87083Q384.59375 164.32396 384.59375 163.44896Q384.59375 162.57396 384.17188 162.04271Q383.75 161.49583 383.04688 161.49583Z" fill-rule="nonzero"/><path fill="#0000ff" d="M384.46875 157.65208L384.46875 158.55833L384.26562 158.55833Q383.0 158.58958 382.25 159.32396Q381.5 160.04271 381.375 161.35521Q382.0625 160.58958 383.21875 160.58958Q384.32812 160.58958 385.0 161.37083Q385.67188 162.15208 385.67188 163.40208Q385.67188 164.71458 384.95312 165.51146Q384.23438 166.30833 383.01562 166.30833Q381.79688 166.30833 381.03125 165.37083Q380.28125 164.41771 380.28125 162.93333L380.28125 162.52708Q380.28125 160.16771 381.28125 158.91771Q382.28125 157.66771 384.26562 157.65208L384.46875 157.65208ZM383.04688 161.49583Q382.48438 161.49583 382.01562 161.82396Q381.54688 162.15208 381.35938 162.66771L381.35938 163.05833Q381.35938 164.12083 381.82812 164.76146Q382.3125 165.40208 383.01562 165.40208Q383.75 165.40208 384.17188 164.87083Q384.59375 164.32396 384.59375 163.44896Q384.59375 162.57396 384.17188 162.04271Q383.75 161.49583 383.04688 161.49583Z" fill-rule="nonzero"/><path stroke="#ffffff" stroke-width="3.0" stroke-linejoin="round" stroke-linecap="round" d="M437.76562 265.57224L436.6875 265.57224L436.6875 258.3535L434.5 259.15036L434.5 258.166L437.60938 256.9941L437.76562 256.9941L437.76562 265.57224Z" fill-rule="nonzero"/><path fill="#0000ff" d="M437.76562 265.57224L436.6875 265.57224L436.6875 258.3535L434.5 259.15036L434.5 258.166L437.60938 256.9941L437.76562 256.9941L437.76562 265.57224Z" fill-rule="nonzero"/><path stroke="#ffffff" stroke-width="3.0" stroke-linejoin="round" stroke-linecap="round" d="M489.0625 271.87048Q489.0625 273.77673 488.40625 274.71423Q487.76562 275.6361 486.375 275.6361Q485.01562 275.6361 484.35938 274.72986Q483.70312 273.8236 483.67188 272.0111L483.67188 270.5736Q483.67188 268.68298 484.3125 267.77673Q484.96875 266.85486 486.35938 266.85486Q487.73438 266.85486 488.39062 267.74548Q489.04688 268.62048 489.0625 270.46423L489.0625 271.87048ZM487.96875 270.3861Q487.96875 269.0111 487.57812 268.3861Q487.20312 267.74548 486.35938 267.74548Q485.53125 267.74548 485.14062 268.3861Q484.76562 269.0111 484.76562 270.30798L484.76562 272.04236Q484.76562 273.41736 485.15625 274.08923Q485.5625 274.74548 486.375 274.74548Q487.17188 274.74548 487.5625 274.12048Q487.95312 273.49548 487.96875 272.16736L487.96875 270.3861ZM490.78125 277.21423L490.17188 276.79236Q490.71875 276.02673 490.75 275.1986L490.75 274.22986L491.8125 274.22986L491.8125 275.0736Q491.8125 275.66736 491.51562 276.2611Q491.21875 276.85486 490.78125 277.21423ZM493.20312 271.22986L493.64062 266.97986L498.01562 266.97986L498.01562 267.97986L494.5625 267.97986L494.29688 270.30798Q494.9375 269.93298 495.73438 269.93298Q496.89062 269.93298 497.57812 270.71423Q498.26562 271.47986 498.26562 272.79236Q498.26562 274.10486 497.54688 274.87048Q496.84375 275.6361 495.5625 275.6361Q494.4375 275.6361 493.71875 275.0111Q493.0 274.37048 492.90625 273.2611L493.92188 273.2611Q494.03125 273.99548 494.45312 274.37048Q494.875 274.74548 495.5625 274.74548Q496.3125 274.74548 496.75 274.22986Q497.1875 273.71423 497.1875 272.80798Q497.1875 271.9486 496.71875 271.43298Q496.25 270.91736 495.46875 270.91736Q494.76562 270.91736 494.35938 271.21423L494.07812 271.4486L493.20312 271.22986Z" fill-rule="nonzero"/><path fill="#0000ff" d="M489.0625 271.87048Q489.0625 273.77673 488.40625 274.71423Q487.76562 275.6361 486.375 275.6361Q485.01562 275.6361 484.35938 274.72986Q483.70312 273.8236 483.67188 272.0111L483.67188 270.5736Q483.67188 268.68298 484.3125 267.77673Q484.96875 266.85486 486.35938 266.85486Q487.73438 266.85486 488.39062 267.74548Q489.04688 268.62048 489.0625 270.46423L489.0625 271.87048ZM487.96875 270.3861Q487.96875 269.0111 487.57812 268.3861Q487.20312 267.74548 486.35938 267.74548Q485.53125 267.74548 485.14062 268.3861Q484.76562 269.0111 484.76562 270.30798L484.76562 272.04236Q484.76562 273.41736 485.15625 274.08923Q485.5625 274.74548 486.375 274.74548Q487.17188 274.74548 487.5625 274.12048Q487.95312 273.49548 487.96875 272.16736L487.96875 270.3861ZM490.78125 277.21423L490.17188 276.79236Q490.71875 276.02673 490.75 275.1986L490.75 274.22986L491.8125 274.22986L491.8125 275.0736Q491.8125 275.66736 491.51562 276.2611Q491.21875 276.85486 490.78125 277.21423ZM493.20312 271.22986L493.64062 266.97986L498.01562 266.97986L498.01562 267.97986L494.5625 267.97986L494.29688 270.30798Q494.9375 269.93298 495.73438 269.93298Q496.89062 269.93298 497.57812 270.71423Q498.26562 271.47986 498.26562 272.79236Q498.26562 274.10486 497.54688 274.87048Q496.84375 275.6361 495.5625 275.6361Q494.4375 275.6361 493.71875 275.0111Q493.0 274.37048 492.90625 273.2611L493.92188 273.2611Q494.03125 273.99548 494.45312 274.37048Q494.875 274.74548 495.5625 274.74548Q496.3125 274.74548 496.75 274.22986Q497.1875 273.71423 497.1875 272.80798Q497.1875 271.9486 496.71875 271.43298Q496.25 270.91736 495.46875 270.91736Q494.76562 270.91736 494.35938 271.21423L494.07812 271.4486L493.20312 271.22986Z" fill-rule="nonzero"/><path stroke="#ffffff" stroke-width="3.0" stroke-linejoin="round" stroke-linecap="round" d="M543.0625 271.87048Q543.0625 273.77673 542.40625 274.71423Q541.7656 275.6361 540.375 275.6361Q539.0156 275.6361 538.3594 274.72986Q537.7031 273.8236 537.6719 272.0111L537.6719 270.5736Q537.6719 268.68298 538.3125 267.77673Q538.96875 266.85486 540.3594 266.85486Q541.7344 266.85486 542.3906 267.74548Q543.0469 268.62048 543.0625 270.46423L543.0625 271.87048ZM541.96875 270.3861Q541.96875 269.0111 541.5781 268.3861Q541.2031 267.74548 540.3594 267.74548Q539.53125 267.74548 539.1406 268.3861Q538.7656 269.0111 538.7656 270.30798L538.7656 272.04236Q538.7656 273.41736 539.15625 274.08923Q539.5625 274.74548 540.375 274.74548Q541.1719 274.74548 541.5625 274.12048Q541.9531 273.49548 541.96875 272.16736L541.96875 270.3861ZM544.78125 277.21423L544.1719 276.79236Q544.71875 276.02673 544.75 275.1986L544.75 274.22986L545.8125 274.22986L545.8125 275.0736Q545.8125 275.66736 545.5156 276.2611Q545.21875 276.85486 544.78125 277.21423ZM547.2031 271.22986L547.6406 266.97986L552.0156 266.97986L552.0156 267.97986L548.5625 267.97986L548.2969 270.30798Q548.9375 269.93298 549.7344 269.93298Q550.8906 269.93298 551.5781 270.71423Q552.2656 271.47986 552.2656 272.79236Q552.2656 274.10486 551.5469 274.87048Q550.84375 275.6361 549.5625 275.6361Q548.4375 275.6361 547.71875 275.0111Q547.0 274.37048 546.90625 273.2611L547.9219 273.2611Q548.03125 273.99548 548.4531 274.37048Q548.875 274.74548 549.5625 274.74548Q550.3125 274.74548 550.75 274.22986Q551.1875 273.71423 551.1875 272.80798Q551.1875 271.9486 550.71875 271.43298Q550.25 270.91736 549.46875 270.91736Q548.7656 270.91736 548.3594 271.21423L548.0781 271.4486L547.2031 271.22986Z" fill-rule="nonzero"/><path fill="#0000ff" d="M543.0625 271.87048Q543.0625 273.77673 542.40625 274.71423Q541.7656 275.6361 540.375 275.6361Q539.0156 275.6361 538.3594 274.72986Q537.7031 273.8236 537.6719 272.0111L537.6719 270.5736Q537.6719 268.68298 538.3125 267.77673Q538.96875 266.85486 540.3594 266.85486Q541.7344 266.85486 542.3906 267.74548Q543.0469 268.62048 543.0625 270.46423L543.0625 271.87048ZM541.96875 270.3861Q541.96875 269.0111 541.5781 268.3861Q541.2031 267.74548 540.3594 267.74548Q539.53125 267.74548 539.1406 268.3861Q538.7656 269.0111 538.7656 270.30798L538.7656 272.04236Q538.7656 273.41736 539.15625 274.08923Q539.5625 274.74548 540.375 274.74548Q541.1719 274.74548 541.5625 274.12048Q541.9531 273.49548 541.96875 272.16736L541.96875 270.3861ZM544.78125 277.21423L544.1719 276.79236Q544.71875 276.02673 544.75 275.1986L544.75 274.22986L545.8125 274.22986L545.8125 275.0736Q545.8125 275.66736 545.5156 276.2611Q545.21875 276.85486 544.78125 277.21423ZM547.2031 271.22986L547.6406 266.97986L552.0156 266.97986L552.0156 267.97986L548.5625 267.97986L548.2969 270.30798Q548.9375 269.93298 549.7344 269.93298Q550.8906 269.93298 551.5781 270.71423Q552.2656 271.47986 552.2656 272.79236Q552.2656 274.10486 551.5469 274.87048Q550.84375 275.6361 549.5625 275.6361Q548.4375 275.6361 547.71875 275.0111Q547.0 274.37048 546.90625 273.2611L547.9219 273.2611Q548.03125 273.99548 548.4531 274.37048Q548.875 274.74548 549.5625 274.74548Q550.3125 274.74548 550.75 274.22986Q551.1875 273.71423 551.1875 272.80798Q551.1875 271.9486 550.71875 271.43298Q550.25 270.91736 549.46875 270.91736Q548.7656 270.91736 548.3594 271.21423L548.0781 271.4486L547.2031 271.22986Z" fill-rule="nonzero"/><path fill="#000000" d="M318.98438 349.45L322.28125 340.85626L323.5 340.85626L327.01562 349.45L325.73438 349.45L324.71875 346.84064L321.14062 346.84064L320.1875 349.45L318.98438 349.45ZM321.46875 345.91876L324.375 345.91876L323.48438 343.54376Q323.0625 342.46564 322.875 341.7625Q322.70312 342.59064 322.40625 343.40314L321.46875 345.91876ZM326.79688 342.075L326.79688 340.85626L327.85938 340.85626L327.85938 342.075L326.79688 342.075ZM326.79688 349.45L326.79688 343.23126L327.85938 343.23126L327.85938 349.45L326.79688 349.45ZM329.78125 349.45L329.78125 343.23126L330.73438 343.23126L330.73438 344.16876Q331.09375 343.5125 331.39062 343.3094Q331.70312 343.09064 332.07812 343.09064Q332.60938 343.09064 333.15625 343.41876L332.79688 344.40314Q332.40625 344.16876 332.03125 344.16876Q331.67188 344.16876 331.39062 344.3875Q331.125 344.59064 331.01562 344.96564Q330.82812 345.52814 330.82812 346.1844L330.82812 349.45L329.78125 349.45ZM338.04688 347.45L339.14062 347.575Q338.89062 348.52814 338.1875 349.0594Q337.48438 349.59064 336.40625 349.59064Q335.04688 349.59064 334.23438 348.7469Q333.4375 347.90314 333.4375 346.3875Q333.4375 344.825 334.25 343.96564Q335.0625 343.09064 336.34375 343.09064Q337.59375 343.09064 338.375 343.9344Q339.17188 344.77814 339.17188 346.325Q339.17188 346.41876 339.17188 346.60626L334.53125 346.60626Q334.59375 347.6375 335.10938 348.1844Q335.625 348.71564 336.40625 348.71564Q336.98438 348.71564 337.39062 348.41876Q337.8125 348.10626 338.04688 347.45ZM334.59375 345.7469L338.0625 345.7469Q338.0 344.95 337.67188 344.5594Q337.15625 343.95 336.35938 343.95Q335.625 343.95 335.125 344.4344Q334.64062 344.91876 334.59375 345.7469Z" fill-rule="nonzero"/><path fill="#000000" d="M29.550013 239.76146L20.956263 239.76146L20.956263 238.60521L27.706263 234.08958L20.956263 234.08958L20.956263 232.99583L29.550013 232.99583L29.550013 234.16771L22.800013 238.68333L29.550013 238.68333L29.550013 239.76146ZM26.440638 231.27708Q24.706263 231.27708 23.878138 230.32396Q23.190638 229.52708 23.190638 228.37083Q23.190638 227.08958 24.034388 226.27708Q24.862513 225.44896 26.346888 225.44896Q27.550013 225.44896 28.237513 225.80833Q28.925013 226.16771 29.315638 226.87083Q29.690638 227.55833 29.690638 228.37083Q29.690638 229.66771 28.862513 230.48021Q28.018763 231.27708 26.440638 231.27708ZM26.440638 230.19896Q27.628138 230.19896 28.221888 229.68333Q28.815638 229.15208 28.815638 228.37083Q28.815638 227.57396 28.221888 227.05833Q27.628138 226.54271 26.409388 226.54271Q25.253138 226.54271 24.659388 227.07396Q24.065638 227.58958 24.065638 228.37083Q24.065638 229.15208 24.659388 229.68333Q25.237513 230.19896 26.440638 230.19896ZM29.550013 223.88646L23.331263 223.88646L23.331263 222.94896L24.206263 222.94896Q23.737513 222.65208 23.471888 222.16771Q23.190638 221.68333 23.190638 221.05833Q23.190638 220.37083 23.471888 219.93333Q23.753138 219.48021 24.268763 219.30833Q23.190638 218.55833 23.190638 217.38646Q23.190638 216.44896 23.706263 215.96458Q24.206263 215.46458 25.284388 215.46458L29.550013 215.46458L29.550013 216.51146L25.628138 216.51146Q25.003138 216.51146 24.721888 216.62083Q24.440638 216.71458 24.268763 216.98021Q24.096888 217.24583 24.096888 217.62083Q24.096888 218.27708 24.534388 218.71458Q24.971888 219.13646 25.940638 219.13646L29.550013 219.13646L29.550013 220.19896L25.503138 220.19896Q24.800013 220.19896 24.456263 220.46458Q24.096888 220.71458 24.096888 221.29271Q24.096888 221.74583 24.331263 222.12083Q24.565638 222.49583 25.018763 222.66771Q25.471888 222.83958 26.315638 222.83958L29.550013 222.83958L29.550013 223.88646ZM29.550013 211.91771L29.550013 212.90208L20.956263 212.90208L20.956263 211.83958L24.018763 211.83958Q23.190638 211.16771 23.190638 210.13646Q23.190638 209.55833 23.425013 209.05833Q23.643763 208.54271 24.065638 208.21458Q24.487513 207.87083 25.081263 207.68333Q25.675013 207.49583 26.346888 207.49583Q27.940638 207.49583 28.815638 208.29271Q29.690638 209.08958 29.690638 210.18333Q29.690638 211.29271 28.768763 211.91771L29.550013 211.91771ZM26.393763 211.93333Q27.503138 211.93333 28.003138 211.62083Q28.815638 211.12083 28.815638 210.27708Q28.815638 209.58958 28.221888 209.08958Q27.628138 208.57396 26.425013 208.57396Q25.206263 208.57396 24.628138 209.05833Q24.050013 209.54271 24.050013 210.23021Q24.050013 210.91771 24.659388 211.43333Q25.253138 211.93333 26.393763 211.93333ZM29.550013 205.90208L23.331263 205.90208L23.331263 204.94896L24.268763 204.94896Q23.612513 204.58958 23.409388 204.29271Q23.190638 203.98021 23.190638 203.60521Q23.190638 203.07396 23.518763 202.52708L24.503138 202.88646Q24.268763 203.27708 24.268763 203.65208Q24.268763 204.01146 24.487513 204.29271Q24.690638 204.55833 25.065638 204.66771Q25.628138 204.85521 26.284388 204.85521L29.550013 204.85521L29.550013 205.90208ZM27.550013 197.63646L27.675013 196.54271Q28.628138 196.79271 29.159388 197.49583Q29.690638 198.19896 29.690638 199.27708Q29.690638 200.63646 28.846888 201.44896Q28.003138 202.24583 26.487513 202.24583Q24.925013 202.24583 24.065638 201.43333Q23.190638 200.62083 23.190638 199.33958Q23.190638 198.08958 24.034388 197.30833Q24.878138 196.51146 26.425013 196.51146Q26.518763 196.51146 26.706263 196.51146L26.706263 201.15208Q27.737513 201.08958 28.284388 200.57396Q28.815638 200.05833 28.815638 199.27708Q28.815638 198.69896 28.518763 198.29271Q28.206263 197.87083 27.550013 197.63646ZM25.846888 201.08958L25.846888 197.62083Q25.050013 197.68333 24.659388 198.01146Q24.050013 198.52708 24.050013 199.32396Q24.050013 200.05833 24.534388 200.55833Q25.018763 201.04271 25.846888 201.08958ZM29.550013 187.85521L28.768763 187.85521Q29.690638 188.44896 29.690638 189.58958Q29.690638 190.33958 29.284388 190.96458Q28.862513 191.58958 28.128138 191.93333Q27.393763 192.27708 26.440638 192.27708Q25.518763 192.27708 24.753138 191.96458Q23.987513 191.65208 23.596888 191.02708Q23.190638 190.40208 23.190638 189.63646Q23.190638 189.07396 23.425013 188.63646Q23.659388 188.19896 24.034388 187.91771L20.956263 187.91771L20.956263 186.87083L29.550013 186.87083L29.550013 187.85521ZM26.440638 191.18333Q27.643763 191.18333 28.237513 190.68333Q28.815638 190.18333 28.815638 189.49583Q28.815638 188.80833 28.253138 188.32396Q27.690638 187.83958 26.534388 187.83958Q25.253138 187.83958 24.659388 188.33958Q24.065638 188.82396 24.065638 189.54271Q24.065638 190.24583 24.643763 190.71458Q25.206263 191.18333 26.440638 191.18333ZM27.550013 180.63646L27.675013 179.54271Q28.628138 179.79271 29.159388 180.49583Q29.690638 181.19896 29.690638 182.27708Q29.690638 183.63646 28.846888 184.44896Q28.003138 185.24583 26.487513 185.24583Q24.925013 185.24583 24.065638 184.43333Q23.190638 183.62083 23.190638 182.33958Q23.190638 181.08958 24.034388 180.30833Q24.878138 179.51146 26.425013 179.51146Q26.518763 179.51146 26.706263 179.51146L26.706263 184.15208Q27.737513 184.08958 28.284388 183.57396Q28.815638 183.05833 28.815638 182.27708Q28.815638 181.69896 28.518763 181.29271Q28.206263 180.87083 27.550013 180.63646ZM25.846888 184.08958L25.846888 180.62083Q25.050013 180.68333 24.659388 181.01146Q24.050013 181.52708 24.050013 182.32396Q24.050013 183.05833 24.534388 183.55833Q25.018763 184.04271 25.846888 184.08958ZM28.612513 172.58958L29.534388 172.43333Q29.628138 172.88646 29.628138 173.23021Q29.628138 173.80833 29.456263 174.12083Q29.268763 174.43333 28.971888 174.57396Q28.675013 174.69896 27.721888 174.69896L24.143763 174.69896L24.143763 175.46458L23.331263 175.46458L23.331263 174.69896L21.784388 174.69896L21.159388 173.65208L23.331263 173.65208L23.331263 172.58958L24.143763 172.58958L24.143763 173.65208L27.784388 173.65208Q28.237513 173.65208 28.362513 173.60521Q28.487513 173.54271 28.565638 173.41771Q28.643763 173.29271 28.643763 173.05833Q28.643763 172.87083 28.612513 172.58958ZM29.550013 171.90208L23.331263 171.90208L23.331263 170.94896L24.268763 170.94896Q23.612513 170.58958 23.409388 170.29271Q23.190638 169.98021 23.190638 169.60521Q23.190638 169.07396 23.518763 168.52708L24.503138 168.88646Q24.268763 169.27708 24.268763 169.65208Q24.268763 170.01146 24.487513 170.29271Q24.690638 170.55833 25.065638 170.66771Q25.628138 170.85521 26.284388 170.85521L29.550013 170.85521L29.550013 171.90208ZM22.175013 167.88646L20.956263 167.88646L20.956263 166.82396L22.175013 166.82396L22.175013 167.88646ZM29.550013 167.88646L23.331263 167.88646L23.331263 166.82396L29.550013 166.82396L29.550013 167.88646ZM28.784388 160.82396Q29.284388 161.41771 29.487513 161.96458Q29.690638 162.49583 29.690638 163.12083Q29.690638 164.15208 29.190638 164.69896Q28.690638 165.24583 27.909388 165.24583Q27.456263 165.24583 27.081263 165.04271Q26.690638 164.83958 26.471888 164.49583Q26.237513 164.15208 26.128138 163.73021Q26.034388 163.43333 25.956263 162.79271Q25.815638 161.52708 25.596888 160.91771Q25.378138 160.91771 25.331263 160.91771Q24.675013 160.91771 24.409388 161.21458Q24.065638 161.62083 24.065638 162.41771Q24.065638 163.15208 24.331263 163.51146Q24.581263 163.87083 25.237513 164.04271L25.096888 165.07396Q24.440638 164.93333 24.034388 164.60521Q23.628138 164.27708 23.409388 163.66771Q23.190638 163.05833 23.190638 162.26146Q23.190638 161.46458 23.378138 160.96458Q23.565638 160.46458 23.846888 160.23021Q24.128138 159.99583 24.565638 159.90208Q24.831263 159.85521 25.534388 159.85521L26.940638 159.85521Q28.409388 159.85521 28.800013 159.79271Q29.190638 159.71458 29.550013 159.51146L29.550013 160.62083Q29.221888 160.77708 28.784388 160.82396ZM26.425013 160.91771Q26.659388 161.49583 26.831263 162.63646Q26.925013 163.29271 27.050013 163.55833Q27.159388 163.82396 27.378138 163.98021Q27.596888 164.12083 27.878138 164.12083Q28.300013 164.12083 28.581263 163.80833Q28.862513 163.48021 28.862513 162.87083Q28.862513 162.26146 28.596888 161.79271Q28.331263 161.30833 27.862513 161.08958Q27.503138 160.91771 26.815638 160.91771L26.425013 160.91771ZM29.550013 157.88646L23.331263 157.88646L23.331263 156.94896L24.206263 156.94896Q23.190638 156.26146 23.190638 154.96458Q23.190638 154.40208 23.393763 153.93333Q23.596888 153.44896 23.925013 153.21458Q24.253138 152.98021 24.690638 152.88646Q24.987513 152.83958 25.721888 152.83958L29.550013 152.83958L29.550013 153.88646L25.768763 153.88646Q25.112513 153.88646 24.800013 154.01146Q24.487513 154.13646 24.300013 154.44896Q24.096888 154.76146 24.096888 155.18333Q24.096888 155.85521 24.534388 156.35521Q24.956263 156.83958 26.143763 156.83958L29.550013 156.83958L29.550013 157.88646ZM30.065638 151.08958L30.221888 150.05833Q30.690638 149.99583 30.909388 149.69896Q31.206263 149.30833 31.206263 148.63646Q31.206263 147.90208 30.909388 147.51146Q30.612513 147.10521 30.096888 146.96458Q29.768763 146.87083 28.737513 146.88646Q29.550013 147.57396 29.550013 148.60521Q29.550013 149.88646 28.628138 150.58958Q27.690638 151.29271 26.409388 151.29271Q25.518763 151.29271 24.768763 150.98021Q24.003138 150.65208 23.596888 150.04271Q23.190638 149.43333 23.190638 148.60521Q23.190638 147.49583 24.081263 146.77708L23.331263 146.77708L23.331263 145.80833L28.706263 145.80833Q30.159388 145.80833 30.768763 146.10521Q31.378138 146.40208 31.721888 147.04271Q32.08126 147.68333 32.08126 148.62083Q32.08126 149.73021 31.581263 150.41771Q31.081263 151.10521 30.065638 151.08958ZM26.331263 150.21458Q27.550013 150.21458 28.112513 149.73021Q28.675013 149.24583 28.675013 148.51146Q28.675013 147.77708 28.112513 147.29271Q27.550013 146.79271 26.362513 146.79271Q25.221888 146.79271 24.643763 147.30833Q24.065638 147.80833 24.065638 148.52708Q24.065638 149.23021 24.643763 149.73021Q25.206263 150.21458 26.331263 150.21458ZM29.550013 143.91771L20.956263 143.91771L20.956263 142.85521L29.550013 142.85521L29.550013 143.91771ZM27.550013 136.63646L27.675013 135.54271Q28.628138 135.79271 29.159388 136.49583Q29.690638 137.19896 29.690638 138.27708Q29.690638 139.63646 28.846888 140.44896Q28.003138 141.24583 26.487513 141.24583Q24.925013 141.24583 24.065638 140.43333Q23.190638 139.62083 23.190638 138.33958Q23.190638 137.08958 24.034388 136.30833Q24.878138 135.51146 26.425013 135.51146Q26.518763 135.51146 26.706263 135.51146L26.706263 140.15208Q27.737513 140.08958 28.284388 139.57396Q28.815638 139.05833 28.815638 138.27708Q28.815638 137.69896 28.518763 137.29271Q28.206263 136.87083 27.550013 136.63646ZM25.846888 140.08958L25.846888 136.62083Q25.050013 136.68333 24.659388 137.01146Q24.050013 137.52708 24.050013 138.32396Q24.050013 139.05833 24.534388 139.55833Q25.018763 140.04271 25.846888 140.08958Z" fill-rule="nonzero"/><path fill="#000000" d="M65.05 300.21564Q65.05 298.6844 65.3625 297.7625Q65.675 296.825 66.28438 296.325Q66.90938 295.825 67.84688 295.825Q68.53438 295.825 69.05 296.10626Q69.58125 296.3875 69.925 296.91876Q70.26875 297.4344 70.45625 298.1844Q70.64375 298.9344 70.64375 300.21564Q70.64375 301.73126 70.33125 302.65314Q70.03438 303.575 69.40938 304.09064Q68.8 304.59064 67.84688 304.59064Q66.6125 304.59064 65.89375 303.7Q65.05 302.6375 65.05 300.21564ZM66.12813 300.21564Q66.12813 302.325 66.62813 303.02814Q67.12813 303.73126 67.84688 303.73126Q68.58125 303.73126 69.06563 303.02814Q69.56563 302.325 69.56563 300.21564Q69.56563 298.09064 69.06563 297.40314Q68.58125 296.7 67.83125 296.7Q67.1125 296.7 66.675 297.3094Q66.12813 298.09064 66.12813 300.21564Z" fill-rule="nonzero"/><path fill="#000000" d="M70.59688 263.67883L70.59688 264.69446L64.90938 264.69446Q64.90938 264.31946 65.03438 263.96008Q65.25313 263.38196 65.72188 262.81946Q66.20625 262.25696 67.1125 261.52258Q68.51875 260.36633 69.00313 259.69446Q69.50313 259.02258 69.50313 258.42883Q69.50313 257.80383 69.05 257.38196Q68.59688 256.94446 67.87813 256.94446Q67.1125 256.94446 66.65938 257.39758Q66.20625 257.8507 66.19063 258.6632L65.1125 258.55383Q65.22188 257.33508 65.94063 256.71008Q66.675 256.06946 67.90938 256.06946Q69.14375 256.06946 69.8625 256.75696Q70.58125 257.44446 70.58125 258.46008Q70.58125 258.9757 70.3625 259.4757Q70.15938 259.96008 69.65938 260.52258Q69.175 261.06946 68.05 262.02258Q67.09688 262.81946 66.81563 263.11633Q66.55 263.39758 66.37813 263.67883L70.59688 263.67883Z" fill-rule="nonzero"/><path fill="#000000" d="M68.425 224.93889L68.425 222.87639L64.70625 222.87639L64.70625 221.90764L68.62813 216.34514L69.4875 216.34514L69.4875 221.90764L70.64375 221.90764L70.64375 222.87639L69.4875 222.87639L69.4875 224.93889L68.425 224.93889ZM68.425 221.90764L68.425 218.04826L65.7375 221.90764L68.425 221.90764Z" fill-rule="nonzero"/><path fill="#000000" d="M70.51875 178.69896L69.47188 178.77708Q69.33125 178.15208 69.08125 177.87083Q68.64375 177.41771 68.01875 177.41771Q67.51875 177.41771 67.12813 177.69896Q66.64375 178.07396 66.34688 178.77708Q66.06563 179.46458 66.05 180.74583Q66.425 180.16771 66.97188 179.88646Q67.53438 179.60521 68.14375 179.60521Q69.19063 179.60521 69.925 180.38646Q70.675 181.16771 70.675 182.38646Q70.675 183.19896 70.31563 183.90208Q69.97188 184.58958 69.3625 184.96458Q68.75313 185.32396 67.9875 185.32396Q66.65938 185.32396 65.83125 184.35521Q65.00313 183.38646 65.00313 181.16771Q65.00313 178.66771 65.925 177.54271Q66.72188 176.55833 68.08125 176.55833Q69.09688 176.55833 69.7375 177.13646Q70.39375 177.69896 70.51875 178.69896ZM66.22188 182.40208Q66.22188 182.94896 66.44063 183.44896Q66.675 183.93333 67.08125 184.19896Q67.50313 184.46458 67.97188 184.46458Q68.62813 184.46458 69.1125 183.93333Q69.59688 183.38646 69.59688 182.46458Q69.59688 181.57396 69.1125 181.05833Q68.64375 180.54271 67.925 180.54271Q67.20625 180.54271 66.70625 181.05833Q66.22188 181.57396 66.22188 182.40208Z" fill-rule="nonzero"/><path fill="#000000" d="M66.675 140.77153Q66.01875 140.52153 65.69063 140.08403Q65.37813 139.6309 65.37813 139.02153Q65.37813 138.08403 66.05 137.4434Q66.7375 136.80278 67.84688 136.80278Q68.97188 136.80278 69.65938 137.45903Q70.34688 138.11528 70.34688 139.05278Q70.34688 139.64653 70.03438 140.08403Q69.72188 140.52153 69.08125 140.77153Q69.87813 141.02153 70.28438 141.59966Q70.69063 142.17778 70.69063 142.97466Q70.69063 144.0684 69.90938 144.8184Q69.14375 145.5684 67.8625 145.5684Q66.59688 145.5684 65.81563 144.8184Q65.03438 144.0684 65.03438 142.9434Q65.03438 142.09966 65.45625 141.53716Q65.89375 140.97466 66.675 140.77153ZM66.45625 138.97466Q66.45625 139.58403 66.84688 139.97466Q67.25313 140.36528 67.87813 140.36528Q68.4875 140.36528 68.87813 139.99028Q69.26875 139.59966 69.26875 139.03716Q69.26875 138.45903 68.8625 138.0684Q68.45625 137.66216 67.8625 137.66216Q67.25313 137.66216 66.84688 138.05278Q66.45625 138.4434 66.45625 138.97466ZM66.12813 142.9434Q66.12813 143.39653 66.33125 143.8184Q66.55 144.24028 66.97188 144.47466Q67.39375 144.70903 67.87813 144.70903Q68.62813 144.70903 69.1125 144.22466Q69.6125 143.74028 69.6125 142.99028Q69.6125 142.22466 69.1125 141.72466Q68.6125 141.22466 67.84688 141.22466Q67.09688 141.22466 66.6125 141.72466Q66.12813 142.20903 66.12813 142.9434Z" fill-rule="nonzero"/><path fill="#000000" d="M62.01875 105.672226L60.971874 105.672226L60.971874 98.953476Q60.58125 99.31285 59.95625 99.68785Q59.346874 100.047226 58.8625 100.2191L58.8625 99.203476Q59.7375 98.7816 60.39375 98.203476Q61.065624 97.609726 61.346874 97.047226L62.01875 97.047226L62.01875 105.672226ZM65.05 101.43785Q65.05 99.9066 65.3625 98.984726Q65.675 98.047226 66.28438 97.547226Q66.90938 97.047226 67.84688 97.047226Q68.53438 97.047226 69.05 97.328476Q69.58125 97.609726 69.925 98.140976Q70.26875 98.6566 70.45625 99.4066Q70.64375 100.1566 70.64375 101.43785Q70.64375 102.953476 70.33125 103.87535Q70.03438 104.797226 69.40938 105.31285Q68.8 105.81285 67.84688 105.81285Q66.6125 105.81285 65.89375 104.922226Q65.05 103.859726 65.05 101.43785ZM66.12813 101.43785Q66.12813 103.547226 66.62813 104.25035Q67.12813 104.953476 67.84688 104.953476Q68.58125 104.953476 69.06563 104.25035Q69.56563 103.547226 69.56563 101.43785Q69.56563 99.31285 69.06563 98.62535Q68.58125 97.922226 67.83125 97.922226Q67.1125 97.922226 66.675 98.5316Q66.12813 99.31285 66.12813 101.43785Z" fill-rule="nonzero"/><path fill="#000000" d="M62.01875 65.916664L60.971874 65.916664L60.971874 59.197914Q60.58125 59.55729 59.95625 59.93229Q59.346874 60.291664 58.8625 60.46354L58.8625 59.447914Q59.7375 59.02604 60.39375 58.447914Q61.065624 57.854164 61.346874 57.291664L62.01875 57.291664L62.01875 65.916664ZM70.59688 64.90104L70.59688 65.916664L64.90938 65.916664Q64.90938 65.541664 65.03438 65.18229Q65.25313 64.604164 65.72188 64.041664Q66.20625 63.479164 67.1125 62.74479Q68.51875 61.58854 69.00313 60.916664Q69.50313 60.24479 69.50313 59.65104Q69.50313 59.02604 69.05 58.604164Q68.59688 58.166664 67.87813 58.166664Q67.1125 58.166664 66.65938 58.61979Q66.20625 59.072914 66.19063 59.885414L65.1125 59.77604Q65.22188 58.55729 65.94063 57.93229Q66.675 57.291664 67.90938 57.291664Q69.14375 57.291664 69.8625 57.979164Q70.58125 58.666664 70.58125 59.68229Q70.58125 60.197914 70.3625 60.697914Q70.15938 61.18229 69.65938 61.74479Q69.175 62.291664 68.05 63.24479Q67.09688 64.041664 66.81563 64.33854Q66.55 64.61979 66.37813 64.90104L70.59688 64.90104Z" fill-rule="nonzero"/><path fill="#000000" d="M105.92781 313.21564Q105.92781 311.6844 106.24031 310.7625Q106.55281 309.825 107.162186 309.325Q107.787186 308.825 108.724686 308.825Q109.412186 308.825 109.92781 309.10626Q110.45906 309.3875 110.80281 309.91876Q111.14656 310.4344 111.33406 311.1844Q111.52156 311.9344 111.52156 313.21564Q111.52156 314.73126 111.20906 315.65314Q110.912186 316.575 110.287186 317.09064Q109.67781 317.59064 108.724686 317.59064Q107.49031 317.59064 106.77156 316.7Q105.92781 315.6375 105.92781 313.21564ZM107.005936 313.21564Q107.005936 315.325 107.505936 316.02814Q108.005936 316.73126 108.724686 316.73126Q109.45906 316.73126 109.943436 316.02814Q110.443436 315.325 110.443436 313.21564Q110.443436 311.09064 109.943436 310.40314Q109.45906 309.7 108.70906 309.7Q107.99031 309.7 107.55281 310.3094Q107.005936 311.09064 107.005936 313.21564ZM113.49031 317.45L113.49031 316.2469L114.693436 316.2469L114.693436 317.45Q114.693436 318.10626 114.45906 318.5125Q114.224686 318.9344 113.724686 319.15314L113.42781 318.7Q113.755936 318.5594 113.912186 318.2625Q114.068436 317.98126 114.099686 317.45L113.49031 317.45ZM115.92781 315.2L117.037186 315.10626Q117.162186 315.91876 117.599686 316.325Q118.05281 316.73126 118.693436 316.73126Q119.443436 316.73126 119.974686 316.15314Q120.505936 315.575 120.505936 314.6375Q120.505936 313.73126 119.99031 313.21564Q119.49031 312.6844 118.662186 312.6844Q118.162186 312.6844 117.74031 312.91876Q117.33406 313.15314 117.099686 313.5125L116.11531 313.3875L116.943436 308.98126L121.224686 308.98126L121.224686 309.98126L117.787186 309.98126L117.33406 312.29376Q118.099686 311.7469 118.943436 311.7469Q120.068436 311.7469 120.83406 312.52814Q121.61531 313.3094 121.61531 314.54376Q121.61531 315.7 120.943436 316.5594Q120.11531 317.59064 118.693436 317.59064Q117.52156 317.59064 116.77156 316.9344Q116.037186 316.27814 115.92781 315.2Z" fill-rule="nonzero"/><path fill="#000000" d="M168.78961 317.45L167.74274 317.45L167.74274 310.73126Q167.35211 311.09064 166.72711 311.46564Q166.11774 311.825 165.63336 311.9969L165.63336 310.98126Q166.50836 310.5594 167.16461 309.98126Q167.83649 309.3875 168.11774 308.825L168.78961 308.825L168.78961 317.45Z" fill-rule="nonzero"/><path fill="#000000" d="M217.68265 317.45L216.63577 317.45L216.63577 310.73126Q216.24515 311.09064 215.62015 311.46564Q215.01077 311.825 214.5264 311.9969L214.5264 310.98126Q215.4014 310.5594 216.05765 309.98126Q216.72952 309.3875 217.01077 308.825L217.68265 308.825L217.68265 317.45ZM221.2764 317.45L221.2764 316.2469L222.47952 316.2469L222.47952 317.45Q222.47952 318.10626 222.24515 318.5125Q222.01077 318.9344 221.51077 319.15314L221.2139 318.7Q221.54202 318.5594 221.69827 318.2625Q221.85452 317.98126 221.88577 317.45L221.2764 317.45ZM223.7139 315.2L224.82327 315.10626Q224.94827 315.91876 225.38577 316.325Q225.8389 316.73126 226.47952 316.73126Q227.22952 316.73126 227.76077 316.15314Q228.29202 315.575 228.29202 314.6375Q228.29202 313.73126 227.7764 313.21564Q227.2764 312.6844 226.44827 312.6844Q225.94827 312.6844 225.5264 312.91876Q225.12015 313.15314 224.88577 313.5125L223.9014 313.3875L224.72952 308.98126L229.01077 308.98126L229.01077 309.98126L225.57327 309.98126L225.12015 312.29376Q225.88577 311.7469 226.72952 311.7469Q227.85452 311.7469 228.62015 312.52814Q229.4014 313.3094 229.4014 314.54376Q229.4014 315.7 228.72952 316.5594Q227.9014 317.59064 226.47952 317.59064Q225.30765 317.59064 224.55765 316.9344Q223.82327 316.27814 223.7139 315.2Z" fill-rule="nonzero"/><path fill="#000000" d="M278.15384 316.4344L278.15384 317.45L272.46634 317.45Q272.46634 317.075 272.59134 316.71564Q272.8101 316.1375 273.27884 315.575Q273.7632 315.0125 274.66946 314.27814Q276.0757 313.1219 276.5601 312.45Q277.0601 311.77814 277.0601 311.1844Q277.0601 310.5594 276.60696 310.1375Q276.15384 309.7 275.4351 309.7Q274.66946 309.7 274.21634 310.15314Q273.7632 310.60626 273.7476 311.41876L272.66946 311.3094Q272.77884 310.09064 273.4976 309.46564Q274.23196 308.825 275.46634 308.825Q276.7007 308.825 277.41946 309.5125Q278.1382 310.2 278.1382 311.21564Q278.1382 311.73126 277.91946 312.23126Q277.71634 312.71564 277.21634 313.27814Q276.73196 313.825 275.60696 314.77814Q274.65384 315.575 274.3726 315.8719Q274.10696 316.15314 273.9351 316.4344L278.15384 316.4344Z" fill-rule="nonzero"/><path fill="#000000" d="M327.04688 316.4344L327.04688 317.45L321.35938 317.45Q321.35938 317.075 321.48438 316.71564Q321.70312 316.1375 322.17188 315.575Q322.65625 315.0125 323.5625 314.27814Q324.96875 313.1219 325.45312 312.45Q325.95312 311.77814 325.95312 311.1844Q325.95312 310.5594 325.5 310.1375Q325.04688 309.7 324.32812 309.7Q323.5625 309.7 323.10938 310.15314Q322.65625 310.60626 322.64062 311.41876L321.5625 311.3094Q321.67188 310.09064 322.39062 309.46564Q323.125 308.825 324.35938 308.825Q325.59375 308.825 326.3125 309.5125Q327.03125 310.2 327.03125 311.21564Q327.03125 311.73126 326.8125 312.23126Q326.60938 312.71564 326.10938 313.27814Q325.625 313.825 324.5 314.77814Q323.54688 315.575 323.26562 315.8719Q323.0 316.15314 322.82812 316.4344L327.04688 316.4344ZM329.0625 317.45L329.0625 316.2469L330.26562 316.2469L330.26562 317.45Q330.26562 318.10626 330.03125 318.5125Q329.79688 318.9344 329.29688 319.15314L329.0 318.7Q329.32812 318.5594 329.48438 318.2625Q329.64062 317.98126 329.67188 317.45L329.0625 317.45ZM331.5 315.2L332.60938 315.10626Q332.73438 315.91876 333.17188 316.325Q333.625 316.73126 334.26562 316.73126Q335.01562 316.73126 335.54688 316.15314Q336.07812 315.575 336.07812 314.6375Q336.07812 313.73126 335.5625 313.21564Q335.0625 312.6844 334.23438 312.6844Q333.73438 312.6844 333.3125 312.91876Q332.90625 313.15314 332.67188 313.5125L331.6875 313.3875L332.51562 308.98126L336.79688 308.98126L336.79688 309.98126L333.35938 309.98126L332.90625 312.29376Q333.67188 311.7469 334.51562 311.7469Q335.64062 311.7469 336.40625 312.52814Q337.1875 313.3094 337.1875 314.54376Q337.1875 315.7 336.51562 316.5594Q335.6875 317.59064 334.26562 317.59064Q333.09375 317.59064 332.34375 316.9344Q331.60938 316.27814 331.5 315.2Z" fill-rule="nonzero"/><path fill="#000000" d="M380.39304 315.1844L381.45554 315.04376Q381.6274 315.9344 382.0649 316.34064Q382.5024 316.73126 383.1274 316.73126Q383.8774 316.73126 384.39304 316.21564Q384.90866 315.7 384.90866 314.9344Q384.90866 314.21564 384.4243 313.7469Q383.95554 313.2625 383.22116 313.2625Q382.9243 313.2625 382.47116 313.3875L382.59616 312.45Q382.70554 312.46564 382.76804 312.46564Q383.4399 312.46564 383.97116 312.1219Q384.51804 311.7625 384.51804 311.02814Q384.51804 310.45 384.1274 310.075Q383.7368 309.6844 383.1118 309.6844Q382.5024 309.6844 382.08054 310.075Q381.6743 310.46564 381.5649 311.23126L380.5024 311.04376Q380.6899 309.9969 381.3774 309.41876Q382.0649 308.825 383.08054 308.825Q383.78366 308.825 384.3774 309.1375Q384.97116 309.4344 385.28366 309.95Q385.59616 310.46564 385.59616 311.0594Q385.59616 311.60626 385.2993 312.075Q385.0024 312.52814 384.4243 312.79376Q385.1743 312.96564 385.59616 313.52814Q386.01804 314.075 386.01804 314.91876Q386.01804 316.04376 385.1899 316.825Q384.3774 317.60626 383.1274 317.60626Q382.0024 317.60626 381.2524 316.9344Q380.5024 316.2469 380.39304 315.1844Z" fill-rule="nonzero"/><path fill="#000000" d="M429.2861 315.1844L430.3486 315.04376Q430.52048 315.9344 430.95798 316.34064Q431.39548 316.73126 432.02048 316.73126Q432.77048 316.73126 433.2861 316.21564Q433.80173 315.7 433.80173 314.9344Q433.80173 314.21564 433.31735 313.7469Q432.8486 313.2625 432.11423 313.2625Q431.81735 313.2625 431.36423 313.3875L431.48923 312.45Q431.5986 312.46564 431.6611 312.46564Q432.33298 312.46564 432.86423 312.1219Q433.4111 311.7625 433.4111 311.02814Q433.4111 310.45 433.02048 310.075Q432.62985 309.6844 432.00485 309.6844Q431.39548 309.6844 430.9736 310.075Q430.56735 310.46564 430.45798 311.23126L429.39548 311.04376Q429.58298 309.9969 430.27048 309.41876Q430.95798 308.825 431.9736 308.825Q432.67673 308.825 433.27048 309.1375Q433.86423 309.4344 434.17673 309.95Q434.48923 310.46564 434.48923 311.0594Q434.48923 311.60626 434.19235 312.075Q433.89548 312.52814 433.31735 312.79376Q434.06735 312.96564 434.48923 313.52814Q434.9111 314.075 434.9111 314.91876Q434.9111 316.04376 434.08298 316.825Q433.27048 317.60626 432.02048 317.60626Q430.89548 317.60626 430.14548 316.9344Q429.39548 316.2469 429.2861 315.1844ZM436.8486 317.45L436.8486 316.2469L438.05173 316.2469L438.05173 317.45Q438.05173 318.10626 437.81735 318.5125Q437.58298 318.9344 437.08298 319.15314L436.7861 318.7Q437.11423 318.5594 437.27048 318.2625Q437.42673 317.98126 437.45798 317.45L436.8486 317.45ZM439.2861 315.2L440.39548 315.10626Q440.52048 315.91876 440.95798 316.325Q441.4111 316.73126 442.05173 316.73126Q442.80173 316.73126 443.33298 316.15314Q443.86423 315.575 443.86423 314.6375Q443.86423 313.73126 443.3486 313.21564Q442.8486 312.6844 442.02048 312.6844Q441.52048 312.6844 441.0986 312.91876Q440.69235 313.15314 440.45798 313.5125L439.4736 313.3875L440.30173 308.98126L444.58298 308.98126L444.58298 309.98126L441.14548 309.98126L440.69235 312.29376Q441.45798 311.7469 442.30173 311.7469Q443.42673 311.7469 444.19235 312.52814Q444.9736 313.3094 444.9736 314.54376Q444.9736 315.7 444.30173 316.5594Q443.4736 317.59064 442.05173 317.59064Q440.87985 317.59064 440.12985 316.9344Q439.39548 316.27814 439.2861 315.2Z" fill-rule="nonzero"/><path fill="#000000" d="M491.55414 317.45L491.55414 315.3875L487.8354 315.3875L487.8354 314.41876L491.75726 308.85626L492.61664 308.85626L492.61664 314.41876L493.7729 314.41876L493.7729 315.3875L492.61664 315.3875L492.61664 317.45L491.55414 317.45ZM491.55414 314.41876L491.55414 310.5594L488.86664 314.41876L491.55414 314.41876Z" fill-rule="nonzero"/><path fill="#000000" d="M540.4472 317.45L540.4472 315.3875L536.72845 315.3875L536.72845 314.41876L540.6503 308.85626L541.5097 308.85626L541.5097 314.41876L542.66595 314.41876L542.66595 315.3875L541.5097 315.3875L541.5097 317.45L540.4472 317.45ZM540.4472 314.41876L540.4472 310.5594L537.7597 314.41876L540.4472 314.41876ZM544.6347 317.45L544.6347 316.2469L545.8378 316.2469L545.8378 317.45Q545.8378 318.10626 545.60345 318.5125Q545.3691 318.9344 544.8691 319.15314L544.5722 318.7Q544.9003 318.5594 545.0566 318.2625Q545.2128 317.98126 545.2441 317.45L544.6347 317.45ZM547.0722 315.2L548.1816 315.10626Q548.3066 315.91876 548.7441 316.325Q549.1972 316.73126 549.8378 316.73126Q550.5878 316.73126 551.1191 316.15314Q551.6503 315.575 551.6503 314.6375Q551.6503 313.73126 551.1347 313.21564Q550.6347 312.6844 549.8066 312.6844Q549.3066 312.6844 548.8847 312.91876Q548.47845 313.15314 548.2441 313.5125L547.2597 313.3875L548.0878 308.98126L552.3691 308.98126L552.3691 309.98126L548.9316 309.98126L548.47845 312.29376Q549.2441 311.7469 550.0878 311.7469Q551.2128 311.7469 551.97845 312.52814Q552.7597 313.3094 552.7597 314.54376Q552.7597 315.7 552.0878 316.5594Q551.2597 317.59064 549.8378 317.59064Q548.66595 317.59064 547.91595 316.9344Q547.1816 316.27814 547.0722 315.2Z" fill-rule="nonzero"/><path fill="#757575" d="M135.10938 37.55L135.10938 23.2375L137.0 23.2375L137.0 29.1125L144.4375 29.1125L144.4375 23.2375L146.32812 23.2375L146.32812 37.55L144.4375 37.55L144.4375 30.8L137.0 30.8L137.0 37.55L135.10938 37.55ZM147.82812 25.253124L147.82812 23.2375L149.59375 23.2375L149.59375 25.253124L147.82812 25.253124ZM147.82812 37.55L147.82812 27.175L149.59375 27.175L149.59375 37.55L147.82812 37.55ZM151.10938 34.45625L152.85938 34.175Q153.0 35.221874 153.67188 35.784374Q154.34375 36.33125 155.54688 36.33125Q156.75 36.33125 157.32812 35.846874Q157.92188 35.346874 157.92188 34.690624Q157.92188 34.096874 157.40625 33.753124Q157.04688 33.51875 155.60938 33.159374Q153.67188 32.659374 152.92188 32.315624Q152.1875 31.95625 151.79688 31.33125Q151.40625 30.690624 151.40625 29.925Q151.40625 29.2375 151.71875 28.64375Q152.04688 28.05 152.59375 27.659374Q153.0 27.3625 153.70312 27.159374Q154.42188 26.940624 155.23438 26.940624Q156.45312 26.940624 157.375 27.3Q158.29688 27.64375 158.73438 28.253124Q159.17188 28.846874 159.34375 29.846874L157.625 30.08125Q157.5 29.284374 156.9375 28.846874Q156.375 28.39375 155.35938 28.39375Q154.14062 28.39375 153.625 28.8Q153.10938 29.190624 153.10938 29.721874Q153.10938 30.065624 153.32812 30.346874Q153.53125 30.628124 154.0 30.815624Q154.26562 30.909374 155.54688 31.253124Q157.42188 31.753124 158.15625 32.08125Q158.89062 32.39375 159.3125 33.003124Q159.73438 33.596874 159.73438 34.503124Q159.73438 35.378124 159.21875 36.159374Q158.70312 36.940624 157.73438 37.3625Q156.76562 37.784374 155.54688 37.784374Q153.53125 37.784374 152.46875 36.940624Q151.40625 36.096874 151.10938 34.45625ZM165.65625 35.971874L165.90625 37.534374Q165.17188 37.690624 164.57812 37.690624Q163.625 37.690624 163.09375 37.39375Q162.57812 37.08125 162.35938 36.596874Q162.14062 36.096874 162.14062 34.51875L162.14062 28.55L160.85938 28.55L160.85938 27.175L162.14062 27.175L162.14062 24.6125L163.89062 23.55L163.89062 27.175L165.65625 27.175L165.65625 28.55L163.89062 28.55L163.89062 34.6125Q163.89062 35.3625 163.98438 35.58125Q164.07812 35.784374 164.28125 35.925Q164.5 36.05 164.89062 36.05Q165.17188 36.05 165.65625 35.971874ZM167.17188 32.3625Q167.17188 29.4875 168.76562 28.096874Q170.10938 26.940624 172.03125 26.940624Q174.17188 26.940624 175.51562 28.346874Q176.875 29.753124 176.875 32.221874Q176.875 34.221874 176.28125 35.378124Q175.6875 36.51875 174.53125 37.159374Q173.39062 37.784374 172.03125 37.784374Q169.84375 37.784374 168.5 36.39375Q167.17188 34.9875 167.17188 32.3625ZM168.96875 32.3625Q168.96875 34.3625 169.82812 35.346874Q170.70312 36.33125 172.03125 36.33125Q173.34375 36.33125 174.20312 35.346874Q175.07812 34.346874 175.07812 32.3Q175.07812 30.378124 174.20312 29.39375Q173.32812 28.39375 172.03125 28.39375Q170.70312 28.39375 169.82812 29.39375Q168.96875 30.378124 168.96875 32.3625ZM178.5 38.409374L180.20312 38.659374Q180.3125 39.45625 180.79688 39.815624Q181.45312 40.3 182.59375 40.3Q183.8125 40.3 184.46875 39.815624Q185.14062 39.33125 185.375 38.45625Q185.51562 37.909374 185.5 36.190624Q184.34375 37.55 182.625 37.55Q180.48438 37.55 179.3125 36.003124Q178.14062 34.45625 178.14062 32.3Q178.14062 30.815624 178.67188 29.565624Q179.21875 28.315624 180.23438 27.628124Q181.26562 26.940624 182.64062 26.940624Q184.46875 26.940624 185.67188 28.425L185.67188 27.175L187.28125 27.175L187.28125 36.14375Q187.28125 38.565624 186.78125 39.565624Q186.29688 40.58125 185.21875 41.159374Q184.15625 41.753124 182.59375 41.753124Q180.75 41.753124 179.59375 40.925Q178.45312 40.096874 178.5 38.409374ZM179.95312 32.175Q179.95312 34.221874 180.76562 35.159374Q181.57812 36.096874 182.79688 36.096874Q184.0 36.096874 184.8125 35.159374Q185.64062 34.221874 185.64062 32.2375Q185.64062 30.33125 184.79688 29.3625Q183.95312 28.39375 182.76562 28.39375Q181.59375 28.39375 180.76562 29.346874Q179.95312 30.3 179.95312 32.175ZM189.79688 37.55L189.79688 27.175L191.375 27.175L191.375 28.753124Q191.98438 27.64375 192.5 27.3Q193.01562 26.940624 193.625 26.940624Q194.51562 26.940624 195.4375 27.503124L194.82812 29.14375Q194.1875 28.753124 193.54688 28.753124Q192.96875 28.753124 192.5 29.1125Q192.04688 29.45625 191.84375 30.065624Q191.5625 31.003124 191.5625 32.1125L191.5625 37.55L189.79688 37.55ZM203.59375 36.26875Q202.60938 37.096874 201.70312 37.440624Q200.79688 37.784374 199.76562 37.784374Q198.0625 37.784374 197.14062 36.95625Q196.21875 36.1125 196.21875 34.815624Q196.21875 34.05 196.5625 33.425Q196.92188 32.8 197.48438 32.425Q198.04688 32.034374 198.75 31.83125Q199.26562 31.70625 200.3125 31.565624Q202.4375 31.315624 203.4375 30.971874Q203.45312 30.6125 203.45312 30.503124Q203.45312 29.440624 202.95312 28.9875Q202.28125 28.39375 200.95312 28.39375Q199.70312 28.39375 199.10938 28.83125Q198.53125 29.26875 198.25 30.378124L196.53125 30.14375Q196.76562 29.034374 197.29688 28.3625Q197.82812 27.675 198.84375 27.315624Q199.85938 26.940624 201.20312 26.940624Q202.53125 26.940624 203.35938 27.253124Q204.1875 27.565624 204.57812 28.05Q204.96875 28.51875 205.125 29.2375Q205.21875 29.690624 205.21875 30.8625L205.21875 33.20625Q205.21875 35.659374 205.32812 36.315624Q205.4375 36.95625 205.78125 37.55L203.9375 37.55Q203.67188 37.003124 203.59375 36.26875ZM203.4375 32.346874Q202.48438 32.7375 200.5625 33.003124Q199.48438 33.159374 199.03125 33.3625Q198.59375 33.55 198.34375 33.925Q198.09375 34.3 198.09375 34.76875Q198.09375 35.471874 198.625 35.940624Q199.15625 36.409374 200.1875 36.409374Q201.20312 36.409374 201.98438 35.971874Q202.78125 35.51875 203.15625 34.753124Q203.4375 34.14375 203.4375 32.9875L203.4375 32.346874ZM207.8125 37.55L207.8125 27.175L209.39062 27.175L209.39062 28.628124Q209.875 27.878124 210.6875 27.409374Q211.5 26.940624 212.53125 26.940624Q213.6875 26.940624 214.42188 27.425Q215.15625 27.89375 215.46875 28.753124Q216.70312 26.940624 218.67188 26.940624Q220.21875 26.940624 221.04688 27.8Q221.875 28.659374 221.875 30.425L221.875 37.55L220.125 37.55L220.125 31.01875Q220.125 29.95625 219.95312 29.503124Q219.78125 29.034374 219.32812 28.753124Q218.89062 28.471874 218.28125 28.471874Q217.1875 28.471874 216.45312 29.20625Q215.73438 29.925 215.73438 31.51875L215.73438 37.55L213.98438 37.55L213.98438 30.815624Q213.98438 29.64375 213.54688 29.065624Q213.125 28.471874 212.14062 28.471874Q211.40625 28.471874 210.76562 28.8625Q210.14062 29.253124 209.85938 30.003124Q209.57812 30.753124 209.57812 32.175L209.57812 37.55L207.8125 37.55ZM223.8125 37.55L223.8125 27.175L225.39062 27.175L225.39062 28.628124Q225.875 27.878124 226.6875 27.409374Q227.5 26.940624 228.53125 26.940624Q229.6875 26.940624 230.42188 27.425Q231.15625 27.89375 231.46875 28.753124Q232.70312 26.940624 234.67188 26.940624Q236.21875 26.940624 237.04688 27.8Q237.875 28.659374 237.875 30.425L237.875 37.55L236.125 37.55L236.125 31.01875Q236.125 29.95625 235.95312 29.503124Q235.78125 29.034374 235.32812 28.753124Q234.89062 28.471874 234.28125 28.471874Q233.1875 28.471874 232.45312 29.20625Q231.73438 29.925 231.73438 31.51875L231.73438 37.55L229.98438 37.55L229.98438 30.815624Q229.98438 29.64375 229.54688 29.065624Q229.125 28.471874 228.14062 28.471874Q227.40625 28.471874 226.76562 28.8625Q226.14062 29.253124 225.85938 30.003124Q225.57812 30.753124 225.57812 32.175L225.57812 37.55L223.8125 37.55ZM246.92188 34.20625L248.73438 34.440624Q248.3125 36.01875 247.14062 36.909374Q245.98438 37.784374 244.17188 37.784374Q241.90625 37.784374 240.5625 36.39375Q239.23438 34.9875 239.23438 32.45625Q239.23438 29.83125 240.57812 28.39375Q241.92188 26.940624 244.07812 26.940624Q246.15625 26.940624 247.46875 28.3625Q248.79688 29.76875 248.79688 32.346874Q248.79688 32.503124 248.78125 32.815624L241.04688 32.815624Q241.14062 34.51875 242.01562 35.425Q242.89062 36.33125 244.1875 36.33125Q245.15625 36.33125 245.82812 35.83125Q246.51562 35.315624 246.92188 34.20625ZM241.14062 31.3625L246.9375 31.3625Q246.82812 30.065624 246.28125 29.409374Q245.4375 28.39375 244.09375 28.39375Q242.89062 28.39375 242.0625 29.20625Q241.23438 30.003124 241.14062 31.3625ZM255.46875 37.55L260.96875 23.2375L263.01562 23.2375L268.875 37.55L266.71875 37.55L265.04688 33.20625L259.0625 33.20625L257.48438 37.55L255.46875 37.55ZM259.60938 31.675L264.45312 31.675L262.96875 27.70625Q262.28125 25.89375 261.95312 24.7375Q261.67188 26.1125 261.17188 27.471874L259.60938 31.675ZM269.82812 25.253124L269.82812 23.2375L271.59375 23.2375L271.59375 25.253124L269.82812 25.253124ZM269.82812 37.55L269.82812 27.175L271.59375 27.175L271.59375 37.55L269.82812 37.55ZM273.79688 37.55L273.79688 27.175L275.375 27.175L275.375 28.753124Q275.98438 27.64375 276.5 27.3Q277.01562 26.940624 277.625 26.940624Q278.51562 26.940624 279.4375 27.503124L278.82812 29.14375Q278.1875 28.753124 277.54688 28.753124Q276.96875 28.753124 276.5 29.1125Q276.04688 29.45625 275.84375 30.065624Q275.5625 31.003124 275.5625 32.1125L275.5625 37.55L273.79688 37.55ZM287.92188 34.20625L289.73438 34.440624Q289.3125 36.01875 288.14062 36.909374Q286.98438 37.784374 285.17188 37.784374Q282.90625 37.784374 281.5625 36.39375Q280.23438 34.9875 280.23438 32.45625Q280.23438 29.83125 281.57812 28.39375Q282.92188 26.940624 285.07812 26.940624Q287.15625 26.940624 288.46875 28.3625Q289.79688 29.76875 289.79688 32.346874Q289.79688 32.503124 289.78125 32.815624L282.04688 32.815624Q282.14062 34.51875 283.01562 35.425Q283.89062 36.33125 285.1875 36.33125Q286.15625 36.33125 286.82812 35.83125Q287.51562 35.315624 287.92188 34.20625ZM282.14062 31.3625L287.9375 31.3625Q287.82812 30.065624 287.28125 29.409374Q286.4375 28.39375 285.09375 28.39375Q283.89062 28.39375 283.0625 29.20625Q282.23438 30.003124 282.14062 31.3625ZM291.10938 34.45625L292.85938 34.175Q293.0 35.221874 293.67188 35.784374Q294.34375 36.33125 295.54688 36.33125Q296.75 36.33125 297.32812 35.846874Q297.92188 35.346874 297.92188 34.690624Q297.92188 34.096874 297.40625 33.753124Q297.04688 33.51875 295.60938 33.159374Q293.67188 32.659374 292.92188 32.315624Q292.1875 31.95625 291.79688 31.33125Q291.40625 30.690624 291.40625 29.925Q291.40625 29.2375 291.71875 28.64375Q292.04688 28.05 292.59375 27.659374Q293.0 27.3625 293.70312 27.159374Q294.42188 26.940624 295.23438 26.940624Q296.45312 26.940624 297.375 27.3Q298.29688 27.64375 298.73438 28.253124Q299.17188 28.846874 299.34375 29.846874L297.625 30.08125Q297.5 29.284374 296.9375 28.846874Q296.375 28.39375 295.35938 28.39375Q294.14062 28.39375 293.625 28.8Q293.10938 29.190624 293.10938 29.721874Q293.10938 30.065624 293.32812 30.346874Q293.53125 30.628124 294.0 30.815624Q294.26562 30.909374 295.54688 31.253124Q297.42188 31.753124 298.15625 32.08125Q298.89062 32.39375 299.3125 33.003124Q299.73438 33.596874 299.73438 34.503124Q299.73438 35.378124 299.21875 36.159374Q298.70312 36.940624 297.73438 37.3625Q296.76562 37.784374 295.54688 37.784374Q293.53125 37.784374 292.46875 36.940624Q291.40625 36.096874 291.10938 34.45625ZM307.8125 37.55L307.8125 27.175L309.39062 27.175L309.39062 28.628124Q309.875 27.878124 310.6875 27.409374Q311.5 26.940624 312.53125 26.940624Q313.6875 26.940624 314.42188 27.425Q315.15625 27.89375 315.46875 28.753124Q316.70312 26.940624 318.67188 26.940624Q320.21875 26.940624 321.04688 27.8Q321.875 28.659374 321.875 30.425L321.875 37.55L320.125 37.55L320.125 31.01875Q320.125 29.95625 319.95312 29.503124Q319.78125 29.034374 319.32812 28.753124Q318.89062 28.471874 318.28125 28.471874Q317.1875 28.471874 316.45312 29.20625Q315.73438 29.925 315.73438 31.51875L315.73438 37.55L313.98438 37.55L313.98438 30.815624Q313.98438 29.64375 313.54688 29.065624Q313.125 28.471874 312.14062 28.471874Q311.40625 28.471874 310.76562 28.8625Q310.14062 29.253124 309.85938 30.003124Q309.57812 30.753124 309.57812 32.175L309.57812 37.55L307.8125 37.55ZM323.17188 32.3625Q323.17188 29.4875 324.76562 28.096874Q326.10938 26.940624 328.03125 26.940624Q330.17188 26.940624 331.51562 28.346874Q332.875 29.753124 332.875 32.221874Q332.875 34.221874 332.28125 35.378124Q331.6875 36.51875 330.53125 37.159374Q329.39062 37.784374 328.03125 37.784374Q325.84375 37.784374 324.5 36.39375Q323.17188 34.9875 323.17188 32.3625ZM324.96875 32.3625Q324.96875 34.3625 325.82812 35.346874Q326.70312 36.33125 328.03125 36.33125Q329.34375 36.33125 330.20312 35.346874Q331.07812 34.346874 331.07812 32.3Q331.07812 30.378124 330.20312 29.39375Q329.32812 28.39375 328.03125 28.39375Q326.70312 28.39375 325.82812 29.39375Q324.96875 30.378124 324.96875 32.3625ZM334.73438 41.55L334.54688 39.89375Q335.125 40.05 335.54688 40.05Q336.14062 40.05 336.48438 39.846874Q336.84375 39.659374 337.0625 39.315624Q337.23438 39.05 337.60938 38.003124Q337.65625 37.846874 337.76562 37.565624L333.82812 27.175L335.71875 27.175L337.875 33.190624Q338.29688 34.33125 338.625 35.58125Q338.9375 34.378124 339.34375 33.221874L341.5625 27.175L343.32812 27.175L339.375 37.721874Q338.75 39.440624 338.39062 40.08125Q337.92188 40.95625 337.3125 41.346874Q336.71875 41.753124 335.875 41.753124Q335.35938 41.753124 334.73438 41.55ZM351.92188 34.20625L353.73438 34.440624Q353.3125 36.01875 352.14062 36.909374Q350.98438 37.784374 349.17188 37.784374Q346.90625 37.784374 345.5625 36.39375Q344.23438 34.9875 344.23438 32.45625Q344.23438 29.83125 345.57812 28.39375Q346.92188 26.940624 349.07812 26.940624Q351.15625 26.940624 352.46875 28.3625Q353.79688 29.76875 353.79688 32.346874Q353.79688 32.503124 353.78125 32.815624L346.04688 32.815624Q346.14062 34.51875 347.01562 35.425Q347.89062 36.33125 349.1875 36.33125Q350.15625 36.33125 350.82812 35.83125Q351.51562 35.315624 351.92188 34.20625ZM346.14062 31.3625L351.9375 31.3625Q351.82812 30.065624 351.28125 29.409374Q350.4375 28.39375 349.09375 28.39375Q347.89062 28.39375 347.0625 29.20625Q346.23438 30.003124 346.14062 31.3625ZM355.8125 37.55L355.8125 27.175L357.40625 27.175L357.40625 28.659374Q358.54688 26.940624 360.70312 26.940624Q361.64062 26.940624 362.42188 27.284374Q363.21875 27.6125 363.60938 28.159374Q364.0 28.70625 364.15625 29.45625Q364.25 29.95625 364.25 31.175L364.25 37.55L362.48438 37.55L362.48438 31.2375Q362.48438 30.159374 362.28125 29.628124Q362.07812 29.096874 361.54688 28.784374Q361.03125 28.471874 360.32812 28.471874Q359.20312 28.471874 358.39062 29.190624Q357.57812 29.89375 357.57812 31.878124L357.57812 37.55L355.8125 37.55ZM371.14062 33.253124L371.14062 31.4875L376.53125 31.4875L376.53125 33.253124L371.14062 33.253124ZM391.75 31.940624L391.75 30.253124L397.8125 30.2375L397.8125 35.55Q396.40625 36.675 394.92188 37.2375Q393.4375 37.8 391.875 37.8Q389.76562 37.8 388.04688 36.89375Q386.32812 35.9875 385.4375 34.284374Q384.5625 32.565624 384.5625 30.45625Q384.5625 28.3625 385.4375 26.565624Q386.3125 24.753124 387.95312 23.878124Q389.59375 22.9875 391.73438 22.9875Q393.28125 22.9875 394.53125 23.4875Q395.79688 23.9875 396.5 24.89375Q397.21875 25.784374 397.59375 27.2375L395.89062 27.70625Q395.5625 26.6125 395.07812 25.9875Q394.60938 25.3625 393.71875 24.9875Q392.82812 24.6125 391.75 24.6125Q390.4375 24.6125 389.48438 25.003124Q388.54688 25.39375 387.96875 26.05Q387.39062 26.690624 387.0625 27.45625Q386.51562 28.784374 386.51562 30.346874Q386.51562 32.253124 387.17188 33.55Q387.84375 34.83125 389.09375 35.45625Q390.35938 36.08125 391.76562 36.08125Q393.0 36.08125 394.17188 35.6125Q395.34375 35.14375 395.95312 34.596874L395.95312 31.940624L391.75 31.940624ZM400.79688 37.55L400.79688 27.175L402.375 27.175L402.375 28.753124Q402.98438 27.64375 403.5 27.3Q404.01562 26.940624 404.625 26.940624Q405.51562 26.940624 406.4375 27.503124L405.82812 29.14375Q405.1875 28.753124 404.54688 28.753124Q403.96875 28.753124 403.5 29.1125Q403.04688 29.45625 402.84375 30.065624Q402.5625 31.003124 402.5625 32.1125L402.5625 37.55L400.79688 37.55ZM407.82812 25.253124L407.82812 23.2375L409.59375 23.2375L409.59375 25.253124L407.82812 25.253124ZM407.82812 37.55L407.82812 27.175L409.59375 27.175L409.59375 37.55L407.82812 37.55ZM411.78125 37.55L411.78125 23.2375L413.53125 23.2375L413.53125 37.55L411.78125 37.55ZM415.78125 37.55L415.78125 23.2375L417.53125 23.2375L417.53125 37.55L415.78125 37.55ZM426.92188 34.20625L428.73438 34.440624Q428.3125 36.01875 427.14062 36.909374Q425.98438 37.784374 424.17188 37.784374Q421.90625 37.784374 420.5625 36.39375Q419.23438 34.9875 419.23438 32.45625Q419.23438 29.83125 420.57812 28.39375Q421.92188 26.940624 424.07812 26.940624Q426.15625 26.940624 427.46875 28.3625Q428.79688 29.76875 428.79688 32.346874Q428.79688 32.503124 428.78125 32.815624L421.04688 32.815624Q421.14062 34.51875 422.01562 35.425Q422.89062 36.33125 424.1875 36.33125Q425.15625 36.33125 425.82812 35.83125Q426.51562 35.315624 426.92188 34.20625ZM421.14062 31.3625L426.9375 31.3625Q426.82812 30.065624 426.28125 29.409374Q425.4375 28.39375 424.09375 28.39375Q422.89062 28.39375 422.0625 29.20625Q421.23438 30.003124 421.14062 31.3625ZM441.96875 37.55L441.96875 34.128124L435.75 34.128124L435.75 32.503124L442.28125 23.2375L443.71875 23.2375L443.71875 32.503124L445.65625 32.503124L445.65625 34.128124L443.71875 34.128124L443.71875 37.55L441.96875 37.55ZM441.96875 32.503124L441.96875 26.05L437.48438 32.503124L441.96875 32.503124ZM446.64062 37.55L450.4375 32.159374L446.9375 27.175L449.125 27.175L450.71875 29.6125Q451.17188 30.3 451.4375 30.76875Q451.875 30.128124 452.23438 29.628124L453.98438 27.175L456.07812 27.175L452.5 32.065624L456.35938 37.55L454.20312 37.55L452.0625 34.33125L451.5 33.45625L448.78125 37.55L446.64062 37.55ZM461.96875 37.55L461.96875 34.128124L455.75 34.128124L455.75 32.503124L462.28125 23.2375L463.71875 23.2375L463.71875 32.503124L465.65625 32.503124L465.65625 34.128124L463.71875 34.128124L463.71875 37.55L461.96875 37.55ZM461.96875 32.503124L461.96875 26.05L457.48438 32.503124L461.96875 32.503124Z" fill-rule="nonzero"/></svg>