<svg version="1.1" viewBox="0.0 0.0 600.0 371.0" fill="none" stroke="none" stroke-linecap="square" stroke-miterlimit="10" width="600" height="371" xmlns:xlink="http://www.w3.org/1999/xlink" xmlns="http://www.w3.org/2000/svg"><path fill="#ffffff" d="M0 0L600.0 0L600.0 371.0L0 371.0L0 0Z" fill-rule="nonzero"/><path stroke="#333333" stroke-width="1.0" stroke-linecap="butt" d="M77.5 300.5L581.5 300.5" fill-rule="nonzero"/><path stroke="#cccccc" stroke-width="1.0" stroke-linecap="butt" d="M77.5 260.5L581.5 260.5" fill-rule="nonzero"/><path stroke="#cccccc" stroke-width="1.0" stroke-linecap="butt" d="M77.5 220.5L581.5 220.5" fill-rule="nonzero"/><path stroke="#cccccc" stroke-width="1.0" stroke-linecap="butt" d="M77.5 181.5L581.5 181.5" fill-rule="nonzero"/><path stroke="#cccccc" stroke-width="1.0" stroke-linecap="butt" d="M77.5 141.5L581.5 141.5" fill-rule="nonzero"/><path stroke="#cccccc" stroke-width="1.0" stroke-linecap="butt" d="M77.5 101.5L581.5 101.5" fill-rule="nonzero"/><path stroke="#cccccc" stroke-width="1.0" stroke-linecap="butt" d="M77.5 61.5L581.5 61.5" fill-rule="nonzero"/><clipPath id="id_0"><path d="M77.55 61.916668L581.45 61.916668L581.45 300.45L77.55 300.45L77.55 61.916668Z" clip-rule="nonzero"/></clipPath><path stroke="#000000" stroke-width="2.0" stroke-linecap="butt" stroke-opacity="0.0" clip-path="url(#id_0)" d="M228.0 300.0L130.0 300.0L130.0 183.0C130.0 181.89543 130.89543 181.0 132.0 181.0L226.0 181.0C227.10457 181.0 228.0 181.89543 228.0 183.0Z" fill-rule="nonzero"/><path fill="#0000ff" clip-path="url(#id_0)" d="M228.0 300.0L130.0 300.0L130.0 183.0C130.0 181.89543 130.89543 181.0 132.0 181.0L226.0 181.0C227.10457 181.0 228.0 181.89543 228.0 183.0Z" fill-rule="nonzero"/><path stroke="#000000" stroke-width="2.0" stroke-linecap="butt" stroke-opacity="0.0" clip-path="url(#id_0)" d="M379.0 300.0L281.0 300.0L281.0 64.0C281.0 62.89543 281.89542 62.0 283.0 62.0L377.0 62.0C378.10458 62.0 379.0 62.89543 379.0 64.0Z" fill-rule="nonzero"/><path fill="#0000ff" clip-path="url(#id_0)" d="M379.0 300.0L281.0 300.0L281.0 64.0C281.0 62.89543 281.89542 62.0 283.0 62.0L377.0 62.0C378.10458 62.0 379.0 62.89543 379.0 64.0Z" fill-rule="nonzero"/><path stroke="#000000" stroke-width="2.0" stroke-linecap="butt" stroke-opacity="0.0" clip-path="url(#id_0)" d="M529.0 300.0L431.0 300.0L431.0 263.0C431.0 261.89542 431.89542 261.0 433.0 261.0L527.0 261.0C528.10455 261.0 529.0 261.89542 529.0 263.0Z" fill-rule="nonzero"/><path fill="#0000ff" clip-path="url(#id_0)" d="M529.0 300.0L431.0 300.0L431.0 263.0C431.0 261.89542 431.89542 261.0 433.0 261.0L527.0 261.0C528.10455 261.0 529.0 261.89542 529.0 263.0Z" fill-rule="nonzero"/><path stroke="#ffffff" stroke-width="3.0" stroke-linejoin="round" stroke-linecap="round" d="M180.46875 157.65208L180.46875 158.55833L180.26562 158.55833Q179.0 158.58958 178.25 159.32396Q177.5 160.04271 177.375 161.35521Q178.0625 160.58958 179.21875 160.58958Q180.32812 160.58958 181.0 161.37083Q181.67188 162.15208 181.67188 163.40208Q181.67188 164.71458 180.95312 165.51146Q180.23438 166.30833 179.01562 166.30833Q177.79688 166.30833 177.03125 165.37083Q176.28125 164.41771 176.28125 162.93333L176.28125 162.52708Q176.28125 160.16771 177.28125 158.91771Q178.28125 157.66771 180.26562 157.65208L180.46875 157.65208ZM179.04688 161.49583Q178.48438 161.49583 178.01562 161.82396Q177.54688 162.15208 177.35938 162.66771L177.35938 163.05833Q177.35938 164.12083 177.82812 164.76146Q178.3125 165.40208 179.01562 165.40208Q179.75 165.40208 180.17188 164.87083Q180.59375 164.32396 180.59375 163.44896Q180.59375 162.57396 180.17188 162.04271Q179.75 161.49583 179.04688 161.49583Z" fill-rule="nonzero"/><path fill="#0000ff" d="M180.46875 157.65208L180.46875 158.55833L180.26562 158.55833Q179.0 158.58958 178.25 159.32396Q177.5 160.04271 177.375 161.35521Q178.0625 160.58958 179.21875 160.58958Q180.32812 160.58958 181.0 161.37083Q181.67188 162.15208 181.67188 163.40208Q181.67188 164.71458 180.95312 165.51146Q180.23438 166.30833 179.01562 166.30833Q177.79688 166.30833 177.03125 165.37083Q176.28125 164.41771 176.28125 162.93333L176.28125 162.52708Q176.28125 160.16771 177.28125 158.91771Q178.28125 157.66771 180.26562 157.65208L180.46875 157.65208ZM179.04688 161.49583Q178.48438 161.49583 178.01562 161.82396Q177.54688 162.15208 177.35938 162.66771L177.35938 163.05833Q177.35938 164.12083 177.82812 164.76146Q178.3125 165.40208 179.01562 165.40208Q179.75 165.40208 180.17188 164.87083Q180.59375 164.32396 180.59375 163.44896Q180.59375 162.57396 180.17188 162.04271Q179.75 161.49583 179.04688 161.49583Z" fill-rule="nonzero"/><path stroke="#ffffff" stroke-width="3.0" stroke-linejoin="round" stroke-linecap="round" d="M327.26562 46.916668L326.1875 46.916668L326.1875 39.697918L324.0 40.494793L324.0 39.510418L327.10938 38.338543L327.26562 38.338543L327.26562 46.916668ZM336.29688 46.916668L330.70312 46.916668L330.70312 46.135418L333.65625 42.854168Q334.3125 42.104168 334.5625 41.651043Q334.8125 41.182293 334.8125 40.682293Q334.8125 40.010418 334.40625 39.588543Q334.01562 39.151043 333.32812 39.151043Q332.53125 39.151043 332.07812 39.619793Q331.625 40.072918 331.625 40.901043L330.54688 40.901043Q330.54688 39.713543 331.29688 38.994793Q332.0625 38.260418 333.32812 38.260418Q334.53125 38.260418 335.21875 38.885418Q335.90625 39.510418 335.90625 40.557293Q335.90625 41.807293 334.29688 43.557293L332.01562 46.026043L336.29688 46.026043L336.29688 46.916668Z" fill-rule="nonzero"/><path fill="#0000ff" d="M327.26562 46.916668L326.1875 46.916668L326.1875 39.697918L324.0 40.494793L324.0 39.510418L327.10938 38.338543L327.26562 38.338543L327.26562 46.916668ZM336.29688 46.916668L330.70312 46.916668L330.70312 46.135418L333.65625 42.854168Q334.3125 42.104168 334.5625 41.651043Q334.8125 41.182293 334.8125 40.682293Q334.8125 40.010418 334.40625 39.588543Q334.01562 39.151043 333.32812 39.151043Q332.53125 39.151043 332.07812 39.619793Q331.625 40.072918 331.625 40.901043L330.54688 40.901043Q330.54688 39.713543 331.29688 38.994793Q332.0625 38.260418 333.32812 38.260418Q334.53125 38.260418 335.21875 38.885418Q335.90625 39.510418 335.90625 40.557293Q335.90625 41.807293 334.29688 43.557293L332.01562 46.026043L336.29688 46.026043L336.29688 46.916668Z" fill-rule="nonzero"/><path stroke="#ffffff" stroke-width="3.0" stroke-linejoin="round" stroke-linecap="round" d="M482.79688 245.69444L477.20312 245.69444L477.20312 244.9132L480.15625 241.63194Q480.8125 240.88194 481.0625 240.42882Q481.3125 239.96007 481.3125 239.46007Q481.3125 238.7882 480.90625 238.36632Q480.51562 237.92882 479.82812 237.92882Q479.03125 237.92882 478.57812 238.39757Q478.125 238.8507 478.125 239.67882L477.04688 239.67882Q477.04688 238.49132 477.79688 237.77257Q478.5625 237.0382 479.82812 237.0382Q481.03125 237.0382 481.71875 237.6632Q482.40625 238.2882 482.40625 239.33507Q482.40625 240.58507 480.79688 242.33507L478.51562 244.80382L482.79688 244.80382L482.79688 245.69444Z" fill-rule="nonzero"/><path fill="#0000ff" d="M482.79688 245.69444L477.20312 245.69444L477.20312 244.9132L480.15625 241.63194Q480.8125 240.88194 481.0625 240.42882Q481.3125 239.96007 481.3125 239.46007Q481.3125 238.7882 480.90625 238.36632Q480.51562 237.92882 479.82812 237.92882Q479.03125 237.92882 478.57812 238.39757Q478.125 238.8507 478.125 239.67882L477.04688 239.67882Q477.04688 238.49132 477.79688 237.77257Q478.5625 237.0382 479.82812 237.0382Q481.03125 237.0382 481.71875 237.6632Q482.40625 238.2882 482.40625 239.33507Q482.40625 240.58507 480.79688 242.33507L478.51562 244.80382L482.79688 244.80382L482.79688 245.69444Z" fill-rule="nonzero"/><path fill="#000000" d="M318.98438 349.45L322.28125 340.85626L323.5 340.85626L327.01562 349.45L325.73438 349.45L324.71875 346.84064L321.14062 346.84064L320.1875 349.45L318.98438 349.45ZM321.46875 345.91876L324.375 345.91876L323.48438 343.54376Q323.0625 342.46564 322.875 341.7625Q322.70312 342.59064 322.40625 343.40314L321.46875 345.91876ZM326.79688 342.075L326.79688 340.85626L327.85938 340.85626L327.85938 342.075L326.79688 342.075ZM326.79688 349.45L326.79688 343.23126L327.85938 343.23126L327.85938 349.45L326.79688 349.45ZM329.78125 349.45L329.78125 343.23126L330.73438 343.23126L330.73438 344.16876Q331.09375 343.5125 331.39062 343.3094Q331.70312 343.09064 332.07812 343.09064Q332.60938 343.09064 333.15625 343.41876L332.79688 344.40314Q332.40625 344.16876 332.03125 344.16876Q331.67188 344.16876 331.39062 344.3875Q331.125 344.59064 331.01562 344.96564Q330.82812 345.52814 330.82812 346.1844L330.82812 349.45L329.78125 349.45ZM338.04688 347.45L339.14062 347.575Q338.89062 348.52814 338.1875 349.0594Q337.48438 349.59064 336.40625 349.59064Q335.04688 349.59064 334.23438 348.7469Q333.4375 347.90314 333.4375 346.3875Q333.4375 344.825 334.25 343.96564Q335.0625 343.09064 336.34375 343.09064Q337.59375 343.09064 338.375 343.9344Q339.17188 344.77814 339.17188 346.325Q339.17188 346.41876 339.17188 346.60626L334.53125 346.60626Q334.59375 347.6375 335.10938 348.1844Q335.625 348.71564 336.40625 348.71564Q336.98438 348.71564 337.39062 348.41876Q337.8125 348.10626 338.04688 347.45ZM334.59375 345.7469L338.0625 345.7469Q338.0 344.95 337.67188 344.5594Q337.15625 343.95 336.35938 343.95Q335.625 343.95 335.125 344.4344Q334.64062 344.91876 334.59375 345.7469Z" fill-rule="nonzero"/><path fill="#000000" d="M29.550013 239.76146L20.956263 239.76146L20.956263 238.60521L27.706263 234.08958L20.956263 234.08958L20.956263 232.99583L29.550013 232.99583L29.550013 234.16771L22.800013 238.68333L29.550013 238.68333L29.550013 239.76146ZM26.440638 231.27708Q24.706263 231.27708 23.878138 230.32396Q23.190638 229.52708 23.190638 228.37083Q23.190638 227.08958 24.034388 226.27708Q24.862513 225.44896 26.346888 225.44896Q27.550013 225.44896 28.237513 225.80833Q28.925013 226.16771 29.315638 226.87083Q29.690638 227.55833 29.690638 228.37083Q29.690638 229.66771 28.862513 230.48021Q28.018763 231.27708 26.440638 231.27708ZM26.440638 230.19896Q27.628138 230.19896 28.221888 229.68333Q28.815638 229.15208 28.815638 228.37083Q28.815638 227.57396 28.221888 227.05833Q27.628138 226.54271 26.409388 226.54271Q25.253138 226.54271 24.659388 227.07396Q24.065638 227.58958 24.065638 228.37083Q24.065638 229.15208 24.659388 229.68333Q25.237513 230.19896 26.440638 230.19896ZM29.550013 223.88646L23.331263 223.88646L23.331263 222.94896L24.206263 222.94896Q23.737513 222.65208 23.471888 222.16771Q23.190638 221.68333 23.190638 221.05833Q23.190638 220.37083 23.471888 219.93333Q23.753138 219.48021 24.268763 219.30833Q23.190638 218.55833 23.190638 217.38646Q23.190638 216.44896 23.706263 215.96458Q24.206263 215.46458 25.284388 215.46458L29.550013 215.46458L29.550013 216.51146L25.628138 216.51146Q25.003138 216.51146 24.721888 216.62083Q24.440638 216.71458 24.268763 216.98021Q24.096888 217.24583 24.096888 217.62083Q24.096888 218.27708 24.534388 218.71458Q24.971888 219.13646 25.940638 219.13646L29.550013 219.13646L29.550013 220.19896L25.503138 220.19896Q24.800013 220.19896 24.456263 220.46458Q24.096888 220.71458 24.096888 221.29271Q24.096888 221.74583 24.331263 222.12083Q24.565638 222.49583 25.018763 222.66771Q25.471888 222.83958 26.315638 222.83958L29.550013 222.83958L29.550013 223.88646ZM29.550013 211.91771L29.550013 212.90208L20.956263 212.90208L20.956263 211.83958L24.018763 211.83958Q23.190638 211.16771 23.190638 210.13646Q23.190638 209.55833 23.425013 209.05833Q23.643763 208.54271 24.065638 208.21458Q24.487513 207.87083 25.081263 207.68333Q25.675013 207.49583 26.346888 207.49583Q27.940638 207.49583 28.815638 208.29271Q29.690638 209.08958 29.690638 210.18333Q29.690638 211.29271 28.768763 211.91771L29.550013 211.91771ZM26.393763 211.93333Q27.503138 211.93333 28.003138 211.62083Q28.815638 211.12083 28.815638 210.27708Q28.815638 209.58958 28.221888 209.08958Q27.628138 208.57396 26.425013 208.57396Q25.206263 208.57396 24.628138 209.05833Q24.050013 209.54271 24.050013 210.23021Q24.050013 210.91771 24.659388 211.43333Q25.253138 211.93333 26.393763 211.93333ZM29.550013 205.90208L23.331263 205.90208L23.331263 204.94896L24.268763 204.94896Q23.612513 204.58958 23.409388 204.29271Q23.190638 203.98021 23.190638 203.60521Q23.190638 203.07396 23.518763 202.52708L24.503138 202.88646Q24.268763 203.27708 24.268763 203.65208Q24.268763 204.01146 24.487513 204.29271Q24.690638 204.55833 25.065638 204.66771Q25.628138 204.85521 26.284388 204.85521L29.550013 204.85521L29.550013 205.90208ZM27.550013 197.63646L27.675013 196.54271Q28.628138 196.79271 29.159388 197.49583Q29.690638 198.19896 29.690638 199.27708Q29.690638 200.63646 28.846888 201.44896Q28.003138 202.24583 26.487513 202.24583Q24.925013 202.24583 24.065638 201.43333Q23.190638 200.62083 23.190638 199.33958Q23.190638 198.08958 24.034388 197.30833Q24.878138 196.51146 26.425013 196.51146Q26.518763 196.51146 26.706263 196.51146L26.706263 201.15208Q27.737513 201.08958 28.284388 200.57396Q28.815638 200.05833 28.815638 199.27708Q28.815638 198.69896 28.518763 198.29271Q28.206263 197.87083 27.550013 197.63646ZM25.846888 201.08958L25.846888 197.62083Q25.050013 197.68333 24.659388 198.01146Q24.050013 198.52708 24.050013 199.32396Q24.050013 200.05833 24.534388 200.55833Q25.018763 201.04271 25.846888 201.08958ZM29.550013 187.85521L28.768763 187.85521Q29.690638 188.44896 29.690638 189.58958Q29.690638 190.33958 29.284388 190.96458Q28.862513 191.58958 28.128138 191.93333Q27.393763 192.27708 26.440638 192.27708Q25.518763 192.27708 24.753138 191.96458Q23.987513 191.65208 23.596888 191.02708Q23.190638 190.40208 23.190638 189.63646Q23.190638 189.07396 23.425013 188.63646Q23.659388 188.19896 24.034388 187.91771L20.956263 187.91771L20.956263 186.87083L29.550013 186.87083L29.550013 187.85521ZM26.440638 191.18333Q27.643763 191.18333 28.237513 190.68333Q28.815638 190.18333 28.815638 189.49583Q28.815638 188.80833 28.253138 188.32396Q27.690638 187.83958 26.534388 187.83958Q25.253138 187.83958 24.659388 188.33958Q24.065638 188.82396 24.065638 189.54271Q24.065638 190.24583 24.643763 190.71458Q25.206263 191.18333 26.440638 191.18333ZM27.550013 180.63646L27.675013 179.54271Q28.628138 179.79271 29.159388 180.49583Q29.690638 181.19896 29.690638 182.27708Q29.690638 183.63646 28.846888 184.44896Q28.003138 185.24583 26.487513 185.24583Q24.925013 185.24583 24.065638 184.43333Q23.190638 183.62083 23.190638 182.33958Q23.190638 181.08958 24.034388 180.30833Q24.878138 179.51146 26.425013 179.51146Q26.518763 179.51146 26.706263 179.51146L26.706263 184.15208Q27.737513 184.08958 28.284388 183.57396Q28.815638 183.05833 28.815638 182.27708Q28.815638 181.69896 28.518763 181.29271Q28.206263 180.87083 27.550013 180.63646ZM25.846888 184.08958L25.846888 180.62083Q25.050013 180.68333 24.659388 181.01146Q24.050013 181.52708 24.050013 182.32396Q24.050013 183.05833 24.534388 183.55833Q25.018763 184.04271 25.846888 184.08958ZM28.612513 172.58958L29.534388 172.43333Q29.628138 172.88646 29.628138 173.23021Q29.628138 173.80833 29.456263 174.12083Q29.268763 174.43333 28.971888 174.57396Q28.675013 174.69896 27.721888 174.69896L24.143763 174.69896L24.143763 175.46458L23.331263 175.46458L23.331263 174.69896L21.784388 174.69896L21.159388 173.65208L23.331263 173.65208L23.331263 172.58958L24.143763 172.58958L24.143763 173.65208L27.784388 173.65208Q28.237513 173.65208 28.362513 173.60521Q28.487513 173.54271 28.565638 173.41771Q28.643763 173.29271 28.643763 173.05833Q28.643763 172.87083 28.612513 172.58958ZM29.550013 171.90208L23.331263 171.90208L23.331263 170.94896L24.268763 170.94896Q23.612513 170.58958 23.409388 170.29271Q23.190638 169.98021 23.190638 169.60521Q23.190638 169.07396 23.518763 168.52708L24.503138 168.88646Q24.268763 169.27708 24.268763 169.65208Q24.268763 170.01146 24.487513 170.29271Q24.690638 170.55833 25.065638 170.66771Q25.628138 170.85521 26.284388 170.85521L29.550013 170.85521L29.550013 171.90208ZM22.175013 167.88646L20.956263 167.88646L20.956263 166.82396L22.175013 166.82396L22.175013 167.88646ZM29.550013 167.88646L23.331263 167.88646L23.331263 166.82396L29.550013 166.82396L29.550013 167.88646ZM28.784388 160.82396Q29.284388 161.41771 29.487513 161.96458Q29.690638 162.49583 29.690638 163.12083Q29.690638 164.15208 29.190638 164.69896Q28.690638 165.24583 27.909388 165.24583Q27.456263 165.24583 27.081263 165.04271Q26.690638 164.83958 26.471888 164.49583Q26.237513 164.15208 26.128138 163.73021Q26.034388 163.43333 25.956263 162.79271Q25.815638 161.52708 25.596888 160.91771Q25.378138 160.91771 25.331263 160.91771Q24.675013 160.91771 24.409388 161.21458Q24.065638 161.62083 24.065638 162.41771Q24.065638 163.15208 24.331263 163.51146Q24.581263 163.87083 25.237513 164.04271L25.096888 165.07396Q24.440638 164.93333 24.034388 164.60521Q23.628138 164.27708 23.409388 163.66771Q23.190638 163.05833 23.190638 162.26146Q23.190638 161.46458 23.378138 160.96458Q23.565638 160.46458 23.846888 160.23021Q24.128138 159.99583 24.565638 159.90208Q24.831263 159.85521 25.534388 159.85521L26.940638 159.85521Q28.409388 159.85521 28.800013 159.79271Q29.190638 159.71458 29.550013 159.51146L29.550013 160.62083Q29.221888 160.77708 28.784388 160.82396ZM26.425013 160.91771Q26.659388 161.49583 26.831263 162.63646Q26.925013 163.29271 27.050013 163.55833Q27.159388 163.82396 27.378138 163.98021Q27.596888 164.12083 27.878138 164.12083Q28.300013 164.12083 28.581263 163.80833Q28.862513 163.48021 28.862513 162.87083Q28.862513 162.26146 28.596888 161.79271Q28.331263 161.30833 27.862513 161.08958Q27.503138 160.91771 26.815638 160.91771L26.425013 160.91771ZM29.550013 157.88646L23.331263 157.88646L23.331263 156.94896L24.206263 156.94896Q23.190638 156.26146 23.190638 154.96458Q23.190638 154.40208 23.393763 153.93333Q23.596888 153.44896 23.925013 153.21458Q24.253138 152.98021 24.690638 152.88646Q24.987513 152.83958 25.721888 152.83958L29.550013 152.83958L29.550013 153.88646L25.768763 153.88646Q25.112513 153.88646 24.800013 154.01146Q24.487513 154.13646 24.300013 154.44896Q24.096888 154.76146 24.096888 155.18333Q24.096888 155.85521 24.534388 156.35521Q24.956263 156.83958 26.143763 156.83958L29.550013 156.83958L29.550013 157.88646ZM30.065638 151.08958L30.221888 150.05833Q30.690638 149.99583 30.909388 149.69896Q31.206263 149.30833 31.206263 148.63646Q31.206263 147.90208 30.909388 147.51146Q30.612513 147.10521 30.096888 146.96458Q29.768763 146.87083 28.737513 146.88646Q29.550013 147.57396 29.550013 148.60521Q29.550013 149.88646 28.628138 150.58958Q27.690638 151.29271 26.409388 151.29271Q25.518763 151.29271 24.768763 150.98021Q24.003138 150.65208 23.596888 150.04271Q23.190638 149.43333 23.190638 148.60521Q23.190638 147.49583 24.081263 146.77708L23.331263 146.77708L23.331263 145.80833L28.706263 145.80833Q30.159388 145.80833 30.768763 146.10521Q31.378138 146.40208 31.721888 147.04271Q32.08126 147.68333 32.08126 148.62083Q32.08126 149.73021 31.581263 150.41771Q31.081263 151.10521 30.065638 151.08958ZM26.331263 150.21458Q27.550013 150.21458 28.112513 149.73021Q28.675013 149.24583 28.675013 148.51146Q28.675013 147.77708 28.112513 147.29271Q27.550013 146.79271 26.362513 146.79271Q25.221888 146.79271 24.643763 147.30833Q24.065638 147.80833 24.065638 148.52708Q24.065638 149.23021 24.643763 149.73021Q25.206263 150.21458 26.331263 150.21458ZM29.550013 143.91771L20.956263 143.91771L20.956263 142.85521L29.550013 142.85521L29.550013 143.91771ZM27.550013 136.63646L27.675013 135.54271Q28.628138 135.79271 29.159388 136.49583Q29.690638 137.19896 29.690638 138.27708Q29.690638 139.63646 28.846888 140.44896Q28.003138 141.24583 26.487513 141.24583Q24.925013 141.24583 24.065638 140.43333Q23.190638 139.62083 23.190638 138.33958Q23.190638 137.08958 24.034388 136.30833Q24.878138 135.51146 26.425013 135.51146Q26.518763 135.51146 26.706263 135.51146L26.706263 140.15208Q27.737513 140.08958 28.284388 139.57396Q28.815638 139.05833 28.815638 138.27708Q28.815638 137.69896 28.518763 137.29271Q28.206263 136.87083 27.550013 136.63646ZM25.846888 140.08958L25.846888 136.62083Q25.050013 136.68333 24.659388 137.01146Q24.050013 137.52708 24.050013 138.32396Q24.050013 139.05833 24.534388 139.55833Q25.018763 140.04271 25.846888 140.08958Z" fill-rule="nonzero"/><path fill="#000000" d="M65.05 300.21564Q65.05 298.6844 65.3625 297.7625Q65.675 296.825 66.28438 296.325Q66.90938 295.825 67.84688 295.825Q68.53438 295.825 69.05 296.10626Q69.58125 296.3875 69.925 296.91876Q70.26875 297.4344 70.45625 298.1844Q70.64375 298.9344 70.64375 300.21564Q70.64375 301.73126 70.33125 302.65314Q70.03438 303.575 69.40938 304.09064Q68.8 304.59064 67.84688 304.59064Q66.6125 304.59064 65.89375 303.7Q65.05 302.6375 65.05 300.21564ZM66.12813 300.21564Q66.12813 302.325 66.62813 303.02814Q67.12813 303.73126 67.84688 303.73126Q68.58125 303.73126 69.06563 303.02814Q69.56563 302.325 69.56563 300.21564Q69.56563 298.09064 69.06563 297.40314Q68.58125 296.7 67.83125 296.7Q67.1125 296.7 66.675 297.3094Q66.12813 298.09064 66.12813 300.21564Z" fill-rule="nonzero"/><path fill="#000000" d="M70.59688 263.67883L70.59688 264.69446L64.90938 264.69446Q64.90938 264.31946 65.03438 263.96008Q65.25313 263.38196 65.72188 262.81946Q66.20625 262.25696 67.1125 261.52258Q68.51875 260.36633 69.00313 259.69446Q69.50313 259.02258 69.50313 258.42883Q69.50313 257.80383 69.05 257.38196Q68.59688 256.94446 67.87813 256.94446Q67.1125 256.94446 66.65938 257.39758Q66.20625 257.8507 66.19063 258.6632L65.1125 258.55383Q65.22188 257.33508 65.94063 256.71008Q66.675 256.06946 67.90938 256.06946Q69.14375 256.06946 69.8625 256.75696Q70.58125 257.44446 70.58125 258.46008Q70.58125 258.9757 70.3625 259.4757Q70.15938 259.96008 69.65938 260.52258Q69.175 261.06946 68.05 262.02258Q67.09688 262.81946 66.81563 263.11633Q66.55 263.39758 66.37813 263.67883L70.59688 263.67883Z" fill-rule="nonzero"/><path fill="#000000" d="M68.425 224.93889L68.425 222.87639L64.70625 222.87639L64.70625 221.90764L68.62813 216.34514L69.4875 216.34514L69.4875 221.90764L70.64375 221.90764L70.64375 222.87639L69.4875 222.87639L69.4875 224.93889L68.425 224.93889ZM68.425 221.90764L68.425 218.04826L65.7375 221.90764L68.425 221.90764Z" fill-rule="nonzero"/><path fill="#000000" d="M70.51875 178.69896L69.47188 178.77708Q69.33125 178.15208 69.08125 177.87083Q68.64375 177.41771 68.01875 177.41771Q67.51875 177.41771 67.12813 177.69896Q66.64375 178.07396 66.34688 178.77708Q66.06563 179.46458 66.05 180.74583Q66.425 180.16771 66.97188 179.88646Q67.53438 179.60521 68.14375 179.60521Q69.19063 179.60521 69.925 180.38646Q70.675 181.16771 70.675 182.38646Q70.675 183.19896 70.31563 183.90208Q69.97188 184.58958 69.3625 184.96458Q68.75313 185.32396 67.9875 185.32396Q66.65938 185.32396 65.83125 184.35521Q65.00313 183.38646 65.00313 181.16771Q65.00313 178.66771 65.925 177.54271Q66.72188 176.55833 68.08125 176.55833Q69.09688 176.55833 69.7375 177.13646Q70.39375 177.69896 70.51875 178.69896ZM66.22188 182.40208Q66.22188 182.94896 66.44063 183.44896Q66.675 183.93333 67.08125 184.19896Q67.50313 184.46458 67.97188 184.46458Q68.62813 184.46458 69.1125 183.93333Q69.59688 183.38646 69.59688 182.46458Q69.59688 181.57396 69.1125 181.05833Q68.64375 180.54271 67.925 180.54271Q67.20625 180.54271 66.70625 181.05833Q66.22188 181.57396 66.22188 182.40208Z" fill-rule="nonzero"/><path fill="#000000" d="M66.675 140.77153Q66.01875 140.52153 65.69063 140.08403Q65.37813 139.6309 65.37813 139.02153Q65.37813 138.08403 66.05 137.4434Q66.7375 136.80278 67.84688 136.80278Q68.97188 136.80278 69.65938 137.45903Q70.34688 138.11528 70.34688 139.05278Q70.34688 139.64653 70.03438 140.08403Q69.72188 140.52153 69.08125 140.77153Q69.87813 141.02153 70.28438 141.59966Q70.69063 142.17778 70.69063 142.97466Q70.69063 144.0684 69.90938 144.8184Q69.14375 145.5684 67.8625 145.5684Q66.59688 145.5684 65.81563 144.8184Q65.03438 144.0684 65.03438 142.9434Q65.03438 142.09966 65.45625 141.53716Q65.89375 140.97466 66.675 140.77153ZM66.45625 138.97466Q66.45625 139.58403 66.84688 139.97466Q67.25313 140.36528 67.87813 140.36528Q68.4875 140.36528 68.87813 139.99028Q69.26875 139.59966 69.26875 139.03716Q69.26875 138.45903 68.8625 138.0684Q68.45625 137.66216 67.8625 137.66216Q67.25313 137.66216 66.84688 138.05278Q66.45625 138.4434 66.45625 138.97466ZM66.12813 142.9434Q66.12813 143.39653 66.33125 143.8184Q66.55 144.24028 66.97188 144.47466Q67.39375 144.70903 67.87813 144.70903Q68.62813 144.70903 69.1125 144.22466Q69.6125 143.74028 69.6125 142.99028Q69.6125 142.22466 69.1125 141.72466Q68.6125 141.22466 67.84688 141.22466Q67.09688 141.22466 66.6125 141.72466Q66.12813 142.20903 66.12813 142.9434Z" fill-rule="nonzero"/><path fill="#000000" d="M62.01875 105.672226L60.971874 105.672226L60.971874 98.953476Q60.58125 99.31285 59.95625 99.68785Q59.346874 100.047226 58.8625 100.2191L58.8625 99.203476Q59.7375 98.7816 60.39375 98.203476Q61.065624 97.609726 61.346874 97.047226L62.01875 97.047226L62.01875 105.672226ZM65.05 101.43785Q65.05 99.9066 65.3625 98.984726Q65.675 98.047226 66.28438 97.547226Q66.90938 97.047226 67.84688 97.047226Q68.53438 97.047226 69.05 97.328476Q69.58125 97.609726 69.925 98.140976Q70.26875 98.6566 70.45625 99.4066Q70.64375 100.1566 70.64375 101.43785Q70.64375 102.953476 70.33125 103.87535Q70.03438 104.797226 69.40938 105.31285Q68.8 105.81285 67.84688 105.81285Q66.6125 105.81285 65.89375 104.922226Q65.05 103.859726 65.05 101.43785ZM66.12813 101.43785Q66.12813 103.547226 66.62813 104.25035Q67.12813 104.953476 67.84688 104.953476Q68.58125 104.953476 69.06563 104.25035Q69.56563 103.547226 69.56563 101.43785Q69.56563 99.31285 69.06563 98.62535Q68.58125 97.922226 67.83125 97.922226Q67.1125 97.922226 66.675 98.5316Q66.12813 99.31285 66.12813 101.43785Z" fill-rule="nonzero"/><path fill="#000000" d="M62.01875 65.916664L60.971874 65.916664L60.971874 59.197914Q60.58125 59.55729 59.95625 59.93229Q59.346874 60.291664 58.8625 60.46354L58.8625 59.447914Q59.7375 59.02604 60.39375 58.447914Q61.065624 57.854164 61.346874 57.291664L62.01875 57.291664L62.01875 65.916664ZM70.59688 64.90104L70.59688 65.916664L64.90938 65.916664Q64.90938 65.541664 65.03438 65.18229Q65.25313 64.604164 65.72188 64.041664Q66.20625 63.479164 67.1125 62.74479Q68.51875 61.58854 69.00313 60.916664Q69.50313 60.24479 69.50313 59.65104Q69.50313 59.02604 69.05 58.604164Q68.59688 58.166664 67.87813 58.166664Q67.1125 58.166664 66.65938 58.61979Q66.20625 59.072914 66.19063 59.885414L65.1125 59.77604Q65.22188 58.55729 65.94063 57.93229Q66.675 57.291664 67.90938 57.291664Q69.14375 57.291664 69.8625 57.979164Q70.58125 58.666664 70.58125 59.68229Q70.58125 60.197914 70.3625 60.697914Q70.15938 61.18229 69.65938 61.74479Q69.175 62.291664 68.05 63.24479Q67.09688 64.041664 66.81563 64.33854Q66.55 64.61979 66.37813 64.90104L70.59688 64.90104Z" fill-rule="nonzero"/><path fill="#000000" d="M171.08209 313.21564Q171.08209 311.6844 171.39459 310.7625Q171.70709 309.825 172.31647 309.325Q172.94147 308.825 173.87897 308.825Q174.56647 308.825 175.08209 309.10626Q175.61334 309.3875 175.95709 309.91876Q176.30084 310.4344 176.48834 311.1844Q176.67584 311.9344 176.67584 313.21564Q176.67584 314.73126 176.36334 315.65314Q176.06647 316.575 175.44147 317.09064Q174.83209 317.59064 173.87897 317.59064Q172.64459 317.59064 171.92584 316.7Q171.08209 315.6375 171.08209 313.21564ZM172.16022 313.21564Q172.16022 315.325 172.66022 316.02814Q173.16022 316.73126 173.87897 316.73126Q174.61334 316.73126 175.09772 316.02814Q175.59772 315.325 175.59772 313.21564Q175.59772 311.09064 175.09772 310.40314Q174.61334 309.7 173.86334 309.7Q173.14459 309.7 172.70709 310.3094Q172.16022 311.09064 172.16022 313.21564ZM178.67584 317.45L178.67584 316.2469L179.87897 316.2469L179.87897 317.45L178.67584 317.45ZM181.08209 315.2L182.19147 315.10626Q182.31647 315.91876 182.75397 316.325Q183.20709 316.73126 183.84772 316.73126Q184.59772 316.73126 185.12897 316.15314Q185.66022 315.575 185.66022 314.6375Q185.66022 313.73126 185.14459 313.21564Q184.64459 312.6844 183.81647 312.6844Q183.31647 312.6844 182.89459 312.91876Q182.48834 313.15314 182.25397 313.5125L181.26959 313.3875L182.09772 308.98126L186.37897 308.98126L186.37897 309.98126L182.94147 309.98126L182.48834 312.29376Q183.25397 311.7469 184.09772 311.7469Q185.22272 311.7469 185.98834 312.52814Q186.76959 313.3094 186.76959 314.54376Q186.76959 315.7 186.09772 316.5594Q185.26959 317.59064 183.84772 317.59064Q182.67584 317.59064 181.92584 316.9344Q181.19147 316.27814 181.08209 315.2Z" fill-rule="nonzero"/><path fill="#000000" d="M325.46875 317.45L324.42188 317.45L324.42188 310.73126Q324.03125 311.09064 323.40625 311.46564Q322.79688 311.825 322.3125 311.9969L322.3125 310.98126Q323.1875 310.5594 323.84375 309.98126Q324.51562 309.3875 324.79688 308.825L325.46875 308.825L325.46875 317.45ZM329.09375 317.45L329.09375 316.2469L330.29688 316.2469L330.29688 317.45L329.09375 317.45ZM331.5 313.21564Q331.5 311.6844 331.8125 310.7625Q332.125 309.825 332.73438 309.325Q333.35938 308.825 334.29688 308.825Q334.98438 308.825 335.5 309.10626Q336.03125 309.3875 336.375 309.91876Q336.71875 310.4344 336.90625 311.1844Q337.09375 311.9344 337.09375 313.21564Q337.09375 314.73126 336.78125 315.65314Q336.48438 316.575 335.85938 317.09064Q335.25 317.59064 334.29688 317.59064Q333.0625 317.59064 332.34375 316.7Q331.5 315.6375 331.5 313.21564ZM332.57812 313.21564Q332.57812 315.325 333.07812 316.02814Q333.57812 316.73126 334.29688 316.73126Q335.03125 316.73126 335.51562 316.02814Q336.01562 315.325 336.01562 313.21564Q336.01562 311.09064 335.51562 310.40314Q335.03125 309.7 334.28125 309.7Q333.5625 309.7 333.125 310.3094Q332.57812 311.09064 332.57812 313.21564Z" fill-rule="nonzero"/><path fill="#000000" d="M475.88666 317.45L474.83978 317.45L474.83978 310.73126Q474.44916 311.09064 473.82416 311.46564Q473.21478 311.825 472.7304 311.9969L472.7304 310.98126Q473.6054 310.5594 474.26166 309.98126Q474.93353 309.3875 475.21478 308.825L475.88666 308.825L475.88666 317.45ZM479.51166 317.45L479.51166 316.2469L480.71478 316.2469L480.71478 317.45L479.51166 317.45ZM481.9179 315.2L483.02728 315.10626Q483.15228 315.91876 483.58978 316.325Q484.0429 316.73126 484.68353 316.73126Q485.43353 316.73126 485.96478 316.15314Q486.49603 315.575 486.49603 314.6375Q486.49603 313.73126 485.9804 313.21564Q485.4804 312.6844 484.65228 312.6844Q484.15228 312.6844 483.7304 312.91876Q483.32416 313.15314 483.08978 313.5125L482.1054 313.3875L482.93353 308.98126L487.21478 308.98126L487.21478 309.98126L483.77728 309.98126L483.32416 312.29376Q484.08978 311.7469 484.93353 311.7469Q486.05853 311.7469 486.82416 312.52814Q487.6054 313.3094 487.6054 314.54376Q487.6054 315.7 486.93353 316.5594Q486.1054 317.59064 484.68353 317.59064Q483.51166 317.59064 482.76166 316.9344Q482.02728 316.27814 481.9179 315.2Z" fill-rule="nonzero"/><path fill="#757575" d="M167.10938 37.55L167.10938 23.2375L169.0 23.2375L169.0 29.1125L176.4375 29.1125L176.4375 23.2375L178.32812 23.2375L178.32812 37.55L176.4375 37.55L176.4375 30.8L169.0 30.8L169.0 37.55L167.10938 37.55ZM179.82812 25.253124L179.82812 23.2375L181.59375 23.2375L181.59375 25.253124L179.82812 25.253124ZM179.82812 37.55L179.82812 27.175L181.59375 27.175L181.59375 37.55L179.82812 37.55ZM183.10938 34.45625L184.85938 34.175Q185.0 35.221874 185.67188 35.784374Q186.34375 36.33125 187.54688 36.33125Q188.75 36.33125 189.32812 35.846874Q189.92188 35.346874 189.92188 34.690624Q189.92188 34.096874 189.40625 33.753124Q189.04688 33.51875 187.60938 33.159374Q185.67188 32.659374 184.92188 32.315624Q184.1875 31.95625 183.79688 31.33125Q183.40625 30.690624 183.40625 29.925Q183.40625 29.2375 183.71875 28.64375Q184.04688 28.05 184.59375 27.659374Q185.0 27.3625 185.70312 27.159374Q186.42188 26.940624 187.23438 26.940624Q188.45312 26.940624 189.375 27.3Q190.29688 27.64375 190.73438 28.253124Q191.17188 28.846874 191.34375 29.846874L189.625 30.08125Q189.5 29.284374 188.9375 28.846874Q188.375 28.39375 187.35938 28.39375Q186.14062 28.39375 185.625 28.8Q185.10938 29.190624 185.10938 29.721874Q185.10938 30.065624 185.32812 30.346874Q185.53125 30.628124 186.0 30.815624Q186.26562 30.909374 187.54688 31.253124Q189.42188 31.753124 190.15625 32.08125Q190.89062 32.39375 191.3125 33.003124Q191.73438 33.596874 191.73438 34.503124Q191.73438 35.378124 191.21875 36.159374Q190.70312 36.940624 189.73438 37.3625Q188.76562 37.784374 187.54688 37.784374Q185.53125 37.784374 184.46875 36.940624Q183.40625 36.096874 183.10938 34.45625ZM197.65625 35.971874L197.90625 37.534374Q197.17188 37.690624 196.57812 37.690624Q195.625 37.690624 195.09375 37.39375Q194.57812 37.08125 194.35938 36.596874Q194.14062 36.096874 194.14062 34.51875L194.14062 28.55L192.85938 28.55L192.85938 27.175L194.14062 27.175L194.14062 24.6125L195.89062 23.55L195.89062 27.175L197.65625 27.175L197.65625 28.55L195.89062 28.55L195.89062 34.6125Q195.89062 35.3625 195.98438 35.58125Q196.07812 35.784374 196.28125 35.925Q196.5 36.05 196.89062 36.05Q197.17188 36.05 197.65625 35.971874ZM199.17188 32.3625Q199.17188 29.4875 200.76562 28.096874Q202.10938 26.940624 204.03125 26.940624Q206.17188 26.940624 207.51562 28.346874Q208.875 29.753124 208.875 32.221874Q208.875 34.221874 208.28125 35.378124Q207.6875 36.51875 206.53125 37.159374Q205.39062 37.784374 204.03125 37.784374Q201.84375 37.784374 200.5 36.39375Q199.17188 34.9875 199.17188 32.3625ZM200.96875 32.3625Q200.96875 34.3625 201.82812 35.346874Q202.70312 36.33125 204.03125 36.33125Q205.34375 36.33125 206.20312 35.346874Q207.07812 34.346874 207.07812 32.3Q207.07812 30.378124 206.20312 29.39375Q205.32812 28.39375 204.03125 28.39375Q202.70312 28.39375 201.82812 29.39375Q200.96875 30.378124 200.96875 32.3625ZM210.5 38.409374L212.20312 38.659374Q212.3125 39.45625 212.79688 39.815624Q213.45312 40.3 214.59375 40.3Q215.8125 40.3 216.46875 39.815624Q217.14062 39.33125 217.375 38.45625Q217.51562 37.909374 217.5 36.190624Q216.34375 37.55 214.625 37.55Q212.48438 37.55 211.3125 36.003124Q210.14062 34.45625 210.14062 32.3Q210.14062 30.815624 210.67188 29.565624Q211.21875 28.315624 212.23438 27.628124Q213.26562 26.940624 214.64062 26.940624Q216.46875 26.940624 217.67188 28.425L217.67188 27.175L219.28125 27.175L219.28125 36.14375Q219.28125 38.565624 218.78125 39.565624Q218.29688 40.58125 217.21875 41.159374Q216.15625 41.753124 214.59375 41.753124Q212.75 41.753124 211.59375 40.925Q210.45312 40.096874 210.5 38.409374ZM211.95312 32.175Q211.95312 34.221874 212.76562 35.159374Q213.57812 36.096874 214.79688 36.096874Q216.0 36.096874 216.8125 35.159374Q217.64062 34.221874 217.64062 32.2375Q217.64062 30.33125 216.79688 29.3625Q215.95312 28.39375 214.76562 28.39375Q213.59375 28.39375 212.76562 29.346874Q211.95312 30.3 211.95312 32.175ZM221.79688 37.55L221.79688 27.175L223.375 27.175L223.375 28.753124Q223.98438 27.64375 224.5 27.3Q225.01562 26.940624 225.625 26.940624Q226.51562 26.940624 227.4375 27.503124L226.82812 29.14375Q226.1875 28.753124 225.54688 28.753124Q224.96875 28.753124 224.5 29.1125Q224.04688 29.45625 223.84375 30.065624Q223.5625 31.003124 223.5625 32.1125L223.5625 37.55L221.79688 37.55ZM235.59375 36.26875Q234.60938 37.096874 233.70312 37.440624Q232.79688 37.784374 231.76562 37.784374Q230.0625 37.784374 229.14062 36.95625Q228.21875 36.1125 228.21875 34.815624Q228.21875 34.05 228.5625 33.425Q228.92188 32.8 229.48438 32.425Q230.04688 32.034374 230.75 31.83125Q231.26562 31.70625 232.3125 31.565624Q234.4375 31.315624 235.4375 30.971874Q235.45312 30.6125 235.45312 30.503124Q235.45312 29.440624 234.95312 28.9875Q234.28125 28.39375 232.95312 28.39375Q231.70312 28.39375 231.10938 28.83125Q230.53125 29.26875 230.25 30.378124L228.53125 30.14375Q228.76562 29.034374 229.29688 28.3625Q229.82812 27.675 230.84375 27.315624Q231.85938 26.940624 233.20312 26.940624Q234.53125 26.940624 235.35938 27.253124Q236.1875 27.565624 236.57812 28.05Q236.96875 28.51875 237.125 29.2375Q237.21875 29.690624 237.21875 30.8625L237.21875 33.20625Q237.21875 35.659374 237.32812 36.315624Q237.4375 36.95625 237.78125 37.55L235.9375 37.55Q235.67188 37.003124 235.59375 36.26875ZM235.4375 32.346874Q234.48438 32.7375 232.5625 33.003124Q231.48438 33.159374 231.03125 33.3625Q230.59375 33.55 230.34375 33.925Q230.09375 34.3 230.09375 34.76875Q230.09375 35.471874 230.625 35.940624Q231.15625 36.409374 232.1875 36.409374Q233.20312 36.409374 233.98438 35.971874Q234.78125 35.51875 235.15625 34.753124Q235.4375 34.14375 235.4375 32.9875L235.4375 32.346874ZM239.8125 37.55L239.8125 27.175L241.39062 27.175L241.39062 28.628124Q241.875 27.878124 242.6875 27.409374Q243.5 26.940624 244.53125 26.940624Q245.6875 26.940624 246.42188 27.425Q247.15625 27.89375 247.46875 28.753124Q248.70312 26.940624 250.67188 26.940624Q252.21875 26.940624 253.04688 27.8Q253.875 28.659374 253.875 30.425L253.875 37.55L252.125 37.55L252.125 31.01875Q252.125 29.95625 251.95312 29.503124Q251.78125 29.034374 251.32812 28.753124Q250.89062 28.471874 250.28125 28.471874Q249.1875 28.471874 248.45312 29.20625Q247.73438 29.925 247.73438 31.51875L247.73438 37.55L245.98438 37.55L245.98438 30.815624Q245.98438 29.64375 245.54688 29.065624Q245.125 28.471874 244.14062 28.471874Q243.40625 28.471874 242.76562 28.8625Q242.14062 29.253124 241.85938 30.003124Q241.57812 30.753124 241.57812 32.175L241.57812 37.55L239.8125 37.55ZM255.8125 37.55L255.8125 27.175L257.39062 27.175L257.39062 28.628124Q257.875 27.878124 258.6875 27.409374Q259.5 26.940624 260.53125 26.940624Q261.6875 26.940624 262.42188 27.425Q263.15625 27.89375 263.46875 28.753124Q264.70312 26.940624 266.67188 26.940624Q268.21875 26.940624 269.04688 27.8Q269.875 28.659374 269.875 30.425L269.875 37.55L268.125 37.55L268.125 31.01875Q268.125 29.95625 267.95312 29.503124Q267.78125 29.034374 267.32812 28.753124Q266.89062 28.471874 266.28125 28.471874Q265.1875 28.471874 264.45312 29.20625Q263.73438 29.925 263.73438 31.51875L263.73438 37.55L261.98438 37.55L261.98438 30.815624Q261.98438 29.64375 261.54688 29.065624Q261.125 28.471874 260.14062 28.471874Q259.40625 28.471874 258.76562 28.8625Q258.14062 29.253124 257.85938 30.003124Q257.57812 30.753124 257.57812 32.175L257.57812 37.55L255.8125 37.55ZM278.92188 34.20625L280.73438 34.440624Q280.3125 36.01875 279.14062 36.909374Q277.98438 37.784374 276.17188 37.784374Q273.90625 37.784374 272.5625 36.39375Q271.23438 34.9875 271.23438 32.45625Q271.23438 29.83125 272.57812 28.39375Q273.92188 26.940624 276.07812 26.940624Q278.15625 26.940624 279.46875 28.3625Q280.79688 29.76875 280.79688 32.346874Q280.79688 32.503124 280.78125 32.815624L273.04688 32.815624Q273.14062 34.51875 274.01562 35.425Q274.89062 36.33125 276.1875 36.33125Q277.15625 36.33125 277.82812 35.83125Q278.51562 35.315624 278.92188 34.20625ZM273.14062 31.3625L278.9375 31.3625Q278.82812 30.065624 278.28125 29.409374Q277.4375 28.39375 276.09375 28.39375Q274.89062 28.39375 274.0625 29.20625Q273.23438 30.003124 273.14062 31.3625ZM287.46875 37.55L292.96875 23.2375L295.01562 23.2375L300.875 37.55L298.71875 37.55L297.04688 33.20625L291.0625 33.20625L289.48438 37.55L287.46875 37.55ZM291.60938 31.675L296.45312 31.675L294.96875 27.70625Q294.28125 25.89375 293.95312 24.7375Q293.67188 26.1125 293.17188 27.471874L291.60938 31.675ZM301.82812 25.253124L301.82812 23.2375L303.59375 23.2375L303.59375 25.253124L301.82812 25.253124ZM301.82812 37.55L301.82812 27.175L303.59375 27.175L303.59375 37.55L301.82812 37.55ZM305.79688 37.55L305.79688 27.175L307.375 27.175L307.375 28.753124Q307.98438 27.64375 308.5 27.3Q309.01562 26.940624 309.625 26.940624Q310.51562 26.940624 311.4375 27.503124L310.82812 29.14375Q310.1875 28.753124 309.54688 28.753124Q308.96875 28.753124 308.5 29.1125Q308.04688 29.45625 307.84375 30.065624Q307.5625 31.003124 307.5625 32.1125L307.5625 37.55L305.79688 37.55ZM319.92188 34.20625L321.73438 34.440624Q321.3125 36.01875 320.14062 36.909374Q318.98438 37.784374 317.17188 37.784374Q314.90625 37.784374 313.5625 36.39375Q312.23438 34.9875 312.23438 32.45625Q312.23438 29.83125 313.57812 28.39375Q314.92188 26.940624 317.07812 26.940624Q319.15625 26.940624 320.46875 28.3625Q321.79688 29.76875 321.79688 32.346874Q321.79688 32.503124 321.78125 32.815624L314.04688 32.815624Q314.14062 34.51875 315.01562 35.425Q315.89062 36.33125 317.1875 36.33125Q318.15625 36.33125 318.82812 35.83125Q319.51562 35.315624 319.92188 34.20625ZM314.14062 31.3625L319.9375 31.3625Q319.82812 30.065624 319.28125 29.409374Q318.4375 28.39375 317.09375 28.39375Q315.89062 28.39375 315.0625 29.20625Q314.23438 30.003124 314.14062 31.3625ZM323.10938 34.45625L324.85938 34.175Q325.0 35.221874 325.67188 35.784374Q326.34375 36.33125 327.54688 36.33125Q328.75 36.33125 329.32812 35.846874Q329.92188 35.346874 329.92188 34.690624Q329.92188 34.096874 329.40625 33.753124Q329.04688 33.51875 327.60938 33.159374Q325.67188 32.659374 324.92188 32.315624Q324.1875 31.95625 323.79688 31.33125Q323.40625 30.690624 323.40625 29.925Q323.40625 29.2375 323.71875 28.64375Q324.04688 28.05 324.59375 27.659374Q325.0 27.3625 325.70312 27.159374Q326.42188 26.940624 327.23438 26.940624Q328.45312 26.940624 329.375 27.3Q330.29688 27.64375 330.73438 28.253124Q331.17188 28.846874 331.34375 29.846874L329.625 30.08125Q329.5 29.284374 328.9375 28.846874Q328.375 28.39375 327.35938 28.39375Q326.14062 28.39375 325.625 28.8Q325.10938 29.190624 325.10938 29.721874Q325.10938 30.065624 325.32812 30.346874Q325.53125 30.628124 326.0 30.815624Q326.26562 30.909374 327.54688 31.253124Q329.42188 31.753124 330.15625 32.08125Q330.89062 32.39375 331.3125 33.003124Q331.73438 33.596874 331.73438 34.503124Q331.73438 35.378124 331.21875 36.159374Q330.70312 36.940624 329.73438 37.3625Q328.76562 37.784374 327.54688 37.784374Q325.53125 37.784374 324.46875 36.940624Q323.40625 36.096874 323.10938 34.45625ZM339.14062 33.253124L339.14062 31.4875L344.53125 31.4875L344.53125 33.253124L339.14062 33.253124ZM359.75 31.940624L359.75 30.253124L365.8125 30.2375L365.8125 35.55Q364.40625 36.675 362.92188 37.2375Q361.4375 37.8 359.875 37.8Q357.76562 37.8 356.04688 36.89375Q354.32812 35.9875 353.4375 34.284374Q352.5625 32.565624 352.5625 30.45625Q352.5625 28.3625 353.4375 26.565624Q354.3125 24.753124 355.95312 23.878124Q357.59375 22.9875 359.73438 22.9875Q361.28125 22.9875 362.53125 23.4875Q363.79688 23.9875 364.5 24.89375Q365.21875 25.784374 365.59375 27.2375L363.89062 27.70625Q363.5625 26.6125 363.07812 25.9875Q362.60938 25.3625 361.71875 24.9875Q360.82812 24.6125 359.75 24.6125Q358.4375 24.6125 357.48438 25.003124Q356.54688 25.39375 355.96875 26.05Q355.39062 26.690624 355.0625 27.45625Q354.51562 28.784374 354.51562 30.346874Q354.51562 32.253124 355.17188 33.55Q355.84375 34.83125 357.09375 35.45625Q358.35938 36.08125 359.76562 36.08125Q361.0 36.08125 362.17188 35.6125Q363.34375 35.14375 363.95312 34.596874L363.95312 31.940624L359.75 31.940624ZM368.79688 37.55L368.79688 27.175L370.375 27.175L370.375 28.753124Q370.98438 27.64375 371.5 27.3Q372.01562 26.940624 372.625 26.940624Q373.51562 26.940624 374.4375 27.503124L373.82812 29.14375Q373.1875 28.753124 372.54688 28.753124Q371.96875 28.753124 371.5 29.1125Q371.04688 29.45625 370.84375 30.065624Q370.5625 31.003124 370.5625 32.1125L370.5625 37.55L368.79688 37.55ZM375.82812 25.253124L375.82812 23.2375L377.59375 23.2375L377.59375 25.253124L375.82812 25.253124ZM375.82812 37.55L375.82812 27.175L377.59375 27.175L377.59375 37.55L375.82812 37.55ZM379.78125 37.55L379.78125 23.2375L381.53125 23.2375L381.53125 37.55L379.78125 37.55ZM383.78125 37.55L383.78125 23.2375L385.53125 23.2375L385.53125 37.55L383.78125 37.55ZM394.92188 34.20625L396.73438 34.440624Q396.3125 36.01875 395.14062 36.909374Q393.98438 37.784374 392.17188 37.784374Q389.90625 37.784374 388.5625 36.39375Q387.23438 34.9875 387.23438 32.45625Q387.23438 29.83125 388.57812 28.39375Q389.92188 26.940624 392.07812 26.940624Q394.15625 26.940624 395.46875 28.3625Q396.79688 29.76875 396.79688 32.346874Q396.79688 32.503124 396.78125 32.815624L389.04688 32.815624Q389.14062 34.51875 390.01562 35.425Q390.89062 36.33125 392.1875 36.33125Q393.15625 36.33125 393.82812 35.83125Q394.51562 35.315624 394.92188 34.20625ZM389.14062 31.3625L394.9375 31.3625Q394.82812 30.065624 394.28125 29.409374Q393.4375 28.39375 392.09375 28.39375Q390.89062 28.39375 390.0625 29.20625Q389.23438 30.003124 389.14062 31.3625ZM404.34375 33.76875L406.09375 33.534374Q406.40625 35.034374 407.125 35.690624Q407.85938 36.346874 408.90625 36.346874Q410.14062 36.346874 410.98438 35.4875Q411.84375 34.628124 411.84375 33.3625Q411.84375 32.14375 411.04688 31.3625Q410.26562 30.58125 409.04688 30.58125Q408.54688 30.58125 407.8125 30.76875L408.0 29.221874Q408.17188 29.253124 408.28125 29.253124Q409.40625 29.253124 410.29688 28.675Q411.20312 28.08125 411.20312 26.8625Q411.20312 25.89375 410.54688 25.253124Q409.89062 24.6125 408.85938 24.6125Q407.84375 24.6125 407.15625 25.26875Q406.46875 25.909374 406.28125 27.190624L404.51562 26.878124Q404.84375 25.1125 405.98438 24.14375Q407.125 23.175 408.82812 23.175Q410.0 23.175 410.98438 23.675Q411.96875 24.175 412.48438 25.05Q413.01562 25.925 413.01562 26.89375Q413.01562 27.815624 412.51562 28.58125Q412.01562 29.346874 411.04688 29.8Q412.3125 30.08125 413.01562 31.01875Q413.71875 31.940624 413.71875 33.315624Q413.71875 35.190624 412.34375 36.503124Q410.98438 37.8 408.89062 37.8Q407.0 37.8 405.75 36.675Q404.51562 35.55 404.34375 33.76875ZM414.64062 37.55L418.4375 32.159374L414.9375 27.175L417.125 27.175L418.71875 29.6125Q419.17188 30.3 419.4375 30.76875Q419.875 30.128124 420.23438 29.628124L421.98438 27.175L424.07812 27.175L420.5 32.065624L424.35938 37.55L422.20312 37.55L420.0625 34.33125L419.5 33.45625L416.78125 37.55L414.64062 37.55ZM424.34375 33.76875L426.09375 33.534374Q426.40625 35.034374 427.125 35.690624Q427.85938 36.346874 428.90625 36.346874Q430.14062 36.346874 430.98438 35.4875Q431.84375 34.628124 431.84375 33.3625Q431.84375 32.14375 431.04688 31.3625Q430.26562 30.58125 429.04688 30.58125Q428.54688 30.58125 427.8125 30.76875L428.0 29.221874Q428.17188 29.253124 428.28125 29.253124Q429.40625 29.253124 430.29688 28.675Q431.20312 28.08125 431.20312 26.8625Q431.20312 25.89375 430.54688 25.253124Q429.89062 24.6125 428.85938 24.6125Q427.84375 24.6125 427.15625 25.26875Q426.46875 25.909374 426.28125 27.190624L424.51562 26.878124Q424.84375 25.1125 425.98438 24.14375Q427.125 23.175 428.82812 23.175Q430.0 23.175 430.98438 23.675Q431.96875 24.175 432.48438 25.05Q433.01562 25.925 433.01562 26.89375Q433.01562 27.815624 432.51562 28.58125Q432.01562 29.346874 431.04688 29.8Q432.3125 30.08125 433.01562 31.01875Q433.71875 31.940624 433.71875 33.315624Q433.71875 35.190624 432.34375 36.503124Q430.98438 37.8 428.89062 37.8Q427.0 37.8 425.75 36.675Q424.51562 35.55 424.34375 33.76875Z" fill-rule="nonzero"/></svg>