<svg version="1.1" viewBox="0.0 0.0 600.0 371.0" fill="none" stroke="none" stroke-linecap="square" stroke-miterlimit="10" width="600" height="371" xmlns:xlink="http://www.w3.org/1999/xlink" xmlns="http://www.w3.org/2000/svg"><path fill="#ffffff" d="M0 0L600.0 0L600.0 371.0L0 371.0L0 0Z" fill-rule="nonzero"/><path stroke="#333333" stroke-width="1.0" stroke-linecap="butt" d="M77.5 300.5L581.5 300.5" fill-rule="nonzero"/><path stroke="#cccccc" stroke-width="1.0" stroke-linecap="butt" d="M77.5 240.5L581.5 240.5" fill-rule="nonzero"/><path stroke="#cccccc" stroke-width="1.0" stroke-linecap="butt" d="M77.5 181.5L581.5 181.5" fill-rule="nonzero"/><path stroke="#cccccc" stroke-width="1.0" stroke-linecap="butt" d="M77.5 121.5L581.5 121.5" fill-rule="nonzero"/><path stroke="#cccccc" stroke-width="1.0" stroke-linecap="butt" d="M77.5 61.5L581.5 61.5" fill-rule="nonzero"/><clipPath id="id_0"><path d="M77.55 61.916668L581.45 61.916668L581.45 300.45L77.55 300.45L77.55 61.916668Z" clip-rule="nonzero"/></clipPath><path stroke="#000000" stroke-width="2.0" stroke-linecap="butt" stroke-opacity="0.0" clip-path="url(#id_0)" d="M147.0 300.0L102.0 300.0L102.0 300.0C102.0 300.0 102.0 300.0 102.0 300.0L147.0 300.0C147.0 300.0 147.0 300.0 147.0 300.0Z" fill-rule="nonzero"/><path fill="#0000ff" clip-path="url(#id_0)" d="M147.0 300.0L102.0 300.0L102.0 300.0C102.0 300.0 102.0 300.0 102.0 300.0L147.0 300.0C147.0 300.0 147.0 300.0 147.0 300.0Z" fill-rule="nonzero"/><path stroke="#000000" stroke-width="2.0" stroke-linecap="butt" stroke-opacity="0.0" clip-path="url(#id_0)" d="M215.0 300.0L170.0 300.0L170.0 289.0C170.0 287.89542 170.89543 287.0 172.0 287.0L213.0 287.0C214.10457 287.0 215.0 287.89542 215.0 289.0Z" fill-rule="nonzero"/><path fill="#0000ff" clip-path="url(#id_0)" d="M215.0 300.0L170.0 300.0L170.0 289.0C170.0 287.89542 170.89543 287.0 172.0 287.0L213.0 287.0C214.10457 287.0 215.0 287.89542 215.0 289.0Z" fill-rule="nonzero"/><path stroke="#000000" stroke-width="2.0" stroke-linecap="butt" stroke-opacity="0.0" clip-path="url(#id_0)" d="M284.0 300.0L239.0 300.0L239.0 203.0C239.0 201.89543 239.89543 201.0 241.0 201.0L282.0 201.0C283.10458 201.0 284.0 201.89543 284.0 203.0Z" fill-rule="nonzero"/><path fill="#0000ff" clip-path="url(#id_0)" d="M284.0 300.0L239.0 300.0L239.0 203.0C239.0 201.89543 239.89543 201.0 241.0 201.0L282.0 201.0C283.10458 201.0 284.0 201.89543 284.0 203.0Z" fill-rule="nonzero"/><path stroke="#000000" stroke-width="2.0" stroke-linecap="butt" stroke-opacity="0.0" clip-path="url(#id_0)" d="M353.0 300.0L308.0 300.0L308.0 81.0C308.0 79.89543 308.89542 79.0 310.0 79.0L351.0 79.0C352.10458 79.0 353.0 79.89543 353.0 81.0Z" fill-rule="nonzero"/><path fill="#0000ff" clip-path="url(#id_0)" d="M353.0 300.0L308.0 300.0L308.0 81.0C308.0 79.89543 308.89542 79.0 310.0 79.0L351.0 79.0C352.10458 79.0 353.0 79.89543 353.0 81.0Z" fill-rule="nonzero"/><path stroke="#000000" stroke-width="2.0" stroke-linecap="butt" stroke-opacity="0.0" clip-path="url(#id_0)" d="M421.0 300.0L376.0 300.0L376.0 155.0C376.0 153.89543 376.89542 153.0 378.0 153.0L419.0 153.0C420.10458 153.0 421.0 153.89543 421.0 155.0Z" fill-rule="nonzero"/><path fill="#0000ff" clip-path="url(#id_0)" d="M421.0 300.0L376.0 300.0L376.0 155.0C376.0 153.89543 376.89542 153.0 378.0 153.0L419.0 153.0C420.10458 153.0 421.0 153.89543 421.0 155.0Z" fill-rule="nonzero"/><path stroke="#000000" stroke-width="2.0" stroke-linecap="butt" stroke-opacity="0.0" clip-path="url(#id_0)" d="M490.0 300.0L445.0 300.0L445.0 286.0C445.0 284.89542 445.89542 284.0 447.0 284.0L488.0 284.0C489.10458 284.0 490.0 284.89542 490.0 286.0Z" fill-rule="nonzero"/><path fill="#0000ff" clip-path="url(#id_0)" d="M490.0 300.0L445.0 300.0L445.0 286.0C445.0 284.89542 445.89542 284.0 447.0 284.0L488.0 284.0C489.10458 284.0 490.0 284.89542 490.0 286.0Z" fill-rule="nonzero"/><path stroke="#000000" stroke-width="2.0" stroke-linecap="butt" stroke-opacity="0.0" clip-path="url(#id_0)" d="M558.0 300.0L513.0 300.0L513.0 300.0C513.0 300.0 513.0 300.0 513.0 300.0L558.0 300.0C558.0 300.0 558.0 300.0 558.0 300.0Z" fill-rule="nonzero"/><path fill="#0000ff" clip-path="url(#id_0)" d="M558.0 300.0L513.0 300.0L513.0 300.0C513.0 300.0 513.0 300.0 513.0 300.0L558.0 300.0C558.0 300.0 558.0 300.0 558.0 300.0Z" fill-rule="nonzero"/><path stroke="#ffffff" stroke-width="3.0" stroke-linejoin="round" stroke-linecap="round" d="M124.765625 284.85367L123.6875 284.85367L123.6875 277.63492L121.5 278.4318L121.5 277.44742L124.609375 276.27554L124.765625 276.27554L124.765625 284.85367Z" fill-rule="nonzero"/><path fill="#0000ff" d="M124.765625 284.85367L123.6875 284.85367L123.6875 277.63492L121.5 278.4318L121.5 277.44742L124.609375 276.27554L124.765625 276.27554L124.765625 284.85367Z" fill-rule="nonzero"/><path stroke="#ffffff" stroke-width="3.0" stroke-linejoin="round" stroke-linecap="round" d="M191.29688 272.33066L185.70312 272.33066L185.70312 271.5494L188.65625 268.26816Q189.3125 267.51816 189.5625 267.06503Q189.8125 266.59628 189.8125 266.09628Q189.8125 265.4244 189.40625 265.00253Q189.01562 264.56503 188.32812 264.56503Q187.53125 264.56503 187.07812 265.03378Q186.625 265.4869 186.625 266.31503L185.54688 266.31503Q185.54688 265.12753 186.29688 264.40878Q187.0625 263.6744 188.32812 263.6744Q189.53125 263.6744 190.21875 264.2994Q190.90625 264.9244 190.90625 265.97128Q190.90625 267.22128 189.29688 268.97128L187.01562 271.44003L191.29688 271.44003L191.29688 272.33066ZM198.29688 272.33066L192.70312 272.33066L192.70312 271.5494L195.65625 268.26816Q196.3125 267.51816 196.5625 267.06503Q196.8125 266.59628 196.8125 266.09628Q196.8125 265.4244 196.40625 265.00253Q196.01562 264.56503 195.32812 264.56503Q194.53125 264.56503 194.07812 265.03378Q193.625 265.4869 193.625 266.31503L192.54688 266.31503Q192.54688 265.12753 193.29688 264.40878Q194.0625 263.6744 195.32812 263.6744Q196.53125 263.6744 197.21875 264.2994Q197.90625 264.9244 197.90625 265.97128Q197.90625 267.22128 196.29688 268.97128L194.01562 271.44003L198.29688 271.44003L198.29688 272.33066Z" fill-rule="nonzero"/><path fill="#0000ff" d="M191.29688 272.33066L185.70312 272.33066L185.70312 271.5494L188.65625 268.26816Q189.3125 267.51816 189.5625 267.06503Q189.8125 266.59628 189.8125 266.09628Q189.8125 265.4244 189.40625 265.00253Q189.01562 264.56503 188.32812 264.56503Q187.53125 264.56503 187.07812 265.03378Q186.625 265.4869 186.625 266.31503L185.54688 266.31503Q185.54688 265.12753 186.29688 264.40878Q187.0625 263.6744 188.32812 263.6744Q189.53125 263.6744 190.21875 264.2994Q190.90625 264.9244 190.90625 265.97128Q190.90625 267.22128 189.29688 268.97128L187.01562 271.44003L191.29688 271.44003L191.29688 272.33066ZM198.29688 272.33066L192.70312 272.33066L192.70312 271.5494L195.65625 268.26816Q196.3125 267.51816 196.5625 267.06503Q196.8125 266.59628 196.8125 266.09628Q196.8125 265.4244 196.40625 265.00253Q196.01562 264.56503 195.32812 264.56503Q194.53125 264.56503 194.07812 265.03378Q193.625 265.4869 193.625 266.31503L192.54688 266.31503Q192.54688 265.12753 193.29688 264.40878Q194.0625 263.6744 195.32812 263.6744Q196.53125 263.6744 197.21875 264.2994Q197.90625 264.9244 197.90625 265.97128Q197.90625 267.22128 196.29688 268.97128L194.01562 271.44003L198.29688 271.44003L198.29688 272.33066Z" fill-rule="nonzero"/><path stroke="#ffffff" stroke-width="3.0" stroke-linejoin="round" stroke-linecap="round" d="M254.76562 186.45866L253.6875 186.45866L253.6875 179.23991L251.5 180.03679L251.5 179.05241L254.60938 177.88054L254.76562 177.88054L254.76562 186.45866ZM262.46875 177.92741L262.46875 178.83366L262.26562 178.83366Q261.0 178.86491 260.25 179.59929Q259.5 180.31804 259.375 181.63054Q260.0625 180.86491 261.21875 180.86491Q262.32812 180.86491 263.0 181.64616Q263.67188 182.42741 263.67188 183.67741Q263.67188 184.98991 262.95312 185.78679Q262.23438 186.58366 261.01562 186.58366Q259.79688 186.58366 259.03125 185.64616Q258.28125 184.69304 258.28125 183.20866L258.28125 182.80241Q258.28125 180.44304 259.28125 179.19304Q260.28125 177.94304 262.26562 177.92741L262.46875 177.92741ZM261.04688 181.77116Q260.48438 181.77116 260.01562 182.09929Q259.54688 182.42741 259.35938 182.94304L259.35938 183.33366Q259.35938 184.39616 259.82812 185.03679Q260.3125 185.67741 261.01562 185.67741Q261.75 185.67741 262.17188 185.14616Q262.59375 184.59929 262.59375 183.72429Q262.59375 182.84929 262.17188 182.31804Q261.75 181.77116 261.04688 181.77116ZM269.46875 177.92741L269.46875 178.83366L269.26562 178.83366Q268.0 178.86491 267.25 179.59929Q266.5 180.31804 266.375 181.63054Q267.0625 180.86491 268.21875 180.86491Q269.32812 180.86491 270.0 181.64616Q270.67188 182.42741 270.67188 183.67741Q270.67188 184.98991 269.95312 185.78679Q269.23438 186.58366 268.01562 186.58366Q266.79688 186.58366 266.03125 185.64616Q265.28125 184.69304 265.28125 183.20866L265.28125 182.80241Q265.28125 180.44304 266.28125 179.19304Q267.28125 177.94304 269.26562 177.92741L269.46875 177.92741ZM268.04688 181.77116Q267.48438 181.77116 267.01562 182.09929Q266.54688 182.42741 266.35938 182.94304L266.35938 183.33366Q266.35938 184.39616 266.82812 185.03679Q267.3125 185.67741 268.01562 185.67741Q268.75 185.67741 269.17188 185.14616Q269.59375 184.59929 269.59375 183.72429Q269.59375 182.84929 269.17188 182.31804Q268.75 181.77116 268.04688 181.77116Z" fill-rule="nonzero"/><path fill="#0000ff" d="M254.76562 186.45866L253.6875 186.45866L253.6875 179.23991L251.5 180.03679L251.5 179.05241L254.60938 177.88054L254.76562 177.88054L254.76562 186.45866ZM262.46875 177.92741L262.46875 178.83366L262.26562 178.83366Q261.0 178.86491 260.25 179.59929Q259.5 180.31804 259.375 181.63054Q260.0625 180.86491 261.21875 180.86491Q262.32812 180.86491 263.0 181.64616Q263.67188 182.42741 263.67188 183.67741Q263.67188 184.98991 262.95312 185.78679Q262.23438 186.58366 261.01562 186.58366Q259.79688 186.58366 259.03125 185.64616Q258.28125 184.69304 258.28125 183.20866L258.28125 182.80241Q258.28125 180.44304 259.28125 179.19304Q260.28125 177.94304 262.26562 177.92741L262.46875 177.92741ZM261.04688 181.77116Q260.48438 181.77116 260.01562 182.09929Q259.54688 182.42741 259.35938 182.94304L259.35938 183.33366Q259.35938 184.39616 259.82812 185.03679Q260.3125 185.67741 261.01562 185.67741Q261.75 185.67741 262.17188 185.14616Q262.59375 184.59929 262.59375 183.72429Q262.59375 182.84929 262.17188 182.31804Q261.75 181.77116 261.04688 181.77116ZM269.46875 177.92741L269.46875 178.83366L269.26562 178.83366Q268.0 178.86491 267.25 179.59929Q266.5 180.31804 266.375 181.63054Q267.0625 180.86491 268.21875 180.86491Q269.32812 180.86491 270.0 181.64616Q270.67188 182.42741 270.67188 183.67741Q270.67188 184.98991 269.95312 185.78679Q269.23438 186.58366 268.01562 186.58366Q266.79688 186.58366 266.03125 185.64616Q265.28125 184.69304 265.28125 183.20866L265.28125 182.80241Q265.28125 180.44304 266.28125 179.19304Q267.28125 177.94304 269.26562 177.92741L269.46875 177.92741ZM268.04688 181.77116Q267.48438 181.77116 267.01562 182.09929Q266.54688 182.42741 266.35938 182.94304L266.35938 183.33366Q266.35938 184.39616 266.82812 185.03679Q267.3125 185.67741 268.01562 185.67741Q268.75 185.67741 269.17188 185.14616Q269.59375 184.59929 269.59375 183.72429Q269.59375 182.84929 269.17188 182.31804Q268.75 181.77116 268.04688 181.77116Z" fill-rule="nonzero"/><path stroke="#ffffff" stroke-width="3.0" stroke-linejoin="round" stroke-linecap="round" d="M321.78125 59.41346L322.59375 59.41346Q323.375 59.397835 323.8125 59.00721Q324.25 58.616585 324.25 57.94471Q324.25 56.44471 322.75 56.44471Q322.04688 56.44471 321.625 56.85096Q321.21875 57.25721 321.21875 57.91346L320.125 57.91346Q320.125 56.897835 320.85938 56.22596Q321.60938 55.554085 322.75 55.554085Q323.95312 55.554085 324.64062 56.19471Q325.32812 56.835335 325.32812 57.97596Q325.32812 58.53846 324.96875 59.054085Q324.60938 59.56971 323.98438 59.835335Q324.6875 60.054085 325.0625 60.56971Q325.45312 61.085335 325.45312 61.835335Q325.45312 62.97596 324.70312 63.66346Q323.95312 64.335335 322.75 64.335335Q321.5625 64.335335 320.79688 63.679085Q320.04688 63.022835 320.04688 61.960335L321.14062 61.960335Q321.14062 62.63221 321.57812 63.03846Q322.01562 63.44471 322.76562 63.44471Q323.54688 63.44471 323.95312 63.03846Q324.375 62.616585 324.375 61.85096Q324.375 61.116585 323.92188 60.72596Q323.46875 60.31971 322.59375 60.304085L321.78125 60.304085L321.78125 59.41346ZM332.71875 56.28846L329.1875 64.210335L328.04688 64.210335L331.5625 56.56971L326.95312 56.56971L326.95312 55.679085L332.71875 55.679085L332.71875 56.28846ZM337.76562 64.210335L336.6875 64.210335L336.6875 56.991585L334.5 57.78846L334.5 56.804085L337.60938 55.63221L337.76562 55.63221L337.76562 64.210335Z" fill-rule="nonzero"/><path fill="#0000ff" d="M321.78125 59.41346L322.59375 59.41346Q323.375 59.397835 323.8125 59.00721Q324.25 58.616585 324.25 57.94471Q324.25 56.44471 322.75 56.44471Q322.04688 56.44471 321.625 56.85096Q321.21875 57.25721 321.21875 57.91346L320.125 57.91346Q320.125 56.897835 320.85938 56.22596Q321.60938 55.554085 322.75 55.554085Q323.95312 55.554085 324.64062 56.19471Q325.32812 56.835335 325.32812 57.97596Q325.32812 58.53846 324.96875 59.054085Q324.60938 59.56971 323.98438 59.835335Q324.6875 60.054085 325.0625 60.56971Q325.45312 61.085335 325.45312 61.835335Q325.45312 62.97596 324.70312 63.66346Q323.95312 64.335335 322.75 64.335335Q321.5625 64.335335 320.79688 63.679085Q320.04688 63.022835 320.04688 61.960335L321.14062 61.960335Q321.14062 62.63221 321.57812 63.03846Q322.01562 63.44471 322.76562 63.44471Q323.54688 63.44471 323.95312 63.03846Q324.375 62.616585 324.375 61.85096Q324.375 61.116585 323.92188 60.72596Q323.46875 60.31971 322.59375 60.304085L321.78125 60.304085L321.78125 59.41346ZM332.71875 56.28846L329.1875 64.210335L328.04688 64.210335L331.5625 56.56971L326.95312 56.56971L326.95312 55.679085L332.71875 55.679085L332.71875 56.28846ZM337.76562 64.210335L336.6875 64.210335L336.6875 56.991585L334.5 57.78846L334.5 56.804085L337.60938 55.63221L337.76562 55.63221L337.76562 64.210335Z" fill-rule="nonzero"/><path stroke="#ffffff" stroke-width="3.0" stroke-linejoin="round" stroke-linecap="round" d="M393.79688 137.55933L388.20312 137.55933L388.20312 136.77808L391.15625 133.49683Q391.8125 132.74683 392.0625 132.2937Q392.3125 131.82495 392.3125 131.32495Q392.3125 130.65308 391.90625 130.2312Q391.51562 129.7937 390.82812 129.7937Q390.03125 129.7937 389.57812 130.26245Q389.125 130.71558 389.125 131.5437L388.04688 131.5437Q388.04688 130.3562 388.79688 129.63745Q389.5625 128.90308 390.82812 128.90308Q392.03125 128.90308 392.71875 129.52808Q393.40625 130.15308 393.40625 131.19995Q393.40625 132.44995 391.79688 134.19995L389.51562 136.6687L393.79688 136.6687L393.79688 137.55933ZM399.78125 134.69995L400.96875 134.69995L400.96875 135.57495L399.78125 135.57495L399.78125 137.55933L398.70312 137.55933L398.70312 135.57495L394.8125 135.57495L394.8125 134.93433L398.625 129.02808L399.78125 129.02808L399.78125 134.69995ZM396.04688 134.69995L398.70312 134.69995L398.70312 130.51245L398.5625 130.74683L396.04688 134.69995ZM407.39062 131.24683Q407.39062 131.88745 407.04688 132.38745Q406.70312 132.88745 406.14062 133.1687Q406.79688 133.44995 407.1875 134.01245Q407.57812 134.55933 407.57812 135.26245Q407.57812 136.3562 406.82812 137.02808Q406.09375 137.68433 404.875 137.68433Q403.64062 137.68433 402.89062 137.02808Q402.15625 136.3562 402.15625 135.26245Q402.15625 134.55933 402.53125 134.01245Q402.90625 133.44995 403.57812 133.1687Q403.01562 132.88745 402.6875 132.38745Q402.35938 131.88745 402.35938 131.24683Q402.35938 130.1687 403.04688 129.5437Q403.73438 128.90308 404.875 128.90308Q406.0 128.90308 406.6875 129.5437Q407.39062 130.1687 407.39062 131.24683ZM406.5 135.2312Q406.5 134.51245 406.04688 134.07495Q405.59375 133.62183 404.85938 133.62183Q404.125 133.62183 403.67188 134.07495Q403.23438 134.51245 403.23438 135.24683Q403.23438 135.96558 403.67188 136.38745Q404.10938 136.7937 404.875 136.7937Q405.625 136.7937 406.0625 136.37183Q406.5 135.94995 406.5 135.2312ZM404.875 129.7937Q404.23438 129.7937 403.82812 130.19995Q403.4375 130.59058 403.4375 131.27808Q403.4375 131.9187 403.82812 132.32495Q404.21875 132.7312 404.85938 132.7312Q405.51562 132.7312 405.90625 132.32495Q406.29688 131.9187 406.29688 131.27808Q406.29688 130.62183 405.89062 130.21558Q405.48438 129.7937 404.875 129.7937Z" fill-rule="nonzero"/><path fill="#0000ff" d="M393.79688 137.55933L388.20312 137.55933L388.20312 136.77808L391.15625 133.49683Q391.8125 132.74683 392.0625 132.2937Q392.3125 131.82495 392.3125 131.32495Q392.3125 130.65308 391.90625 130.2312Q391.51562 129.7937 390.82812 129.7937Q390.03125 129.7937 389.57812 130.26245Q389.125 130.71558 389.125 131.5437L388.04688 131.5437Q388.04688 130.3562 388.79688 129.63745Q389.5625 128.90308 390.82812 128.90308Q392.03125 128.90308 392.71875 129.52808Q393.40625 130.15308 393.40625 131.19995Q393.40625 132.44995 391.79688 134.19995L389.51562 136.6687L393.79688 136.6687L393.79688 137.55933ZM399.78125 134.69995L400.96875 134.69995L400.96875 135.57495L399.78125 135.57495L399.78125 137.55933L398.70312 137.55933L398.70312 135.57495L394.8125 135.57495L394.8125 134.93433L398.625 129.02808L399.78125 129.02808L399.78125 134.69995ZM396.04688 134.69995L398.70312 134.69995L398.70312 130.51245L398.5625 130.74683L396.04688 134.69995ZM407.39062 131.24683Q407.39062 131.88745 407.04688 132.38745Q406.70312 132.88745 406.14062 133.1687Q406.79688 133.44995 407.1875 134.01245Q407.57812 134.55933 407.57812 135.26245Q407.57812 136.3562 406.82812 137.02808Q406.09375 137.68433 404.875 137.68433Q403.64062 137.68433 402.89062 137.02808Q402.15625 136.3562 402.15625 135.26245Q402.15625 134.55933 402.53125 134.01245Q402.90625 133.44995 403.57812 133.1687Q403.01562 132.88745 402.6875 132.38745Q402.35938 131.88745 402.35938 131.24683Q402.35938 130.1687 403.04688 129.5437Q403.73438 128.90308 404.875 128.90308Q406.0 128.90308 406.6875 129.5437Q407.39062 130.1687 407.39062 131.24683ZM406.5 135.2312Q406.5 134.51245 406.04688 134.07495Q405.59375 133.62183 404.85938 133.62183Q404.125 133.62183 403.67188 134.07495Q403.23438 134.51245 403.23438 135.24683Q403.23438 135.96558 403.67188 136.38745Q404.10938 136.7937 404.875 136.7937Q405.625 136.7937 406.0625 136.37183Q406.5 135.94995 406.5 135.2312ZM404.875 129.7937Q404.23438 129.7937 403.82812 130.19995Q403.4375 130.59058 403.4375 131.27808Q403.4375 131.9187 403.82812 132.32495Q404.21875 132.7312 404.85938 132.7312Q405.51562 132.7312 405.90625 132.32495Q406.29688 131.9187 406.29688 131.27808Q406.29688 130.62183 405.89062 130.21558Q405.48438 129.7937 404.875 129.7937Z" fill-rule="nonzero"/><path stroke="#ffffff" stroke-width="3.0" stroke-linejoin="round" stroke-linecap="round" d="M466.29688 268.75266L460.70312 268.75266L460.70312 267.9714L463.65625 264.69016Q464.3125 263.94016 464.5625 263.48703Q464.8125 263.01828 464.8125 262.51828Q464.8125 261.8464 464.40625 261.42453Q464.01562 260.98703 463.32812 260.98703Q462.53125 260.98703 462.07812 261.45578Q461.625 261.9089 461.625 262.73703L460.54688 262.73703Q460.54688 261.54953 461.29688 260.83078Q462.0625 260.0964 463.32812 260.0964Q464.53125 260.0964 465.21875 260.7214Q465.90625 261.3464 465.90625 262.39328Q465.90625 263.64328 464.29688 265.39328L462.01562 267.86203L466.29688 267.86203L466.29688 268.75266ZM472.89062 262.44016Q472.89062 263.08078 472.54688 263.58078Q472.20312 264.08078 471.64062 264.36203Q472.29688 264.64328 472.6875 265.20578Q473.07812 265.75266 473.07812 266.45578Q473.07812 267.54953 472.32812 268.2214Q471.59375 268.87766 470.375 268.87766Q469.14062 268.87766 468.39062 268.2214Q467.65625 267.54953 467.65625 266.45578Q467.65625 265.75266 468.03125 265.20578Q468.40625 264.64328 469.07812 264.36203Q468.51562 264.08078 468.1875 263.58078Q467.85938 263.08078 467.85938 262.44016Q467.85938 261.36203 468.54688 260.73703Q469.23438 260.0964 470.375 260.0964Q471.5 260.0964 472.1875 260.73703Q472.89062 261.36203 472.89062 262.44016ZM472.0 266.42453Q472.0 265.70578 471.54688 265.26828Q471.09375 264.81516 470.35938 264.81516Q469.625 264.81516 469.17188 265.26828Q468.73438 265.70578 468.73438 266.44016Q468.73438 267.1589 469.17188 267.58078Q469.60938 267.98703 470.375 267.98703Q471.125 267.98703 471.5625 267.56516Q472.0 267.14328 472.0 266.42453ZM470.375 260.98703Q469.73438 260.98703 469.32812 261.39328Q468.9375 261.7839 468.9375 262.4714Q468.9375 263.11203 469.32812 263.51828Q469.71875 263.92453 470.35938 263.92453Q471.01562 263.92453 471.40625 263.51828Q471.79688 263.11203 471.79688 262.4714Q471.79688 261.81516 471.39062 261.4089Q470.98438 260.98703 470.375 260.98703Z" fill-rule="nonzero"/><path fill="#0000ff" d="M466.29688 268.75266L460.70312 268.75266L460.70312 267.9714L463.65625 264.69016Q464.3125 263.94016 464.5625 263.48703Q464.8125 263.01828 464.8125 262.51828Q464.8125 261.8464 464.40625 261.42453Q464.01562 260.98703 463.32812 260.98703Q462.53125 260.98703 462.07812 261.45578Q461.625 261.9089 461.625 262.73703L460.54688 262.73703Q460.54688 261.54953 461.29688 260.83078Q462.0625 260.0964 463.32812 260.0964Q464.53125 260.0964 465.21875 260.7214Q465.90625 261.3464 465.90625 262.39328Q465.90625 263.64328 464.29688 265.39328L462.01562 267.86203L466.29688 267.86203L466.29688 268.75266ZM472.89062 262.44016Q472.89062 263.08078 472.54688 263.58078Q472.20312 264.08078 471.64062 264.36203Q472.29688 264.64328 472.6875 265.20578Q473.07812 265.75266 473.07812 266.45578Q473.07812 267.54953 472.32812 268.2214Q471.59375 268.87766 470.375 268.87766Q469.14062 268.87766 468.39062 268.2214Q467.65625 267.54953 467.65625 266.45578Q467.65625 265.75266 468.03125 265.20578Q468.40625 264.64328 469.07812 264.36203Q468.51562 264.08078 468.1875 263.58078Q467.85938 263.08078 467.85938 262.44016Q467.85938 261.36203 468.54688 260.73703Q469.23438 260.0964 470.375 260.0964Q471.5 260.0964 472.1875 260.73703Q472.89062 261.36203 472.89062 262.44016ZM472.0 266.42453Q472.0 265.70578 471.54688 265.26828Q471.09375 264.81516 470.35938 264.81516Q469.625 264.81516 469.17188 265.26828Q468.73438 265.70578 468.73438 266.44016Q468.73438 267.1589 469.17188 267.58078Q469.60938 267.98703 470.375 267.98703Q471.125 267.98703 471.5625 267.56516Q472.0 267.14328 472.0 266.42453ZM470.375 260.98703Q469.73438 260.98703 469.32812 261.39328Q468.9375 261.7839 468.9375 262.4714Q468.9375 263.11203 469.32812 263.51828Q469.71875 263.92453 470.35938 263.92453Q471.01562 263.92453 471.40625 263.51828Q471.79688 263.11203 471.79688 262.4714Q471.79688 261.81516 471.39062 261.4089Q470.98438 260.98703 470.375 260.98703Z" fill-rule="nonzero"/><path stroke="#ffffff" stroke-width="3.0" stroke-linejoin="round" stroke-linecap="round" d="M535.7656 284.85367L534.6875 284.85367L534.6875 277.63492L532.5 278.4318L532.5 277.44742L535.6094 276.27554L535.7656 276.27554L535.7656 284.85367Z" fill-rule="nonzero"/><path fill="#0000ff" d="M535.7656 284.85367L534.6875 284.85367L534.6875 277.63492L532.5 278.4318L532.5 277.44742L535.6094 276.27554L535.7656 276.27554L535.7656 284.85367Z" fill-rule="nonzero"/><path fill="#000000" d="M312.92188 349.45L312.92188 340.85626L316.17188 340.85626Q317.01562 340.85626 317.46875 340.9344Q318.10938 341.04376 318.53125 341.34064Q318.96875 341.6375 319.21875 342.16876Q319.48438 342.7 319.48438 343.34064Q319.48438 344.4344 318.78125 345.2Q318.09375 345.95 316.26562 345.95L314.0625 345.95L314.0625 349.45L312.92188 349.45ZM314.0625 344.95L316.28125 344.95Q317.39062 344.95 317.84375 344.54376Q318.3125 344.1219 318.3125 343.3719Q318.3125 342.84064 318.03125 342.46564Q317.76562 342.075 317.32812 341.95Q317.03125 341.8719 316.26562 341.8719L314.0625 341.8719L314.0625 344.95ZM320.40625 346.34064Q320.40625 344.60626 321.35938 343.77814Q322.15625 343.09064 323.3125 343.09064Q324.59375 343.09064 325.40625 343.9344Q326.23438 344.7625 326.23438 346.2469Q326.23438 347.45 325.875 348.1375Q325.51562 348.825 324.8125 349.21564Q324.125 349.59064 323.3125 349.59064Q322.01562 349.59064 321.20312 348.7625Q320.40625 347.91876 320.40625 346.34064ZM321.48438 346.34064Q321.48438 347.52814 322.0 348.1219Q322.53125 348.71564 323.3125 348.71564Q324.10938 348.71564 324.625 348.1219Q325.14062 347.52814 325.14062 346.3094Q325.14062 345.15314 324.60938 344.5594Q324.09375 343.96564 323.3125 343.96564Q322.53125 343.96564 322.0 344.5594Q321.48438 345.1375 321.48438 346.34064ZM327.79688 342.075L327.79688 340.85626L328.85938 340.85626L328.85938 342.075L327.79688 342.075ZM327.79688 349.45L327.79688 343.23126L328.85938 343.23126L328.85938 349.45L327.79688 349.45ZM330.79688 349.45L330.79688 343.23126L331.73438 343.23126L331.73438 344.10626Q332.42188 343.09064 333.71875 343.09064Q334.28125 343.09064 334.75 343.29376Q335.23438 343.4969 335.46875 343.825Q335.70312 344.15314 335.79688 344.59064Q335.84375 344.8875 335.84375 345.6219L335.84375 349.45L334.79688 349.45L334.79688 345.66876Q334.79688 345.0125 334.67188 344.7Q334.54688 344.3875 334.23438 344.2Q333.92188 343.9969 333.5 343.9969Q332.82812 343.9969 332.32812 344.4344Q331.84375 344.85626 331.84375 346.04376L331.84375 349.45L330.79688 349.45ZM340.09375 348.5125L340.25 349.4344Q339.79688 349.52814 339.45312 349.52814Q338.875 349.52814 338.5625 349.35626Q338.25 349.16876 338.10938 348.8719Q337.98438 348.575 337.98438 347.6219L337.98438 344.04376L337.21875 344.04376L337.21875 343.23126L337.98438 343.23126L337.98438 341.6844L339.03125 341.0594L339.03125 343.23126L340.09375 343.23126L340.09375 344.04376L339.03125 344.04376L339.03125 347.6844Q339.03125 348.1375 339.07812 348.2625Q339.14062 348.3875 339.26562 348.46564Q339.39062 348.54376 339.625 348.54376Q339.8125 348.54376 340.09375 348.5125ZM340.375 347.59064L341.40625 347.4344Q341.5 348.0594 341.89062 348.3875Q342.29688 348.71564 343.03125 348.71564Q343.75 348.71564 344.09375 348.4344Q344.45312 348.1375 344.45312 347.73126Q344.45312 347.3719 344.14062 347.16876Q343.92188 347.02814 343.0625 346.8094Q341.90625 346.5125 341.45312 346.3094Q341.01562 346.09064 340.78125 345.71564Q340.54688 345.34064 340.54688 344.8719Q340.54688 344.46564 340.73438 344.10626Q340.92188 343.7469 341.25 343.5125Q341.5 343.34064 341.92188 343.21564Q342.34375 343.09064 342.84375 343.09064Q343.5625 343.09064 344.10938 343.3094Q344.67188 343.5125 344.9375 343.8719Q345.20312 344.23126 345.29688 344.825L344.26562 344.96564Q344.20312 344.4969 343.85938 344.23126Q343.53125 343.95 342.90625 343.95Q342.1875 343.95 341.875 344.2Q341.5625 344.4344 341.5625 344.7625Q341.5625 344.96564 341.6875 345.1219Q341.82812 345.29376 342.09375 345.40314Q342.25 345.46564 343.03125 345.66876Q344.15625 345.98126 344.59375 346.16876Q345.03125 346.35626 345.28125 346.71564Q345.53125 347.075 345.53125 347.6219Q345.53125 348.15314 345.21875 348.6219Q344.92188 349.075 344.34375 349.34064Q343.76562 349.59064 343.03125 349.59064Q341.8125 349.59064 341.17188 349.09064Q340.54688 348.575 340.375 347.59064Z" fill-rule="nonzero"/><path fill="#000000" d="M29.550013 236.26146L20.956263 236.26146L20.956263 235.10521L27.706263 230.58958L20.956263 230.58958L20.956263 229.49583L29.550013 229.49583L29.550013 230.66771L22.800013 235.18333L29.550013 235.18333L29.550013 236.26146ZM26.440638 227.77708Q24.706263 227.77708 23.878138 226.82396Q23.190638 226.02708 23.190638 224.87083Q23.190638 223.58958 24.034388 222.77708Q24.862513 221.94896 26.346888 221.94896Q27.550013 221.94896 28.237513 222.30833Q28.925013 222.66771 29.315638 223.37083Q29.690638 224.05833 29.690638 224.87083Q29.690638 226.16771 28.862513 226.98021Q28.018763 227.77708 26.440638 227.77708ZM26.440638 226.69896Q27.628138 226.69896 28.221888 226.18333Q28.815638 225.65208 28.815638 224.87083Q28.815638 224.07396 28.221888 223.55833Q27.628138 223.04271 26.409388 223.04271Q25.253138 223.04271 24.659388 223.57396Q24.065638 224.08958 24.065638 224.87083Q24.065638 225.65208 24.659388 226.18333Q25.237513 226.69896 26.440638 226.69896ZM29.550013 220.38646L23.331263 220.38646L23.331263 219.44896L24.206263 219.44896Q23.737513 219.15208 23.471888 218.66771Q23.190638 218.18333 23.190638 217.55833Q23.190638 216.87083 23.471888 216.43333Q23.753138 215.98021 24.268763 215.80833Q23.190638 215.05833 23.190638 213.88646Q23.190638 212.94896 23.706263 212.46458Q24.206263 211.96458 25.284388 211.96458L29.550013 211.96458L29.550013 213.01146L25.628138 213.01146Q25.003138 213.01146 24.721888 213.12083Q24.440638 213.21458 24.268763 213.48021Q24.096888 213.74583 24.096888 214.12083Q24.096888 214.77708 24.534388 215.21458Q24.971888 215.63646 25.940638 215.63646L29.550013 215.63646L29.550013 216.69896L25.503138 216.69896Q24.800013 216.69896 24.456263 216.96458Q24.096888 217.21458 24.096888 217.79271Q24.096888 218.24583 24.331263 218.62083Q24.565638 218.99583 25.018763 219.16771Q25.471888 219.33958 26.315638 219.33958L29.550013 219.33958L29.550013 220.38646ZM29.550013 208.41771L29.550013 209.40208L20.956263 209.40208L20.956263 208.33958L24.018763 208.33958Q23.190638 207.66771 23.190638 206.63646Q23.190638 206.05833 23.425013 205.55833Q23.643763 205.04271 24.065638 204.71458Q24.487513 204.37083 25.081263 204.18333Q25.675013 203.99583 26.346888 203.99583Q27.940638 203.99583 28.815638 204.79271Q29.690638 205.58958 29.690638 206.68333Q29.690638 207.79271 28.768763 208.41771L29.550013 208.41771ZM26.393763 208.43333Q27.503138 208.43333 28.003138 208.12083Q28.815638 207.62083 28.815638 206.77708Q28.815638 206.08958 28.221888 205.58958Q27.628138 205.07396 26.425013 205.07396Q25.206263 205.07396 24.628138 205.55833Q24.050013 206.04271 24.050013 206.73021Q24.050013 207.41771 24.659388 207.93333Q25.253138 208.43333 26.393763 208.43333ZM29.550013 202.40208L23.331263 202.40208L23.331263 201.44896L24.268763 201.44896Q23.612513 201.08958 23.409388 200.79271Q23.190638 200.48021 23.190638 200.10521Q23.190638 199.57396 23.518763 199.02708L24.503138 199.38646Q24.268763 199.77708 24.268763 200.15208Q24.268763 200.51146 24.487513 200.79271Q24.690638 201.05833 25.065638 201.16771Q25.628138 201.35521 26.284388 201.35521L29.550013 201.35521L29.550013 202.40208ZM27.550013 194.13646L27.675013 193.04271Q28.628138 193.29271 29.159388 193.99583Q29.690638 194.69896 29.690638 195.77708Q29.690638 197.13646 28.846888 197.94896Q28.003138 198.74583 26.487513 198.74583Q24.925013 198.74583 24.065638 197.93333Q23.190638 197.12083 23.190638 195.83958Q23.190638 194.58958 24.034388 193.80833Q24.878138 193.01146 26.425013 193.01146Q26.518763 193.01146 26.706263 193.01146L26.706263 197.65208Q27.737513 197.58958 28.284388 197.07396Q28.815638 196.55833 28.815638 195.77708Q28.815638 195.19896 28.518763 194.79271Q28.206263 194.37083 27.550013 194.13646ZM25.846888 197.58958L25.846888 194.12083Q25.050013 194.18333 24.659388 194.51146Q24.050013 195.02708 24.050013 195.82396Q24.050013 196.55833 24.534388 197.05833Q25.018763 197.54271 25.846888 197.58958ZM29.550013 184.35521L28.768763 184.35521Q29.690638 184.94896 29.690638 186.08958Q29.690638 186.83958 29.284388 187.46458Q28.862513 188.08958 28.128138 188.43333Q27.393763 188.77708 26.440638 188.77708Q25.518763 188.77708 24.753138 188.46458Q23.987513 188.15208 23.596888 187.52708Q23.190638 186.90208 23.190638 186.13646Q23.190638 185.57396 23.425013 185.13646Q23.659388 184.69896 24.034388 184.41771L20.956263 184.41771L20.956263 183.37083L29.550013 183.37083L29.550013 184.35521ZM26.440638 187.68333Q27.643763 187.68333 28.237513 187.18333Q28.815638 186.68333 28.815638 185.99583Q28.815638 185.30833 28.253138 184.82396Q27.690638 184.33958 26.534388 184.33958Q25.253138 184.33958 24.659388 184.83958Q24.065638 185.32396 24.065638 186.04271Q24.065638 186.74583 24.643763 187.21458Q25.206263 187.68333 26.440638 187.68333ZM27.550013 177.13646L27.675013 176.04271Q28.628138 176.29271 29.159388 176.99583Q29.690638 177.69896 29.690638 178.77708Q29.690638 180.13646 28.846888 180.94896Q28.003138 181.74583 26.487513 181.74583Q24.925013 181.74583 24.065638 180.93333Q23.190638 180.12083 23.190638 178.83958Q23.190638 177.58958 24.034388 176.80833Q24.878138 176.01146 26.425013 176.01146Q26.518763 176.01146 26.706263 176.01146L26.706263 180.65208Q27.737513 180.58958 28.284388 180.07396Q28.815638 179.55833 28.815638 178.77708Q28.815638 178.19896 28.518763 177.79271Q28.206263 177.37083 27.550013 177.13646ZM25.846888 180.58958L25.846888 177.12083Q25.050013 177.18333 24.659388 177.51146Q24.050013 178.02708 24.050013 178.82396Q24.050013 179.55833 24.534388 180.05833Q25.018763 180.54271 25.846888 180.58958ZM30.065638 171.58958L30.221888 170.55833Q30.690638 170.49583 30.909388 170.19896Q31.206263 169.80833 31.206263 169.13646Q31.206263 168.40208 30.909388 168.01146Q30.612513 167.60521 30.096888 167.46458Q29.768763 167.37083 28.737513 167.38646Q29.550013 168.07396 29.550013 169.10521Q29.550013 170.38646 28.628138 171.08958Q27.690638 171.79271 26.409388 171.79271Q25.518763 171.79271 24.768763 171.48021Q24.003138 171.15208 23.596888 170.54271Q23.190638 169.93333 23.190638 169.10521Q23.190638 167.99583 24.081263 167.27708L23.331263 167.27708L23.331263 166.30833L28.706263 166.30833Q30.159388 166.30833 30.768763 166.60521Q31.378138 166.90208 31.721888 167.54271Q32.08126 168.18333 32.08126 169.12083Q32.08126 170.23021 31.581263 170.91771Q31.081263 171.60521 30.065638 171.58958ZM26.331263 170.71458Q27.550013 170.71458 28.112513 170.23021Q28.675013 169.74583 28.675013 169.01146Q28.675013 168.27708 28.112513 167.79271Q27.550013 167.29271 26.362513 167.29271Q25.221888 167.29271 24.643763 167.80833Q24.065638 168.30833 24.065638 169.02708Q24.065638 169.73021 24.643763 170.23021Q25.206263 170.71458 26.331263 170.71458ZM29.550013 164.40208L23.331263 164.40208L23.331263 163.44896L24.268763 163.44896Q23.612513 163.08958 23.409388 162.79271Q23.190638 162.48021 23.190638 162.10521Q23.190638 161.57396 23.518763 161.02708L24.503138 161.38646Q24.268763 161.77708 24.268763 162.15208Q24.268763 162.51146 24.487513 162.79271Q24.690638 163.05833 25.065638 163.16771Q25.628138 163.35521 26.284388 163.35521L29.550013 163.35521L29.550013 164.40208ZM22.175013 160.38646L20.956263 160.38646L20.956263 159.32396L22.175013 159.32396L22.175013 160.38646ZM29.550013 160.38646L23.331263 160.38646L23.331263 159.32396L29.550013 159.32396L29.550013 160.38646ZM29.550013 157.41771L20.956263 157.41771L20.956263 156.35521L29.550013 156.35521L29.550013 157.41771ZM29.550013 154.41771L20.956263 154.41771L20.956263 153.35521L29.550013 153.35521L29.550013 154.41771ZM27.550013 147.13646L27.675013 146.04271Q28.628138 146.29271 29.159388 146.99583Q29.690638 147.69896 29.690638 148.77708Q29.690638 150.13646 28.846888 150.94896Q28.003138 151.74583 26.487513 151.74583Q24.925013 151.74583 24.065638 150.93333Q23.190638 150.12083 23.190638 148.83958Q23.190638 147.58958 24.034388 146.80833Q24.878138 146.01146 26.425013 146.01146Q26.518763 146.01146 26.706263 146.01146L26.706263 150.65208Q27.737513 150.58958 28.284388 150.07396Q28.815638 149.55833 28.815638 148.77708Q28.815638 148.19896 28.518763 147.79271Q28.206263 147.37083 27.550013 147.13646ZM25.846888 150.58958L25.846888 147.12083Q25.050013 147.18333 24.659388 147.51146Q24.050013 148.02708 24.050013 148.82396Q24.050013 149.55833 24.534388 150.05833Q25.018763 150.54271 25.846888 150.58958ZM27.690638 144.80833L27.534388 143.77708Q28.159388 143.68333 28.487513 143.29271Q28.815638 142.88646 28.815638 142.15208Q28.815638 141.43333 28.534388 141.08958Q28.237513 140.73021 27.831263 140.73021Q27.471888 140.73021 27.268763 141.04271Q27.128138 141.26146 26.909388 142.12083Q26.612513 143.27708 26.409388 143.73021Q26.190638 144.16771 25.815638 144.40208Q25.440638 144.63646 24.971888 144.63646Q24.565638 144.63646 24.206263 144.44896Q23.846888 144.26146 23.612513 143.93333Q23.440638 143.68333 23.315638 143.26146Q23.190638 142.83958 23.190638 142.33958Q23.190638 141.62083 23.409388 141.07396Q23.612513 140.51146 23.971888 140.24583Q24.331263 139.98021 24.925013 139.88646L25.065638 140.91771Q24.596888 140.98021 24.331263 141.32396Q24.050013 141.65208 24.050013 142.27708Q24.050013 142.99583 24.300013 143.30833Q24.534388 143.62083 24.862513 143.62083Q25.065638 143.62083 25.221888 143.49583Q25.393763 143.35521 25.503138 143.08958Q25.565638 142.93333 25.768763 142.15208Q26.081263 141.02708 26.268763 140.58958Q26.456263 140.15208 26.815638 139.90208Q27.175013 139.65208 27.721888 139.65208Q28.253138 139.65208 28.721888 139.96458Q29.175013 140.26146 29.440638 140.83958Q29.690638 141.41771 29.690638 142.15208Q29.690638 143.37083 29.190638 144.01146Q28.675013 144.63646 27.690638 144.80833Z" fill-rule="nonzero"/><path fill="#000000" d="M65.05 300.21564Q65.05 298.6844 65.3625 297.7625Q65.675 296.825 66.28438 296.325Q66.90938 295.825 67.84688 295.825Q68.53438 295.825 69.05 296.10626Q69.58125 296.3875 69.925 296.91876Q70.26875 297.4344 70.45625 298.1844Q70.64375 298.9344 70.64375 300.21564Q70.64375 301.73126 70.33125 302.65314Q70.03438 303.575 69.40938 304.09064Q68.8 304.59064 67.84688 304.59064Q66.6125 304.59064 65.89375 303.7Q65.05 302.6375 65.05 300.21564ZM66.12813 300.21564Q66.12813 302.325 66.62813 303.02814Q67.12813 303.73126 67.84688 303.73126Q68.58125 303.73126 69.06563 303.02814Q69.56563 302.325 69.56563 300.21564Q69.56563 298.09064 69.06563 297.40314Q68.58125 296.7 67.83125 296.7Q67.1125 296.7 66.675 297.3094Q66.12813 298.09064 66.12813 300.21564Z" fill-rule="nonzero"/><path fill="#000000" d="M55.01875 244.81667L53.971874 244.81667L53.971874 238.09792Q53.58125 238.45729 52.95625 238.83229Q52.346874 239.19167 51.8625 239.36354L51.8625 238.34792Q52.7375 237.92604 53.39375 237.34792Q54.065624 236.75417 54.346874 236.19167L55.01875 236.19167L55.01875 244.81667ZM58.05 240.58229Q58.05 239.05104 58.3625 238.12917Q58.675 237.19167 59.284374 236.69167Q59.909374 236.19167 60.846874 236.19167Q61.534374 236.19167 62.05 236.47292Q62.58125 236.75417 62.925 237.28542Q63.26875 237.80104 63.45625 238.55104Q63.64375 239.30104 63.64375 240.58229Q63.64375 242.09792 63.33125 243.01979Q63.034374 243.94167 62.409374 244.45729Q61.8 244.95729 60.846874 244.95729Q59.6125 244.95729 58.89375 244.06667Q58.05 243.00417 58.05 240.58229ZM59.128124 240.58229Q59.128124 242.69167 59.628124 243.39479Q60.128124 244.09792 60.846874 244.09792Q61.58125 244.09792 62.065624 243.39479Q62.565624 242.69167 62.565624 240.58229Q62.565624 238.45729 62.065624 237.76979Q61.58125 237.06667 60.83125 237.06667Q60.1125 237.06667 59.675 237.67604Q59.128124 238.45729 59.128124 240.58229ZM65.05 240.58229Q65.05 239.05104 65.3625 238.12917Q65.675 237.19167 66.28438 236.69167Q66.90938 236.19167 67.84688 236.19167Q68.53438 236.19167 69.05 236.47292Q69.58125 236.75417 69.925 237.28542Q70.26875 237.80104 70.45625 238.55104Q70.64375 239.30104 70.64375 240.58229Q70.64375 242.09792 70.33125 243.01979Q70.03438 243.94167 69.40938 244.45729Q68.8 244.95729 67.84688 244.95729Q66.6125 244.95729 65.89375 244.06667Q65.05 243.00417 65.05 240.58229ZM66.12813 240.58229Q66.12813 242.69167 66.62813 243.39479Q67.12813 244.09792 67.84688 244.09792Q68.58125 244.09792 69.06563 243.39479Q69.56563 242.69167 69.56563 240.58229Q69.56563 238.45729 69.06563 237.76979Q68.58125 237.06667 67.83125 237.06667Q67.1125 237.06667 66.675 237.67604Q66.12813 238.45729 66.12813 240.58229Z" fill-rule="nonzero"/><path fill="#000000" d="M56.596874 184.16771L56.596874 185.18333L50.909374 185.18333Q50.909374 184.80833 51.034374 184.44896Q51.253124 183.87083 51.721874 183.30833Q52.20625 182.74583 53.1125 182.01146Q54.51875 180.85521 55.003124 180.18333Q55.503124 179.51146 55.503124 178.91771Q55.503124 178.29271 55.05 177.87083Q54.596874 177.43333 53.878124 177.43333Q53.1125 177.43333 52.659374 177.88646Q52.20625 178.33958 52.190624 179.15208L51.1125 179.04271Q51.221874 177.82396 51.940624 177.19896Q52.675 176.55833 53.909374 176.55833Q55.14375 176.55833 55.8625 177.24583Q56.58125 177.93333 56.58125 178.94896Q56.58125 179.46458 56.3625 179.96458Q56.159374 180.44896 55.659374 181.01146Q55.175 181.55833 54.05 182.51146Q53.096874 183.30833 52.815624 183.60521Q52.55 183.88646 52.378124 184.16771L56.596874 184.16771ZM58.05 180.94896Q58.05 179.41771 58.3625 178.49583Q58.675 177.55833 59.284374 177.05833Q59.909374 176.55833 60.846874 176.55833Q61.534374 176.55833 62.05 176.83958Q62.58125 177.12083 62.925 177.65208Q63.26875 178.16771 63.45625 178.91771Q63.64375 179.66771 63.64375 180.94896Q63.64375 182.46458 63.33125 183.38646Q63.034374 184.30833 62.409374 184.82396Q61.8 185.32396 60.846874 185.32396Q59.6125 185.32396 58.89375 184.43333Q58.05 183.37083 58.05 180.94896ZM59.128124 180.94896Q59.128124 183.05833 59.628124 183.76146Q60.128124 184.46458 60.846874 184.46458Q61.58125 184.46458 62.065624 183.76146Q62.565624 183.05833 62.565624 180.94896Q62.565624 178.82396 62.065624 178.13646Q61.58125 177.43333 60.83125 177.43333Q60.1125 177.43333 59.675 178.04271Q59.128124 178.82396 59.128124 180.94896ZM65.05 180.94896Q65.05 179.41771 65.3625 178.49583Q65.675 177.55833 66.28438 177.05833Q66.90938 176.55833 67.84688 176.55833Q68.53438 176.55833 69.05 176.83958Q69.58125 177.12083 69.925 177.65208Q70.26875 178.16771 70.45625 178.91771Q70.64375 179.66771 70.64375 180.94896Q70.64375 182.46458 70.33125 183.38646Q70.03438 184.30833 69.40938 184.82396Q68.8 185.32396 67.84688 185.32396Q66.6125 185.32396 65.89375 184.43333Q65.05 183.37083 65.05 180.94896ZM66.12813 180.94896Q66.12813 183.05833 66.62813 183.76146Q67.12813 184.46458 67.84688 184.46458Q68.58125 184.46458 69.06563 183.76146Q69.56563 183.05833 69.56563 180.94896Q69.56563 178.82396 69.06563 178.13646Q68.58125 177.43333 67.83125 177.43333Q67.1125 177.43333 66.675 178.04271Q66.12813 178.82396 66.12813 180.94896Z" fill-rule="nonzero"/><path fill="#000000" d="M51.05 123.28438L52.1125 123.14375Q52.284374 124.03438 52.721874 124.44063Q53.159374 124.83125 53.784374 124.83125Q54.534374 124.83125 55.05 124.31563Q55.565624 123.8 55.565624 123.03438Q55.565624 122.31563 55.08125 121.84688Q54.6125 121.3625 53.878124 121.3625Q53.58125 121.3625 53.128124 121.4875L53.253124 120.55Q53.3625 120.56563 53.425 120.56563Q54.096874 120.56563 54.628124 120.22188Q55.175 119.8625 55.175 119.12813Q55.175 118.55 54.784374 118.175Q54.39375 117.78438 53.76875 117.78438Q53.159374 117.78438 52.7375 118.175Q52.33125 118.56563 52.221874 119.33125L51.159374 119.14375Q51.346874 118.09688 52.034374 117.51875Q52.721874 116.925 53.7375 116.925Q54.440624 116.925 55.034374 117.2375Q55.628124 117.53438 55.940624 118.05Q56.253124 118.56563 56.253124 119.15938Q56.253124 119.70625 55.95625 120.175Q55.659374 120.62813 55.08125 120.89375Q55.83125 121.06563 56.253124 121.62813Q56.675 122.175 56.675 123.01875Q56.675 124.14375 55.846874 124.925Q55.034374 125.70625 53.784374 125.70625Q52.659374 125.70625 51.909374 125.03438Q51.159374 124.34688 51.05 123.28438ZM58.05 121.31563Q58.05 119.78438 58.3625 118.8625Q58.675 117.925 59.284374 117.425Q59.909374 116.925 60.846874 116.925Q61.534374 116.925 62.05 117.20625Q62.58125 117.4875 62.925 118.01875Q63.26875 118.53438 63.45625 119.28438Q63.64375 120.03438 63.64375 121.31563Q63.64375 122.83125 63.33125 123.75313Q63.034374 124.675 62.409374 125.19063Q61.8 125.69063 60.846874 125.69063Q59.6125 125.69063 58.89375 124.8Q58.05 123.7375 58.05 121.31563ZM59.128124 121.31563Q59.128124 123.425 59.628124 124.12813Q60.128124 124.83125 60.846874 124.83125Q61.58125 124.83125 62.065624 124.12813Q62.565624 123.425 62.565624 121.31563Q62.565624 119.19063 62.065624 118.50313Q61.58125 117.8 60.83125 117.8Q60.1125 117.8 59.675 118.40938Q59.128124 119.19063 59.128124 121.31563ZM65.05 121.31563Q65.05 119.78438 65.3625 118.8625Q65.675 117.925 66.28438 117.425Q66.90938 116.925 67.84688 116.925Q68.53438 116.925 69.05 117.20625Q69.58125 117.4875 69.925 118.01875Q70.26875 118.53438 70.45625 119.28438Q70.64375 120.03438 70.64375 121.31563Q70.64375 122.83125 70.33125 123.75313Q70.03438 124.675 69.40938 125.19063Q68.8 125.69063 67.84688 125.69063Q66.6125 125.69063 65.89375 124.8Q65.05 123.7375 65.05 121.31563ZM66.12813 121.31563Q66.12813 123.425 66.62813 124.12813Q67.12813 124.83125 67.84688 124.83125Q68.58125 124.83125 69.06563 124.12813Q69.56563 123.425 69.56563 121.31563Q69.56563 119.19063 69.06563 118.50313Q68.58125 117.8 67.83125 117.8Q67.1125 117.8 66.675 118.40938Q66.12813 119.19063 66.12813 121.31563Z" fill-rule="nonzero"/><path fill="#000000" d="M54.425 65.916664L54.425 63.854164L50.70625 63.854164L50.70625 62.885414L54.628124 57.322914L55.4875 57.322914L55.4875 62.885414L56.64375 62.885414L56.64375 63.854164L55.4875 63.854164L55.4875 65.916664L54.425 65.916664ZM54.425 62.885414L54.425 59.02604L51.7375 62.885414L54.425 62.885414ZM58.05 61.68229Q58.05 60.15104 58.3625 59.229164Q58.675 58.291664 59.284374 57.791664Q59.909374 57.291664 60.846874 57.291664Q61.534374 57.291664 62.05 57.572914Q62.58125 57.854164 62.925 58.385414Q63.26875 58.90104 63.45625 59.65104Q63.64375 60.40104 63.64375 61.68229Q63.64375 63.197914 63.33125 64.11979Q63.034374 65.041664 62.409374 65.55729Q61.8 66.05729 60.846874 66.05729Q59.6125 66.05729 58.89375 65.166664Q58.05 64.104164 58.05 61.68229ZM59.128124 61.68229Q59.128124 63.791664 59.628124 64.49479Q60.128124 65.197914 60.846874 65.197914Q61.58125 65.197914 62.065624 64.49479Q62.565624 63.791664 62.565624 61.68229Q62.565624 59.55729 62.065624 58.86979Q61.58125 58.166664 60.83125 58.166664Q60.1125 58.166664 59.675 58.77604Q59.128124 59.55729 59.128124 61.68229ZM65.05 61.68229Q65.05 60.15104 65.3625 59.229164Q65.675 58.291664 66.28438 57.791664Q66.90938 57.291664 67.84688 57.291664Q68.53438 57.291664 69.05 57.572914Q69.58125 57.854164 69.925 58.385414Q70.26875 58.90104 70.45625 59.65104Q70.64375 60.40104 70.64375 61.68229Q70.64375 63.197914 70.33125 64.11979Q70.03438 65.041664 69.40938 65.55729Q68.8 66.05729 67.84688 66.05729Q66.6125 66.05729 65.89375 65.166664Q65.05 64.104164 65.05 61.68229ZM66.12813 61.68229Q66.12813 63.791664 66.62813 64.49479Q67.12813 65.197914 67.84688 65.197914Q68.58125 65.197914 69.06563 64.49479Q69.56563 63.791664 69.56563 61.68229Q69.56563 59.55729 69.06563 58.86979Q68.58125 58.166664 67.83125 58.166664Q67.1125 58.166664 66.675 58.77604Q66.12813 59.55729 66.12813 61.68229Z" fill-rule="nonzero"/><path fill="#000000" d="M122.45153 312.79376Q121.79528 312.54376 121.467155 312.10626Q121.154655 311.65314 121.154655 311.04376Q121.154655 310.10626 121.82653 309.46564Q122.51403 308.825 123.623405 308.825Q124.748405 308.825 125.435905 309.48126Q126.123405 310.1375 126.123405 311.075Q126.123405 311.66876 125.810905 312.10626Q125.498405 312.54376 124.85778 312.79376Q125.654655 313.04376 126.060905 313.6219Q126.467155 314.2 126.467155 314.9969Q126.467155 316.09064 125.685905 316.84064Q124.92028 317.59064 123.63903 317.59064Q122.373405 317.59064 121.592155 316.84064Q120.810905 316.09064 120.810905 314.96564Q120.810905 314.1219 121.23278 313.5594Q121.67028 312.9969 122.45153 312.79376ZM122.23278 310.9969Q122.23278 311.60626 122.623405 311.9969Q123.029655 312.3875 123.654655 312.3875Q124.26403 312.3875 124.654655 312.0125Q125.04528 311.6219 125.04528 311.0594Q125.04528 310.48126 124.63903 310.09064Q124.23278 309.6844 123.63903 309.6844Q123.029655 309.6844 122.623405 310.075Q122.23278 310.46564 122.23278 310.9969ZM121.904655 314.96564Q121.904655 315.41876 122.10778 315.84064Q122.32653 316.2625 122.748405 316.4969Q123.17028 316.73126 123.654655 316.73126Q124.404655 316.73126 124.88903 316.2469Q125.38903 315.7625 125.38903 315.0125Q125.38903 314.2469 124.88903 313.7469Q124.38903 313.2469 123.623405 313.2469Q122.873405 313.2469 122.38903 313.7469Q121.904655 314.23126 121.904655 314.96564Z" fill-rule="nonzero"/><path fill="#000000" d="M189.5406 315.46564L190.55623 315.3719Q190.68123 316.09064 191.0406 316.41876Q191.4156 316.73126 191.9781 316.73126Q192.46248 316.73126 192.82185 316.5125Q193.19685 316.27814 193.43123 315.91876Q193.6656 315.54376 193.82185 314.91876Q193.9781 314.27814 193.9781 313.6219Q193.9781 313.54376 193.9781 313.40314Q193.6656 313.90314 193.11873 314.23126Q192.57185 314.54376 191.93123 314.54376Q190.8531 314.54376 190.11873 313.77814Q189.38435 312.9969 189.38435 311.73126Q189.38435 310.41876 190.14998 309.6219Q190.93123 308.825 192.08748 308.825Q192.9156 308.825 193.6031 309.27814Q194.30623 309.73126 194.6656 310.575Q195.02498 311.40314 195.02498 312.98126Q195.02498 314.6219 194.6656 315.60626Q194.32185 316.575 193.6031 317.09064Q192.89998 317.59064 191.96248 317.59064Q190.94685 317.59064 190.30623 317.04376Q189.6656 316.48126 189.5406 315.46564ZM193.8531 311.66876Q193.8531 310.7625 193.36873 310.23126Q192.89998 309.7 192.21248 309.7Q191.50935 309.7 190.9781 310.27814Q190.46248 310.84064 190.46248 311.7625Q190.46248 312.575 190.96248 313.09064Q191.46248 313.60626 192.18123 313.60626Q192.9156 313.60626 193.38435 313.09064Q193.8531 312.575 193.8531 311.66876Z" fill-rule="nonzero"/><path fill="#000000" d="M258.41095 317.45L257.36407 317.45L257.36407 310.73126Q256.97345 311.09064 256.34845 311.46564Q255.73906 311.825 255.25468 311.9969L255.25468 310.98126Q256.1297 310.5594 256.78595 309.98126Q257.45782 309.3875 257.73907 308.825L258.41095 308.825L258.41095 317.45ZM261.4422 313.21564Q261.4422 311.6844 261.7547 310.7625Q262.0672 309.825 262.67657 309.325Q263.30157 308.825 264.23907 308.825Q264.92657 308.825 265.4422 309.10626Q265.97345 309.3875 266.3172 309.91876Q266.66095 310.4344 266.84845 311.1844Q267.03595 311.9344 267.03595 313.21564Q267.03595 314.73126 266.72345 315.65314Q266.42657 316.575 265.80157 317.09064Q265.1922 317.59064 264.23907 317.59064Q263.0047 317.59064 262.28595 316.7Q261.4422 315.6375 261.4422 313.21564ZM262.52032 313.21564Q262.52032 315.325 263.02032 316.02814Q263.52032 316.73126 264.23907 316.73126Q264.97345 316.73126 265.45782 316.02814Q265.95782 315.325 265.95782 313.21564Q265.95782 311.09064 265.45782 310.40314Q264.97345 309.7 264.22345 309.7Q263.5047 309.7 263.0672 310.3094Q262.52032 311.09064 262.52032 313.21564Z" fill-rule="nonzero"/><path fill="#000000" d="M326.96875 317.45L325.92188 317.45L325.92188 310.73126Q325.53125 311.09064 324.90625 311.46564Q324.29688 311.825 323.8125 311.9969L323.8125 310.98126Q324.6875 310.5594 325.34375 309.98126Q326.01562 309.3875 326.29688 308.825L326.96875 308.825L326.96875 317.45ZM333.96875 317.45L332.92188 317.45L332.92188 310.73126Q332.53125 311.09064 331.90625 311.46564Q331.29688 311.825 330.8125 311.9969L330.8125 310.98126Q331.6875 310.5594 332.34375 309.98126Q333.01562 309.3875 333.29688 308.825L333.96875 308.825L333.96875 317.45Z" fill-rule="nonzero"/><path fill="#000000" d="M395.52658 317.45L394.4797 317.45L394.4797 310.73126Q394.08908 311.09064 393.46408 311.46564Q392.8547 311.825 392.37033 311.9969L392.37033 310.98126Q393.24533 310.5594 393.90158 309.98126Q394.57346 309.3875 394.8547 308.825L395.52658 308.825L395.52658 317.45ZM404.1047 316.4344L404.1047 317.45L398.4172 317.45Q398.4172 317.075 398.5422 316.71564Q398.76096 316.1375 399.2297 315.575Q399.71408 315.0125 400.62033 314.27814Q402.02658 313.1219 402.51096 312.45Q403.01096 311.77814 403.01096 311.1844Q403.01096 310.5594 402.55783 310.1375Q402.1047 309.7 401.38596 309.7Q400.62033 309.7 400.1672 310.15314Q399.71408 310.60626 399.69846 311.41876L398.62033 311.3094Q398.7297 310.09064 399.44846 309.46564Q400.18283 308.825 401.4172 308.825Q402.65158 308.825 403.37033 309.5125Q404.08908 310.2 404.08908 311.21564Q404.08908 311.73126 403.87033 312.23126Q403.6672 312.71564 403.1672 313.27814Q402.68283 313.825 401.55783 314.77814Q400.6047 315.575 400.32346 315.8719Q400.05783 316.15314 399.88596 316.4344L404.1047 316.4344Z" fill-rule="nonzero"/><path fill="#000000" d="M464.08438 317.45L463.0375 317.45L463.0375 310.73126Q462.64688 311.09064 462.02188 311.46564Q461.4125 311.825 460.92813 311.9969L460.92813 310.98126Q461.80313 310.5594 462.45938 309.98126Q463.13126 309.3875 463.4125 308.825L464.08438 308.825L464.08438 317.45ZM467.11563 315.1844L468.17813 315.04376Q468.35 315.9344 468.7875 316.34064Q469.225 316.73126 469.85 316.73126Q470.6 316.73126 471.11563 316.21564Q471.63126 315.7 471.63126 314.9344Q471.63126 314.21564 471.14688 313.7469Q470.67813 313.2625 469.94376 313.2625Q469.64688 313.2625 469.19376 313.3875L469.31876 312.45Q469.42813 312.46564 469.49063 312.46564Q470.1625 312.46564 470.69376 312.1219Q471.24063 311.7625 471.24063 311.02814Q471.24063 310.45 470.85 310.075Q470.45938 309.6844 469.83438 309.6844Q469.225 309.6844 468.80313 310.075Q468.39688 310.46564 468.2875 311.23126L467.225 311.04376Q467.4125 309.9969 468.1 309.41876Q468.7875 308.825 469.80313 308.825Q470.50626 308.825 471.1 309.1375Q471.69376 309.4344 472.00626 309.95Q472.31876 310.46564 472.31876 311.0594Q472.31876 311.60626 472.02188 312.075Q471.725 312.52814 471.14688 312.79376Q471.89688 312.96564 472.31876 313.52814Q472.74063 314.075 472.74063 314.91876Q472.74063 316.04376 471.9125 316.825Q471.1 317.60626 469.85 317.60626Q468.725 317.60626 467.975 316.9344Q467.225 316.2469 467.11563 315.1844Z" fill-rule="nonzero"/><path fill="#000000" d="M532.6422 317.45L531.59534 317.45L531.59534 310.73126Q531.2047 311.09064 530.5797 311.46564Q529.97034 311.825 529.48596 311.9969L529.48596 310.98126Q530.36096 310.5594 531.0172 309.98126Q531.6891 309.3875 531.97034 308.825L532.6422 308.825L532.6422 317.45ZM539.04846 317.45L539.04846 315.3875L535.3297 315.3875L535.3297 314.41876L539.2516 308.85626L540.11096 308.85626L540.11096 314.41876L541.2672 314.41876L541.2672 315.3875L540.11096 315.3875L540.11096 317.45L539.04846 317.45ZM539.04846 314.41876L539.04846 310.5594L536.36096 314.41876L539.04846 314.41876Z" fill-rule="nonzero"/><path fill="#757575" d="M266.75 31.940624L266.75 30.253124L272.8125 30.2375L272.8125 35.55Q271.40625 36.675 269.92188 37.2375Q268.4375 37.8 266.875 37.8Q264.76562 37.8 263.04688 36.89375Q261.32812 35.9875 260.4375 34.284374Q259.5625 32.565624 259.5625 30.45625Q259.5625 28.3625 260.4375 26.565624Q261.3125 24.753124 262.95312 23.878124Q264.59375 22.9875 266.73438 22.9875Q268.28125 22.9875 269.53125 23.4875Q270.79688 23.9875 271.5 24.89375Q272.21875 25.784374 272.59375 27.2375L270.89062 27.70625Q270.5625 26.6125 270.07812 25.9875Q269.60938 25.3625 268.71875 24.9875Q267.82812 24.6125 266.75 24.6125Q265.4375 24.6125 264.48438 25.003124Q263.54688 25.39375 262.96875 26.05Q262.39062 26.690624 262.0625 27.45625Q261.51562 28.784374 261.51562 30.346874Q261.51562 32.253124 262.17188 33.55Q262.84375 34.83125 264.09375 35.45625Q265.35938 36.08125 266.76562 36.08125Q268.0 36.08125 269.17188 35.6125Q270.34375 35.14375 270.95312 34.596874L270.95312 31.940624L266.75 31.940624ZM275.79688 37.55L275.79688 27.175L277.375 27.175L277.375 28.753124Q277.98438 27.64375 278.5 27.3Q279.01562 26.940624 279.625 26.940624Q280.51562 26.940624 281.4375 27.503124L280.82812 29.14375Q280.1875 28.753124 279.54688 28.753124Q278.96875 28.753124 278.5 29.1125Q278.04688 29.45625 277.84375 30.065624Q277.5625 31.003124 277.5625 32.1125L277.5625 37.55L275.79688 37.55ZM282.82812 25.253124L282.82812 23.2375L284.59375 23.2375L284.59375 25.253124L282.82812 25.253124ZM282.82812 37.55L282.82812 27.175L284.59375 27.175L284.59375 37.55L282.82812 37.55ZM286.78125 37.55L286.78125 23.2375L288.53125 23.2375L288.53125 37.55L286.78125 37.55ZM290.78125 37.55L290.78125 23.2375L292.53125 23.2375L292.53125 37.55L290.78125 37.55ZM301.92188 34.20625L303.73438 34.440624Q303.3125 36.01875 302.14062 36.909374Q300.98438 37.784374 299.17188 37.784374Q296.90625 37.784374 295.5625 36.39375Q294.23438 34.9875 294.23438 32.45625Q294.23438 29.83125 295.57812 28.39375Q296.92188 26.940624 299.07812 26.940624Q301.15625 26.940624 302.46875 28.3625Q303.79688 29.76875 303.79688 32.346874Q303.79688 32.503124 303.78125 32.815624L296.04688 32.815624Q296.14062 34.51875 297.01562 35.425Q297.89062 36.33125 299.1875 36.33125Q300.15625 36.33125 300.82812 35.83125Q301.51562 35.315624 301.92188 34.20625ZM296.14062 31.3625L301.9375 31.3625Q301.82812 30.065624 301.28125 29.409374Q300.4375 28.39375 299.09375 28.39375Q297.89062 28.39375 297.0625 29.20625Q296.23438 30.003124 296.14062 31.3625ZM311.45312 25.1125L311.45312 23.425L320.71875 23.425L320.71875 24.784374Q319.34375 26.2375 318.0 28.659374Q316.65625 31.065624 315.9375 33.6125Q315.40625 35.409374 315.25 37.55L313.45312 37.55Q313.48438 35.8625 314.10938 33.471874Q314.75 31.08125 315.9375 28.8625Q317.125 26.628124 318.45312 25.1125L311.45312 25.1125ZM321.64062 37.55L325.4375 32.159374L321.9375 27.175L324.125 27.175L325.71875 29.6125Q326.17188 30.3 326.4375 30.76875Q326.875 30.128124 327.23438 29.628124L328.98438 27.175L331.07812 27.175L327.5 32.065624L331.35938 37.55L329.20312 37.55L327.0625 34.33125L326.5 33.45625L323.78125 37.55L321.64062 37.55ZM331.45312 25.1125L331.45312 23.425L340.71875 23.425L340.71875 24.784374Q339.34375 26.2375 338.0 28.659374Q336.65625 31.065624 335.9375 33.6125Q335.40625 35.409374 335.25 37.55L333.45312 37.55Q333.48438 35.8625 334.10938 33.471874Q334.75 31.08125 335.9375 28.8625Q337.125 26.628124 338.45312 25.1125L331.45312 25.1125Z" fill-rule="nonzero"/></svg>