<svg version="1.1" viewBox="0.0 0.0 600.0 371.0" fill="none" stroke="none" stroke-linecap="square" stroke-miterlimit="10" width="600" height="371" xmlns:xlink="http://www.w3.org/1999/xlink" xmlns="http://www.w3.org/2000/svg"><path fill="#ffffff" d="M0 0L600.0 0L600.0 371.0L0 371.0L0 0Z" fill-rule="nonzero"/><path stroke="#333333" stroke-width="1.0" stroke-linecap="butt" d="M84.5 300.5L581.5 300.5" fill-rule="nonzero"/><path stroke="#cccccc" stroke-width="1.0" stroke-linecap="butt" d="M84.5 240.5L581.5 240.5" fill-rule="nonzero"/><path stroke="#cccccc" stroke-width="1.0" stroke-linecap="butt" d="M84.5 181.5L581.5 181.5" fill-rule="nonzero"/><path stroke="#cccccc" stroke-width="1.0" stroke-linecap="butt" d="M84.5 121.5L581.5 121.5" fill-rule="nonzero"/><path stroke="#cccccc" stroke-width="1.0" stroke-linecap="butt" d="M84.5 61.5L581.5 61.5" fill-rule="nonzero"/><clipPath id="id_0"><path d="M84.55 61.916668L581.45 61.916668L581.45 300.45L84.55 300.45L84.55 61.916668Z" clip-rule="nonzero"/></clipPath><path stroke="#000000" stroke-width="2.0" stroke-linecap="butt" stroke-opacity="0.0" clip-path="url(#id_0)" d="M138.0 300.0L103.0 300.0L103.0 300.0C103.0 300.0 103.0 300.0 103.0 300.0L138.0 300.0C138.0 300.0 138.0 300.0 138.0 300.0Z" fill-rule="nonzero"/><path fill="#0000ff" clip-path="url(#id_0)" d="M138.0 300.0L103.0 300.0L103.0 300.0C103.0 300.0 103.0 300.0 103.0 300.0L138.0 300.0C138.0 300.0 138.0 300.0 138.0 300.0Z" fill-rule="nonzero"/><path stroke="#000000" stroke-width="2.0" stroke-linecap="butt" stroke-opacity="0.0" clip-path="url(#id_0)" d="M192.0 300.0L157.0 300.0L157.0 300.0C157.0 300.0 157.0 300.0 157.0 300.0L192.0 300.0C192.0 300.0 192.0 300.0 192.0 300.0Z" fill-rule="nonzero"/><path fill="#0000ff" clip-path="url(#id_0)" d="M192.0 300.0L157.0 300.0L157.0 300.0C157.0 300.0 157.0 300.0 157.0 300.0L192.0 300.0C192.0 300.0 192.0 300.0 192.0 300.0Z" fill-rule="nonzero"/><path stroke="#000000" stroke-width="2.0" stroke-linecap="butt" stroke-opacity="0.0" clip-path="url(#id_0)" d="M245.0 300.0L210.0 300.0L210.0 287.0C210.0 285.89542 210.89543 285.0 212.0 285.0L243.0 285.0C244.10457 285.0 245.0 285.89542 245.0 287.0Z" fill-rule="nonzero"/><path fill="#0000ff" clip-path="url(#id_0)" d="M245.0 300.0L210.0 300.0L210.0 287.0C210.0 285.89542 210.89543 285.0 212.0 285.0L243.0 285.0C244.10457 285.0 245.0 285.89542 245.0 287.0Z" fill-rule="nonzero"/><path stroke="#000000" stroke-width="2.0" stroke-linecap="butt" stroke-opacity="0.0" clip-path="url(#id_0)" d="M298.0 300.0L263.0 300.0L263.0 201.0C263.0 199.89543 263.89542 199.0 265.0 199.0L296.0 199.0C297.10458 199.0 298.0 199.89543 298.0 201.0Z" fill-rule="nonzero"/><path fill="#0000ff" clip-path="url(#id_0)" d="M298.0 300.0L263.0 300.0L263.0 201.0C263.0 199.89543 263.89542 199.0 265.0 199.0L296.0 199.0C297.10458 199.0 298.0 199.89543 298.0 201.0Z" fill-rule="nonzero"/><path stroke="#000000" stroke-width="2.0" stroke-linecap="butt" stroke-opacity="0.0" clip-path="url(#id_0)" d="M351.0 300.0L316.0 300.0L316.0 75.0C316.0 73.89543 316.89542 73.0 318.0 73.0L349.0 73.0C350.10458 73.0 351.0 73.89543 351.0 75.0Z" fill-rule="nonzero"/><path fill="#0000ff" clip-path="url(#id_0)" d="M351.0 300.0L316.0 300.0L316.0 75.0C316.0 73.89543 316.89542 73.0 318.0 73.0L349.0 73.0C350.10458 73.0 351.0 73.89543 351.0 75.0Z" fill-rule="nonzero"/><path stroke="#000000" stroke-width="2.0" stroke-linecap="butt" stroke-opacity="0.0" clip-path="url(#id_0)" d="M404.0 300.0L369.0 300.0L369.0 144.0C369.0 142.89543 369.89542 142.0 371.0 142.0L402.0 142.0C403.10458 142.0 404.0 142.89543 404.0 144.0Z" fill-rule="nonzero"/><path fill="#0000ff" clip-path="url(#id_0)" d="M404.0 300.0L369.0 300.0L369.0 144.0C369.0 142.89543 369.89542 142.0 371.0 142.0L402.0 142.0C403.10458 142.0 404.0 142.89543 404.0 144.0Z" fill-rule="nonzero"/><path stroke="#000000" stroke-width="2.0" stroke-linecap="butt" stroke-opacity="0.0" clip-path="url(#id_0)" d="M457.0 300.0L422.0 300.0L422.0 269.0C422.0 267.89542 422.89542 267.0 424.0 267.0L455.0 267.0C456.10458 267.0 457.0 267.89542 457.0 269.0Z" fill-rule="nonzero"/><path fill="#0000ff" clip-path="url(#id_0)" d="M457.0 300.0L422.0 300.0L422.0 269.0C422.0 267.89542 422.89542 267.0 424.0 267.0L455.0 267.0C456.10458 267.0 457.0 267.89542 457.0 269.0Z" fill-rule="nonzero"/><path stroke="#000000" stroke-width="2.0" stroke-linecap="butt" stroke-opacity="0.0" clip-path="url(#id_0)" d="M510.0 300.0L475.0 300.0L475.0 299.5C475.0 299.22385 475.22385 299.0 475.5 299.0L509.5 299.0C509.77615 299.0 510.0 299.22385 510.0 299.5Z" fill-rule="nonzero"/><path fill="#0000ff" clip-path="url(#id_0)" d="M510.0 300.0L475.0 300.0L475.0 299.5C475.0 299.22385 475.22385 299.0 475.5 299.0L509.5 299.0C509.77615 299.0 510.0 299.22385 510.0 299.5Z" fill-rule="nonzero"/><path stroke="#000000" stroke-width="2.0" stroke-linecap="butt" stroke-opacity="0.0" clip-path="url(#id_0)" d="M564.0 300.0L529.0 300.0L529.0 300.0C529.0 300.0 529.0 300.0 529.0 300.0L564.0 300.0C564.0 300.0 564.0 300.0 564.0 300.0Z" fill-rule="nonzero"/><path fill="#0000ff" clip-path="url(#id_0)" d="M564.0 300.0L529.0 300.0L529.0 300.0C529.0 300.0 529.0 300.0 529.0 300.0L564.0 300.0C564.0 300.0 564.0 300.0 564.0 300.0Z" fill-rule="nonzero"/><path stroke="#ffffff" stroke-width="3.0" stroke-linejoin="round" stroke-linecap="round" d="M120.765625 285.4202L119.6875 285.4202L119.6875 278.20145L117.5 278.99832L117.5 278.01395L120.609375 276.84207L120.765625 276.84207L120.765625 285.4202Z" fill-rule="nonzero"/><path fill="#0000ff" d="M120.765625 285.4202L119.6875 285.4202L119.6875 278.20145L117.5 278.99832L117.5 278.01395L120.609375 276.84207L120.765625 276.84207L120.765625 285.4202Z" fill-rule="nonzero"/><path stroke="#ffffff" stroke-width="3.0" stroke-linejoin="round" stroke-linecap="round" d="M173.29688 284.82385L167.70312 284.82385L167.70312 284.0426L170.65625 280.76135Q171.3125 280.01135 171.5625 279.55823Q171.8125 279.08948 171.8125 278.58948Q171.8125 277.9176 171.40625 277.49573Q171.01562 277.05823 170.32812 277.05823Q169.53125 277.05823 169.07812 277.52698Q168.625 277.9801 168.625 278.80823L167.54688 278.80823Q167.54688 277.62073 168.29688 276.90198Q169.0625 276.1676 170.32812 276.1676Q171.53125 276.1676 172.21875 276.7926Q172.90625 277.4176 172.90625 278.46448Q172.90625 279.71448 171.29688 281.46448L169.01562 283.93323L173.29688 283.93323L173.29688 284.82385ZM178.26562 284.82385L177.1875 284.82385L177.1875 277.6051L175.0 278.40198L175.0 277.4176L178.10938 276.24573L178.26562 276.24573L178.26562 284.82385Z" fill-rule="nonzero"/><path fill="#0000ff" d="M173.29688 284.82385L167.70312 284.82385L167.70312 284.0426L170.65625 280.76135Q171.3125 280.01135 171.5625 279.55823Q171.8125 279.08948 171.8125 278.58948Q171.8125 277.9176 171.40625 277.49573Q171.01562 277.05823 170.32812 277.05823Q169.53125 277.05823 169.07812 277.52698Q168.625 277.9801 168.625 278.80823L167.54688 278.80823Q167.54688 277.62073 168.29688 276.90198Q169.0625 276.1676 170.32812 276.1676Q171.53125 276.1676 172.21875 276.7926Q172.90625 277.4176 172.90625 278.46448Q172.90625 279.71448 171.29688 281.46448L169.01562 283.93323L173.29688 283.93323L173.29688 284.82385ZM178.26562 284.82385L177.1875 284.82385L177.1875 277.6051L175.0 278.40198L175.0 277.4176L178.10938 276.24573L178.26562 276.24573L178.26562 284.82385Z" fill-rule="nonzero"/><path stroke="#ffffff" stroke-width="3.0" stroke-linejoin="round" stroke-linecap="round" d="M217.70312 266.11133L218.14062 261.86133L222.51562 261.86133L222.51562 262.86133L219.0625 262.86133L218.79688 265.18945Q219.4375 264.81445 220.23438 264.81445Q221.39062 264.81445 222.07812 265.5957Q222.76562 266.36133 222.76562 267.67383Q222.76562 268.98633 222.04688 269.75195Q221.34375 270.51758 220.0625 270.51758Q218.9375 270.51758 218.21875 269.89258Q217.5 269.25195 217.40625 268.14258L218.42188 268.14258Q218.53125 268.87695 218.95312 269.25195Q219.375 269.62695 220.0625 269.62695Q220.8125 269.62695 221.25 269.11133Q221.6875 268.5957 221.6875 267.68945Q221.6875 266.83008 221.21875 266.31445Q220.75 265.79883 219.96875 265.79883Q219.26562 265.79883 218.85938 266.0957L218.57812 266.33008L217.70312 266.11133ZM229.5625 266.75195Q229.5625 268.6582 228.90625 269.5957Q228.26562 270.51758 226.875 270.51758Q225.51562 270.51758 224.85938 269.61133Q224.20312 268.70508 224.17188 266.89258L224.17188 265.45508Q224.17188 263.56445 224.8125 262.6582Q225.46875 261.73633 226.85938 261.73633Q228.23438 261.73633 228.89062 262.62695Q229.54688 263.50195 229.5625 265.3457L229.5625 266.75195ZM228.46875 265.26758Q228.46875 263.89258 228.07812 263.26758Q227.70312 262.62695 226.85938 262.62695Q226.03125 262.62695 225.64062 263.26758Q225.26562 263.89258 225.26562 265.18945L225.26562 266.92383Q225.26562 268.29883 225.65625 268.9707Q226.0625 269.62695 226.875 269.62695Q227.67188 269.62695 228.0625 269.00195Q228.45312 268.37695 228.46875 267.04883L228.46875 265.26758ZM231.70312 266.11133L232.14062 261.86133L236.51562 261.86133L236.51562 262.86133L233.0625 262.86133L232.79688 265.18945Q233.4375 264.81445 234.23438 264.81445Q235.39062 264.81445 236.07812 265.5957Q236.76562 266.36133 236.76562 267.67383Q236.76562 268.98633 236.04688 269.75195Q235.34375 270.51758 234.0625 270.51758Q232.9375 270.51758 232.21875 269.89258Q231.5 269.25195 231.40625 268.14258L232.42188 268.14258Q232.53125 268.87695 232.95312 269.25195Q233.375 269.62695 234.0625 269.62695Q234.8125 269.62695 235.25 269.11133Q235.6875 268.5957 235.6875 267.68945Q235.6875 266.83008 235.21875 266.31445Q234.75 265.79883 233.96875 265.79883Q233.26562 265.79883 232.85938 266.0957L232.57812 266.33008L231.70312 266.11133Z" fill-rule="nonzero"/><path fill="#0000ff" d="M217.70312 266.11133L218.14062 261.86133L222.51562 261.86133L222.51562 262.86133L219.0625 262.86133L218.79688 265.18945Q219.4375 264.81445 220.23438 264.81445Q221.39062 264.81445 222.07812 265.5957Q222.76562 266.36133 222.76562 267.67383Q222.76562 268.98633 222.04688 269.75195Q221.34375 270.51758 220.0625 270.51758Q218.9375 270.51758 218.21875 269.89258Q217.5 269.25195 217.40625 268.14258L218.42188 268.14258Q218.53125 268.87695 218.95312 269.25195Q219.375 269.62695 220.0625 269.62695Q220.8125 269.62695 221.25 269.11133Q221.6875 268.5957 221.6875 267.68945Q221.6875 266.83008 221.21875 266.31445Q220.75 265.79883 219.96875 265.79883Q219.26562 265.79883 218.85938 266.0957L218.57812 266.33008L217.70312 266.11133ZM229.5625 266.75195Q229.5625 268.6582 228.90625 269.5957Q228.26562 270.51758 226.875 270.51758Q225.51562 270.51758 224.85938 269.61133Q224.20312 268.70508 224.17188 266.89258L224.17188 265.45508Q224.17188 263.56445 224.8125 262.6582Q225.46875 261.73633 226.85938 261.73633Q228.23438 261.73633 228.89062 262.62695Q229.54688 263.50195 229.5625 265.3457L229.5625 266.75195ZM228.46875 265.26758Q228.46875 263.89258 228.07812 263.26758Q227.70312 262.62695 226.85938 262.62695Q226.03125 262.62695 225.64062 263.26758Q225.26562 263.89258 225.26562 265.18945L225.26562 266.92383Q225.26562 268.29883 225.65625 268.9707Q226.0625 269.62695 226.875 269.62695Q227.67188 269.62695 228.0625 269.00195Q228.45312 268.37695 228.46875 267.04883L228.46875 265.26758ZM231.70312 266.11133L232.14062 261.86133L236.51562 261.86133L236.51562 262.86133L233.0625 262.86133L232.79688 265.18945Q233.4375 264.81445 234.23438 264.81445Q235.39062 264.81445 236.07812 265.5957Q236.76562 266.36133 236.76562 267.67383Q236.76562 268.98633 236.04688 269.75195Q235.34375 270.51758 234.0625 270.51758Q232.9375 270.51758 232.21875 269.89258Q231.5 269.25195 231.40625 268.14258L232.42188 268.14258Q232.53125 268.87695 232.95312 269.25195Q233.375 269.62695 234.0625 269.62695Q234.8125 269.62695 235.25 269.11133Q235.6875 268.5957 235.6875 267.68945Q235.6875 266.83008 235.21875 266.31445Q234.75 265.79883 233.96875 265.79883Q233.26562 265.79883 232.85938 266.0957L232.57812 266.33008L231.70312 266.11133Z" fill-rule="nonzero"/><path stroke="#ffffff" stroke-width="3.0" stroke-linejoin="round" stroke-linecap="round" d="M268.28125 179.57463L269.09375 179.57463Q269.875 179.559 270.3125 179.16838Q270.75 178.77776 270.75 178.10588Q270.75 176.60588 269.25 176.60588Q268.54688 176.60588 268.125 177.01213Q267.71875 177.41838 267.71875 178.07463L266.625 178.07463Q266.625 177.059 267.35938 176.38713Q268.10938 175.71526 269.25 175.71526Q270.45312 175.71526 271.14062 176.35588Q271.82812 176.9965 271.82812 178.13713Q271.82812 178.69963 271.46875 179.21526Q271.10938 179.73088 270.48438 179.9965Q271.1875 180.21526 271.5625 180.73088Q271.95312 181.2465 271.95312 181.9965Q271.95312 183.13713 271.20312 183.82463Q270.45312 184.4965 269.25 184.4965Q268.0625 184.4965 267.29688 183.84026Q266.54688 183.184 266.54688 182.1215L267.64062 182.1215Q267.64062 182.79338 268.07812 183.19963Q268.51562 183.60588 269.26562 183.60588Q270.04688 183.60588 270.45312 183.19963Q270.875 182.77776 270.875 182.01213Q270.875 181.27776 270.42188 180.88713Q269.96875 180.48088 269.09375 180.46526L268.28125 180.46526L268.28125 179.57463ZM275.28125 179.57463L276.09375 179.57463Q276.875 179.559 277.3125 179.16838Q277.75 178.77776 277.75 178.10588Q277.75 176.60588 276.25 176.60588Q275.54688 176.60588 275.125 177.01213Q274.71875 177.41838 274.71875 178.07463L273.625 178.07463Q273.625 177.059 274.35938 176.38713Q275.10938 175.71526 276.25 175.71526Q277.45312 175.71526 278.14062 176.35588Q278.82812 176.9965 278.82812 178.13713Q278.82812 178.69963 278.46875 179.21526Q278.10938 179.73088 277.48438 179.9965Q278.1875 180.21526 278.5625 180.73088Q278.95312 181.2465 278.95312 181.9965Q278.95312 183.13713 278.20312 183.82463Q277.45312 184.4965 276.25 184.4965Q275.0625 184.4965 274.29688 183.84026Q273.54688 183.184 273.54688 182.1215L274.64062 182.1215Q274.64062 182.79338 275.07812 183.19963Q275.51562 183.60588 276.26562 183.60588Q277.04688 183.60588 277.45312 183.19963Q277.875 182.77776 277.875 182.01213Q277.875 181.27776 277.42188 180.88713Q276.96875 180.48088 276.09375 180.46526L275.28125 180.46526L275.28125 179.57463ZM284.85938 180.6215Q284.53125 181.02776 284.04688 181.27776Q283.57812 181.51213 283.01562 181.51213Q282.28125 181.51213 281.73438 181.15276Q281.1875 180.79338 280.89062 180.13713Q280.59375 179.46526 280.59375 178.66838Q280.59375 177.82463 280.90625 177.13713Q281.23438 176.44963 281.82812 176.09026Q282.4375 175.71526 283.23438 175.71526Q284.5 175.71526 285.21875 176.66838Q285.95312 177.6215 285.95312 179.2465L285.95312 179.559Q285.95312 182.059 284.96875 183.19963Q283.98438 184.34026 282.0 184.3715L281.78125 184.3715L281.78125 183.46526L282.01562 183.46526Q283.35938 183.434 284.07812 182.76213Q284.79688 182.09026 284.85938 180.6215ZM283.1875 180.6215Q283.73438 180.6215 284.1875 180.29338Q284.65625 179.94963 284.875 179.46526L284.875 179.02776Q284.875 177.96526 284.40625 177.29338Q283.9375 176.6215 283.23438 176.6215Q282.51562 176.6215 282.07812 177.16838Q281.65625 177.71526 281.65625 178.6215Q281.65625 179.4965 282.0625 180.059Q282.48438 180.6215 283.1875 180.6215ZM293.0625 180.73088Q293.0625 182.63713 292.40625 183.57463Q291.76562 184.4965 290.375 184.4965Q289.01562 184.4965 288.35938 183.59026Q287.70312 182.684 287.67188 180.8715L287.67188 179.434Q287.67188 177.54338 288.3125 176.63713Q288.96875 175.71526 290.35938 175.71526Q291.73438 175.71526 292.39062 176.60588Q293.04688 177.48088 293.0625 179.32463L293.0625 180.73088ZM291.96875 179.2465Q291.96875 177.8715 291.57812 177.2465Q291.20312 176.60588 290.35938 176.60588Q289.53125 176.60588 289.14062 177.2465Q288.76562 177.8715 288.76562 179.16838L288.76562 180.90276Q288.76562 182.27776 289.15625 182.94963Q289.5625 183.60588 290.375 183.60588Q291.17188 183.60588 291.5625 182.98088Q291.95312 182.35588 291.96875 181.02776L291.96875 179.2465Z" fill-rule="nonzero"/><path fill="#0000ff" d="M268.28125 179.57463L269.09375 179.57463Q269.875 179.559 270.3125 179.16838Q270.75 178.77776 270.75 178.10588Q270.75 176.60588 269.25 176.60588Q268.54688 176.60588 268.125 177.01213Q267.71875 177.41838 267.71875 178.07463L266.625 178.07463Q266.625 177.059 267.35938 176.38713Q268.10938 175.71526 269.25 175.71526Q270.45312 175.71526 271.14062 176.35588Q271.82812 176.9965 271.82812 178.13713Q271.82812 178.69963 271.46875 179.21526Q271.10938 179.73088 270.48438 179.9965Q271.1875 180.21526 271.5625 180.73088Q271.95312 181.2465 271.95312 181.9965Q271.95312 183.13713 271.20312 183.82463Q270.45312 184.4965 269.25 184.4965Q268.0625 184.4965 267.29688 183.84026Q266.54688 183.184 266.54688 182.1215L267.64062 182.1215Q267.64062 182.79338 268.07812 183.19963Q268.51562 183.60588 269.26562 183.60588Q270.04688 183.60588 270.45312 183.19963Q270.875 182.77776 270.875 182.01213Q270.875 181.27776 270.42188 180.88713Q269.96875 180.48088 269.09375 180.46526L268.28125 180.46526L268.28125 179.57463ZM275.28125 179.57463L276.09375 179.57463Q276.875 179.559 277.3125 179.16838Q277.75 178.77776 277.75 178.10588Q277.75 176.60588 276.25 176.60588Q275.54688 176.60588 275.125 177.01213Q274.71875 177.41838 274.71875 178.07463L273.625 178.07463Q273.625 177.059 274.35938 176.38713Q275.10938 175.71526 276.25 175.71526Q277.45312 175.71526 278.14062 176.35588Q278.82812 176.9965 278.82812 178.13713Q278.82812 178.69963 278.46875 179.21526Q278.10938 179.73088 277.48438 179.9965Q278.1875 180.21526 278.5625 180.73088Q278.95312 181.2465 278.95312 181.9965Q278.95312 183.13713 278.20312 183.82463Q277.45312 184.4965 276.25 184.4965Q275.0625 184.4965 274.29688 183.84026Q273.54688 183.184 273.54688 182.1215L274.64062 182.1215Q274.64062 182.79338 275.07812 183.19963Q275.51562 183.60588 276.26562 183.60588Q277.04688 183.60588 277.45312 183.19963Q277.875 182.77776 277.875 182.01213Q277.875 181.27776 277.42188 180.88713Q276.96875 180.48088 276.09375 180.46526L275.28125 180.46526L275.28125 179.57463ZM284.85938 180.6215Q284.53125 181.02776 284.04688 181.27776Q283.57812 181.51213 283.01562 181.51213Q282.28125 181.51213 281.73438 181.15276Q281.1875 180.79338 280.89062 180.13713Q280.59375 179.46526 280.59375 178.66838Q280.59375 177.82463 280.90625 177.13713Q281.23438 176.44963 281.82812 176.09026Q282.4375 175.71526 283.23438 175.71526Q284.5 175.71526 285.21875 176.66838Q285.95312 177.6215 285.95312 179.2465L285.95312 179.559Q285.95312 182.059 284.96875 183.19963Q283.98438 184.34026 282.0 184.3715L281.78125 184.3715L281.78125 183.46526L282.01562 183.46526Q283.35938 183.434 284.07812 182.76213Q284.79688 182.09026 284.85938 180.6215ZM283.1875 180.6215Q283.73438 180.6215 284.1875 180.29338Q284.65625 179.94963 284.875 179.46526L284.875 179.02776Q284.875 177.96526 284.40625 177.29338Q283.9375 176.6215 283.23438 176.6215Q282.51562 176.6215 282.07812 177.16838Q281.65625 177.71526 281.65625 178.6215Q281.65625 179.4965 282.0625 180.059Q282.48438 180.6215 283.1875 180.6215ZM293.0625 180.73088Q293.0625 182.63713 292.40625 183.57463Q291.76562 184.4965 290.375 184.4965Q289.01562 184.4965 288.35938 183.59026Q287.70312 182.684 287.67188 180.8715L287.67188 179.434Q287.67188 177.54338 288.3125 176.63713Q288.96875 175.71526 290.35938 175.71526Q291.73438 175.71526 292.39062 176.60588Q293.04688 177.48088 293.0625 179.32463L293.0625 180.73088ZM291.96875 179.2465Q291.96875 177.8715 291.57812 177.2465Q291.20312 176.60588 290.35938 176.60588Q289.53125 176.60588 289.14062 177.2465Q288.76562 177.8715 288.76562 179.16838L288.76562 180.90276Q288.76562 182.27776 289.15625 182.94963Q289.5625 183.60588 290.375 183.60588Q291.17188 183.60588 291.5625 182.98088Q291.95312 182.35588 291.96875 181.02776L291.96875 179.2465Z" fill-rule="nonzero"/><path stroke="#ffffff" stroke-width="3.0" stroke-linejoin="round" stroke-linecap="round" d="M325.21875 50.53384L321.6875 58.455715L320.54688 58.455715L324.0625 50.81509L319.45312 50.81509L319.45312 49.924465L325.21875 49.924465L325.21875 50.53384ZM330.96875 49.924465L330.96875 50.830715L330.76562 50.830715Q329.5 50.861965 328.75 51.59634Q328.0 52.31509 327.875 53.62759Q328.5625 52.861965 329.71875 52.861965Q330.82812 52.861965 331.5 53.643215Q332.17188 54.424465 332.17188 55.674465Q332.17188 56.986965 331.45312 57.78384Q330.73438 58.580715 329.51562 58.580715Q328.29688 58.580715 327.53125 57.643215Q326.78125 56.69009 326.78125 55.205715L326.78125 54.799465Q326.78125 52.44009 327.78125 51.19009Q328.78125 49.94009 330.76562 49.924465L330.96875 49.924465ZM329.54688 53.768215Q328.98438 53.768215 328.51562 54.09634Q328.04688 54.424465 327.85938 54.94009L327.85938 55.330715Q327.85938 56.393215 328.32812 57.03384Q328.8125 57.674465 329.51562 57.674465Q330.25 57.674465 330.67188 57.143215Q331.09375 56.59634 331.09375 55.72134Q331.09375 54.84634 330.67188 54.31509Q330.25 53.768215 329.54688 53.768215ZM337.26562 58.455715L336.1875 58.455715L336.1875 51.236965L334.0 52.03384L334.0 51.049465L337.10938 49.87759L337.26562 49.87759L337.26562 58.455715ZM342.28125 53.65884L343.09375 53.65884Q343.875 53.643215 344.3125 53.25259Q344.75 52.861965 344.75 52.19009Q344.75 50.69009 343.25 50.69009Q342.54688 50.69009 342.125 51.09634Q341.71875 51.50259 341.71875 52.15884L340.625 52.15884Q340.625 51.143215 341.35938 50.47134Q342.10938 49.799465 343.25 49.799465Q344.45312 49.799465 345.14062 50.44009Q345.82812 51.080715 345.82812 52.22134Q345.82812 52.78384 345.46875 53.299465Q345.10938 53.81509 344.48438 54.080715Q345.1875 54.299465 345.5625 54.81509Q345.95312 55.330715 345.95312 56.080715Q345.95312 57.22134 345.20312 57.90884Q344.45312 58.580715 343.25 58.580715Q342.0625 58.580715 341.29688 57.924465Q340.54688 57.268215 340.54688 56.205715L341.64062 56.205715Q341.64062 56.87759 342.07812 57.28384Q342.51562 57.69009 343.26562 57.69009Q344.04688 57.69009 344.45312 57.28384Q344.875 56.861965 344.875 56.09634Q344.875 55.361965 344.42188 54.97134Q343.96875 54.56509 343.09375 54.549465L342.28125 54.549465L342.28125 53.65884Z" fill-rule="nonzero"/><path fill="#0000ff" d="M325.21875 50.53384L321.6875 58.455715L320.54688 58.455715L324.0625 50.81509L319.45312 50.81509L319.45312 49.924465L325.21875 49.924465L325.21875 50.53384ZM330.96875 49.924465L330.96875 50.830715L330.76562 50.830715Q329.5 50.861965 328.75 51.59634Q328.0 52.31509 327.875 53.62759Q328.5625 52.861965 329.71875 52.861965Q330.82812 52.861965 331.5 53.643215Q332.17188 54.424465 332.17188 55.674465Q332.17188 56.986965 331.45312 57.78384Q330.73438 58.580715 329.51562 58.580715Q328.29688 58.580715 327.53125 57.643215Q326.78125 56.69009 326.78125 55.205715L326.78125 54.799465Q326.78125 52.44009 327.78125 51.19009Q328.78125 49.94009 330.76562 49.924465L330.96875 49.924465ZM329.54688 53.768215Q328.98438 53.768215 328.51562 54.09634Q328.04688 54.424465 327.85938 54.94009L327.85938 55.330715Q327.85938 56.393215 328.32812 57.03384Q328.8125 57.674465 329.51562 57.674465Q330.25 57.674465 330.67188 57.143215Q331.09375 56.59634 331.09375 55.72134Q331.09375 54.84634 330.67188 54.31509Q330.25 53.768215 329.54688 53.768215ZM337.26562 58.455715L336.1875 58.455715L336.1875 51.236965L334.0 52.03384L334.0 51.049465L337.10938 49.87759L337.26562 49.87759L337.26562 58.455715ZM342.28125 53.65884L343.09375 53.65884Q343.875 53.643215 344.3125 53.25259Q344.75 52.861965 344.75 52.19009Q344.75 50.69009 343.25 50.69009Q342.54688 50.69009 342.125 51.09634Q341.71875 51.50259 341.71875 52.15884L340.625 52.15884Q340.625 51.143215 341.35938 50.47134Q342.10938 49.799465 343.25 49.799465Q344.45312 49.799465 345.14062 50.44009Q345.82812 51.080715 345.82812 52.22134Q345.82812 52.78384 345.46875 53.299465Q345.10938 53.81509 344.48438 54.080715Q345.1875 54.299465 345.5625 54.81509Q345.95312 55.330715 345.95312 56.080715Q345.95312 57.22134 345.20312 57.90884Q344.45312 58.580715 343.25 58.580715Q342.0625 58.580715 341.29688 57.924465Q340.54688 57.268215 340.54688 56.205715L341.64062 56.205715Q341.64062 56.87759 342.07812 57.28384Q342.51562 57.69009 343.26562 57.69009Q344.04688 57.69009 344.45312 57.28384Q344.875 56.861965 344.875 56.09634Q344.875 55.361965 344.42188 54.97134Q343.96875 54.56509 343.09375 54.549465L342.28125 54.549465L342.28125 53.65884Z" fill-rule="nonzero"/><path stroke="#ffffff" stroke-width="3.0" stroke-linejoin="round" stroke-linecap="round" d="M373.20312 123.14042L373.64062 118.89042L378.01562 118.89042L378.01562 119.89042L374.5625 119.89042L374.29688 122.218544Q374.9375 121.843544 375.73438 121.843544Q376.89062 121.843544 377.57812 122.624794Q378.26562 123.39042 378.26562 124.70292Q378.26562 126.01542 377.54688 126.781044Q376.84375 127.54667 375.5625 127.54667Q374.4375 127.54667 373.71875 126.92167Q373.0 126.281044 372.90625 125.17167L373.92188 125.17167Q374.03125 125.906044 374.45312 126.281044Q374.875 126.656044 375.5625 126.656044Q376.3125 126.656044 376.75 126.14042Q377.1875 125.624794 377.1875 124.718544Q377.1875 123.85917 376.71875 123.343544Q376.25 122.82792 375.46875 122.82792Q374.76562 122.82792 374.35938 123.124794L374.07812 123.35917L373.20312 123.14042ZM381.28125 122.624794L382.09375 122.624794Q382.875 122.60917 383.3125 122.218544Q383.75 121.82792 383.75 121.156044Q383.75 119.656044 382.25 119.656044Q381.54688 119.656044 381.125 120.062294Q380.71875 120.468544 380.71875 121.124794L379.625 121.124794Q379.625 120.10917 380.35938 119.437294Q381.10938 118.76542 382.25 118.76542Q383.45312 118.76542 384.14062 119.406044Q384.82812 120.04667 384.82812 121.187294Q384.82812 121.749794 384.46875 122.26542Q384.10938 122.781044 383.48438 123.04667Q384.1875 123.26542 384.5625 123.781044Q384.95312 124.29667 384.95312 125.04667Q384.95312 126.187294 384.20312 126.874794Q383.45312 127.54667 382.25 127.54667Q381.0625 127.54667 380.29688 126.89042Q379.54688 126.23417 379.54688 125.17167L380.64062 125.17167Q380.64062 125.843544 381.07812 126.249794Q381.51562 126.656044 382.26562 126.656044Q383.04688 126.656044 383.45312 126.249794Q383.875 125.82792 383.875 125.062294Q383.875 124.32792 383.42188 123.937294Q382.96875 123.531044 382.09375 123.51542L381.28125 123.51542L381.28125 122.624794ZM392.0625 123.781044Q392.0625 125.687294 391.40625 126.624794Q390.76562 127.54667 389.375 127.54667Q388.01562 127.54667 387.35938 126.64042Q386.70312 125.73417 386.67188 123.92167L386.67188 122.48417Q386.67188 120.593544 387.3125 119.687294Q387.96875 118.76542 389.35938 118.76542Q390.73438 118.76542 391.39062 119.656044Q392.04688 120.531044 392.0625 122.374794L392.0625 123.781044ZM390.96875 122.29667Q390.96875 120.92167 390.57812 120.29667Q390.20312 119.656044 389.35938 119.656044Q388.53125 119.656044 388.14062 120.29667Q387.76562 120.92167 387.76562 122.218544L387.76562 123.95292Q387.76562 125.32792 388.15625 125.999794Q388.5625 126.656044 389.375 126.656044Q390.17188 126.656044 390.5625 126.031044Q390.95312 125.406044 390.96875 124.07792L390.96875 122.29667ZM399.0625 123.781044Q399.0625 125.687294 398.40625 126.624794Q397.76562 127.54667 396.375 127.54667Q395.01562 127.54667 394.35938 126.64042Q393.70312 125.73417 393.67188 123.92167L393.67188 122.48417Q393.67188 120.593544 394.3125 119.687294Q394.96875 118.76542 396.35938 118.76542Q397.73438 118.76542 398.39062 119.656044Q399.04688 120.531044 399.0625 122.374794L399.0625 123.781044ZM397.96875 122.29667Q397.96875 120.92167 397.57812 120.29667Q397.20312 119.656044 396.35938 119.656044Q395.53125 119.656044 395.14062 120.29667Q394.76562 120.92167 394.76562 122.218544L394.76562 123.95292Q394.76562 125.32792 395.15625 125.999794Q395.5625 126.656044 396.375 126.656044Q397.17188 126.656044 397.5625 126.031044Q397.95312 125.406044 397.96875 124.07792L397.96875 122.29667Z" fill-rule="nonzero"/><path fill="#0000ff" d="M373.20312 123.14042L373.64062 118.89042L378.01562 118.89042L378.01562 119.89042L374.5625 119.89042L374.29688 122.218544Q374.9375 121.843544 375.73438 121.843544Q376.89062 121.843544 377.57812 122.624794Q378.26562 123.39042 378.26562 124.70292Q378.26562 126.01542 377.54688 126.781044Q376.84375 127.54667 375.5625 127.54667Q374.4375 127.54667 373.71875 126.92167Q373.0 126.281044 372.90625 125.17167L373.92188 125.17167Q374.03125 125.906044 374.45312 126.281044Q374.875 126.656044 375.5625 126.656044Q376.3125 126.656044 376.75 126.14042Q377.1875 125.624794 377.1875 124.718544Q377.1875 123.85917 376.71875 123.343544Q376.25 122.82792 375.46875 122.82792Q374.76562 122.82792 374.35938 123.124794L374.07812 123.35917L373.20312 123.14042ZM381.28125 122.624794L382.09375 122.624794Q382.875 122.60917 383.3125 122.218544Q383.75 121.82792 383.75 121.156044Q383.75 119.656044 382.25 119.656044Q381.54688 119.656044 381.125 120.062294Q380.71875 120.468544 380.71875 121.124794L379.625 121.124794Q379.625 120.10917 380.35938 119.437294Q381.10938 118.76542 382.25 118.76542Q383.45312 118.76542 384.14062 119.406044Q384.82812 120.04667 384.82812 121.187294Q384.82812 121.749794 384.46875 122.26542Q384.10938 122.781044 383.48438 123.04667Q384.1875 123.26542 384.5625 123.781044Q384.95312 124.29667 384.95312 125.04667Q384.95312 126.187294 384.20312 126.874794Q383.45312 127.54667 382.25 127.54667Q381.0625 127.54667 380.29688 126.89042Q379.54688 126.23417 379.54688 125.17167L380.64062 125.17167Q380.64062 125.843544 381.07812 126.249794Q381.51562 126.656044 382.26562 126.656044Q383.04688 126.656044 383.45312 126.249794Q383.875 125.82792 383.875 125.062294Q383.875 124.32792 383.42188 123.937294Q382.96875 123.531044 382.09375 123.51542L381.28125 123.51542L381.28125 122.624794ZM392.0625 123.781044Q392.0625 125.687294 391.40625 126.624794Q390.76562 127.54667 389.375 127.54667Q388.01562 127.54667 387.35938 126.64042Q386.70312 125.73417 386.67188 123.92167L386.67188 122.48417Q386.67188 120.593544 387.3125 119.687294Q387.96875 118.76542 389.35938 118.76542Q390.73438 118.76542 391.39062 119.656044Q392.04688 120.531044 392.0625 122.374794L392.0625 123.781044ZM390.96875 122.29667Q390.96875 120.92167 390.57812 120.29667Q390.20312 119.656044 389.35938 119.656044Q388.53125 119.656044 388.14062 120.29667Q387.76562 120.92167 387.76562 122.218544L387.76562 123.95292Q387.76562 125.32792 388.15625 125.999794Q388.5625 126.656044 389.375 126.656044Q390.17188 126.656044 390.5625 126.031044Q390.95312 125.406044 390.96875 124.07792L390.96875 122.29667ZM399.0625 123.781044Q399.0625 125.687294 398.40625 126.624794Q397.76562 127.54667 396.375 127.54667Q395.01562 127.54667 394.35938 126.64042Q393.70312 125.73417 393.67188 123.92167L393.67188 122.48417Q393.67188 120.593544 394.3125 119.687294Q394.96875 118.76542 396.35938 118.76542Q397.73438 118.76542 398.39062 119.656044Q399.04688 120.531044 399.0625 122.374794L399.0625 123.781044ZM397.96875 122.29667Q397.96875 120.92167 397.57812 120.29667Q397.20312 119.656044 396.35938 119.656044Q395.53125 119.656044 395.14062 120.29667Q394.76562 120.92167 394.76562 122.218544L394.76562 123.95292Q394.76562 125.32792 395.15625 125.999794Q395.5625 126.656044 396.375 126.656044Q397.17188 126.656044 397.5625 126.031044Q397.95312 125.406044 397.96875 124.07792L397.96875 122.29667Z" fill-rule="nonzero"/><path stroke="#ffffff" stroke-width="3.0" stroke-linejoin="round" stroke-linecap="round" d="M429.26562 251.54845L428.1875 251.54845L428.1875 244.3297L426.0 245.12657L426.0 244.1422L429.10938 242.97032L429.26562 242.97032L429.26562 251.54845ZM436.26562 251.54845L435.1875 251.54845L435.1875 244.3297L433.0 245.12657L433.0 244.1422L436.10938 242.97032L436.26562 242.97032L436.26562 251.54845ZM441.28125 246.75157L442.09375 246.75157Q442.875 246.73595 443.3125 246.34532Q443.75 245.9547 443.75 245.28282Q443.75 243.78282 442.25 243.78282Q441.54688 243.78282 441.125 244.18907Q440.71875 244.59532 440.71875 245.25157L439.625 245.25157Q439.625 244.23595 440.35938 243.56407Q441.10938 242.8922 442.25 242.8922Q443.45312 242.8922 444.14062 243.53282Q444.82812 244.17345 444.82812 245.31407Q444.82812 245.87657 444.46875 246.3922Q444.10938 246.90782 443.48438 247.17345Q444.1875 247.3922 444.5625 247.90782Q444.95312 248.42345 444.95312 249.17345Q444.95312 250.31407 444.20312 251.00157Q443.45312 251.67345 442.25 251.67345Q441.0625 251.67345 440.29688 251.0172Q439.54688 250.36095 439.54688 249.29845L440.64062 249.29845Q440.64062 249.97032 441.07812 250.37657Q441.51562 250.78282 442.26562 250.78282Q443.04688 250.78282 443.45312 250.37657Q443.875 249.9547 443.875 249.18907Q443.875 248.4547 443.42188 248.06407Q442.96875 247.65782 442.09375 247.6422L441.28125 247.6422L441.28125 246.75157ZM452.21875 243.62657L448.6875 251.54845L447.54688 251.54845L451.0625 243.90782L446.45312 243.90782L446.45312 243.0172L452.21875 243.0172L452.21875 243.62657Z" fill-rule="nonzero"/><path fill="#0000ff" d="M429.26562 251.54845L428.1875 251.54845L428.1875 244.3297L426.0 245.12657L426.0 244.1422L429.10938 242.97032L429.26562 242.97032L429.26562 251.54845ZM436.26562 251.54845L435.1875 251.54845L435.1875 244.3297L433.0 245.12657L433.0 244.1422L436.10938 242.97032L436.26562 242.97032L436.26562 251.54845ZM441.28125 246.75157L442.09375 246.75157Q442.875 246.73595 443.3125 246.34532Q443.75 245.9547 443.75 245.28282Q443.75 243.78282 442.25 243.78282Q441.54688 243.78282 441.125 244.18907Q440.71875 244.59532 440.71875 245.25157L439.625 245.25157Q439.625 244.23595 440.35938 243.56407Q441.10938 242.8922 442.25 242.8922Q443.45312 242.8922 444.14062 243.53282Q444.82812 244.17345 444.82812 245.31407Q444.82812 245.87657 444.46875 246.3922Q444.10938 246.90782 443.48438 247.17345Q444.1875 247.3922 444.5625 247.90782Q444.95312 248.42345 444.95312 249.17345Q444.95312 250.31407 444.20312 251.00157Q443.45312 251.67345 442.25 251.67345Q441.0625 251.67345 440.29688 251.0172Q439.54688 250.36095 439.54688 249.29845L440.64062 249.29845Q440.64062 249.97032 441.07812 250.37657Q441.51562 250.78282 442.26562 250.78282Q443.04688 250.78282 443.45312 250.37657Q443.875 249.9547 443.875 249.18907Q443.875 248.4547 443.42188 248.06407Q442.96875 247.65782 442.09375 247.6422L441.28125 247.6422L441.28125 246.75157ZM452.21875 243.62657L448.6875 251.54845L447.54688 251.54845L451.0625 243.90782L446.45312 243.90782L446.45312 243.0172L452.21875 243.0172L452.21875 243.62657Z" fill-rule="nonzero"/><path stroke="#ffffff" stroke-width="3.0" stroke-linejoin="round" stroke-linecap="round" d="M490.28125 281.18924L491.46875 281.18924L491.46875 282.06424L490.28125 282.06424L490.28125 284.0486L489.20312 284.0486L489.20312 282.06424L485.3125 282.06424L485.3125 281.4236L489.125 275.51736L490.28125 275.51736L490.28125 281.18924ZM486.54688 281.18924L489.20312 281.18924L489.20312 277.00174L489.0625 277.2361L486.54688 281.18924ZM498.21875 276.12674L494.6875 284.0486L493.54688 284.0486L497.0625 276.408L492.45312 276.408L492.45312 275.51736L498.21875 275.51736L498.21875 276.12674Z" fill-rule="nonzero"/><path fill="#0000ff" d="M490.28125 281.18924L491.46875 281.18924L491.46875 282.06424L490.28125 282.06424L490.28125 284.0486L489.20312 284.0486L489.20312 282.06424L485.3125 282.06424L485.3125 281.4236L489.125 275.51736L490.28125 275.51736L490.28125 281.18924ZM486.54688 281.18924L489.20312 281.18924L489.20312 277.00174L489.0625 277.2361L486.54688 281.18924ZM498.21875 276.12674L494.6875 284.0486L493.54688 284.0486L497.0625 276.408L492.45312 276.408L492.45312 275.51736L498.21875 275.51736L498.21875 276.12674Z" fill-rule="nonzero"/><path stroke="#ffffff" stroke-width="3.0" stroke-linejoin="round" stroke-linecap="round" d="M546.7656 285.4202L545.6875 285.4202L545.6875 278.20145L543.5 278.99832L543.5 278.01395L546.6094 276.84207L546.7656 276.84207L546.7656 285.4202Z" fill-rule="nonzero"/><path fill="#0000ff" d="M546.7656 285.4202L545.6875 285.4202L545.6875 278.20145L543.5 278.99832L543.5 278.01395L546.6094 276.84207L546.7656 276.84207L546.7656 285.4202Z" fill-rule="nonzero"/><path fill="#000000" d="M316.42188 349.45L316.42188 340.85626L319.67188 340.85626Q320.51562 340.85626 320.96875 340.9344Q321.60938 341.04376 322.03125 341.34064Q322.46875 341.6375 322.71875 342.16876Q322.98438 342.7 322.98438 343.34064Q322.98438 344.4344 322.28125 345.2Q321.59375 345.95 319.76562 345.95L317.5625 345.95L317.5625 349.45L316.42188 349.45ZM317.5625 344.95L319.78125 344.95Q320.89062 344.95 321.34375 344.54376Q321.8125 344.1219 321.8125 343.3719Q321.8125 342.84064 321.53125 342.46564Q321.26562 342.075 320.82812 341.95Q320.53125 341.8719 319.76562 341.8719L317.5625 341.8719L317.5625 344.95ZM323.90625 346.34064Q323.90625 344.60626 324.85938 343.77814Q325.65625 343.09064 326.8125 343.09064Q328.09375 343.09064 328.90625 343.9344Q329.73438 344.7625 329.73438 346.2469Q329.73438 347.45 329.375 348.1375Q329.01562 348.825 328.3125 349.21564Q327.625 349.59064 326.8125 349.59064Q325.51562 349.59064 324.70312 348.7625Q323.90625 347.91876 323.90625 346.34064ZM324.98438 346.34064Q324.98438 347.52814 325.5 348.1219Q326.03125 348.71564 326.8125 348.71564Q327.60938 348.71564 328.125 348.1219Q328.64062 347.52814 328.64062 346.3094Q328.64062 345.15314 328.10938 344.5594Q327.59375 343.96564 326.8125 343.96564Q326.03125 343.96564 325.5 344.5594Q324.98438 345.1375 324.98438 346.34064ZM331.29688 342.075L331.29688 340.85626L332.35938 340.85626L332.35938 342.075L331.29688 342.075ZM331.29688 349.45L331.29688 343.23126L332.35938 343.23126L332.35938 349.45L331.29688 349.45ZM334.29688 349.45L334.29688 343.23126L335.23438 343.23126L335.23438 344.10626Q335.92188 343.09064 337.21875 343.09064Q337.78125 343.09064 338.25 343.29376Q338.73438 343.4969 338.96875 343.825Q339.20312 344.15314 339.29688 344.59064Q339.34375 344.8875 339.34375 345.6219L339.34375 349.45L338.29688 349.45L338.29688 345.66876Q338.29688 345.0125 338.17188 344.7Q338.04688 344.3875 337.73438 344.2Q337.42188 343.9969 337.0 343.9969Q336.32812 343.9969 335.82812 344.4344Q335.34375 344.85626 335.34375 346.04376L335.34375 349.45L334.29688 349.45ZM343.59375 348.5125L343.75 349.4344Q343.29688 349.52814 342.95312 349.52814Q342.375 349.52814 342.0625 349.35626Q341.75 349.16876 341.60938 348.8719Q341.48438 348.575 341.48438 347.6219L341.48438 344.04376L340.71875 344.04376L340.71875 343.23126L341.48438 343.23126L341.48438 341.6844L342.53125 341.0594L342.53125 343.23126L343.59375 343.23126L343.59375 344.04376L342.53125 344.04376L342.53125 347.6844Q342.53125 348.1375 342.57812 348.2625Q342.64062 348.3875 342.76562 348.46564Q342.89062 348.54376 343.125 348.54376Q343.3125 348.54376 343.59375 348.5125ZM343.875 347.59064L344.90625 347.4344Q345.0 348.0594 345.39062 348.3875Q345.79688 348.71564 346.53125 348.71564Q347.25 348.71564 347.59375 348.4344Q347.95312 348.1375 347.95312 347.73126Q347.95312 347.3719 347.64062 347.16876Q347.42188 347.02814 346.5625 346.8094Q345.40625 346.5125 344.95312 346.3094Q344.51562 346.09064 344.28125 345.71564Q344.04688 345.34064 344.04688 344.8719Q344.04688 344.46564 344.23438 344.10626Q344.42188 343.7469 344.75 343.5125Q345.0 343.34064 345.42188 343.21564Q345.84375 343.09064 346.34375 343.09064Q347.0625 343.09064 347.60938 343.3094Q348.17188 343.5125 348.4375 343.8719Q348.70312 344.23126 348.79688 344.825L347.76562 344.96564Q347.70312 344.4969 347.35938 344.23126Q347.03125 343.95 346.40625 343.95Q345.6875 343.95 345.375 344.2Q345.0625 344.4344 345.0625 344.7625Q345.0625 344.96564 345.1875 345.1219Q345.32812 345.29376 345.59375 345.40314Q345.75 345.46564 346.53125 345.66876Q347.65625 345.98126 348.09375 346.16876Q348.53125 346.35626 348.78125 346.71564Q349.03125 347.075 349.03125 347.6219Q349.03125 348.15314 348.71875 348.6219Q348.42188 349.075 347.84375 349.34064Q347.26562 349.59064 346.53125 349.59064Q345.3125 349.59064 344.67188 349.09064Q344.04688 348.575 343.875 347.59064Z" fill-rule="nonzero"/><path fill="#000000" d="M29.550013 236.26146L20.956263 236.26146L20.956263 235.10521L27.706263 230.58958L20.956263 230.58958L20.956263 229.49583L29.550013 229.49583L29.550013 230.66771L22.800013 235.18333L29.550013 235.18333L29.550013 236.26146ZM26.440638 227.77708Q24.706263 227.77708 23.878138 226.82396Q23.190638 226.02708 23.190638 224.87083Q23.190638 223.58958 24.034388 222.77708Q24.862513 221.94896 26.346888 221.94896Q27.550013 221.94896 28.237513 222.30833Q28.925013 222.66771 29.315638 223.37083Q29.690638 224.05833 29.690638 224.87083Q29.690638 226.16771 28.862513 226.98021Q28.018763 227.77708 26.440638 227.77708ZM26.440638 226.69896Q27.628138 226.69896 28.221888 226.18333Q28.815638 225.65208 28.815638 224.87083Q28.815638 224.07396 28.221888 223.55833Q27.628138 223.04271 26.409388 223.04271Q25.253138 223.04271 24.659388 223.57396Q24.065638 224.08958 24.065638 224.87083Q24.065638 225.65208 24.659388 226.18333Q25.237513 226.69896 26.440638 226.69896ZM29.550013 220.38646L23.331263 220.38646L23.331263 219.44896L24.206263 219.44896Q23.737513 219.15208 23.471888 218.66771Q23.190638 218.18333 23.190638 217.55833Q23.190638 216.87083 23.471888 216.43333Q23.753138 215.98021 24.268763 215.80833Q23.190638 215.05833 23.190638 213.88646Q23.190638 212.94896 23.706263 212.46458Q24.206263 211.96458 25.284388 211.96458L29.550013 211.96458L29.550013 213.01146L25.628138 213.01146Q25.003138 213.01146 24.721888 213.12083Q24.440638 213.21458 24.268763 213.48021Q24.096888 213.74583 24.096888 214.12083Q24.096888 214.77708 24.534388 215.21458Q24.971888 215.63646 25.940638 215.63646L29.550013 215.63646L29.550013 216.69896L25.503138 216.69896Q24.800013 216.69896 24.456263 216.96458Q24.096888 217.21458 24.096888 217.79271Q24.096888 218.24583 24.331263 218.62083Q24.565638 218.99583 25.018763 219.16771Q25.471888 219.33958 26.315638 219.33958L29.550013 219.33958L29.550013 220.38646ZM29.550013 208.41771L29.550013 209.40208L20.956263 209.40208L20.956263 208.33958L24.018763 208.33958Q23.190638 207.66771 23.190638 206.63646Q23.190638 206.05833 23.425013 205.55833Q23.643763 205.04271 24.065638 204.71458Q24.487513 204.37083 25.081263 204.18333Q25.675013 203.99583 26.346888 203.99583Q27.940638 203.99583 28.815638 204.79271Q29.690638 205.58958 29.690638 206.68333Q29.690638 207.79271 28.768763 208.41771L29.550013 208.41771ZM26.393763 208.43333Q27.503138 208.43333 28.003138 208.12083Q28.815638 207.62083 28.815638 206.77708Q28.815638 206.08958 28.221888 205.58958Q27.628138 205.07396 26.425013 205.07396Q25.206263 205.07396 24.628138 205.55833Q24.050013 206.04271 24.050013 206.73021Q24.050013 207.41771 24.659388 207.93333Q25.253138 208.43333 26.393763 208.43333ZM29.550013 202.40208L23.331263 202.40208L23.331263 201.44896L24.268763 201.44896Q23.612513 201.08958 23.409388 200.79271Q23.190638 200.48021 23.190638 200.10521Q23.190638 199.57396 23.518763 199.02708L24.503138 199.38646Q24.268763 199.77708 24.268763 200.15208Q24.268763 200.51146 24.487513 200.79271Q24.690638 201.05833 25.065638 201.16771Q25.628138 201.35521 26.284388 201.35521L29.550013 201.35521L29.550013 202.40208ZM27.550013 194.13646L27.675013 193.04271Q28.628138 193.29271 29.159388 193.99583Q29.690638 194.69896 29.690638 195.77708Q29.690638 197.13646 28.846888 197.94896Q28.003138 198.74583 26.487513 198.74583Q24.925013 198.74583 24.065638 197.93333Q23.190638 197.12083 23.190638 195.83958Q23.190638 194.58958 24.034388 193.80833Q24.878138 193.01146 26.425013 193.01146Q26.518763 193.01146 26.706263 193.01146L26.706263 197.65208Q27.737513 197.58958 28.284388 197.07396Q28.815638 196.55833 28.815638 195.77708Q28.815638 195.19896 28.518763 194.79271Q28.206263 194.37083 27.550013 194.13646ZM25.846888 197.58958L25.846888 194.12083Q25.050013 194.18333 24.659388 194.51146Q24.050013 195.02708 24.050013 195.82396Q24.050013 196.55833 24.534388 197.05833Q25.018763 197.54271 25.846888 197.58958ZM29.550013 184.35521L28.768763 184.35521Q29.690638 184.94896 29.690638 186.08958Q29.690638 186.83958 29.284388 187.46458Q28.862513 188.08958 28.128138 188.43333Q27.393763 188.77708 26.440638 188.77708Q25.518763 188.77708 24.753138 188.46458Q23.987513 188.15208 23.596888 187.52708Q23.190638 186.90208 23.190638 186.13646Q23.190638 185.57396 23.425013 185.13646Q23.659388 184.69896 24.034388 184.41771L20.956263 184.41771L20.956263 183.37083L29.550013 183.37083L29.550013 184.35521ZM26.440638 187.68333Q27.643763 187.68333 28.237513 187.18333Q28.815638 186.68333 28.815638 185.99583Q28.815638 185.30833 28.253138 184.82396Q27.690638 184.33958 26.534388 184.33958Q25.253138 184.33958 24.659388 184.83958Q24.065638 185.32396 24.065638 186.04271Q24.065638 186.74583 24.643763 187.21458Q25.206263 187.68333 26.440638 187.68333ZM27.550013 177.13646L27.675013 176.04271Q28.628138 176.29271 29.159388 176.99583Q29.690638 177.69896 29.690638 178.77708Q29.690638 180.13646 28.846888 180.94896Q28.003138 181.74583 26.487513 181.74583Q24.925013 181.74583 24.065638 180.93333Q23.190638 180.12083 23.190638 178.83958Q23.190638 177.58958 24.034388 176.80833Q24.878138 176.01146 26.425013 176.01146Q26.518763 176.01146 26.706263 176.01146L26.706263 180.65208Q27.737513 180.58958 28.284388 180.07396Q28.815638 179.55833 28.815638 178.77708Q28.815638 178.19896 28.518763 177.79271Q28.206263 177.37083 27.550013 177.13646ZM25.846888 180.58958L25.846888 177.12083Q25.050013 177.18333 24.659388 177.51146Q24.050013 178.02708 24.050013 178.82396Q24.050013 179.55833 24.534388 180.05833Q25.018763 180.54271 25.846888 180.58958ZM30.065638 171.58958L30.221888 170.55833Q30.690638 170.49583 30.909388 170.19896Q31.206263 169.80833 31.206263 169.13646Q31.206263 168.40208 30.909388 168.01146Q30.612513 167.60521 30.096888 167.46458Q29.768763 167.37083 28.737513 167.38646Q29.550013 168.07396 29.550013 169.10521Q29.550013 170.38646 28.628138 171.08958Q27.690638 171.79271 26.409388 171.79271Q25.518763 171.79271 24.768763 171.48021Q24.003138 171.15208 23.596888 170.54271Q23.190638 169.93333 23.190638 169.10521Q23.190638 167.99583 24.081263 167.27708L23.331263 167.27708L23.331263 166.30833L28.706263 166.30833Q30.159388 166.30833 30.768763 166.60521Q31.378138 166.90208 31.721888 167.54271Q32.08126 168.18333 32.08126 169.12083Q32.08126 170.23021 31.581263 170.91771Q31.081263 171.60521 30.065638 171.58958ZM26.331263 170.71458Q27.550013 170.71458 28.112513 170.23021Q28.675013 169.74583 28.675013 169.01146Q28.675013 168.27708 28.112513 167.79271Q27.550013 167.29271 26.362513 167.29271Q25.221888 167.29271 24.643763 167.80833Q24.065638 168.30833 24.065638 169.02708Q24.065638 169.73021 24.643763 170.23021Q25.206263 170.71458 26.331263 170.71458ZM29.550013 164.40208L23.331263 164.40208L23.331263 163.44896L24.268763 163.44896Q23.612513 163.08958 23.409388 162.79271Q23.190638 162.48021 23.190638 162.10521Q23.190638 161.57396 23.518763 161.02708L24.503138 161.38646Q24.268763 161.77708 24.268763 162.15208Q24.268763 162.51146 24.487513 162.79271Q24.690638 163.05833 25.065638 163.16771Q25.628138 163.35521 26.284388 163.35521L29.550013 163.35521L29.550013 164.40208ZM22.175013 160.38646L20.956263 160.38646L20.956263 159.32396L22.175013 159.32396L22.175013 160.38646ZM29.550013 160.38646L23.331263 160.38646L23.331263 159.32396L29.550013 159.32396L29.550013 160.38646ZM29.550013 157.41771L20.956263 157.41771L20.956263 156.35521L29.550013 156.35521L29.550013 157.41771ZM29.550013 154.41771L20.956263 154.41771L20.956263 153.35521L29.550013 153.35521L29.550013 154.41771ZM27.550013 147.13646L27.675013 146.04271Q28.628138 146.29271 29.159388 146.99583Q29.690638 147.69896 29.690638 148.77708Q29.690638 150.13646 28.846888 150.94896Q28.003138 151.74583 26.487513 151.74583Q24.925013 151.74583 24.065638 150.93333Q23.190638 150.12083 23.190638 148.83958Q23.190638 147.58958 24.034388 146.80833Q24.878138 146.01146 26.425013 146.01146Q26.518763 146.01146 26.706263 146.01146L26.706263 150.65208Q27.737513 150.58958 28.284388 150.07396Q28.815638 149.55833 28.815638 148.77708Q28.815638 148.19896 28.518763 147.79271Q28.206263 147.37083 27.550013 147.13646ZM25.846888 150.58958L25.846888 147.12083Q25.050013 147.18333 24.659388 147.51146Q24.050013 148.02708 24.050013 148.82396Q24.050013 149.55833 24.534388 150.05833Q25.018763 150.54271 25.846888 150.58958ZM27.690638 144.80833L27.534388 143.77708Q28.159388 143.68333 28.487513 143.29271Q28.815638 142.88646 28.815638 142.15208Q28.815638 141.43333 28.534388 141.08958Q28.237513 140.73021 27.831263 140.73021Q27.471888 140.73021 27.268763 141.04271Q27.128138 141.26146 26.909388 142.12083Q26.612513 143.27708 26.409388 143.73021Q26.190638 144.16771 25.815638 144.40208Q25.440638 144.63646 24.971888 144.63646Q24.565638 144.63646 24.206263 144.44896Q23.846888 144.26146 23.612513 143.93333Q23.440638 143.68333 23.315638 143.26146Q23.190638 142.83958 23.190638 142.33958Q23.190638 141.62083 23.409388 141.07396Q23.612513 140.51146 23.971888 140.24583Q24.331263 139.98021 24.925013 139.88646L25.065638 140.91771Q24.596888 140.98021 24.331263 141.32396Q24.050013 141.65208 24.050013 142.27708Q24.050013 142.99583 24.300013 143.30833Q24.534388 143.62083 24.862513 143.62083Q25.065638 143.62083 25.221888 143.49583Q25.393763 143.35521 25.503138 143.08958Q25.565638 142.93333 25.768763 142.15208Q26.081263 141.02708 26.268763 140.58958Q26.456263 140.15208 26.815638 139.90208Q27.175013 139.65208 27.721888 139.65208Q28.253138 139.65208 28.721888 139.96458Q29.175013 140.26146 29.440638 140.83958Q29.690638 141.41771 29.690638 142.15208Q29.690638 143.37083 29.190638 144.01146Q28.675013 144.63646 27.690638 144.80833Z" fill-rule="nonzero"/><path fill="#000000" d="M72.05 300.21564Q72.05 298.6844 72.3625 297.7625Q72.675 296.825 73.28438 296.325Q73.90938 295.825 74.84688 295.825Q75.53438 295.825 76.05 296.10626Q76.58125 296.3875 76.925 296.91876Q77.26875 297.4344 77.45625 298.1844Q77.64375 298.9344 77.64375 300.21564Q77.64375 301.73126 77.33125 302.65314Q77.03438 303.575 76.40938 304.09064Q75.8 304.59064 74.84688 304.59064Q73.6125 304.59064 72.89375 303.7Q72.05 302.6375 72.05 300.21564ZM73.12813 300.21564Q73.12813 302.325 73.62813 303.02814Q74.12813 303.73126 74.84688 303.73126Q75.58125 303.73126 76.06563 303.02814Q76.56563 302.325 76.56563 300.21564Q76.56563 298.09064 76.06563 297.40314Q75.58125 296.7 74.83125 296.7Q74.1125 296.7 73.675 297.3094Q73.12813 298.09064 73.12813 300.21564Z" fill-rule="nonzero"/><path fill="#000000" d="M56.596874 243.80104L56.596874 244.81667L50.909374 244.81667Q50.909374 244.44167 51.034374 244.08229Q51.253124 243.50417 51.721874 242.94167Q52.20625 242.37917 53.1125 241.64479Q54.51875 240.48854 55.003124 239.81667Q55.503124 239.14479 55.503124 238.55104Q55.503124 237.92604 55.05 237.50417Q54.596874 237.06667 53.878124 237.06667Q53.1125 237.06667 52.659374 237.51979Q52.20625 237.97292 52.190624 238.78542L51.1125 238.67604Q51.221874 237.45729 51.940624 236.83229Q52.675 236.19167 53.909374 236.19167Q55.14375 236.19167 55.8625 236.87917Q56.58125 237.56667 56.58125 238.58229Q56.58125 239.09792 56.3625 239.59792Q56.159374 240.08229 55.659374 240.64479Q55.175 241.19167 54.05 242.14479Q53.096874 242.94167 52.815624 243.23854Q52.55 243.51979 52.378124 243.80104L56.596874 243.80104ZM58.05 240.58229Q58.05 239.05104 58.3625 238.12917Q58.675 237.19167 59.284374 236.69167Q59.909374 236.19167 60.846874 236.19167Q61.534374 236.19167 62.05 236.47292Q62.58125 236.75417 62.925 237.28542Q63.26875 237.80104 63.45625 238.55104Q63.64375 239.30104 63.64375 240.58229Q63.64375 242.09792 63.33125 243.01979Q63.034374 243.94167 62.409374 244.45729Q61.8 244.95729 60.846874 244.95729Q59.6125 244.95729 58.89375 244.06667Q58.05 243.00417 58.05 240.58229ZM59.128124 240.58229Q59.128124 242.69167 59.628124 243.39479Q60.128124 244.09792 60.846874 244.09792Q61.58125 244.09792 62.065624 243.39479Q62.565624 242.69167 62.565624 240.58229Q62.565624 238.45729 62.065624 237.76979Q61.58125 237.06667 60.83125 237.06667Q60.1125 237.06667 59.675 237.67604Q59.128124 238.45729 59.128124 240.58229ZM65.05 240.58229Q65.05 239.05104 65.3625 238.12917Q65.675 237.19167 66.28438 236.69167Q66.90938 236.19167 67.84688 236.19167Q68.53438 236.19167 69.05 236.47292Q69.58125 236.75417 69.925 237.28542Q70.26875 237.80104 70.45625 238.55104Q70.64375 239.30104 70.64375 240.58229Q70.64375 242.09792 70.33125 243.01979Q70.03438 243.94167 69.40938 244.45729Q68.8 244.95729 67.84688 244.95729Q66.6125 244.95729 65.89375 244.06667Q65.05 243.00417 65.05 240.58229ZM66.12813 240.58229Q66.12813 242.69167 66.62813 243.39479Q67.12813 244.09792 67.84688 244.09792Q68.58125 244.09792 69.06563 243.39479Q69.56563 242.69167 69.56563 240.58229Q69.56563 238.45729 69.06563 237.76979Q68.58125 237.06667 67.83125 237.06667Q67.1125 237.06667 66.675 237.67604Q66.12813 238.45729 66.12813 240.58229ZM72.05 240.58229Q72.05 239.05104 72.3625 238.12917Q72.675 237.19167 73.28438 236.69167Q73.90938 236.19167 74.84688 236.19167Q75.53438 236.19167 76.05 236.47292Q76.58125 236.75417 76.925 237.28542Q77.26875 237.80104 77.45625 238.55104Q77.64375 239.30104 77.64375 240.58229Q77.64375 242.09792 77.33125 243.01979Q77.03438 243.94167 76.40938 244.45729Q75.8 244.95729 74.84688 244.95729Q73.6125 244.95729 72.89375 244.06667Q72.05 243.00417 72.05 240.58229ZM73.12813 240.58229Q73.12813 242.69167 73.62813 243.39479Q74.12813 244.09792 74.84688 244.09792Q75.58125 244.09792 76.06563 243.39479Q76.56563 242.69167 76.56563 240.58229Q76.56563 238.45729 76.06563 237.76979Q75.58125 237.06667 74.83125 237.06667Q74.1125 237.06667 73.675 237.67604Q73.12813 238.45729 73.12813 240.58229Z" fill-rule="nonzero"/><path fill="#000000" d="M54.425 185.18333L54.425 183.12083L50.70625 183.12083L50.70625 182.15208L54.628124 176.58958L55.4875 176.58958L55.4875 182.15208L56.64375 182.15208L56.64375 183.12083L55.4875 183.12083L55.4875 185.18333L54.425 185.18333ZM54.425 182.15208L54.425 178.29271L51.7375 182.15208L54.425 182.15208ZM58.05 180.94896Q58.05 179.41771 58.3625 178.49583Q58.675 177.55833 59.284374 177.05833Q59.909374 176.55833 60.846874 176.55833Q61.534374 176.55833 62.05 176.83958Q62.58125 177.12083 62.925 177.65208Q63.26875 178.16771 63.45625 178.91771Q63.64375 179.66771 63.64375 180.94896Q63.64375 182.46458 63.33125 183.38646Q63.034374 184.30833 62.409374 184.82396Q61.8 185.32396 60.846874 185.32396Q59.6125 185.32396 58.89375 184.43333Q58.05 183.37083 58.05 180.94896ZM59.128124 180.94896Q59.128124 183.05833 59.628124 183.76146Q60.128124 184.46458 60.846874 184.46458Q61.58125 184.46458 62.065624 183.76146Q62.565624 183.05833 62.565624 180.94896Q62.565624 178.82396 62.065624 178.13646Q61.58125 177.43333 60.83125 177.43333Q60.1125 177.43333 59.675 178.04271Q59.128124 178.82396 59.128124 180.94896ZM65.05 180.94896Q65.05 179.41771 65.3625 178.49583Q65.675 177.55833 66.28438 177.05833Q66.90938 176.55833 67.84688 176.55833Q68.53438 176.55833 69.05 176.83958Q69.58125 177.12083 69.925 177.65208Q70.26875 178.16771 70.45625 178.91771Q70.64375 179.66771 70.64375 180.94896Q70.64375 182.46458 70.33125 183.38646Q70.03438 184.30833 69.40938 184.82396Q68.8 185.32396 67.84688 185.32396Q66.6125 185.32396 65.89375 184.43333Q65.05 183.37083 65.05 180.94896ZM66.12813 180.94896Q66.12813 183.05833 66.62813 183.76146Q67.12813 184.46458 67.84688 184.46458Q68.58125 184.46458 69.06563 183.76146Q69.56563 183.05833 69.56563 180.94896Q69.56563 178.82396 69.06563 178.13646Q68.58125 177.43333 67.83125 177.43333Q67.1125 177.43333 66.675 178.04271Q66.12813 178.82396 66.12813 180.94896ZM72.05 180.94896Q72.05 179.41771 72.3625 178.49583Q72.675 177.55833 73.28438 177.05833Q73.90938 176.55833 74.84688 176.55833Q75.53438 176.55833 76.05 176.83958Q76.58125 177.12083 76.925 177.65208Q77.26875 178.16771 77.45625 178.91771Q77.64375 179.66771 77.64375 180.94896Q77.64375 182.46458 77.33125 183.38646Q77.03438 184.30833 76.40938 184.82396Q75.8 185.32396 74.84688 185.32396Q73.6125 185.32396 72.89375 184.43333Q72.05 183.37083 72.05 180.94896ZM73.12813 180.94896Q73.12813 183.05833 73.62813 183.76146Q74.12813 184.46458 74.84688 184.46458Q75.58125 184.46458 76.06563 183.76146Q76.56563 183.05833 76.56563 180.94896Q76.56563 178.82396 76.06563 178.13646Q75.58125 177.43333 74.83125 177.43333Q74.1125 177.43333 73.675 178.04271Q73.12813 178.82396 73.12813 180.94896Z" fill-rule="nonzero"/><path fill="#000000" d="M56.51875 119.06563L55.471874 119.14375Q55.33125 118.51875 55.08125 118.2375Q54.64375 117.78438 54.01875 117.78438Q53.51875 117.78438 53.128124 118.06563Q52.64375 118.44063 52.346874 119.14375Q52.065624 119.83125 52.05 121.1125Q52.425 120.53438 52.971874 120.25313Q53.534374 119.97188 54.14375 119.97188Q55.190624 119.97188 55.925 120.75313Q56.675 121.53438 56.675 122.75313Q56.675 123.56563 56.315624 124.26875Q55.971874 124.95625 55.3625 125.33125Q54.753124 125.69063 53.9875 125.69063Q52.659374 125.69063 51.83125 124.72188Q51.003124 123.75313 51.003124 121.53438Q51.003124 119.03438 51.925 117.90938Q52.721874 116.925 54.08125 116.925Q55.096874 116.925 55.7375 117.50313Q56.39375 118.06563 56.51875 119.06563ZM52.221874 122.76875Q52.221874 123.31563 52.440624 123.81563Q52.675 124.3 53.08125 124.56563Q53.503124 124.83125 53.971874 124.83125Q54.628124 124.83125 55.1125 124.3Q55.596874 123.75313 55.596874 122.83125Q55.596874 121.94063 55.1125 121.425Q54.64375 120.90938 53.925 120.90938Q53.20625 120.90938 52.70625 121.425Q52.221874 121.94063 52.221874 122.76875ZM58.05 121.31563Q58.05 119.78438 58.3625 118.8625Q58.675 117.925 59.284374 117.425Q59.909374 116.925 60.846874 116.925Q61.534374 116.925 62.05 117.20625Q62.58125 117.4875 62.925 118.01875Q63.26875 118.53438 63.45625 119.28438Q63.64375 120.03438 63.64375 121.31563Q63.64375 122.83125 63.33125 123.75313Q63.034374 124.675 62.409374 125.19063Q61.8 125.69063 60.846874 125.69063Q59.6125 125.69063 58.89375 124.8Q58.05 123.7375 58.05 121.31563ZM59.128124 121.31563Q59.128124 123.425 59.628124 124.12813Q60.128124 124.83125 60.846874 124.83125Q61.58125 124.83125 62.065624 124.12813Q62.565624 123.425 62.565624 121.31563Q62.565624 119.19063 62.065624 118.50313Q61.58125 117.8 60.83125 117.8Q60.1125 117.8 59.675 118.40938Q59.128124 119.19063 59.128124 121.31563ZM65.05 121.31563Q65.05 119.78438 65.3625 118.8625Q65.675 117.925 66.28438 117.425Q66.90938 116.925 67.84688 116.925Q68.53438 116.925 69.05 117.20625Q69.58125 117.4875 69.925 118.01875Q70.26875 118.53438 70.45625 119.28438Q70.64375 120.03438 70.64375 121.31563Q70.64375 122.83125 70.33125 123.75313Q70.03438 124.675 69.40938 125.19063Q68.8 125.69063 67.84688 125.69063Q66.6125 125.69063 65.89375 124.8Q65.05 123.7375 65.05 121.31563ZM66.12813 121.31563Q66.12813 123.425 66.62813 124.12813Q67.12813 124.83125 67.84688 124.83125Q68.58125 124.83125 69.06563 124.12813Q69.56563 123.425 69.56563 121.31563Q69.56563 119.19063 69.06563 118.50313Q68.58125 117.8 67.83125 117.8Q67.1125 117.8 66.675 118.40938Q66.12813 119.19063 66.12813 121.31563ZM72.05 121.31563Q72.05 119.78438 72.3625 118.8625Q72.675 117.925 73.28438 117.425Q73.90938 116.925 74.84688 116.925Q75.53438 116.925 76.05 117.20625Q76.58125 117.4875 76.925 118.01875Q77.26875 118.53438 77.45625 119.28438Q77.64375 120.03438 77.64375 121.31563Q77.64375 122.83125 77.33125 123.75313Q77.03438 124.675 76.40938 125.19063Q75.8 125.69063 74.84688 125.69063Q73.6125 125.69063 72.89375 124.8Q72.05 123.7375 72.05 121.31563ZM73.12813 121.31563Q73.12813 123.425 73.62813 124.12813Q74.12813 124.83125 74.84688 124.83125Q75.58125 124.83125 76.06563 124.12813Q76.56563 123.425 76.56563 121.31563Q76.56563 119.19063 76.06563 118.50313Q75.58125 117.8 74.83125 117.8Q74.1125 117.8 73.675 118.40938Q73.12813 119.19063 73.12813 121.31563Z" fill-rule="nonzero"/><path fill="#000000" d="M52.675 61.260414Q52.01875 61.010414 51.690624 60.572914Q51.378124 60.11979 51.378124 59.510414Q51.378124 58.572914 52.05 57.93229Q52.7375 57.291664 53.846874 57.291664Q54.971874 57.291664 55.659374 57.947914Q56.346874 58.604164 56.346874 59.541664Q56.346874 60.135414 56.034374 60.572914Q55.721874 61.010414 55.08125 61.260414Q55.878124 61.510414 56.284374 62.08854Q56.690624 62.666664 56.690624 63.46354Q56.690624 64.55729 55.909374 65.30729Q55.14375 66.05729 53.8625 66.05729Q52.596874 66.05729 51.815624 65.30729Q51.034374 64.55729 51.034374 63.43229Q51.034374 62.58854 51.45625 62.02604Q51.89375 61.46354 52.675 61.260414ZM52.45625 59.46354Q52.45625 60.072914 52.846874 60.46354Q53.253124 60.854164 53.878124 60.854164Q54.4875 60.854164 54.878124 60.479164Q55.26875 60.08854 55.26875 59.52604Q55.26875 58.947914 54.8625 58.55729Q54.45625 58.15104 53.8625 58.15104Q53.253124 58.15104 52.846874 58.541664Q52.45625 58.93229 52.45625 59.46354ZM52.128124 63.43229Q52.128124 63.885414 52.33125 64.30729Q52.55 64.729164 52.971874 64.96354Q53.39375 65.197914 53.878124 65.197914Q54.628124 65.197914 55.1125 64.71354Q55.6125 64.229164 55.6125 63.479164Q55.6125 62.71354 55.1125 62.21354Q54.6125 61.71354 53.846874 61.71354Q53.096874 61.71354 52.6125 62.21354Q52.128124 62.697914 52.128124 63.43229ZM58.05 61.68229Q58.05 60.15104 58.3625 59.229164Q58.675 58.291664 59.284374 57.791664Q59.909374 57.291664 60.846874 57.291664Q61.534374 57.291664 62.05 57.572914Q62.58125 57.854164 62.925 58.385414Q63.26875 58.90104 63.45625 59.65104Q63.64375 60.40104 63.64375 61.68229Q63.64375 63.197914 63.33125 64.11979Q63.034374 65.041664 62.409374 65.55729Q61.8 66.05729 60.846874 66.05729Q59.6125 66.05729 58.89375 65.166664Q58.05 64.104164 58.05 61.68229ZM59.128124 61.68229Q59.128124 63.791664 59.628124 64.49479Q60.128124 65.197914 60.846874 65.197914Q61.58125 65.197914 62.065624 64.49479Q62.565624 63.791664 62.565624 61.68229Q62.565624 59.55729 62.065624 58.86979Q61.58125 58.166664 60.83125 58.166664Q60.1125 58.166664 59.675 58.77604Q59.128124 59.55729 59.128124 61.68229ZM65.05 61.68229Q65.05 60.15104 65.3625 59.229164Q65.675 58.291664 66.28438 57.791664Q66.90938 57.291664 67.84688 57.291664Q68.53438 57.291664 69.05 57.572914Q69.58125 57.854164 69.925 58.385414Q70.26875 58.90104 70.45625 59.65104Q70.64375 60.40104 70.64375 61.68229Q70.64375 63.197914 70.33125 64.11979Q70.03438 65.041664 69.40938 65.55729Q68.8 66.05729 67.84688 66.05729Q66.6125 66.05729 65.89375 65.166664Q65.05 64.104164 65.05 61.68229ZM66.12813 61.68229Q66.12813 63.791664 66.62813 64.49479Q67.12813 65.197914 67.84688 65.197914Q68.58125 65.197914 69.06563 64.49479Q69.56563 63.791664 69.56563 61.68229Q69.56563 59.55729 69.06563 58.86979Q68.58125 58.166664 67.83125 58.166664Q67.1125 58.166664 66.675 58.77604Q66.12813 59.55729 66.12813 61.68229ZM72.05 61.68229Q72.05 60.15104 72.3625 59.229164Q72.675 58.291664 73.28438 57.791664Q73.90938 57.291664 74.84688 57.291664Q75.53438 57.291664 76.05 57.572914Q76.58125 57.854164 76.925 58.385414Q77.26875 58.90104 77.45625 59.65104Q77.64375 60.40104 77.64375 61.68229Q77.64375 63.197914 77.33125 64.11979Q77.03438 65.041664 76.40938 65.55729Q75.8 66.05729 74.84688 66.05729Q73.6125 66.05729 72.89375 65.166664Q72.05 64.104164 72.05 61.68229ZM73.12813 61.68229Q73.12813 63.791664 73.62813 64.49479Q74.12813 65.197914 74.84688 65.197914Q75.58125 65.197914 76.06563 64.49479Q76.56563 63.791664 76.56563 61.68229Q76.56563 59.55729 76.06563 58.86979Q75.58125 58.166664 74.83125 58.166664Q74.1125 58.166664 73.675 58.77604Q73.12813 59.55729 73.12813 61.68229Z" fill-rule="nonzero"/><path fill="#000000" d="M117.89121 317.45L116.84434 317.45L116.84434 310.73126Q116.45371 311.09064 115.82871 311.46564Q115.21934 311.825 114.73496 311.9969L114.73496 310.98126Q115.60996 310.5594 116.26621 309.98126Q116.93809 309.3875 117.21934 308.825L117.89121 308.825L117.89121 317.45ZM120.92246 313.21564Q120.92246 311.6844 121.23496 310.7625Q121.54746 309.825 122.15684 309.325Q122.78184 308.825 123.71934 308.825Q124.40684 308.825 124.92246 309.10626Q125.45371 309.3875 125.79746 309.91876Q126.14121 310.4344 126.32871 311.1844Q126.51621 311.9344 126.51621 313.21564Q126.51621 314.73126 126.20371 315.65314Q125.90684 316.575 125.28184 317.09064Q124.67246 317.59064 123.71934 317.59064Q122.48496 317.59064 121.76621 316.7Q120.92246 315.6375 120.92246 313.21564ZM122.00059 313.21564Q122.00059 315.325 122.50059 316.02814Q123.00059 316.73126 123.71934 316.73126Q124.45371 316.73126 124.93809 316.02814Q125.43809 315.325 125.43809 313.21564Q125.43809 311.09064 124.93809 310.40314Q124.45371 309.7 123.70371 309.7Q122.98496 309.7 122.54746 310.3094Q122.00059 311.09064 122.00059 313.21564Z" fill-rule="nonzero"/><path fill="#000000" d="M171.0356 317.45L169.98872 317.45L169.98872 310.73126Q169.5981 311.09064 168.9731 311.46564Q168.36372 311.825 167.87935 311.9969L167.87935 310.98126Q168.75435 310.5594 169.4106 309.98126Q170.08247 309.3875 170.36372 308.825L171.0356 308.825L171.0356 317.45ZM178.0356 317.45L176.98872 317.45L176.98872 310.73126Q176.5981 311.09064 175.9731 311.46564Q175.36372 311.825 174.87935 311.9969L174.87935 310.98126Q175.75435 310.5594 176.4106 309.98126Q177.08247 309.3875 177.36372 308.825L178.0356 308.825L178.0356 317.45Z" fill-rule="nonzero"/><path fill="#000000" d="M224.17998 317.45L223.1331 317.45L223.1331 310.73126Q222.74248 311.09064 222.11748 311.46564Q221.5081 311.825 221.02373 311.9969L221.02373 310.98126Q221.89873 310.5594 222.55498 309.98126Q223.22685 309.3875 223.5081 308.825L224.17998 308.825L224.17998 317.45ZM232.7581 316.4344L232.7581 317.45L227.0706 317.45Q227.0706 317.075 227.1956 316.71564Q227.41435 316.1375 227.8831 315.575Q228.36748 315.0125 229.27373 314.27814Q230.67998 313.1219 231.16435 312.45Q231.66435 311.77814 231.66435 311.1844Q231.66435 310.5594 231.21123 310.1375Q230.7581 309.7 230.03935 309.7Q229.27373 309.7 228.8206 310.15314Q228.36748 310.60626 228.35185 311.41876L227.27373 311.3094Q227.3831 310.09064 228.10185 309.46564Q228.83623 308.825 230.0706 308.825Q231.30498 308.825 232.02373 309.5125Q232.74248 310.2 232.74248 311.21564Q232.74248 311.73126 232.52373 312.23126Q232.3206 312.71564 231.8206 313.27814Q231.33623 313.825 230.21123 314.77814Q229.2581 315.575 228.97685 315.8719Q228.71123 316.15314 228.53935 316.4344L232.7581 316.4344Z" fill-rule="nonzero"/><path fill="#000000" d="M277.32437 317.45L276.2775 317.45L276.2775 310.73126Q275.88687 311.09064 275.26187 311.46564Q274.6525 311.825 274.16812 311.9969L274.16812 310.98126Q275.04312 310.5594 275.69937 309.98126Q276.37125 309.3875 276.6525 308.825L277.32437 308.825L277.32437 317.45ZM280.35562 315.1844L281.41812 315.04376Q281.59 315.9344 282.0275 316.34064Q282.465 316.73126 283.09 316.73126Q283.84 316.73126 284.35562 316.21564Q284.87125 315.7 284.87125 314.9344Q284.87125 314.21564 284.38687 313.7469Q283.91812 313.2625 283.18375 313.2625Q282.88687 313.2625 282.43375 313.3875L282.55875 312.45Q282.66812 312.46564 282.73062 312.46564Q283.4025 312.46564 283.93375 312.1219Q284.48062 311.7625 284.48062 311.02814Q284.48062 310.45 284.09 310.075Q283.69937 309.6844 283.07437 309.6844Q282.465 309.6844 282.04312 310.075Q281.63687 310.46564 281.5275 311.23126L280.465 311.04376Q280.6525 309.9969 281.34 309.41876Q282.0275 308.825 283.04312 308.825Q283.74625 308.825 284.34 309.1375Q284.93375 309.4344 285.24625 309.95Q285.55875 310.46564 285.55875 311.0594Q285.55875 311.60626 285.26187 312.075Q284.965 312.52814 284.38687 312.79376Q285.13687 312.96564 285.55875 313.52814Q285.98062 314.075 285.98062 314.91876Q285.98062 316.04376 285.1525 316.825Q284.34 317.60626 283.09 317.60626Q281.965 317.60626 281.215 316.9344Q280.465 316.2469 280.35562 315.1844Z" fill-rule="nonzero"/><path fill="#000000" d="M330.46875 317.45L329.42188 317.45L329.42188 310.73126Q329.03125 311.09064 328.40625 311.46564Q327.79688 311.825 327.3125 311.9969L327.3125 310.98126Q328.1875 310.5594 328.84375 309.98126Q329.51562 309.3875 329.79688 308.825L330.46875 308.825L330.46875 317.45ZM336.875 317.45L336.875 315.3875L333.15625 315.3875L333.15625 314.41876L337.07812 308.85626L337.9375 308.85626L337.9375 314.41876L339.09375 314.41876L339.09375 315.3875L337.9375 315.3875L337.9375 317.45L336.875 317.45ZM336.875 314.41876L336.875 310.5594L334.1875 314.41876L336.875 314.41876Z" fill-rule="nonzero"/><path fill="#000000" d="M383.61313 317.45L382.56625 317.45L382.56625 310.73126Q382.17563 311.09064 381.55063 311.46564Q380.94125 311.825 380.45688 311.9969L380.45688 310.98126Q381.33188 310.5594 381.98813 309.98126Q382.66 309.3875 382.94125 308.825L383.61313 308.825L383.61313 317.45ZM386.64438 315.2L387.75375 315.10626Q387.87875 315.91876 388.31625 316.325Q388.76938 316.73126 389.41 316.73126Q390.16 316.73126 390.69125 316.15314Q391.2225 315.575 391.2225 314.6375Q391.2225 313.73126 390.70688 313.21564Q390.20688 312.6844 389.37875 312.6844Q388.87875 312.6844 388.45688 312.91876Q388.05063 313.15314 387.81625 313.5125L386.83188 313.3875L387.66 308.98126L391.94125 308.98126L391.94125 309.98126L388.50375 309.98126L388.05063 312.29376Q388.81625 311.7469 389.66 311.7469Q390.785 311.7469 391.55063 312.52814Q392.33188 313.3094 392.33188 314.54376Q392.33188 315.7 391.66 316.5594Q390.83188 317.59064 389.41 317.59064Q388.23813 317.59064 387.48813 316.9344Q386.75375 316.27814 386.64438 315.2Z" fill-rule="nonzero"/><path fill="#000000" d="M436.7575 317.45L435.71063 317.45L435.71063 310.73126Q435.32 311.09064 434.695 311.46564Q434.08563 311.825 433.60126 311.9969L433.60126 310.98126Q434.47626 310.5594 435.1325 309.98126Q435.80438 309.3875 436.08563 308.825L436.7575 308.825L436.7575 317.45ZM445.2575 310.96564L444.21063 311.04376Q444.07 310.41876 443.82 310.1375Q443.3825 309.6844 442.7575 309.6844Q442.2575 309.6844 441.86688 309.96564Q441.3825 310.34064 441.08563 311.04376Q440.80438 311.73126 440.78876 313.0125Q441.16376 312.4344 441.71063 312.15314Q442.27313 311.8719 442.8825 311.8719Q443.92938 311.8719 444.66376 312.65314Q445.41376 313.4344 445.41376 314.65314Q445.41376 315.46564 445.05438 316.16876Q444.71063 316.85626 444.10126 317.23126Q443.49188 317.59064 442.72626 317.59064Q441.39813 317.59064 440.57 316.6219Q439.74188 315.65314 439.74188 313.4344Q439.74188 310.9344 440.66376 309.8094Q441.46063 308.825 442.82 308.825Q443.83563 308.825 444.47626 309.40314Q445.1325 309.96564 445.2575 310.96564ZM440.96063 314.66876Q440.96063 315.21564 441.17938 315.71564Q441.41376 316.2 441.82 316.46564Q442.24188 316.73126 442.71063 316.73126Q443.36688 316.73126 443.85126 316.2Q444.33563 315.65314 444.33563 314.73126Q444.33563 313.84064 443.85126 313.325Q443.3825 312.8094 442.66376 312.8094Q441.945 312.8094 441.445 313.325Q440.96063 313.84064 440.96063 314.66876Z" fill-rule="nonzero"/><path fill="#000000" d="M489.90192 317.45L488.85504 317.45L488.85504 310.73126Q488.46442 311.09064 487.83942 311.46564Q487.23004 311.825 486.74567 311.9969L486.74567 310.98126Q487.62067 310.5594 488.27692 309.98126Q488.9488 309.3875 489.23004 308.825L489.90192 308.825L489.90192 317.45ZM492.99567 309.98126L492.99567 308.96564L498.55817 308.96564L498.55817 309.79376Q497.74567 310.66876 496.93317 312.1219Q496.1363 313.5594 495.6988 315.09064Q495.37067 316.16876 495.29254 317.45L494.1988 317.45Q494.21442 316.4344 494.58942 314.9969Q494.98004 313.5594 495.68317 312.23126Q496.40192 310.90314 497.21442 309.98126L492.99567 309.98126Z" fill-rule="nonzero"/><path fill="#000000" d="M543.04626 317.45L541.9994 317.45L541.9994 310.73126Q541.60876 311.09064 540.98376 311.46564Q540.3744 311.825 539.89 311.9969L539.89 310.98126Q540.765 310.5594 541.42126 309.98126Q542.09314 309.3875 542.3744 308.825L543.04626 308.825L543.04626 317.45ZM547.7025 312.79376Q547.04626 312.54376 546.71814 312.10626Q546.40564 311.65314 546.40564 311.04376Q546.40564 310.10626 547.0775 309.46564Q547.765 308.825 548.8744 308.825Q549.9994 308.825 550.6869 309.48126Q551.3744 310.1375 551.3744 311.075Q551.3744 311.66876 551.0619 312.10626Q550.7494 312.54376 550.10876 312.79376Q550.90564 313.04376 551.3119 313.6219Q551.71814 314.2 551.71814 314.9969Q551.71814 316.09064 550.9369 316.84064Q550.17126 317.59064 548.89 317.59064Q547.6244 317.59064 546.84314 316.84064Q546.0619 316.09064 546.0619 314.96564Q546.0619 314.1219 546.48376 313.5594Q546.92126 312.9969 547.7025 312.79376ZM547.48376 310.9969Q547.48376 311.60626 547.8744 311.9969Q548.28064 312.3875 548.90564 312.3875Q549.515 312.3875 549.90564 312.0125Q550.29626 311.6219 550.29626 311.0594Q550.29626 310.48126 549.89 310.09064Q549.48376 309.6844 548.89 309.6844Q548.28064 309.6844 547.8744 310.075Q547.48376 310.46564 547.48376 310.9969ZM547.15564 314.96564Q547.15564 315.41876 547.35876 315.84064Q547.5775 316.2625 547.9994 316.4969Q548.42126 316.73126 548.90564 316.73126Q549.65564 316.73126 550.14 316.2469Q550.64 315.7625 550.64 315.0125Q550.64 314.2469 550.14 313.7469Q549.64 313.2469 548.8744 313.2469Q548.1244 313.2469 547.64 313.7469Q547.15564 314.23126 547.15564 314.96564Z" fill-rule="nonzero"/><path fill="#757575" d="M266.75 31.940624L266.75 30.253124L272.8125 30.2375L272.8125 35.55Q271.40625 36.675 269.92188 37.2375Q268.4375 37.8 266.875 37.8Q264.76562 37.8 263.04688 36.89375Q261.32812 35.9875 260.4375 34.284374Q259.5625 32.565624 259.5625 30.45625Q259.5625 28.3625 260.4375 26.565624Q261.3125 24.753124 262.95312 23.878124Q264.59375 22.9875 266.73438 22.9875Q268.28125 22.9875 269.53125 23.4875Q270.79688 23.9875 271.5 24.89375Q272.21875 25.784374 272.59375 27.2375L270.89062 27.70625Q270.5625 26.6125 270.07812 25.9875Q269.60938 25.3625 268.71875 24.9875Q267.82812 24.6125 266.75 24.6125Q265.4375 24.6125 264.48438 25.003124Q263.54688 25.39375 262.96875 26.05Q262.39062 26.690624 262.0625 27.45625Q261.51562 28.784374 261.51562 30.346874Q261.51562 32.253124 262.17188 33.55Q262.84375 34.83125 264.09375 35.45625Q265.35938 36.08125 266.76562 36.08125Q268.0 36.08125 269.17188 35.6125Q270.34375 35.14375 270.95312 34.596874L270.95312 31.940624L266.75 31.940624ZM275.79688 37.55L275.79688 27.175L277.375 27.175L277.375 28.753124Q277.98438 27.64375 278.5 27.3Q279.01562 26.940624 279.625 26.940624Q280.51562 26.940624 281.4375 27.503124L280.82812 29.14375Q280.1875 28.753124 279.54688 28.753124Q278.96875 28.753124 278.5 29.1125Q278.04688 29.45625 277.84375 30.065624Q277.5625 31.003124 277.5625 32.1125L277.5625 37.55L275.79688 37.55ZM282.82812 25.253124L282.82812 23.2375L284.59375 23.2375L284.59375 25.253124L282.82812 25.253124ZM282.82812 37.55L282.82812 27.175L284.59375 27.175L284.59375 37.55L282.82812 37.55ZM286.78125 37.55L286.78125 23.2375L288.53125 23.2375L288.53125 37.55L286.78125 37.55ZM290.78125 37.55L290.78125 23.2375L292.53125 23.2375L292.53125 37.55L290.78125 37.55ZM301.92188 34.20625L303.73438 34.440624Q303.3125 36.01875 302.14062 36.909374Q300.98438 37.784374 299.17188 37.784374Q296.90625 37.784374 295.5625 36.39375Q294.23438 34.9875 294.23438 32.45625Q294.23438 29.83125 295.57812 28.39375Q296.92188 26.940624 299.07812 26.940624Q301.15625 26.940624 302.46875 28.3625Q303.79688 29.76875 303.79688 32.346874Q303.79688 32.503124 303.78125 32.815624L296.04688 32.815624Q296.14062 34.51875 297.01562 35.425Q297.89062 36.33125 299.1875 36.33125Q300.15625 36.33125 300.82812 35.83125Q301.51562 35.315624 301.92188 34.20625ZM296.14062 31.3625L301.9375 31.3625Q301.82812 30.065624 301.28125 29.409374Q300.4375 28.39375 299.09375 28.39375Q297.89062 28.39375 297.0625 29.20625Q296.23438 30.003124 296.14062 31.3625ZM311.59375 34.2375L313.28125 34.08125Q313.5 35.26875 314.09375 35.815624Q314.70312 36.346874 315.65625 36.346874Q316.46875 36.346874 317.07812 35.9875Q317.6875 35.6125 318.07812 34.9875Q318.46875 34.3625 318.73438 33.315624Q319.0 32.253124 319.0 31.159374Q319.0 31.05 318.98438 30.815624Q318.45312 31.64375 317.54688 32.175Q316.64062 32.690624 315.5625 32.690624Q313.79688 32.690624 312.5625 31.409374Q311.32812 30.1125 311.32812 28.003124Q311.32812 25.83125 312.60938 24.503124Q313.90625 23.175 315.82812 23.175Q317.23438 23.175 318.39062 23.925Q319.54688 24.675 320.14062 26.065624Q320.75 27.45625 320.75 30.096874Q320.75 32.846874 320.14062 34.471874Q319.54688 36.096874 318.375 36.95625Q317.20312 37.8 315.625 37.8Q313.9375 37.8 312.875 36.8625Q311.8125 35.925 311.59375 34.2375ZM318.79688 27.925Q318.79688 26.409374 317.98438 25.51875Q317.1875 24.628124 316.04688 24.628124Q314.875 24.628124 314.0 25.596874Q313.14062 26.55 313.14062 28.065624Q313.14062 29.440624 313.95312 30.3Q314.78125 31.14375 316.0 31.14375Q317.21875 31.14375 318.0 30.3Q318.79688 29.440624 318.79688 27.925ZM321.64062 37.55L325.4375 32.159374L321.9375 27.175L324.125 27.175L325.71875 29.6125Q326.17188 30.3 326.4375 30.76875Q326.875 30.128124 327.23438 29.628124L328.98438 27.175L331.07812 27.175L327.5 32.065624L331.35938 37.55L329.20312 37.55L327.0625 34.33125L326.5 33.45625L323.78125 37.55L321.64062 37.55ZM331.59375 34.2375L333.28125 34.08125Q333.5 35.26875 334.09375 35.815624Q334.70312 36.346874 335.65625 36.346874Q336.46875 36.346874 337.07812 35.9875Q337.6875 35.6125 338.07812 34.9875Q338.46875 34.3625 338.73438 33.315624Q339.0 32.253124 339.0 31.159374Q339.0 31.05 338.98438 30.815624Q338.45312 31.64375 337.54688 32.175Q336.64062 32.690624 335.5625 32.690624Q333.79688 32.690624 332.5625 31.409374Q331.32812 30.1125 331.32812 28.003124Q331.32812 25.83125 332.60938 24.503124Q333.90625 23.175 335.82812 23.175Q337.23438 23.175 338.39062 23.925Q339.54688 24.675 340.14062 26.065624Q340.75 27.45625 340.75 30.096874Q340.75 32.846874 340.14062 34.471874Q339.54688 36.096874 338.375 36.95625Q337.20312 37.8 335.625 37.8Q333.9375 37.8 332.875 36.8625Q331.8125 35.925 331.59375 34.2375ZM338.79688 27.925Q338.79688 26.409374 337.98438 25.51875Q337.1875 24.628124 336.04688 24.628124Q334.875 24.628124 334.0 25.596874Q333.14062 26.55 333.14062 28.065624Q333.14062 29.440624 333.95312 30.3Q334.78125 31.14375 336.0 31.14375Q337.21875 31.14375 338.0 30.3Q338.79688 29.440624 338.79688 27.925Z" fill-rule="nonzero"/></svg>