<svg version="1.1" viewBox="0.0 0.0 600.0 371.0" fill="none" stroke="none" stroke-linecap="square" stroke-miterlimit="10" width="600" height="371" xmlns:xlink="http://www.w3.org/1999/xlink" xmlns="http://www.w3.org/2000/svg"><path fill="#ffffff" d="M0 0L600.0 0L600.0 371.0L0 371.0L0 0Z" fill-rule="nonzero"/><path stroke="#333333" stroke-width="1.0" stroke-linecap="butt" d="M77.5 300.5L581.5 300.5" fill-rule="nonzero"/><path stroke="#cccccc" stroke-width="1.0" stroke-linecap="butt" d="M77.5 240.5L581.5 240.5" fill-rule="nonzero"/><path stroke="#cccccc" stroke-width="1.0" stroke-linecap="butt" d="M77.5 181.5L581.5 181.5" fill-rule="nonzero"/><path stroke="#cccccc" stroke-width="1.0" stroke-linecap="butt" d="M77.5 121.5L581.5 121.5" fill-rule="nonzero"/><path stroke="#cccccc" stroke-width="1.0" stroke-linecap="butt" d="M77.5 61.5L581.5 61.5" fill-rule="nonzero"/><clipPath id="id_0"><path d="M77.55 61.916668L581.45 61.916668L581.45 300.45L77.55 300.45L77.55 61.916668Z" clip-rule="nonzero"/></clipPath><path stroke="#000000" stroke-width="2.0" stroke-linecap="butt" stroke-opacity="0.0" clip-path="url(#id_0)" d="M172.0 300.0L111.0 300.0L111.0 279.0C111.0 277.89542 111.89543 277.0 113.0 277.0L170.0 277.0C171.10457 277.0 172.0 277.89542 172.0 279.0Z" fill-rule="nonzero"/><path fill="#0000ff" clip-path="url(#id_0)" d="M172.0 300.0L111.0 300.0L111.0 279.0C111.0 277.89542 111.89543 277.0 113.0 277.0L170.0 277.0C171.10457 277.0 172.0 277.89542 172.0 279.0Z" fill-rule="nonzero"/><path stroke="#000000" stroke-width="2.0" stroke-linecap="butt" stroke-opacity="0.0" clip-path="url(#id_0)" d="M266.0 300.0L205.0 300.0L205.0 168.0C205.0 166.89543 205.89543 166.0 207.0 166.0L264.0 166.0C265.10458 166.0 266.0 166.89543 266.0 168.0Z" fill-rule="nonzero"/><path fill="#0000ff" clip-path="url(#id_0)" d="M266.0 300.0L205.0 300.0L205.0 168.0C205.0 166.89543 205.89543 166.0 207.0 166.0L264.0 166.0C265.10458 166.0 266.0 166.89543 266.0 168.0Z" fill-rule="nonzero"/><path stroke="#000000" stroke-width="2.0" stroke-linecap="butt" stroke-opacity="0.0" clip-path="url(#id_0)" d="M361.0 300.0L300.0 300.0L300.0 67.0C300.0 65.89543 300.89542 65.0 302.0 65.0L359.0 65.0C360.10458 65.0 361.0 65.89543 361.0 67.0Z" fill-rule="nonzero"/><path fill="#0000ff" clip-path="url(#id_0)" d="M361.0 300.0L300.0 300.0L300.0 67.0C300.0 65.89543 300.89542 65.0 302.0 65.0L359.0 65.0C360.10458 65.0 361.0 65.89543 361.0 67.0Z" fill-rule="nonzero"/><path stroke="#000000" stroke-width="2.0" stroke-linecap="butt" stroke-opacity="0.0" clip-path="url(#id_0)" d="M455.0 300.0L394.0 300.0L394.0 237.0C394.0 235.89543 394.89542 235.0 396.0 235.0L453.0 235.0C454.10458 235.0 455.0 235.89543 455.0 237.0Z" fill-rule="nonzero"/><path fill="#0000ff" clip-path="url(#id_0)" d="M455.0 300.0L394.0 300.0L394.0 237.0C394.0 235.89543 394.89542 235.0 396.0 235.0L453.0 235.0C454.10458 235.0 455.0 235.89543 455.0 237.0Z" fill-rule="nonzero"/><path stroke="#000000" stroke-width="2.0" stroke-linecap="butt" stroke-opacity="0.0" clip-path="url(#id_0)" d="M549.0 300.0L488.0 300.0L488.0 298.5C488.0 297.67157 488.67157 297.0 489.5 297.0L547.5 297.0C548.3284 297.0 549.0 297.67157 549.0 298.5Z" fill-rule="nonzero"/><path fill="#0000ff" clip-path="url(#id_0)" d="M549.0 300.0L488.0 300.0L488.0 298.5C488.0 297.67157 488.67157 297.0 489.5 297.0L547.5 297.0C548.3284 297.0 549.0 297.67157 549.0 298.5Z" fill-rule="nonzero"/><path stroke="#ffffff" stroke-width="3.0" stroke-linejoin="round" stroke-linecap="round" d="M143.39062 255.28416Q143.39062 255.92479 143.04688 256.4248Q142.70312 256.9248 142.14062 257.20605Q142.79688 257.4873 143.1875 258.0498Q143.57812 258.59668 143.57812 259.2998Q143.57812 260.39355 142.82812 261.06543Q142.09375 261.72168 140.875 261.72168Q139.64062 261.72168 138.89062 261.06543Q138.15625 260.39355 138.15625 259.2998Q138.15625 258.59668 138.53125 258.0498Q138.90625 257.4873 139.57812 257.20605Q139.01562 256.9248 138.6875 256.4248Q138.35938 255.92479 138.35938 255.28416Q138.35938 254.20604 139.04688 253.58104Q139.73438 252.94041 140.875 252.94041Q142.0 252.94041 142.6875 253.58104Q143.39062 254.20604 143.39062 255.28416ZM142.5 259.26855Q142.5 258.5498 142.04688 258.1123Q141.59375 257.65918 140.85938 257.65918Q140.125 257.65918 139.67188 258.1123Q139.23438 258.5498 139.23438 259.28418Q139.23438 260.00293 139.67188 260.4248Q140.10938 260.83105 140.875 260.83105Q141.625 260.83105 142.0625 260.40918Q142.5 259.9873 142.5 259.26855ZM140.875 253.83104Q140.23438 253.83104 139.82812 254.23729Q139.4375 254.62791 139.4375 255.31541Q139.4375 255.95604 139.82812 256.3623Q140.21875 256.76855 140.85938 256.76855Q141.51562 256.76855 141.90625 256.3623Q142.29688 255.95604 142.29688 255.31541Q142.29688 254.65916 141.89062 254.25291Q141.48438 253.83104 140.875 253.83104Z" fill-rule="nonzero"/><path fill="#0000ff" d="M143.39062 255.28418Q143.39062 255.9248 143.04688 256.4248Q142.70312 256.9248 142.14062 257.20605Q142.79688 257.4873 143.1875 258.0498Q143.57812 258.59668 143.57812 259.2998Q143.57812 260.39355 142.82812 261.06543Q142.09375 261.72168 140.875 261.72168Q139.64062 261.72168 138.89062 261.06543Q138.15625 260.39355 138.15625 259.2998Q138.15625 258.59668 138.53125 258.0498Q138.90625 257.4873 139.57812 257.20605Q139.01562 256.9248 138.6875 256.4248Q138.35938 255.9248 138.35938 255.28418Q138.35938 254.20605 139.04688 253.58105Q139.73438 252.94043 140.875 252.94043Q142.0 252.94043 142.6875 253.58105Q143.39062 254.20605 143.39062 255.28418ZM142.5 259.26855Q142.5 258.5498 142.04688 258.1123Q141.59375 257.65918 140.85938 257.65918Q140.125 257.65918 139.67188 258.1123Q139.23438 258.5498 139.23438 259.28418Q139.23438 260.00293 139.67188 260.4248Q140.10938 260.83105 140.875 260.83105Q141.625 260.83105 142.0625 260.40918Q142.5 259.9873 142.5 259.26855ZM140.875 253.83105Q140.23438 253.83105 139.82812 254.2373Q139.4375 254.62793 139.4375 255.31543Q139.4375 255.95605 139.82812 256.3623Q140.21875 256.76855 140.85938 256.76855Q141.51562 256.76855 141.90625 256.3623Q142.29688 255.95605 142.29688 255.31543Q142.29688 254.65918 141.89062 254.25293Q141.48438 253.83105 140.875 253.83105Z" fill-rule="nonzero"/><path stroke="#ffffff" stroke-width="3.0" stroke-linejoin="round" stroke-linecap="round" d="M233.28125 148.41562L234.46875 148.41562L234.46875 149.29062L233.28125 149.29062L233.28125 151.275L232.20312 151.275L232.20312 149.29062L228.3125 149.29062L228.3125 148.65L232.125 142.74374L233.28125 142.74374L233.28125 148.41562ZM229.54688 148.41562L232.20312 148.41562L232.20312 144.22812L232.0625 144.4625L229.54688 148.41562ZM236.20312 146.99374L236.64062 142.74374L241.01562 142.74374L241.01562 143.74374L237.5625 143.74374L237.29688 146.07187Q237.9375 145.69687 238.73438 145.69687Q239.89062 145.69687 240.57812 146.47812Q241.26562 147.24374 241.26562 148.55624Q241.26562 149.86874 240.54688 150.63437Q239.84375 151.4 238.5625 151.4Q237.4375 151.4 236.71875 150.775Q236.0 150.13437 235.90625 149.025L236.92188 149.025Q237.03125 149.75937 237.45312 150.13437Q237.875 150.50937 238.5625 150.50937Q239.3125 150.50937 239.75 149.99374Q240.1875 149.47812 240.1875 148.57187Q240.1875 147.7125 239.71875 147.19687Q239.25 146.68124 238.46875 146.68124Q237.76562 146.68124 237.35938 146.97812L237.07812 147.2125L236.20312 146.99374Z" fill-rule="nonzero"/><path fill="#0000ff" d="M233.28125 148.41562L234.46875 148.41562L234.46875 149.29062L233.28125 149.29062L233.28125 151.275L232.20312 151.275L232.20312 149.29062L228.3125 149.29062L228.3125 148.65L232.125 142.74374L233.28125 142.74374L233.28125 148.41562ZM229.54688 148.41562L232.20312 148.41562L232.20312 144.22812L232.0625 144.4625L229.54688 148.41562ZM236.20312 146.99374L236.64062 142.74374L241.01562 142.74374L241.01562 143.74374L237.5625 143.74374L237.29688 146.07187Q237.9375 145.69687 238.73438 145.69687Q239.89062 145.69687 240.57812 146.47812Q241.26562 147.24374 241.26562 148.55624Q241.26562 149.86874 240.54688 150.63437Q239.84375 151.4 238.5625 151.4Q237.4375 151.4 236.71875 150.775Q236.0 150.13437 235.90625 149.025L236.92188 149.025Q237.03125 149.75937 237.45312 150.13437Q237.875 150.50937 238.5625 150.50937Q239.3125 150.50937 239.75 149.99374Q240.1875 149.47812 240.1875 148.57187Q240.1875 147.7125 239.71875 147.19687Q239.25 146.68124 238.46875 146.68124Q237.76562 146.68124 237.35938 146.97812L237.07812 147.2125L236.20312 146.99374Z" fill-rule="nonzero"/><path stroke="#ffffff" stroke-width="3.0" stroke-linejoin="round" stroke-linecap="round" d="M329.21875 41.97646L325.6875 49.898335L324.54688 49.898335L328.0625 42.25771L323.45312 42.25771L323.45312 41.367085L329.21875 41.367085L329.21875 41.97646ZM334.85938 46.148335Q334.53125 46.554585 334.04688 46.804585Q333.57812 47.03896 333.01562 47.03896Q332.28125 47.03896 331.73438 46.679585Q331.1875 46.32021 330.89062 45.66396Q330.59375 44.992085 330.59375 44.19521Q330.59375 43.35146 330.90625 42.66396Q331.23438 41.97646 331.82812 41.617085Q332.4375 41.242085 333.23438 41.242085Q334.5 41.242085 335.21875 42.19521Q335.95312 43.148335 335.95312 44.773335L335.95312 45.085835Q335.95312 47.585835 334.96875 48.72646Q333.98438 49.867085 332.0 49.898335L331.78125 49.898335L331.78125 48.992085L332.01562 48.992085Q333.35938 48.960835 334.07812 48.28896Q334.79688 47.617085 334.85938 46.148335ZM333.1875 46.148335Q333.73438 46.148335 334.1875 45.82021Q334.65625 45.47646 334.875 44.992085L334.875 44.554585Q334.875 43.492085 334.40625 42.82021Q333.9375 42.148335 333.23438 42.148335Q332.51562 42.148335 332.07812 42.69521Q331.65625 43.242085 331.65625 44.148335Q331.65625 45.023335 332.0625 45.585835Q332.48438 46.148335 333.1875 46.148335Z" fill-rule="nonzero"/><path fill="#0000ff" d="M329.21875 41.97646L325.6875 49.898335L324.54688 49.898335L328.0625 42.25771L323.45312 42.25771L323.45312 41.367085L329.21875 41.367085L329.21875 41.97646ZM334.85938 46.148335Q334.53125 46.554585 334.04688 46.804585Q333.57812 47.03896 333.01562 47.03896Q332.28125 47.03896 331.73438 46.679585Q331.1875 46.32021 330.89062 45.66396Q330.59375 44.992085 330.59375 44.19521Q330.59375 43.35146 330.90625 42.66396Q331.23438 41.97646 331.82812 41.617085Q332.4375 41.242085 333.23438 41.242085Q334.5 41.242085 335.21875 42.19521Q335.95312 43.148335 335.95312 44.773335L335.95312 45.085835Q335.95312 47.585835 334.96875 48.72646Q333.98438 49.867085 332.0 49.898335L331.78125 49.898335L331.78125 48.992085L332.01562 48.992085Q333.35938 48.960835 334.07812 48.28896Q334.79688 47.617085 334.85938 46.148335ZM333.1875 46.148335Q333.73438 46.148335 334.1875 45.82021Q334.65625 45.47646 334.875 44.992085L334.875 44.554585Q334.875 43.492085 334.40625 42.82021Q333.9375 42.148335 333.23438 42.148335Q332.51562 42.148335 332.07812 42.69521Q331.65625 43.242085 331.65625 44.148335Q331.65625 45.023335 332.0625 45.585835Q332.48438 46.148335 333.1875 46.148335Z" fill-rule="nonzero"/><path stroke="#ffffff" stroke-width="3.0" stroke-linejoin="round" stroke-linecap="round" d="M423.29688 219.85333L417.70312 219.85333L417.70312 219.07208L420.65625 215.79083Q421.3125 215.04083 421.5625 214.5877Q421.8125 214.11896 421.8125 213.61896Q421.8125 212.94708 421.40625 212.5252Q421.01562 212.0877 420.32812 212.0877Q419.53125 212.0877 419.07812 212.55646Q418.625 213.00958 418.625 213.8377L417.54688 213.8377Q417.54688 212.6502 418.29688 211.93146Q419.0625 211.19708 420.32812 211.19708Q421.53125 211.19708 422.21875 211.82208Q422.90625 212.44708 422.90625 213.49396Q422.90625 214.74396 421.29688 216.49396L419.01562 218.9627L423.29688 218.9627L423.29688 219.85333ZM430.29688 219.85333L424.70312 219.85333L424.70312 219.07208L427.65625 215.79083Q428.3125 215.04083 428.5625 214.5877Q428.8125 214.11896 428.8125 213.61896Q428.8125 212.94708 428.40625 212.5252Q428.01562 212.0877 427.32812 212.0877Q426.53125 212.0877 426.07812 212.55646Q425.625 213.00958 425.625 213.8377L424.54688 213.8377Q424.54688 212.6502 425.29688 211.93146Q426.0625 211.19708 427.32812 211.19708Q428.53125 211.19708 429.21875 211.82208Q429.90625 212.44708 429.90625 213.49396Q429.90625 214.74396 428.29688 216.49396L426.01562 218.9627L430.29688 218.9627L430.29688 219.85333Z" fill-rule="nonzero"/><path fill="#0000ff" d="M423.29688 219.85333L417.70312 219.85333L417.70312 219.07208L420.65625 215.79083Q421.3125 215.04083 421.5625 214.5877Q421.8125 214.11896 421.8125 213.61896Q421.8125 212.94708 421.40625 212.5252Q421.01562 212.0877 420.32812 212.0877Q419.53125 212.0877 419.07812 212.55646Q418.625 213.00958 418.625 213.8377L417.54688 213.8377Q417.54688 212.6502 418.29688 211.93146Q419.0625 211.19708 420.32812 211.19708Q421.53125 211.19708 422.21875 211.82208Q422.90625 212.44708 422.90625 213.49396Q422.90625 214.74396 421.29688 216.49396L419.01562 218.9627L423.29688 218.9627L423.29688 219.85333ZM430.29688 219.85333L424.70312 219.85333L424.70312 219.07208L427.65625 215.79083Q428.3125 215.04083 428.5625 214.5877Q428.8125 214.11896 428.8125 213.61896Q428.8125 212.94708 428.40625 212.5252Q428.01562 212.0877 427.32812 212.0877Q426.53125 212.0877 426.07812 212.55646Q425.625 213.00958 425.625 213.8377L424.54688 213.8377Q424.54688 212.6502 425.29688 211.93146Q426.0625 211.19708 427.32812 211.19708Q428.53125 211.19708 429.21875 211.82208Q429.90625 212.44708 429.90625 213.49396Q429.90625 214.74396 428.29688 216.49396L426.01562 218.9627L430.29688 218.9627L430.29688 219.85333Z" fill-rule="nonzero"/><path stroke="#ffffff" stroke-width="3.0" stroke-linejoin="round" stroke-linecap="round" d="M518.7656 282.46832L517.6875 282.46832L517.6875 275.24957L515.5 276.04645L515.5 275.06207L518.6094 273.8902L518.7656 273.8902L518.7656 282.46832Z" fill-rule="nonzero"/><path fill="#0000ff" d="M518.7656 282.46832L517.6875 282.46832L517.6875 275.24957L515.5 276.04645L515.5 275.06207L518.6094 273.8902L518.7656 273.8902L518.7656 282.46832Z" fill-rule="nonzero"/><path fill="#000000" d="M312.92188 349.45L312.92188 340.85626L316.17188 340.85626Q317.01562 340.85626 317.46875 340.9344Q318.10938 341.04376 318.53125 341.34064Q318.96875 341.6375 319.21875 342.16876Q319.48438 342.7 319.48438 343.34064Q319.48438 344.4344 318.78125 345.2Q318.09375 345.95 316.26562 345.95L314.0625 345.95L314.0625 349.45L312.92188 349.45ZM314.0625 344.95L316.28125 344.95Q317.39062 344.95 317.84375 344.54376Q318.3125 344.1219 318.3125 343.3719Q318.3125 342.84064 318.03125 342.46564Q317.76562 342.075 317.32812 341.95Q317.03125 341.8719 316.26562 341.8719L314.0625 341.8719L314.0625 344.95ZM320.40625 346.34064Q320.40625 344.60626 321.35938 343.77814Q322.15625 343.09064 323.3125 343.09064Q324.59375 343.09064 325.40625 343.9344Q326.23438 344.7625 326.23438 346.2469Q326.23438 347.45 325.875 348.1375Q325.51562 348.825 324.8125 349.21564Q324.125 349.59064 323.3125 349.59064Q322.01562 349.59064 321.20312 348.7625Q320.40625 347.91876 320.40625 346.34064ZM321.48438 346.34064Q321.48438 347.52814 322.0 348.1219Q322.53125 348.71564 323.3125 348.71564Q324.10938 348.71564 324.625 348.1219Q325.14062 347.52814 325.14062 346.3094Q325.14062 345.15314 324.60938 344.5594Q324.09375 343.96564 323.3125 343.96564Q322.53125 343.96564 322.0 344.5594Q321.48438 345.1375 321.48438 346.34064ZM327.79688 342.075L327.79688 340.85626L328.85938 340.85626L328.85938 342.075L327.79688 342.075ZM327.79688 349.45L327.79688 343.23126L328.85938 343.23126L328.85938 349.45L327.79688 349.45ZM330.79688 349.45L330.79688 343.23126L331.73438 343.23126L331.73438 344.10626Q332.42188 343.09064 333.71875 343.09064Q334.28125 343.09064 334.75 343.29376Q335.23438 343.4969 335.46875 343.825Q335.70312 344.15314 335.79688 344.59064Q335.84375 344.8875 335.84375 345.6219L335.84375 349.45L334.79688 349.45L334.79688 345.66876Q334.79688 345.0125 334.67188 344.7Q334.54688 344.3875 334.23438 344.2Q333.92188 343.9969 333.5 343.9969Q332.82812 343.9969 332.32812 344.4344Q331.84375 344.85626 331.84375 346.04376L331.84375 349.45L330.79688 349.45ZM340.09375 348.5125L340.25 349.4344Q339.79688 349.52814 339.45312 349.52814Q338.875 349.52814 338.5625 349.35626Q338.25 349.16876 338.10938 348.8719Q337.98438 348.575 337.98438 347.6219L337.98438 344.04376L337.21875 344.04376L337.21875 343.23126L337.98438 343.23126L337.98438 341.6844L339.03125 341.0594L339.03125 343.23126L340.09375 343.23126L340.09375 344.04376L339.03125 344.04376L339.03125 347.6844Q339.03125 348.1375 339.07812 348.2625Q339.14062 348.3875 339.26562 348.46564Q339.39062 348.54376 339.625 348.54376Q339.8125 348.54376 340.09375 348.5125ZM340.375 347.59064L341.40625 347.4344Q341.5 348.0594 341.89062 348.3875Q342.29688 348.71564 343.03125 348.71564Q343.75 348.71564 344.09375 348.4344Q344.45312 348.1375 344.45312 347.73126Q344.45312 347.3719 344.14062 347.16876Q343.92188 347.02814 343.0625 346.8094Q341.90625 346.5125 341.45312 346.3094Q341.01562 346.09064 340.78125 345.71564Q340.54688 345.34064 340.54688 344.8719Q340.54688 344.46564 340.73438 344.10626Q340.92188 343.7469 341.25 343.5125Q341.5 343.34064 341.92188 343.21564Q342.34375 343.09064 342.84375 343.09064Q343.5625 343.09064 344.10938 343.3094Q344.67188 343.5125 344.9375 343.8719Q345.20312 344.23126 345.29688 344.825L344.26562 344.96564Q344.20312 344.4969 343.85938 344.23126Q343.53125 343.95 342.90625 343.95Q342.1875 343.95 341.875 344.2Q341.5625 344.4344 341.5625 344.7625Q341.5625 344.96564 341.6875 345.1219Q341.82812 345.29376 342.09375 345.40314Q342.25 345.46564 343.03125 345.66876Q344.15625 345.98126 344.59375 346.16876Q345.03125 346.35626 345.28125 346.71564Q345.53125 347.075 345.53125 347.6219Q345.53125 348.15314 345.21875 348.6219Q344.92188 349.075 344.34375 349.34064Q343.76562 349.59064 343.03125 349.59064Q341.8125 349.59064 341.17188 349.09064Q340.54688 348.575 340.375 347.59064Z" fill-rule="nonzero"/><path fill="#000000" d="M29.550013 236.26146L20.956263 236.26146L20.956263 235.10521L27.706263 230.58958L20.956263 230.58958L20.956263 229.49583L29.550013 229.49583L29.550013 230.66771L22.800013 235.18333L29.550013 235.18333L29.550013 236.26146ZM26.440638 227.77708Q24.706263 227.77708 23.878138 226.82396Q23.190638 226.02708 23.190638 224.87083Q23.190638 223.58958 24.034388 222.77708Q24.862513 221.94896 26.346888 221.94896Q27.550013 221.94896 28.237513 222.30833Q28.925013 222.66771 29.315638 223.37083Q29.690638 224.05833 29.690638 224.87083Q29.690638 226.16771 28.862513 226.98021Q28.018763 227.77708 26.440638 227.77708ZM26.440638 226.69896Q27.628138 226.69896 28.221888 226.18333Q28.815638 225.65208 28.815638 224.87083Q28.815638 224.07396 28.221888 223.55833Q27.628138 223.04271 26.409388 223.04271Q25.253138 223.04271 24.659388 223.57396Q24.065638 224.08958 24.065638 224.87083Q24.065638 225.65208 24.659388 226.18333Q25.237513 226.69896 26.440638 226.69896ZM29.550013 220.38646L23.331263 220.38646L23.331263 219.44896L24.206263 219.44896Q23.737513 219.15208 23.471888 218.66771Q23.190638 218.18333 23.190638 217.55833Q23.190638 216.87083 23.471888 216.43333Q23.753138 215.98021 24.268763 215.80833Q23.190638 215.05833 23.190638 213.88646Q23.190638 212.94896 23.706263 212.46458Q24.206263 211.96458 25.284388 211.96458L29.550013 211.96458L29.550013 213.01146L25.628138 213.01146Q25.003138 213.01146 24.721888 213.12083Q24.440638 213.21458 24.268763 213.48021Q24.096888 213.74583 24.096888 214.12083Q24.096888 214.77708 24.534388 215.21458Q24.971888 215.63646 25.940638 215.63646L29.550013 215.63646L29.550013 216.69896L25.503138 216.69896Q24.800013 216.69896 24.456263 216.96458Q24.096888 217.21458 24.096888 217.79271Q24.096888 218.24583 24.331263 218.62083Q24.565638 218.99583 25.018763 219.16771Q25.471888 219.33958 26.315638 219.33958L29.550013 219.33958L29.550013 220.38646ZM29.550013 208.41771L29.550013 209.40208L20.956263 209.40208L20.956263 208.33958L24.018763 208.33958Q23.190638 207.66771 23.190638 206.63646Q23.190638 206.05833 23.425013 205.55833Q23.643763 205.04271 24.065638 204.71458Q24.487513 204.37083 25.081263 204.18333Q25.675013 203.99583 26.346888 203.99583Q27.940638 203.99583 28.815638 204.79271Q29.690638 205.58958 29.690638 206.68333Q29.690638 207.79271 28.768763 208.41771L29.550013 208.41771ZM26.393763 208.43333Q27.503138 208.43333 28.003138 208.12083Q28.815638 207.62083 28.815638 206.77708Q28.815638 206.08958 28.221888 205.58958Q27.628138 205.07396 26.425013 205.07396Q25.206263 205.07396 24.628138 205.55833Q24.050013 206.04271 24.050013 206.73021Q24.050013 207.41771 24.659388 207.93333Q25.253138 208.43333 26.393763 208.43333ZM29.550013 202.40208L23.331263 202.40208L23.331263 201.44896L24.268763 201.44896Q23.612513 201.08958 23.409388 200.79271Q23.190638 200.48021 23.190638 200.10521Q23.190638 199.57396 23.518763 199.02708L24.503138 199.38646Q24.268763 199.77708 24.268763 200.15208Q24.268763 200.51146 24.487513 200.79271Q24.690638 201.05833 25.065638 201.16771Q25.628138 201.35521 26.284388 201.35521L29.550013 201.35521L29.550013 202.40208ZM27.550013 194.13646L27.675013 193.04271Q28.628138 193.29271 29.159388 193.99583Q29.690638 194.69896 29.690638 195.77708Q29.690638 197.13646 28.846888 197.94896Q28.003138 198.74583 26.487513 198.74583Q24.925013 198.74583 24.065638 197.93333Q23.190638 197.12083 23.190638 195.83958Q23.190638 194.58958 24.034388 193.80833Q24.878138 193.01146 26.425013 193.01146Q26.518763 193.01146 26.706263 193.01146L26.706263 197.65208Q27.737513 197.58958 28.284388 197.07396Q28.815638 196.55833 28.815638 195.77708Q28.815638 195.19896 28.518763 194.79271Q28.206263 194.37083 27.550013 194.13646ZM25.846888 197.58958L25.846888 194.12083Q25.050013 194.18333 24.659388 194.51146Q24.050013 195.02708 24.050013 195.82396Q24.050013 196.55833 24.534388 197.05833Q25.018763 197.54271 25.846888 197.58958ZM29.550013 184.35521L28.768763 184.35521Q29.690638 184.94896 29.690638 186.08958Q29.690638 186.83958 29.284388 187.46458Q28.862513 188.08958 28.128138 188.43333Q27.393763 188.77708 26.440638 188.77708Q25.518763 188.77708 24.753138 188.46458Q23.987513 188.15208 23.596888 187.52708Q23.190638 186.90208 23.190638 186.13646Q23.190638 185.57396 23.425013 185.13646Q23.659388 184.69896 24.034388 184.41771L20.956263 184.41771L20.956263 183.37083L29.550013 183.37083L29.550013 184.35521ZM26.440638 187.68333Q27.643763 187.68333 28.237513 187.18333Q28.815638 186.68333 28.815638 185.99583Q28.815638 185.30833 28.253138 184.82396Q27.690638 184.33958 26.534388 184.33958Q25.253138 184.33958 24.659388 184.83958Q24.065638 185.32396 24.065638 186.04271Q24.065638 186.74583 24.643763 187.21458Q25.206263 187.68333 26.440638 187.68333ZM27.550013 177.13646L27.675013 176.04271Q28.628138 176.29271 29.159388 176.99583Q29.690638 177.69896 29.690638 178.77708Q29.690638 180.13646 28.846888 180.94896Q28.003138 181.74583 26.487513 181.74583Q24.925013 181.74583 24.065638 180.93333Q23.190638 180.12083 23.190638 178.83958Q23.190638 177.58958 24.034388 176.80833Q24.878138 176.01146 26.425013 176.01146Q26.518763 176.01146 26.706263 176.01146L26.706263 180.65208Q27.737513 180.58958 28.284388 180.07396Q28.815638 179.55833 28.815638 178.77708Q28.815638 178.19896 28.518763 177.79271Q28.206263 177.37083 27.550013 177.13646ZM25.846888 180.58958L25.846888 177.12083Q25.050013 177.18333 24.659388 177.51146Q24.050013 178.02708 24.050013 178.82396Q24.050013 179.55833 24.534388 180.05833Q25.018763 180.54271 25.846888 180.58958ZM30.065638 171.58958L30.221888 170.55833Q30.690638 170.49583 30.909388 170.19896Q31.206263 169.80833 31.206263 169.13646Q31.206263 168.40208 30.909388 168.01146Q30.612513 167.60521 30.096888 167.46458Q29.768763 167.37083 28.737513 167.38646Q29.550013 168.07396 29.550013 169.10521Q29.550013 170.38646 28.628138 171.08958Q27.690638 171.79271 26.409388 171.79271Q25.518763 171.79271 24.768763 171.48021Q24.003138 171.15208 23.596888 170.54271Q23.190638 169.93333 23.190638 169.10521Q23.190638 167.99583 24.081263 167.27708L23.331263 167.27708L23.331263 166.30833L28.706263 166.30833Q30.159388 166.30833 30.768763 166.60521Q31.378138 166.90208 31.721888 167.54271Q32.08126 168.18333 32.08126 169.12083Q32.08126 170.23021 31.581263 170.91771Q31.081263 171.60521 30.065638 171.58958ZM26.331263 170.71458Q27.550013 170.71458 28.112513 170.23021Q28.675013 169.74583 28.675013 169.01146Q28.675013 168.27708 28.112513 167.79271Q27.550013 167.29271 26.362513 167.29271Q25.221888 167.29271 24.643763 167.80833Q24.065638 168.30833 24.065638 169.02708Q24.065638 169.73021 24.643763 170.23021Q25.206263 170.71458 26.331263 170.71458ZM29.550013 164.40208L23.331263 164.40208L23.331263 163.44896L24.268763 163.44896Q23.612513 163.08958 23.409388 162.79271Q23.190638 162.48021 23.190638 162.10521Q23.190638 161.57396 23.518763 161.02708L24.503138 161.38646Q24.268763 161.77708 24.268763 162.15208Q24.268763 162.51146 24.487513 162.79271Q24.690638 163.05833 25.065638 163.16771Q25.628138 163.35521 26.284388 163.35521L29.550013 163.35521L29.550013 164.40208ZM22.175013 160.38646L20.956263 160.38646L20.956263 159.32396L22.175013 159.32396L22.175013 160.38646ZM29.550013 160.38646L23.331263 160.38646L23.331263 159.32396L29.550013 159.32396L29.550013 160.38646ZM29.550013 157.41771L20.956263 157.41771L20.956263 156.35521L29.550013 156.35521L29.550013 157.41771ZM29.550013 154.41771L20.956263 154.41771L20.956263 153.35521L29.550013 153.35521L29.550013 154.41771ZM27.550013 147.13646L27.675013 146.04271Q28.628138 146.29271 29.159388 146.99583Q29.690638 147.69896 29.690638 148.77708Q29.690638 150.13646 28.846888 150.94896Q28.003138 151.74583 26.487513 151.74583Q24.925013 151.74583 24.065638 150.93333Q23.190638 150.12083 23.190638 148.83958Q23.190638 147.58958 24.034388 146.80833Q24.878138 146.01146 26.425013 146.01146Q26.518763 146.01146 26.706263 146.01146L26.706263 150.65208Q27.737513 150.58958 28.284388 150.07396Q28.815638 149.55833 28.815638 148.77708Q28.815638 148.19896 28.518763 147.79271Q28.206263 147.37083 27.550013 147.13646ZM25.846888 150.58958L25.846888 147.12083Q25.050013 147.18333 24.659388 147.51146Q24.050013 148.02708 24.050013 148.82396Q24.050013 149.55833 24.534388 150.05833Q25.018763 150.54271 25.846888 150.58958ZM27.690638 144.80833L27.534388 143.77708Q28.159388 143.68333 28.487513 143.29271Q28.815638 142.88646 28.815638 142.15208Q28.815638 141.43333 28.534388 141.08958Q28.237513 140.73021 27.831263 140.73021Q27.471888 140.73021 27.268763 141.04271Q27.128138 141.26146 26.909388 142.12083Q26.612513 143.27708 26.409388 143.73021Q26.190638 144.16771 25.815638 144.40208Q25.440638 144.63646 24.971888 144.63646Q24.565638 144.63646 24.206263 144.44896Q23.846888 144.26146 23.612513 143.93333Q23.440638 143.68333 23.315638 143.26146Q23.190638 142.83958 23.190638 142.33958Q23.190638 141.62083 23.409388 141.07396Q23.612513 140.51146 23.971888 140.24583Q24.331263 139.98021 24.925013 139.88646L25.065638 140.91771Q24.596888 140.98021 24.331263 141.32396Q24.050013 141.65208 24.050013 142.27708Q24.050013 142.99583 24.300013 143.30833Q24.534388 143.62083 24.862513 143.62083Q25.065638 143.62083 25.221888 143.49583Q25.393763 143.35521 25.503138 143.08958Q25.565638 142.93333 25.768763 142.15208Q26.081263 141.02708 26.268763 140.58958Q26.456263 140.15208 26.815638 139.90208Q27.175013 139.65208 27.721888 139.65208Q28.253138 139.65208 28.721888 139.96458Q29.175013 140.26146 29.440638 140.83958Q29.690638 141.41771 29.690638 142.15208Q29.690638 143.37083 29.190638 144.01146Q28.675013 144.63646 27.690638 144.80833Z" fill-rule="nonzero"/><path fill="#000000" d="M65.05 300.21564Q65.05 298.6844 65.3625 297.7625Q65.675 296.825 66.28438 296.325Q66.90938 295.825 67.84688 295.825Q68.53438 295.825 69.05 296.10626Q69.58125 296.3875 69.925 296.91876Q70.26875 297.4344 70.45625 298.1844Q70.64375 298.9344 70.64375 300.21564Q70.64375 301.73126 70.33125 302.65314Q70.03438 303.575 69.40938 304.09064Q68.8 304.59064 67.84688 304.59064Q66.6125 304.59064 65.89375 303.7Q65.05 302.6375 65.05 300.21564ZM66.12813 300.21564Q66.12813 302.325 66.62813 303.02814Q67.12813 303.73126 67.84688 303.73126Q68.58125 303.73126 69.06563 303.02814Q69.56563 302.325 69.56563 300.21564Q69.56563 298.09064 69.06563 297.40314Q68.58125 296.7 67.83125 296.7Q67.1125 296.7 66.675 297.3094Q66.12813 298.09064 66.12813 300.21564Z" fill-rule="nonzero"/><path fill="#000000" d="M63.596874 243.80104L63.596874 244.81667L57.909374 244.81667Q57.909374 244.44167 58.034374 244.08229Q58.253124 243.50417 58.721874 242.94167Q59.20625 242.37917 60.1125 241.64479Q61.51875 240.48854 62.003124 239.81667Q62.503124 239.14479 62.503124 238.55104Q62.503124 237.92604 62.05 237.50417Q61.596874 237.06667 60.878124 237.06667Q60.1125 237.06667 59.659374 237.51979Q59.20625 237.97292 59.190624 238.78542L58.1125 238.67604Q58.221874 237.45729 58.940624 236.83229Q59.675 236.19167 60.909374 236.19167Q62.14375 236.19167 62.8625 236.87917Q63.58125 237.56667 63.58125 238.58229Q63.58125 239.09792 63.3625 239.59792Q63.159374 240.08229 62.659374 240.64479Q62.175 241.19167 61.05 242.14479Q60.096874 242.94167 59.815624 243.23854Q59.55 243.51979 59.378124 243.80104L63.596874 243.80104ZM65.05 240.58229Q65.05 239.05104 65.3625 238.12917Q65.675 237.19167 66.28438 236.69167Q66.90938 236.19167 67.84688 236.19167Q68.53438 236.19167 69.05 236.47292Q69.58125 236.75417 69.925 237.28542Q70.26875 237.80104 70.45625 238.55104Q70.64375 239.30104 70.64375 240.58229Q70.64375 242.09792 70.33125 243.01979Q70.03438 243.94167 69.40938 244.45729Q68.8 244.95729 67.84688 244.95729Q66.6125 244.95729 65.89375 244.06667Q65.05 243.00417 65.05 240.58229ZM66.12813 240.58229Q66.12813 242.69167 66.62813 243.39479Q67.12813 244.09792 67.84688 244.09792Q68.58125 244.09792 69.06563 243.39479Q69.56563 242.69167 69.56563 240.58229Q69.56563 238.45729 69.06563 237.76979Q68.58125 237.06667 67.83125 237.06667Q67.1125 237.06667 66.675 237.67604Q66.12813 238.45729 66.12813 240.58229Z" fill-rule="nonzero"/><path fill="#000000" d="M61.425 185.18333L61.425 183.12083L57.70625 183.12083L57.70625 182.15208L61.628124 176.58958L62.4875 176.58958L62.4875 182.15208L63.64375 182.15208L63.64375 183.12083L62.4875 183.12083L62.4875 185.18333L61.425 185.18333ZM61.425 182.15208L61.425 178.29271L58.7375 182.15208L61.425 182.15208ZM65.05 180.94896Q65.05 179.41771 65.3625 178.49583Q65.675 177.55833 66.28438 177.05833Q66.90938 176.55833 67.84688 176.55833Q68.53438 176.55833 69.05 176.83958Q69.58125 177.12083 69.925 177.65208Q70.26875 178.16771 70.45625 178.91771Q70.64375 179.66771 70.64375 180.94896Q70.64375 182.46458 70.33125 183.38646Q70.03438 184.30833 69.40938 184.82396Q68.8 185.32396 67.84688 185.32396Q66.6125 185.32396 65.89375 184.43333Q65.05 183.37083 65.05 180.94896ZM66.12813 180.94896Q66.12813 183.05833 66.62813 183.76146Q67.12813 184.46458 67.84688 184.46458Q68.58125 184.46458 69.06563 183.76146Q69.56563 183.05833 69.56563 180.94896Q69.56563 178.82396 69.06563 178.13646Q68.58125 177.43333 67.83125 177.43333Q67.1125 177.43333 66.675 178.04271Q66.12813 178.82396 66.12813 180.94896Z" fill-rule="nonzero"/><path fill="#000000" d="M63.51875 119.06563L62.471874 119.14375Q62.33125 118.51875 62.08125 118.2375Q61.64375 117.78438 61.01875 117.78438Q60.51875 117.78438 60.128124 118.06563Q59.64375 118.44063 59.346874 119.14375Q59.065624 119.83125 59.05 121.1125Q59.425 120.53438 59.971874 120.25313Q60.534374 119.97188 61.14375 119.97188Q62.190624 119.97188 62.925 120.75313Q63.675 121.53438 63.675 122.75313Q63.675 123.56563 63.315624 124.26875Q62.971874 124.95625 62.3625 125.33125Q61.753124 125.69063 60.9875 125.69063Q59.659374 125.69063 58.83125 124.72188Q58.003124 123.75313 58.003124 121.53438Q58.003124 119.03438 58.925 117.90938Q59.721874 116.925 61.08125 116.925Q62.096874 116.925 62.7375 117.50313Q63.39375 118.06563 63.51875 119.06563ZM59.221874 122.76875Q59.221874 123.31563 59.440624 123.81563Q59.675 124.3 60.08125 124.56563Q60.503124 124.83125 60.971874 124.83125Q61.628124 124.83125 62.1125 124.3Q62.596874 123.75313 62.596874 122.83125Q62.596874 121.94063 62.1125 121.425Q61.64375 120.90938 60.925 120.90938Q60.20625 120.90938 59.70625 121.425Q59.221874 121.94063 59.221874 122.76875ZM65.05 121.31563Q65.05 119.78438 65.3625 118.8625Q65.675 117.925 66.28438 117.425Q66.90938 116.925 67.84688 116.925Q68.53438 116.925 69.05 117.20625Q69.58125 117.4875 69.925 118.01875Q70.26875 118.53438 70.45625 119.28438Q70.64375 120.03438 70.64375 121.31563Q70.64375 122.83125 70.33125 123.75313Q70.03438 124.675 69.40938 125.19063Q68.8 125.69063 67.84688 125.69063Q66.6125 125.69063 65.89375 124.8Q65.05 123.7375 65.05 121.31563ZM66.12813 121.31563Q66.12813 123.425 66.62813 124.12813Q67.12813 124.83125 67.84688 124.83125Q68.58125 124.83125 69.06563 124.12813Q69.56563 123.425 69.56563 121.31563Q69.56563 119.19063 69.06563 118.50313Q68.58125 117.8 67.83125 117.8Q67.1125 117.8 66.675 118.40938Q66.12813 119.19063 66.12813 121.31563Z" fill-rule="nonzero"/><path fill="#000000" d="M59.675 61.260414Q59.01875 61.010414 58.690624 60.572914Q58.378124 60.11979 58.378124 59.510414Q58.378124 58.572914 59.05 57.93229Q59.7375 57.291664 60.846874 57.291664Q61.971874 57.291664 62.659374 57.947914Q63.346874 58.604164 63.346874 59.541664Q63.346874 60.135414 63.034374 60.572914Q62.721874 61.010414 62.08125 61.260414Q62.878124 61.510414 63.284374 62.08854Q63.690624 62.666664 63.690624 63.46354Q63.690624 64.55729 62.909374 65.30729Q62.14375 66.05729 60.8625 66.05729Q59.596874 66.05729 58.815624 65.30729Q58.034374 64.55729 58.034374 63.43229Q58.034374 62.58854 58.45625 62.02604Q58.89375 61.46354 59.675 61.260414ZM59.45625 59.46354Q59.45625 60.072914 59.846874 60.46354Q60.253124 60.854164 60.878124 60.854164Q61.4875 60.854164 61.878124 60.479164Q62.26875 60.08854 62.26875 59.52604Q62.26875 58.947914 61.8625 58.55729Q61.45625 58.15104 60.8625 58.15104Q60.253124 58.15104 59.846874 58.541664Q59.45625 58.93229 59.45625 59.46354ZM59.128124 63.43229Q59.128124 63.885414 59.33125 64.30729Q59.55 64.729164 59.971874 64.96354Q60.39375 65.197914 60.878124 65.197914Q61.628124 65.197914 62.1125 64.71354Q62.6125 64.229164 62.6125 63.479164Q62.6125 62.71354 62.1125 62.21354Q61.6125 61.71354 60.846874 61.71354Q60.096874 61.71354 59.6125 62.21354Q59.128124 62.697914 59.128124 63.43229ZM65.05 61.68229Q65.05 60.15104 65.3625 59.229164Q65.675 58.291664 66.28438 57.791664Q66.90938 57.291664 67.84688 57.291664Q68.53438 57.291664 69.05 57.572914Q69.58125 57.854164 69.925 58.385414Q70.26875 58.90104 70.45625 59.65104Q70.64375 60.40104 70.64375 61.68229Q70.64375 63.197914 70.33125 64.11979Q70.03438 65.041664 69.40938 65.55729Q68.8 66.05729 67.84688 66.05729Q66.6125 66.05729 65.89375 65.166664Q65.05 64.104164 65.05 61.68229ZM66.12813 61.68229Q66.12813 63.791664 66.62813 64.49479Q67.12813 65.197914 67.84688 65.197914Q68.58125 65.197914 69.06563 64.49479Q69.56563 63.791664 69.56563 61.68229Q69.56563 59.55729 69.06563 58.86979Q68.58125 58.166664 67.83125 58.166664Q67.1125 58.166664 66.675 58.77604Q66.12813 59.55729 66.12813 61.68229Z" fill-rule="nonzero"/><path fill="#000000" d="M139.75117 312.79376Q139.09492 312.54376 138.7668 312.10626Q138.4543 311.65314 138.4543 311.04376Q138.4543 310.10626 139.12617 309.46564Q139.81367 308.825 140.92305 308.825Q142.04805 308.825 142.73555 309.48126Q143.42305 310.1375 143.42305 311.075Q143.42305 311.66876 143.11055 312.10626Q142.79805 312.54376 142.15742 312.79376Q142.9543 313.04376 143.36055 313.6219Q143.7668 314.2 143.7668 314.9969Q143.7668 316.09064 142.98555 316.84064Q142.21992 317.59064 140.93867 317.59064Q139.67305 317.59064 138.8918 316.84064Q138.11055 316.09064 138.11055 314.96564Q138.11055 314.1219 138.53242 313.5594Q138.96992 312.9969 139.75117 312.79376ZM139.53242 310.9969Q139.53242 311.60626 139.92305 311.9969Q140.3293 312.3875 140.9543 312.3875Q141.56367 312.3875 141.9543 312.0125Q142.34492 311.6219 142.34492 311.0594Q142.34492 310.48126 141.93867 310.09064Q141.53242 309.6844 140.93867 309.6844Q140.3293 309.6844 139.92305 310.075Q139.53242 310.46564 139.53242 310.9969ZM139.2043 314.96564Q139.2043 315.41876 139.40742 315.84064Q139.62617 316.2625 140.04805 316.4969Q140.46992 316.73126 140.9543 316.73126Q141.7043 316.73126 142.18867 316.2469Q142.68867 315.7625 142.68867 315.0125Q142.68867 314.2469 142.18867 313.7469Q141.68867 313.2469 140.92305 313.2469Q140.17305 313.2469 139.68867 313.7469Q139.2043 314.23126 139.2043 314.96564Z" fill-rule="nonzero"/><path fill="#000000" d="M232.46933 315.46564L233.48495 315.3719Q233.60995 316.09064 233.96933 316.41876Q234.34433 316.73126 234.90683 316.73126Q235.3912 316.73126 235.75058 316.5125Q236.12558 316.27814 236.35995 315.91876Q236.59433 315.54376 236.75058 314.91876Q236.90683 314.27814 236.90683 313.6219Q236.90683 313.54376 236.90683 313.40314Q236.59433 313.90314 236.04745 314.23126Q235.50058 314.54376 234.85995 314.54376Q233.78183 314.54376 233.04745 313.77814Q232.31308 312.9969 232.31308 311.73126Q232.31308 310.41876 233.0787 309.6219Q233.85995 308.825 235.0162 308.825Q235.84433 308.825 236.53183 309.27814Q237.23495 309.73126 237.59433 310.575Q237.9537 311.40314 237.9537 312.98126Q237.9537 314.6219 237.59433 315.60626Q237.25058 316.575 236.53183 317.09064Q235.8287 317.59064 234.8912 317.59064Q233.87558 317.59064 233.23495 317.04376Q232.59433 316.48126 232.46933 315.46564ZM236.78183 311.66876Q236.78183 310.7625 236.29745 310.23126Q235.8287 309.7 235.1412 309.7Q234.43808 309.7 233.90683 310.27814Q233.3912 310.84064 233.3912 311.7625Q233.3912 312.575 233.8912 313.09064Q234.3912 313.60626 235.10995 313.60626Q235.84433 313.60626 236.31308 313.09064Q236.78183 312.575 236.78183 311.66876Z" fill-rule="nonzero"/><path fill="#000000" d="M326.96875 317.45L325.92188 317.45L325.92188 310.73126Q325.53125 311.09064 324.90625 311.46564Q324.29688 311.825 323.8125 311.9969L323.8125 310.98126Q324.6875 310.5594 325.34375 309.98126Q326.01562 309.3875 326.29688 308.825L326.96875 308.825L326.96875 317.45ZM330.0 313.21564Q330.0 311.6844 330.3125 310.7625Q330.625 309.825 331.23438 309.325Q331.85938 308.825 332.79688 308.825Q333.48438 308.825 334.0 309.10626Q334.53125 309.3875 334.875 309.91876Q335.21875 310.4344 335.40625 311.1844Q335.59375 311.9344 335.59375 313.21564Q335.59375 314.73126 335.28125 315.65314Q334.98438 316.575 334.35938 317.09064Q333.75 317.59064 332.79688 317.59064Q331.5625 317.59064 330.84375 316.7Q330.0 315.6375 330.0 313.21564ZM331.07812 313.21564Q331.07812 315.325 331.57812 316.02814Q332.07812 316.73126 332.79688 316.73126Q333.53125 316.73126 334.01562 316.02814Q334.51562 315.325 334.51562 313.21564Q334.51562 311.09064 334.01562 310.40314Q333.53125 309.7 332.78125 309.7Q332.0625 309.7 331.625 310.3094Q331.07812 311.09064 331.07812 313.21564Z" fill-rule="nonzero"/><path fill="#000000" d="M421.15567 317.45L420.1088 317.45L420.1088 310.73126Q419.71817 311.09064 419.09317 311.46564Q418.4838 311.825 417.99942 311.9969L417.99942 310.98126Q418.87442 310.5594 419.53067 309.98126Q420.20255 309.3875 420.4838 308.825L421.15567 308.825L421.15567 317.45ZM428.15567 317.45L427.1088 317.45L427.1088 310.73126Q426.71817 311.09064 426.09317 311.46564Q425.4838 311.825 424.99942 311.9969L424.99942 310.98126Q425.87442 310.5594 426.53067 309.98126Q427.20255 309.3875 427.4838 308.825L428.15567 308.825L428.15567 317.45Z" fill-rule="nonzero"/><path fill="#000000" d="M515.3426 317.45L514.2957 317.45L514.2957 310.73126Q513.9051 311.09064 513.2801 311.46564Q512.6707 311.825 512.18634 311.9969L512.18634 310.98126Q513.06134 310.5594 513.7176 309.98126Q514.38947 309.3875 514.6707 308.825L515.3426 308.825L515.3426 317.45ZM523.9207 316.4344L523.9207 317.45L518.2332 317.45Q518.2332 317.075 518.3582 316.71564Q518.57697 316.1375 519.0457 315.575Q519.5301 315.0125 520.43634 314.27814Q521.8426 313.1219 522.32697 312.45Q522.82697 311.77814 522.82697 311.1844Q522.82697 310.5594 522.37384 310.1375Q521.9207 309.7 521.20197 309.7Q520.43634 309.7 519.9832 310.15314Q519.5301 310.60626 519.51447 311.41876L518.43634 311.3094Q518.5457 310.09064 519.26447 309.46564Q519.99884 308.825 521.2332 308.825Q522.4676 308.825 523.18634 309.5125Q523.9051 310.2 523.9051 311.21564Q523.9051 311.73126 523.68634 312.23126Q523.4832 312.71564 522.9832 313.27814Q522.49884 313.825 521.37384 314.77814Q520.4207 315.575 520.13947 315.8719Q519.87384 316.15314 519.70197 316.4344L523.9207 316.4344Z" fill-rule="nonzero"/><path fill="#757575" d="M266.75 31.940624L266.75 30.253124L272.8125 30.2375L272.8125 35.55Q271.40625 36.675 269.92188 37.2375Q268.4375 37.8 266.875 37.8Q264.76562 37.8 263.04688 36.89375Q261.32812 35.9875 260.4375 34.284374Q259.5625 32.565624 259.5625 30.45625Q259.5625 28.3625 260.4375 26.565624Q261.3125 24.753124 262.95312 23.878124Q264.59375 22.9875 266.73438 22.9875Q268.28125 22.9875 269.53125 23.4875Q270.79688 23.9875 271.5 24.89375Q272.21875 25.784374 272.59375 27.2375L270.89062 27.70625Q270.5625 26.6125 270.07812 25.9875Q269.60938 25.3625 268.71875 24.9875Q267.82812 24.6125 266.75 24.6125Q265.4375 24.6125 264.48438 25.003124Q263.54688 25.39375 262.96875 26.05Q262.39062 26.690624 262.0625 27.45625Q261.51562 28.784374 261.51562 30.346874Q261.51562 32.253124 262.17188 33.55Q262.84375 34.83125 264.09375 35.45625Q265.35938 36.08125 266.76562 36.08125Q268.0 36.08125 269.17188 35.6125Q270.34375 35.14375 270.95312 34.596874L270.95312 31.940624L266.75 31.940624ZM275.79688 37.55L275.79688 27.175L277.375 27.175L277.375 28.753124Q277.98438 27.64375 278.5 27.3Q279.01562 26.940624 279.625 26.940624Q280.51562 26.940624 281.4375 27.503124L280.82812 29.14375Q280.1875 28.753124 279.54688 28.753124Q278.96875 28.753124 278.5 29.1125Q278.04688 29.45625 277.84375 30.065624Q277.5625 31.003124 277.5625 32.1125L277.5625 37.55L275.79688 37.55ZM282.82812 25.253124L282.82812 23.2375L284.59375 23.2375L284.59375 25.253124L282.82812 25.253124ZM282.82812 37.55L282.82812 27.175L284.59375 27.175L284.59375 37.55L282.82812 37.55ZM286.78125 37.55L286.78125 23.2375L288.53125 23.2375L288.53125 37.55L286.78125 37.55ZM290.78125 37.55L290.78125 23.2375L292.53125 23.2375L292.53125 37.55L290.78125 37.55ZM301.92188 34.20625L303.73438 34.440624Q303.3125 36.01875 302.14062 36.909374Q300.98438 37.784374 299.17188 37.784374Q296.90625 37.784374 295.5625 36.39375Q294.23438 34.9875 294.23438 32.45625Q294.23438 29.83125 295.57812 28.39375Q296.92188 26.940624 299.07812 26.940624Q301.15625 26.940624 302.46875 28.3625Q303.79688 29.76875 303.79688 32.346874Q303.79688 32.503124 303.78125 32.815624L296.04688 32.815624Q296.14062 34.51875 297.01562 35.425Q297.89062 36.33125 299.1875 36.33125Q300.15625 36.33125 300.82812 35.83125Q301.51562 35.315624 301.92188 34.20625ZM296.14062 31.3625L301.9375 31.3625Q301.82812 30.065624 301.28125 29.409374Q300.4375 28.39375 299.09375 28.39375Q297.89062 28.39375 297.0625 29.20625Q296.23438 30.003124 296.14062 31.3625ZM320.45312 26.7375L318.70312 26.878124Q318.46875 25.846874 318.04688 25.378124Q317.32812 24.6125 316.28125 24.6125Q315.4375 24.6125 314.8125 25.08125Q313.98438 25.690624 313.5 26.8625Q313.01562 28.01875 313.0 30.159374Q313.64062 29.20625 314.54688 28.7375Q315.46875 28.26875 316.48438 28.26875Q318.23438 28.26875 319.46875 29.565624Q320.70312 30.846874 320.70312 32.89375Q320.70312 34.253124 320.125 35.409374Q319.54688 36.565624 318.53125 37.190624Q317.51562 37.8 316.21875 37.8Q314.03125 37.8 312.64062 36.190624Q311.25 34.565624 311.25 30.846874Q311.25 26.70625 312.78125 24.815624Q314.125 23.175 316.39062 23.175Q318.07812 23.175 319.15625 24.128124Q320.23438 25.065624 320.45312 26.7375ZM313.28125 32.909374Q313.28125 33.815624 313.65625 34.64375Q314.04688 35.471874 314.73438 35.909374Q315.4375 36.346874 316.1875 36.346874Q317.3125 36.346874 318.10938 35.45625Q318.90625 34.55 318.90625 33.003124Q318.90625 31.51875 318.10938 30.675Q317.32812 29.815624 316.125 29.815624Q314.9375 29.815624 314.10938 30.675Q313.28125 31.51875 313.28125 32.909374ZM321.64062 37.55L325.4375 32.159374L321.9375 27.175L324.125 27.175L325.71875 29.6125Q326.17188 30.3 326.4375 30.76875Q326.875 30.128124 327.23438 29.628124L328.98438 27.175L331.07812 27.175L327.5 32.065624L331.35938 37.55L329.20312 37.55L327.0625 34.33125L326.5 33.45625L323.78125 37.55L321.64062 37.55ZM340.45312 26.7375L338.70312 26.878124Q338.46875 25.846874 338.04688 25.378124Q337.32812 24.6125 336.28125 24.6125Q335.4375 24.6125 334.8125 25.08125Q333.98438 25.690624 333.5 26.8625Q333.01562 28.01875 333.0 30.159374Q333.64062 29.20625 334.54688 28.7375Q335.46875 28.26875 336.48438 28.26875Q338.23438 28.26875 339.46875 29.565624Q340.70312 30.846874 340.70312 32.89375Q340.70312 34.253124 340.125 35.409374Q339.54688 36.565624 338.53125 37.190624Q337.51562 37.8 336.21875 37.8Q334.03125 37.8 332.64062 36.190624Q331.25 34.565624 331.25 30.846874Q331.25 26.70625 332.78125 24.815624Q334.125 23.175 336.39062 23.175Q338.07812 23.175 339.15625 24.128124Q340.23438 25.065624 340.45312 26.7375ZM333.28125 32.909374Q333.28125 33.815624 333.65625 34.64375Q334.04688 35.471874 334.73438 35.909374Q335.4375 36.346874 336.1875 36.346874Q337.3125 36.346874 338.10938 35.45625Q338.90625 34.55 338.90625 33.003124Q338.90625 31.51875 338.10938 30.675Q337.32812 29.815624 336.125 29.815624Q334.9375 29.815624 334.10938 30.675Q333.28125 31.51875 333.28125 32.909374Z" fill-rule="nonzero"/></svg>