<svg version="1.1" viewBox="0.0 0.0 600.0 371.0" fill="none" stroke="none" stroke-linecap="square" stroke-miterlimit="10" width="600" height="371" xmlns:xlink="http://www.w3.org/1999/xlink" xmlns="http://www.w3.org/2000/svg"><path fill="#ffffff" d="M0 0L600.0 0L600.0 371.0L0 371.0L0 0Z" fill-rule="nonzero"/><path stroke="#333333" stroke-width="1.0" stroke-linecap="butt" d="M84.5 300.5L581.5 300.5" fill-rule="nonzero"/><path stroke="#cccccc" stroke-width="1.0" stroke-linecap="butt" d="M84.5 240.5L581.5 240.5" fill-rule="nonzero"/><path stroke="#cccccc" stroke-width="1.0" stroke-linecap="butt" d="M84.5 181.5L581.5 181.5" fill-rule="nonzero"/><path stroke="#cccccc" stroke-width="1.0" stroke-linecap="butt" d="M84.5 121.5L581.5 121.5" fill-rule="nonzero"/><path stroke="#cccccc" stroke-width="1.0" stroke-linecap="butt" d="M84.5 61.5L581.5 61.5" fill-rule="nonzero"/><clipPath id="id_0"><path d="M84.55 61.916668L581.45 61.916668L581.45 300.45L84.55 300.45L84.55 61.916668Z" clip-rule="nonzero"/></clipPath><path stroke="#000000" stroke-width="2.0" stroke-linecap="butt" stroke-opacity="0.0" clip-path="url(#id_0)" d="M152.0 300.0L108.0 300.0L108.0 299.5C108.0 299.22385 108.223854 299.0 108.5 299.0L151.5 299.0C151.77614 299.0 152.0 299.22385 152.0 299.5Z" fill-rule="nonzero"/><path fill="#0000ff" clip-path="url(#id_0)" d="M152.0 300.0L108.0 300.0L108.0 299.5C108.0 299.22385 108.223854 299.0 108.5 299.0L151.5 299.0C151.77614 299.0 152.0 299.22385 152.0 299.5Z" fill-rule="nonzero"/><path stroke="#000000" stroke-width="2.0" stroke-linecap="butt" stroke-opacity="0.0" clip-path="url(#id_0)" d="M220.0 300.0L176.0 300.0L176.0 270.0C176.0 268.89542 176.89543 268.0 178.0 268.0L218.0 268.0C219.10457 268.0 220.0 268.89542 220.0 270.0Z" fill-rule="nonzero"/><path fill="#0000ff" clip-path="url(#id_0)" d="M220.0 300.0L176.0 300.0L176.0 270.0C176.0 268.89542 176.89543 268.0 178.0 268.0L218.0 268.0C219.10457 268.0 220.0 268.89542 220.0 270.0Z" fill-rule="nonzero"/><path stroke="#000000" stroke-width="2.0" stroke-linecap="butt" stroke-opacity="0.0" clip-path="url(#id_0)" d="M287.0 300.0L243.0 300.0L243.0 156.0C243.0 154.89543 243.89543 154.0 245.0 154.0L285.0 154.0C286.10458 154.0 287.0 154.89543 287.0 156.0Z" fill-rule="nonzero"/><path fill="#0000ff" clip-path="url(#id_0)" d="M287.0 300.0L243.0 300.0L243.0 156.0C243.0 154.89543 243.89543 154.0 245.0 154.0L285.0 154.0C286.10458 154.0 287.0 154.89543 287.0 156.0Z" fill-rule="nonzero"/><path stroke="#000000" stroke-width="2.0" stroke-linecap="butt" stroke-opacity="0.0" clip-path="url(#id_0)" d="M355.0 300.0L311.0 300.0L311.0 96.0C311.0 94.89543 311.89542 94.0 313.0 94.0L353.0 94.0C354.10458 94.0 355.0 94.89543 355.0 96.0Z" fill-rule="nonzero"/><path fill="#0000ff" clip-path="url(#id_0)" d="M355.0 300.0L311.0 300.0L311.0 96.0C311.0 94.89543 311.89542 94.0 313.0 94.0L353.0 94.0C354.10458 94.0 355.0 94.89543 355.0 96.0Z" fill-rule="nonzero"/><path stroke="#000000" stroke-width="2.0" stroke-linecap="butt" stroke-opacity="0.0" clip-path="url(#id_0)" d="M423.0 300.0L379.0 300.0L379.0 220.0C379.0 218.89543 379.89542 218.0 381.0 218.0L421.0 218.0C422.10458 218.0 423.0 218.89543 423.0 220.0Z" fill-rule="nonzero"/><path fill="#0000ff" clip-path="url(#id_0)" d="M423.0 300.0L379.0 300.0L379.0 220.0C379.0 218.89543 379.89542 218.0 381.0 218.0L421.0 218.0C422.10458 218.0 423.0 218.89543 423.0 220.0Z" fill-rule="nonzero"/><path stroke="#000000" stroke-width="2.0" stroke-linecap="butt" stroke-opacity="0.0" clip-path="url(#id_0)" d="M490.0 300.0L446.0 300.0L446.0 296.0C446.0 294.89542 446.89542 294.0 448.0 294.0L488.0 294.0C489.10458 294.0 490.0 294.89542 490.0 296.0Z" fill-rule="nonzero"/><path fill="#0000ff" clip-path="url(#id_0)" d="M490.0 300.0L446.0 300.0L446.0 296.0C446.0 294.89542 446.89542 294.0 448.0 294.0L488.0 294.0C489.10458 294.0 490.0 294.89542 490.0 296.0Z" fill-rule="nonzero"/><path stroke="#000000" stroke-width="2.0" stroke-linecap="butt" stroke-opacity="0.0" clip-path="url(#id_0)" d="M558.0 300.0L514.0 300.0L514.0 300.0C514.0 300.0 514.0 300.0 514.0 300.0L558.0 300.0C558.0 300.0 558.0 300.0 558.0 300.0Z" fill-rule="nonzero"/><path fill="#0000ff" clip-path="url(#id_0)" d="M558.0 300.0L514.0 300.0L514.0 300.0C514.0 300.0 514.0 300.0 514.0 300.0L558.0 300.0C558.0 300.0 558.0 300.0 558.0 300.0Z" fill-rule="nonzero"/><path stroke="#ffffff" stroke-width="3.0" stroke-linejoin="round" stroke-linecap="round" d="M127.703125 279.97607L128.14062 275.72607L132.51562 275.72607L132.51562 276.72607L129.0625 276.72607L128.79688 279.0542Q129.4375 278.6792 130.23438 278.6792Q131.39062 278.6792 132.07812 279.46045Q132.76562 280.22607 132.76562 281.53857Q132.76562 282.85107 132.04688 283.6167Q131.34375 284.38232 130.0625 284.38232Q128.9375 284.38232 128.21875 283.75732Q127.5 283.1167 127.40625 282.00732L128.42188 282.00732Q128.53125 282.7417 128.95312 283.1167Q129.375 283.4917 130.0625 283.4917Q130.8125 283.4917 131.25 282.97607Q131.6875 282.46045 131.6875 281.5542Q131.6875 280.69482 131.21875 280.1792Q130.75 279.66357 129.96875 279.66357Q129.26562 279.66357 128.85938 279.96045L128.57812 280.19482L127.703125 279.97607Z" fill-rule="nonzero"/><path fill="#0000ff" d="M127.703125 279.97607L128.14062 275.72607L132.51562 275.72607L132.51562 276.72607L129.0625 276.72607L128.79688 279.0542Q129.4375 278.6792 130.23438 278.6792Q131.39062 278.6792 132.07812 279.46045Q132.76562 280.22607 132.76562 281.53857Q132.76562 282.85107 132.04688 283.6167Q131.34375 284.38232 130.0625 284.38232Q128.9375 284.38232 128.21875 283.75732Q127.5 283.1167 127.40625 282.00732L128.42188 282.00732Q128.53125 282.7417 128.95312 283.1167Q129.375 283.4917 130.0625 283.4917Q130.8125 283.4917 131.25 282.97607Q131.6875 282.46045 131.6875 281.5542Q131.6875 280.69482 131.21875 280.1792Q130.75 279.66357 129.96875 279.66357Q129.26562 279.66357 128.85938 279.96045L128.57812 280.19482L127.703125 279.97607Z" fill-rule="nonzero"/><path stroke="#ffffff" stroke-width="3.0" stroke-linejoin="round" stroke-linecap="round" d="M191.76562 253.00946L190.6875 253.00946L190.6875 245.79071L188.5 246.58759L188.5 245.60321L191.60938 244.43134L191.76562 244.43134L191.76562 253.00946ZM196.78125 248.21259L197.59375 248.21259Q198.375 248.19696 198.8125 247.80634Q199.25 247.41571 199.25 246.74384Q199.25 245.24384 197.75 245.24384Q197.04688 245.24384 196.625 245.65009Q196.21875 246.05634 196.21875 246.71259L195.125 246.71259Q195.125 245.69696 195.85938 245.02509Q196.60938 244.35321 197.75 244.35321Q198.95312 244.35321 199.64062 244.99384Q200.32812 245.63446 200.32812 246.77509Q200.32812 247.33759 199.96875 247.85321Q199.60938 248.36884 198.98438 248.63446Q199.6875 248.85321 200.0625 249.36884Q200.45312 249.88446 200.45312 250.63446Q200.45312 251.77509 199.70312 252.46259Q198.95312 253.13446 197.75 253.13446Q196.5625 253.13446 195.79688 252.47821Q195.04688 251.82196 195.04688 250.75946L196.14062 250.75946Q196.14062 251.43134 196.57812 251.83759Q197.01562 252.24384 197.76562 252.24384Q198.54688 252.24384 198.95312 251.83759Q199.375 251.41571 199.375 250.65009Q199.375 249.91571 198.92188 249.52509Q198.46875 249.11884 197.59375 249.10321L196.78125 249.10321L196.78125 248.21259ZM206.46875 244.47821L206.46875 245.38446L206.26562 245.38446Q205.0 245.41571 204.25 246.15009Q203.5 246.86884 203.375 248.18134Q204.0625 247.41571 205.21875 247.41571Q206.32812 247.41571 207.0 248.19696Q207.67188 248.97821 207.67188 250.22821Q207.67188 251.54071 206.95312 252.33759Q206.23438 253.13446 205.01562 253.13446Q203.79688 253.13446 203.03125 252.19696Q202.28125 251.24384 202.28125 249.75946L202.28125 249.35321Q202.28125 246.99384 203.28125 245.74384Q204.28125 244.49384 206.26562 244.47821L206.46875 244.47821ZM205.04688 248.32196Q204.48438 248.32196 204.01562 248.65009Q203.54688 248.97821 203.35938 249.49384L203.35938 249.88446Q203.35938 250.94696 203.82812 251.58759Q204.3125 252.22821 205.01562 252.22821Q205.75 252.22821 206.17188 251.69696Q206.59375 251.15009 206.59375 250.27509Q206.59375 249.40009 206.17188 248.86884Q205.75 248.32196 205.04688 248.32196Z" fill-rule="nonzero"/><path fill="#0000ff" d="M191.76562 253.00946L190.6875 253.00946L190.6875 245.79071L188.5 246.58759L188.5 245.60321L191.60938 244.43134L191.76562 244.43134L191.76562 253.00946ZM196.78125 248.21259L197.59375 248.21259Q198.375 248.19696 198.8125 247.80634Q199.25 247.41571 199.25 246.74384Q199.25 245.24384 197.75 245.24384Q197.04688 245.24384 196.625 245.65009Q196.21875 246.05634 196.21875 246.71259L195.125 246.71259Q195.125 245.69696 195.85938 245.02509Q196.60938 244.35321 197.75 244.35321Q198.95312 244.35321 199.64062 244.99384Q200.32812 245.63446 200.32812 246.77509Q200.32812 247.33759 199.96875 247.85321Q199.60938 248.36884 198.98438 248.63446Q199.6875 248.85321 200.0625 249.36884Q200.45312 249.88446 200.45312 250.63446Q200.45312 251.77509 199.70312 252.46259Q198.95312 253.13446 197.75 253.13446Q196.5625 253.13446 195.79688 252.47821Q195.04688 251.82196 195.04688 250.75946L196.14062 250.75946Q196.14062 251.43134 196.57812 251.83759Q197.01562 252.24384 197.76562 252.24384Q198.54688 252.24384 198.95312 251.83759Q199.375 251.41571 199.375 250.65009Q199.375 249.91571 198.92188 249.52509Q198.46875 249.11884 197.59375 249.10321L196.78125 249.10321L196.78125 248.21259ZM206.46875 244.47821L206.46875 245.38446L206.26562 245.38446Q205.0 245.41571 204.25 246.15009Q203.5 246.86884 203.375 248.18134Q204.0625 247.41571 205.21875 247.41571Q206.32812 247.41571 207.0 248.19696Q207.67188 248.97821 207.67188 250.22821Q207.67188 251.54071 206.95312 252.33759Q206.23438 253.13446 205.01562 253.13446Q203.79688 253.13446 203.03125 252.19696Q202.28125 251.24384 202.28125 249.75946L202.28125 249.35321Q202.28125 246.99384 203.28125 245.74384Q204.28125 244.49384 206.26562 244.47821L206.46875 244.47821ZM205.04688 248.32196Q204.48438 248.32196 204.01562 248.65009Q203.54688 248.97821 203.35938 249.49384L203.35938 249.88446Q203.35938 250.94696 203.82812 251.58759Q204.3125 252.22821 205.01562 252.22821Q205.75 252.22821 206.17188 251.69696Q206.59375 251.15009 206.59375 250.27509Q206.59375 249.40009 206.17188 248.86884Q205.75 248.32196 205.04688 248.32196Z" fill-rule="nonzero"/><path stroke="#ffffff" stroke-width="3.0" stroke-linejoin="round" stroke-linecap="round" d="M259.46875 130.69781L259.46875 131.60406L259.26562 131.60406Q258.0 131.63531 257.25 132.36969Q256.5 133.08844 256.375 134.40094Q257.0625 133.63531 258.21875 133.63531Q259.32812 133.63531 260.0 134.41656Q260.67188 135.19781 260.67188 136.44781Q260.67188 137.76031 259.95312 138.55719Q259.23438 139.35406 258.01562 139.35406Q256.79688 139.35406 256.03125 138.41656Q255.28125 137.46344 255.28125 135.97906L255.28125 135.57281Q255.28125 133.21344 256.28125 131.96344Q257.28125 130.71344 259.26562 130.69781L259.46875 130.69781ZM258.04688 134.54156Q257.48438 134.54156 257.01562 134.86969Q256.54688 135.19781 256.35938 135.71344L256.35938 136.10406Q256.35938 137.16656 256.82812 137.80719Q257.3125 138.44781 258.01562 138.44781Q258.75 138.44781 259.17188 137.91656Q259.59375 137.36969 259.59375 136.49469Q259.59375 135.61969 259.17188 135.08844Q258.75 134.54156 258.04688 134.54156ZM265.76562 139.22906L264.6875 139.22906L264.6875 132.01031L262.5 132.80719L262.5 131.82281L265.60938 130.65094L265.76562 130.65094L265.76562 139.22906ZM270.78125 134.43219L271.59375 134.43219Q272.375 134.41656 272.8125 134.02594Q273.25 133.63531 273.25 132.96344Q273.25 131.46344 271.75 131.46344Q271.04688 131.46344 270.625 131.86969Q270.21875 132.27594 270.21875 132.93219L269.125 132.93219Q269.125 131.91656 269.85938 131.24469Q270.60938 130.57281 271.75 130.57281Q272.95312 130.57281 273.64062 131.21344Q274.32812 131.85406 274.32812 132.99469Q274.32812 133.55719 273.96875 134.07281Q273.60938 134.58844 272.98438 134.85406Q273.6875 135.07281 274.0625 135.58844Q274.45312 136.10406 274.45312 136.85406Q274.45312 137.99469 273.70312 138.68219Q272.95312 139.35406 271.75 139.35406Q270.5625 139.35406 269.79688 138.69781Q269.04688 138.04156 269.04688 136.97906L270.14062 136.97906Q270.14062 137.65094 270.57812 138.05719Q271.01562 138.46344 271.76562 138.46344Q272.54688 138.46344 272.95312 138.05719Q273.375 137.63531 273.375 136.86969Q273.375 136.13531 272.92188 135.74469Q272.46875 135.33844 271.59375 135.32281L270.78125 135.32281L270.78125 134.43219Z" fill-rule="nonzero"/><path fill="#0000ff" d="M259.46875 130.69781L259.46875 131.60406L259.26562 131.60406Q258.0 131.63531 257.25 132.36969Q256.5 133.08844 256.375 134.40094Q257.0625 133.63531 258.21875 133.63531Q259.32812 133.63531 260.0 134.41656Q260.67188 135.19781 260.67188 136.44781Q260.67188 137.76031 259.95312 138.55719Q259.23438 139.35406 258.01562 139.35406Q256.79688 139.35406 256.03125 138.41656Q255.28125 137.46344 255.28125 135.97906L255.28125 135.57281Q255.28125 133.21344 256.28125 131.96344Q257.28125 130.71344 259.26562 130.69781L259.46875 130.69781ZM258.04688 134.54156Q257.48438 134.54156 257.01562 134.86969Q256.54688 135.19781 256.35938 135.71344L256.35938 136.10406Q256.35938 137.16656 256.82812 137.80719Q257.3125 138.44781 258.01562 138.44781Q258.75 138.44781 259.17188 137.91656Q259.59375 137.36969 259.59375 136.49469Q259.59375 135.61969 259.17188 135.08844Q258.75 134.54156 258.04688 134.54156ZM265.76562 139.22906L264.6875 139.22906L264.6875 132.01031L262.5 132.80719L262.5 131.82281L265.60938 130.65094L265.76562 130.65094L265.76562 139.22906ZM270.78125 134.43219L271.59375 134.43219Q272.375 134.41656 272.8125 134.02594Q273.25 133.63531 273.25 132.96344Q273.25 131.46344 271.75 131.46344Q271.04688 131.46344 270.625 131.86969Q270.21875 132.27594 270.21875 132.93219L269.125 132.93219Q269.125 131.91656 269.85938 131.24469Q270.60938 130.57281 271.75 130.57281Q272.95312 130.57281 273.64062 131.21344Q274.32812 131.85406 274.32812 132.99469Q274.32812 133.55719 273.96875 134.07281Q273.60938 134.58844 272.98438 134.85406Q273.6875 135.07281 274.0625 135.58844Q274.45312 136.10406 274.45312 136.85406Q274.45312 137.99469 273.70312 138.68219Q272.95312 139.35406 271.75 139.35406Q270.5625 139.35406 269.79688 138.69781Q269.04688 138.04156 269.04688 136.97906L270.14062 136.97906Q270.14062 137.65094 270.57812 138.05719Q271.01562 138.46344 271.76562 138.46344Q272.54688 138.46344 272.95312 138.05719Q273.375 137.63531 273.375 136.86969Q273.375 136.13531 272.92188 135.74469Q272.46875 135.33844 271.59375 135.32281L270.78125 135.32281L270.78125 134.43219Z" fill-rule="nonzero"/><path stroke="#ffffff" stroke-width="3.0" stroke-linejoin="round" stroke-linecap="round" d="M328.39062 73.0447Q328.39062 73.685326 328.04688 74.185326Q327.70312 74.685326 327.14062 74.966576Q327.79688 75.247826 328.1875 75.810326Q328.57812 76.3572 328.57812 77.060326Q328.57812 78.154076 327.82812 78.82595Q327.09375 79.4822 325.875 79.4822Q324.64062 79.4822 323.89062 78.82595Q323.15625 78.154076 323.15625 77.060326Q323.15625 76.3572 323.53125 75.810326Q323.90625 75.247826 324.57812 74.966576Q324.01562 74.685326 323.6875 74.185326Q323.35938 73.685326 323.35938 73.0447Q323.35938 71.966576 324.04688 71.341576Q324.73438 70.70095 325.875 70.70095Q327.0 70.70095 327.6875 71.341576Q328.39062 71.966576 328.39062 73.0447ZM327.5 77.029076Q327.5 76.310326 327.04688 75.872826Q326.59375 75.4197 325.85938 75.4197Q325.125 75.4197 324.67188 75.872826Q324.23438 76.310326 324.23438 77.0447Q324.23438 77.76345 324.67188 78.185326Q325.10938 78.591576 325.875 78.591576Q326.625 78.591576 327.0625 78.1697Q327.5 77.747826 327.5 77.029076ZM325.875 71.591576Q325.23438 71.591576 324.82812 71.997826Q324.4375 72.38845 324.4375 73.07595Q324.4375 73.716576 324.82812 74.122826Q325.21875 74.529076 325.85938 74.529076Q326.51562 74.529076 326.90625 74.122826Q327.29688 73.716576 327.29688 73.07595Q327.29688 72.4197 326.89062 72.01345Q326.48438 71.591576 325.875 71.591576ZM334.46875 70.82595L334.46875 71.7322L334.26562 71.7322Q333.0 71.76345 332.25 72.497826Q331.5 73.216576 331.375 74.529076Q332.0625 73.76345 333.21875 73.76345Q334.32812 73.76345 335.0 74.5447Q335.67188 75.32595 335.67188 76.57595Q335.67188 77.88845 334.95312 78.685326Q334.23438 79.4822 333.01562 79.4822Q331.79688 79.4822 331.03125 78.5447Q330.28125 77.591576 330.28125 76.1072L330.28125 75.70095Q330.28125 73.341576 331.28125 72.091576Q332.28125 70.841576 334.26562 70.82595L334.46875 70.82595ZM333.04688 74.6697Q332.48438 74.6697 332.01562 74.997826Q331.54688 75.32595 331.35938 75.841576L331.35938 76.2322Q331.35938 77.2947 331.82812 77.935326Q332.3125 78.57595 333.01562 78.57595Q333.75 78.57595 334.17188 78.0447Q334.59375 77.497826 334.59375 76.622826Q334.59375 75.747826 334.17188 75.216576Q333.75 74.6697 333.04688 74.6697ZM341.78125 76.497826L342.96875 76.497826L342.96875 77.372826L341.78125 77.372826L341.78125 79.3572L340.70312 79.3572L340.70312 77.372826L336.8125 77.372826L336.8125 76.7322L340.625 70.82595L341.78125 70.82595L341.78125 76.497826ZM338.04688 76.497826L340.70312 76.497826L340.70312 72.310326L340.5625 72.5447L338.04688 76.497826Z" fill-rule="nonzero"/><path fill="#0000ff" d="M328.39062 73.0447Q328.39062 73.685326 328.04688 74.185326Q327.70312 74.685326 327.14062 74.966576Q327.79688 75.247826 328.1875 75.810326Q328.57812 76.3572 328.57812 77.060326Q328.57812 78.154076 327.82812 78.82595Q327.09375 79.4822 325.875 79.4822Q324.64062 79.4822 323.89062 78.82595Q323.15625 78.154076 323.15625 77.060326Q323.15625 76.3572 323.53125 75.810326Q323.90625 75.247826 324.57812 74.966576Q324.01562 74.685326 323.6875 74.185326Q323.35938 73.685326 323.35938 73.0447Q323.35938 71.966576 324.04688 71.341576Q324.73438 70.70095 325.875 70.70095Q327.0 70.70095 327.6875 71.341576Q328.39062 71.966576 328.39062 73.0447ZM327.5 77.029076Q327.5 76.310326 327.04688 75.872826Q326.59375 75.4197 325.85938 75.4197Q325.125 75.4197 324.67188 75.872826Q324.23438 76.310326 324.23438 77.0447Q324.23438 77.76345 324.67188 78.185326Q325.10938 78.591576 325.875 78.591576Q326.625 78.591576 327.0625 78.1697Q327.5 77.747826 327.5 77.029076ZM325.875 71.591576Q325.23438 71.591576 324.82812 71.997826Q324.4375 72.38845 324.4375 73.07595Q324.4375 73.716576 324.82812 74.122826Q325.21875 74.529076 325.85938 74.529076Q326.51562 74.529076 326.90625 74.122826Q327.29688 73.716576 327.29688 73.07595Q327.29688 72.4197 326.89062 72.01345Q326.48438 71.591576 325.875 71.591576ZM334.46875 70.82595L334.46875 71.7322L334.26562 71.7322Q333.0 71.76345 332.25 72.497826Q331.5 73.216576 331.375 74.529076Q332.0625 73.76345 333.21875 73.76345Q334.32812 73.76345 335.0 74.5447Q335.67188 75.32595 335.67188 76.57595Q335.67188 77.88845 334.95312 78.685326Q334.23438 79.4822 333.01562 79.4822Q331.79688 79.4822 331.03125 78.5447Q330.28125 77.591576 330.28125 76.1072L330.28125 75.70095Q330.28125 73.341576 331.28125 72.091576Q332.28125 70.841576 334.26562 70.82595L334.46875 70.82595ZM333.04688 74.6697Q332.48438 74.6697 332.01562 74.997826Q331.54688 75.32595 331.35938 75.841576L331.35938 76.2322Q331.35938 77.2947 331.82812 77.935326Q332.3125 78.57595 333.01562 78.57595Q333.75 78.57595 334.17188 78.0447Q334.59375 77.497826 334.59375 76.622826Q334.59375 75.747826 334.17188 75.216576Q333.75 74.6697 333.04688 74.6697ZM341.78125 76.497826L342.96875 76.497826L342.96875 77.372826L341.78125 77.372826L341.78125 79.3572L340.70312 79.3572L340.70312 77.372826L336.8125 77.372826L336.8125 76.7322L340.625 70.82595L341.78125 70.82595L341.78125 76.497826ZM338.04688 76.497826L340.70312 76.497826L340.70312 72.310326L340.5625 72.5447L338.04688 76.497826Z" fill-rule="nonzero"/><path stroke="#ffffff" stroke-width="3.0" stroke-linejoin="round" stroke-linecap="round" d="M392.78125 198.59766L393.59375 198.59766Q394.375 198.58203 394.8125 198.1914Q395.25 197.80078 395.25 197.1289Q395.25 195.6289 393.75 195.6289Q393.04688 195.6289 392.625 196.03516Q392.21875 196.4414 392.21875 197.09766L391.125 197.09766Q391.125 196.08203 391.85938 195.41016Q392.60938 194.73828 393.75 194.73828Q394.95312 194.73828 395.64062 195.3789Q396.32812 196.01953 396.32812 197.16016Q396.32812 197.72266 395.96875 198.23828Q395.60938 198.7539 394.98438 199.01953Q395.6875 199.23828 396.0625 199.7539Q396.45312 200.26953 396.45312 201.01953Q396.45312 202.16016 395.70312 202.84766Q394.95312 203.51953 393.75 203.51953Q392.5625 203.51953 391.79688 202.86328Q391.04688 202.20703 391.04688 201.14453L392.14062 201.14453Q392.14062 201.8164 392.57812 202.22266Q393.01562 202.6289 393.76562 202.6289Q394.54688 202.6289 394.95312 202.22266Q395.375 201.80078 395.375 201.03516Q395.375 200.30078 394.92188 199.91016Q394.46875 199.5039 393.59375 199.48828L392.78125 199.48828L392.78125 198.59766ZM402.78125 200.53516L403.96875 200.53516L403.96875 201.41016L402.78125 201.41016L402.78125 203.39453L401.70312 203.39453L401.70312 201.41016L397.8125 201.41016L397.8125 200.76953L401.625 194.86328L402.78125 194.86328L402.78125 200.53516ZM399.04688 200.53516L401.70312 200.53516L401.70312 196.34766L401.5625 196.58203L399.04688 200.53516ZM409.78125 200.53516L410.96875 200.53516L410.96875 201.41016L409.78125 201.41016L409.78125 203.39453L408.70312 203.39453L408.70312 201.41016L404.8125 201.41016L404.8125 200.76953L408.625 194.86328L409.78125 194.86328L409.78125 200.53516ZM406.04688 200.53516L408.70312 200.53516L408.70312 196.34766L408.5625 196.58203L406.04688 200.53516Z" fill-rule="nonzero"/><path fill="#0000ff" d="M392.78125 198.59766L393.59375 198.59766Q394.375 198.58203 394.8125 198.1914Q395.25 197.80078 395.25 197.1289Q395.25 195.6289 393.75 195.6289Q393.04688 195.6289 392.625 196.03516Q392.21875 196.4414 392.21875 197.09766L391.125 197.09766Q391.125 196.08203 391.85938 195.41016Q392.60938 194.73828 393.75 194.73828Q394.95312 194.73828 395.64062 195.3789Q396.32812 196.01953 396.32812 197.16016Q396.32812 197.72266 395.96875 198.23828Q395.60938 198.7539 394.98438 199.01953Q395.6875 199.23828 396.0625 199.7539Q396.45312 200.26953 396.45312 201.01953Q396.45312 202.16016 395.70312 202.84766Q394.95312 203.51953 393.75 203.51953Q392.5625 203.51953 391.79688 202.86328Q391.04688 202.20703 391.04688 201.14453L392.14062 201.14453Q392.14062 201.8164 392.57812 202.22266Q393.01562 202.6289 393.76562 202.6289Q394.54688 202.6289 394.95312 202.22266Q395.375 201.80078 395.375 201.03516Q395.375 200.30078 394.92188 199.91016Q394.46875 199.5039 393.59375 199.48828L392.78125 199.48828L392.78125 198.59766ZM402.78125 200.53516L403.96875 200.53516L403.96875 201.41016L402.78125 201.41016L402.78125 203.39453L401.70312 203.39453L401.70312 201.41016L397.8125 201.41016L397.8125 200.76953L401.625 194.86328L402.78125 194.86328L402.78125 200.53516ZM399.04688 200.53516L401.70312 200.53516L401.70312 196.34766L401.5625 196.58203L399.04688 200.53516ZM409.78125 200.53516L410.96875 200.53516L410.96875 201.41016L409.78125 201.41016L409.78125 203.39453L408.70312 203.39453L408.70312 201.41016L404.8125 201.41016L404.8125 200.76953L408.625 194.86328L409.78125 194.86328L409.78125 200.53516ZM406.04688 200.53516L408.70312 200.53516L408.70312 196.34766L408.5625 196.58203L406.04688 200.53516Z" fill-rule="nonzero"/><path stroke="#ffffff" stroke-width="3.0" stroke-linejoin="round" stroke-linecap="round" d="M467.29688 279.48666L461.70312 279.48666L461.70312 278.7054L464.65625 275.42416Q465.3125 274.67416 465.5625 274.22104Q465.8125 273.7523 465.8125 273.2523Q465.8125 272.5804 465.40625 272.15854Q465.01562 271.72104 464.32812 271.72104Q463.53125 271.72104 463.07812 272.1898Q462.625 272.6429 462.625 273.47104L461.54688 273.47104Q461.54688 272.28354 462.29688 271.5648Q463.0625 270.8304 464.32812 270.8304Q465.53125 270.8304 466.21875 271.4554Q466.90625 272.0804 466.90625 273.1273Q466.90625 274.3773 465.29688 276.1273L463.01562 278.59604L467.29688 278.59604L467.29688 279.48666ZM469.20312 275.2054L469.64062 270.9554L474.01562 270.9554L474.01562 271.9554L470.5625 271.9554L470.29688 274.28354Q470.9375 273.90854 471.73438 273.90854Q472.89062 273.90854 473.57812 274.6898Q474.26562 275.4554 474.26562 276.7679Q474.26562 278.0804 473.54688 278.84604Q472.84375 279.61166 471.5625 279.61166Q470.4375 279.61166 469.71875 278.98666Q469.0 278.34604 468.90625 277.23666L469.92188 277.23666Q470.03125 277.97104 470.45312 278.34604Q470.875 278.72104 471.5625 278.72104Q472.3125 278.72104 472.75 278.2054Q473.1875 277.6898 473.1875 276.78354Q473.1875 275.92416 472.71875 275.40854Q472.25 274.8929 471.46875 274.8929Q470.76562 274.8929 470.35938 275.1898L470.07812 275.42416L469.20312 275.2054Z" fill-rule="nonzero"/><path fill="#0000ff" d="M467.29688 279.48666L461.70312 279.48666L461.70312 278.7054L464.65625 275.42416Q465.3125 274.67416 465.5625 274.22104Q465.8125 273.7523 465.8125 273.2523Q465.8125 272.5804 465.40625 272.15854Q465.01562 271.72104 464.32812 271.72104Q463.53125 271.72104 463.07812 272.1898Q462.625 272.6429 462.625 273.47104L461.54688 273.47104Q461.54688 272.28354 462.29688 271.5648Q463.0625 270.8304 464.32812 270.8304Q465.53125 270.8304 466.21875 271.4554Q466.90625 272.0804 466.90625 273.1273Q466.90625 274.3773 465.29688 276.1273L463.01562 278.59604L467.29688 278.59604L467.29688 279.48666ZM469.20312 275.2054L469.64062 270.9554L474.01562 270.9554L474.01562 271.9554L470.5625 271.9554L470.29688 274.28354Q470.9375 273.90854 471.73438 273.90854Q472.89062 273.90854 473.57812 274.6898Q474.26562 275.4554 474.26562 276.7679Q474.26562 278.0804 473.54688 278.84604Q472.84375 279.61166 471.5625 279.61166Q470.4375 279.61166 469.71875 278.98666Q469.0 278.34604 468.90625 277.23666L469.92188 277.23666Q470.03125 277.97104 470.45312 278.34604Q470.875 278.72104 471.5625 278.72104Q472.3125 278.72104 472.75 278.2054Q473.1875 277.6898 473.1875 276.78354Q473.1875 275.92416 472.71875 275.40854Q472.25 274.8929 471.46875 274.8929Q470.76562 274.8929 470.35938 275.1898L470.07812 275.42416L469.20312 275.2054Z" fill-rule="nonzero"/><path stroke="#ffffff" stroke-width="3.0" stroke-linejoin="round" stroke-linecap="round" d="M536.7656 285.21146L535.6875 285.21146L535.6875 277.9927L533.5 278.78958L533.5 277.8052L536.6094 276.63333L536.7656 276.63333L536.7656 285.21146Z" fill-rule="nonzero"/><path fill="#0000ff" d="M536.7656 285.21146L535.6875 285.21146L535.6875 277.9927L533.5 278.78958L533.5 277.8052L536.6094 276.63333L536.7656 276.63333L536.7656 285.21146Z" fill-rule="nonzero"/><path fill="#000000" d="M316.42188 349.45L316.42188 340.85626L319.67188 340.85626Q320.51562 340.85626 320.96875 340.9344Q321.60938 341.04376 322.03125 341.34064Q322.46875 341.6375 322.71875 342.16876Q322.98438 342.7 322.98438 343.34064Q322.98438 344.4344 322.28125 345.2Q321.59375 345.95 319.76562 345.95L317.5625 345.95L317.5625 349.45L316.42188 349.45ZM317.5625 344.95L319.78125 344.95Q320.89062 344.95 321.34375 344.54376Q321.8125 344.1219 321.8125 343.3719Q321.8125 342.84064 321.53125 342.46564Q321.26562 342.075 320.82812 341.95Q320.53125 341.8719 319.76562 341.8719L317.5625 341.8719L317.5625 344.95ZM323.90625 346.34064Q323.90625 344.60626 324.85938 343.77814Q325.65625 343.09064 326.8125 343.09064Q328.09375 343.09064 328.90625 343.9344Q329.73438 344.7625 329.73438 346.2469Q329.73438 347.45 329.375 348.1375Q329.01562 348.825 328.3125 349.21564Q327.625 349.59064 326.8125 349.59064Q325.51562 349.59064 324.70312 348.7625Q323.90625 347.91876 323.90625 346.34064ZM324.98438 346.34064Q324.98438 347.52814 325.5 348.1219Q326.03125 348.71564 326.8125 348.71564Q327.60938 348.71564 328.125 348.1219Q328.64062 347.52814 328.64062 346.3094Q328.64062 345.15314 328.10938 344.5594Q327.59375 343.96564 326.8125 343.96564Q326.03125 343.96564 325.5 344.5594Q324.98438 345.1375 324.98438 346.34064ZM331.29688 342.075L331.29688 340.85626L332.35938 340.85626L332.35938 342.075L331.29688 342.075ZM331.29688 349.45L331.29688 343.23126L332.35938 343.23126L332.35938 349.45L331.29688 349.45ZM334.29688 349.45L334.29688 343.23126L335.23438 343.23126L335.23438 344.10626Q335.92188 343.09064 337.21875 343.09064Q337.78125 343.09064 338.25 343.29376Q338.73438 343.4969 338.96875 343.825Q339.20312 344.15314 339.29688 344.59064Q339.34375 344.8875 339.34375 345.6219L339.34375 349.45L338.29688 349.45L338.29688 345.66876Q338.29688 345.0125 338.17188 344.7Q338.04688 344.3875 337.73438 344.2Q337.42188 343.9969 337.0 343.9969Q336.32812 343.9969 335.82812 344.4344Q335.34375 344.85626 335.34375 346.04376L335.34375 349.45L334.29688 349.45ZM343.59375 348.5125L343.75 349.4344Q343.29688 349.52814 342.95312 349.52814Q342.375 349.52814 342.0625 349.35626Q341.75 349.16876 341.60938 348.8719Q341.48438 348.575 341.48438 347.6219L341.48438 344.04376L340.71875 344.04376L340.71875 343.23126L341.48438 343.23126L341.48438 341.6844L342.53125 341.0594L342.53125 343.23126L343.59375 343.23126L343.59375 344.04376L342.53125 344.04376L342.53125 347.6844Q342.53125 348.1375 342.57812 348.2625Q342.64062 348.3875 342.76562 348.46564Q342.89062 348.54376 343.125 348.54376Q343.3125 348.54376 343.59375 348.5125ZM343.875 347.59064L344.90625 347.4344Q345.0 348.0594 345.39062 348.3875Q345.79688 348.71564 346.53125 348.71564Q347.25 348.71564 347.59375 348.4344Q347.95312 348.1375 347.95312 347.73126Q347.95312 347.3719 347.64062 347.16876Q347.42188 347.02814 346.5625 346.8094Q345.40625 346.5125 344.95312 346.3094Q344.51562 346.09064 344.28125 345.71564Q344.04688 345.34064 344.04688 344.8719Q344.04688 344.46564 344.23438 344.10626Q344.42188 343.7469 344.75 343.5125Q345.0 343.34064 345.42188 343.21564Q345.84375 343.09064 346.34375 343.09064Q347.0625 343.09064 347.60938 343.3094Q348.17188 343.5125 348.4375 343.8719Q348.70312 344.23126 348.79688 344.825L347.76562 344.96564Q347.70312 344.4969 347.35938 344.23126Q347.03125 343.95 346.40625 343.95Q345.6875 343.95 345.375 344.2Q345.0625 344.4344 345.0625 344.7625Q345.0625 344.96564 345.1875 345.1219Q345.32812 345.29376 345.59375 345.40314Q345.75 345.46564 346.53125 345.66876Q347.65625 345.98126 348.09375 346.16876Q348.53125 346.35626 348.78125 346.71564Q349.03125 347.075 349.03125 347.6219Q349.03125 348.15314 348.71875 348.6219Q348.42188 349.075 347.84375 349.34064Q347.26562 349.59064 346.53125 349.59064Q345.3125 349.59064 344.67188 349.09064Q344.04688 348.575 343.875 347.59064Z" fill-rule="nonzero"/><path fill="#000000" d="M29.550013 236.26146L20.956263 236.26146L20.956263 235.10521L27.706263 230.58958L20.956263 230.58958L20.956263 229.49583L29.550013 229.49583L29.550013 230.66771L22.800013 235.18333L29.550013 235.18333L29.550013 236.26146ZM26.440638 227.77708Q24.706263 227.77708 23.878138 226.82396Q23.190638 226.02708 23.190638 224.87083Q23.190638 223.58958 24.034388 222.77708Q24.862513 221.94896 26.346888 221.94896Q27.550013 221.94896 28.237513 222.30833Q28.925013 222.66771 29.315638 223.37083Q29.690638 224.05833 29.690638 224.87083Q29.690638 226.16771 28.862513 226.98021Q28.018763 227.77708 26.440638 227.77708ZM26.440638 226.69896Q27.628138 226.69896 28.221888 226.18333Q28.815638 225.65208 28.815638 224.87083Q28.815638 224.07396 28.221888 223.55833Q27.628138 223.04271 26.409388 223.04271Q25.253138 223.04271 24.659388 223.57396Q24.065638 224.08958 24.065638 224.87083Q24.065638 225.65208 24.659388 226.18333Q25.237513 226.69896 26.440638 226.69896ZM29.550013 220.38646L23.331263 220.38646L23.331263 219.44896L24.206263 219.44896Q23.737513 219.15208 23.471888 218.66771Q23.190638 218.18333 23.190638 217.55833Q23.190638 216.87083 23.471888 216.43333Q23.753138 215.98021 24.268763 215.80833Q23.190638 215.05833 23.190638 213.88646Q23.190638 212.94896 23.706263 212.46458Q24.206263 211.96458 25.284388 211.96458L29.550013 211.96458L29.550013 213.01146L25.628138 213.01146Q25.003138 213.01146 24.721888 213.12083Q24.440638 213.21458 24.268763 213.48021Q24.096888 213.74583 24.096888 214.12083Q24.096888 214.77708 24.534388 215.21458Q24.971888 215.63646 25.940638 215.63646L29.550013 215.63646L29.550013 216.69896L25.503138 216.69896Q24.800013 216.69896 24.456263 216.96458Q24.096888 217.21458 24.096888 217.79271Q24.096888 218.24583 24.331263 218.62083Q24.565638 218.99583 25.018763 219.16771Q25.471888 219.33958 26.315638 219.33958L29.550013 219.33958L29.550013 220.38646ZM29.550013 208.41771L29.550013 209.40208L20.956263 209.40208L20.956263 208.33958L24.018763 208.33958Q23.190638 207.66771 23.190638 206.63646Q23.190638 206.05833 23.425013 205.55833Q23.643763 205.04271 24.065638 204.71458Q24.487513 204.37083 25.081263 204.18333Q25.675013 203.99583 26.346888 203.99583Q27.940638 203.99583 28.815638 204.79271Q29.690638 205.58958 29.690638 206.68333Q29.690638 207.79271 28.768763 208.41771L29.550013 208.41771ZM26.393763 208.43333Q27.503138 208.43333 28.003138 208.12083Q28.815638 207.62083 28.815638 206.77708Q28.815638 206.08958 28.221888 205.58958Q27.628138 205.07396 26.425013 205.07396Q25.206263 205.07396 24.628138 205.55833Q24.050013 206.04271 24.050013 206.73021Q24.050013 207.41771 24.659388 207.93333Q25.253138 208.43333 26.393763 208.43333ZM29.550013 202.40208L23.331263 202.40208L23.331263 201.44896L24.268763 201.44896Q23.612513 201.08958 23.409388 200.79271Q23.190638 200.48021 23.190638 200.10521Q23.190638 199.57396 23.518763 199.02708L24.503138 199.38646Q24.268763 199.77708 24.268763 200.15208Q24.268763 200.51146 24.487513 200.79271Q24.690638 201.05833 25.065638 201.16771Q25.628138 201.35521 26.284388 201.35521L29.550013 201.35521L29.550013 202.40208ZM27.550013 194.13646L27.675013 193.04271Q28.628138 193.29271 29.159388 193.99583Q29.690638 194.69896 29.690638 195.77708Q29.690638 197.13646 28.846888 197.94896Q28.003138 198.74583 26.487513 198.74583Q24.925013 198.74583 24.065638 197.93333Q23.190638 197.12083 23.190638 195.83958Q23.190638 194.58958 24.034388 193.80833Q24.878138 193.01146 26.425013 193.01146Q26.518763 193.01146 26.706263 193.01146L26.706263 197.65208Q27.737513 197.58958 28.284388 197.07396Q28.815638 196.55833 28.815638 195.77708Q28.815638 195.19896 28.518763 194.79271Q28.206263 194.37083 27.550013 194.13646ZM25.846888 197.58958L25.846888 194.12083Q25.050013 194.18333 24.659388 194.51146Q24.050013 195.02708 24.050013 195.82396Q24.050013 196.55833 24.534388 197.05833Q25.018763 197.54271 25.846888 197.58958ZM29.550013 184.35521L28.768763 184.35521Q29.690638 184.94896 29.690638 186.08958Q29.690638 186.83958 29.284388 187.46458Q28.862513 188.08958 28.128138 188.43333Q27.393763 188.77708 26.440638 188.77708Q25.518763 188.77708 24.753138 188.46458Q23.987513 188.15208 23.596888 187.52708Q23.190638 186.90208 23.190638 186.13646Q23.190638 185.57396 23.425013 185.13646Q23.659388 184.69896 24.034388 184.41771L20.956263 184.41771L20.956263 183.37083L29.550013 183.37083L29.550013 184.35521ZM26.440638 187.68333Q27.643763 187.68333 28.237513 187.18333Q28.815638 186.68333 28.815638 185.99583Q28.815638 185.30833 28.253138 184.82396Q27.690638 184.33958 26.534388 184.33958Q25.253138 184.33958 24.659388 184.83958Q24.065638 185.32396 24.065638 186.04271Q24.065638 186.74583 24.643763 187.21458Q25.206263 187.68333 26.440638 187.68333ZM27.550013 177.13646L27.675013 176.04271Q28.628138 176.29271 29.159388 176.99583Q29.690638 177.69896 29.690638 178.77708Q29.690638 180.13646 28.846888 180.94896Q28.003138 181.74583 26.487513 181.74583Q24.925013 181.74583 24.065638 180.93333Q23.190638 180.12083 23.190638 178.83958Q23.190638 177.58958 24.034388 176.80833Q24.878138 176.01146 26.425013 176.01146Q26.518763 176.01146 26.706263 176.01146L26.706263 180.65208Q27.737513 180.58958 28.284388 180.07396Q28.815638 179.55833 28.815638 178.77708Q28.815638 178.19896 28.518763 177.79271Q28.206263 177.37083 27.550013 177.13646ZM25.846888 180.58958L25.846888 177.12083Q25.050013 177.18333 24.659388 177.51146Q24.050013 178.02708 24.050013 178.82396Q24.050013 179.55833 24.534388 180.05833Q25.018763 180.54271 25.846888 180.58958ZM30.065638 171.58958L30.221888 170.55833Q30.690638 170.49583 30.909388 170.19896Q31.206263 169.80833 31.206263 169.13646Q31.206263 168.40208 30.909388 168.01146Q30.612513 167.60521 30.096888 167.46458Q29.768763 167.37083 28.737513 167.38646Q29.550013 168.07396 29.550013 169.10521Q29.550013 170.38646 28.628138 171.08958Q27.690638 171.79271 26.409388 171.79271Q25.518763 171.79271 24.768763 171.48021Q24.003138 171.15208 23.596888 170.54271Q23.190638 169.93333 23.190638 169.10521Q23.190638 167.99583 24.081263 167.27708L23.331263 167.27708L23.331263 166.30833L28.706263 166.30833Q30.159388 166.30833 30.768763 166.60521Q31.378138 166.90208 31.721888 167.54271Q32.08126 168.18333 32.08126 169.12083Q32.08126 170.23021 31.581263 170.91771Q31.081263 171.60521 30.065638 171.58958ZM26.331263 170.71458Q27.550013 170.71458 28.112513 170.23021Q28.675013 169.74583 28.675013 169.01146Q28.675013 168.27708 28.112513 167.79271Q27.550013 167.29271 26.362513 167.29271Q25.221888 167.29271 24.643763 167.80833Q24.065638 168.30833 24.065638 169.02708Q24.065638 169.73021 24.643763 170.23021Q25.206263 170.71458 26.331263 170.71458ZM29.550013 164.40208L23.331263 164.40208L23.331263 163.44896L24.268763 163.44896Q23.612513 163.08958 23.409388 162.79271Q23.190638 162.48021 23.190638 162.10521Q23.190638 161.57396 23.518763 161.02708L24.503138 161.38646Q24.268763 161.77708 24.268763 162.15208Q24.268763 162.51146 24.487513 162.79271Q24.690638 163.05833 25.065638 163.16771Q25.628138 163.35521 26.284388 163.35521L29.550013 163.35521L29.550013 164.40208ZM22.175013 160.38646L20.956263 160.38646L20.956263 159.32396L22.175013 159.32396L22.175013 160.38646ZM29.550013 160.38646L23.331263 160.38646L23.331263 159.32396L29.550013 159.32396L29.550013 160.38646ZM29.550013 157.41771L20.956263 157.41771L20.956263 156.35521L29.550013 156.35521L29.550013 157.41771ZM29.550013 154.41771L20.956263 154.41771L20.956263 153.35521L29.550013 153.35521L29.550013 154.41771ZM27.550013 147.13646L27.675013 146.04271Q28.628138 146.29271 29.159388 146.99583Q29.690638 147.69896 29.690638 148.77708Q29.690638 150.13646 28.846888 150.94896Q28.003138 151.74583 26.487513 151.74583Q24.925013 151.74583 24.065638 150.93333Q23.190638 150.12083 23.190638 148.83958Q23.190638 147.58958 24.034388 146.80833Q24.878138 146.01146 26.425013 146.01146Q26.518763 146.01146 26.706263 146.01146L26.706263 150.65208Q27.737513 150.58958 28.284388 150.07396Q28.815638 149.55833 28.815638 148.77708Q28.815638 148.19896 28.518763 147.79271Q28.206263 147.37083 27.550013 147.13646ZM25.846888 150.58958L25.846888 147.12083Q25.050013 147.18333 24.659388 147.51146Q24.050013 148.02708 24.050013 148.82396Q24.050013 149.55833 24.534388 150.05833Q25.018763 150.54271 25.846888 150.58958ZM27.690638 144.80833L27.534388 143.77708Q28.159388 143.68333 28.487513 143.29271Q28.815638 142.88646 28.815638 142.15208Q28.815638 141.43333 28.534388 141.08958Q28.237513 140.73021 27.831263 140.73021Q27.471888 140.73021 27.268763 141.04271Q27.128138 141.26146 26.909388 142.12083Q26.612513 143.27708 26.409388 143.73021Q26.190638 144.16771 25.815638 144.40208Q25.440638 144.63646 24.971888 144.63646Q24.565638 144.63646 24.206263 144.44896Q23.846888 144.26146 23.612513 143.93333Q23.440638 143.68333 23.315638 143.26146Q23.190638 142.83958 23.190638 142.33958Q23.190638 141.62083 23.409388 141.07396Q23.612513 140.51146 23.971888 140.24583Q24.331263 139.98021 24.925013 139.88646L25.065638 140.91771Q24.596888 140.98021 24.331263 141.32396Q24.050013 141.65208 24.050013 142.27708Q24.050013 142.99583 24.300013 143.30833Q24.534388 143.62083 24.862513 143.62083Q25.065638 143.62083 25.221888 143.49583Q25.393763 143.35521 25.503138 143.08958Q25.565638 142.93333 25.768763 142.15208Q26.081263 141.02708 26.268763 140.58958Q26.456263 140.15208 26.815638 139.90208Q27.175013 139.65208 27.721888 139.65208Q28.253138 139.65208 28.721888 139.96458Q29.175013 140.26146 29.440638 140.83958Q29.690638 141.41771 29.690638 142.15208Q29.690638 143.37083 29.190638 144.01146Q28.675013 144.63646 27.690638 144.80833Z" fill-rule="nonzero"/><path fill="#000000" d="M72.05 300.21564Q72.05 298.6844 72.3625 297.7625Q72.675 296.825 73.28438 296.325Q73.90938 295.825 74.84688 295.825Q75.53438 295.825 76.05 296.10626Q76.58125 296.3875 76.925 296.91876Q77.26875 297.4344 77.45625 298.1844Q77.64375 298.9344 77.64375 300.21564Q77.64375 301.73126 77.33125 302.65314Q77.03438 303.575 76.40938 304.09064Q75.8 304.59064 74.84688 304.59064Q73.6125 304.59064 72.89375 303.7Q72.05 302.6375 72.05 300.21564ZM73.12813 300.21564Q73.12813 302.325 73.62813 303.02814Q74.12813 303.73126 74.84688 303.73126Q75.58125 303.73126 76.06563 303.02814Q76.56563 302.325 76.56563 300.21564Q76.56563 298.09064 76.06563 297.40314Q75.58125 296.7 74.83125 296.7Q74.1125 296.7 73.675 297.3094Q73.12813 298.09064 73.12813 300.21564Z" fill-rule="nonzero"/><path fill="#000000" d="M63.596874 243.80104L63.596874 244.81667L57.909374 244.81667Q57.909374 244.44167 58.034374 244.08229Q58.253124 243.50417 58.721874 242.94167Q59.20625 242.37917 60.1125 241.64479Q61.51875 240.48854 62.003124 239.81667Q62.503124 239.14479 62.503124 238.55104Q62.503124 237.92604 62.05 237.50417Q61.596874 237.06667 60.878124 237.06667Q60.1125 237.06667 59.659374 237.51979Q59.20625 237.97292 59.190624 238.78542L58.1125 238.67604Q58.221874 237.45729 58.940624 236.83229Q59.675 236.19167 60.909374 236.19167Q62.14375 236.19167 62.8625 236.87917Q63.58125 237.56667 63.58125 238.58229Q63.58125 239.09792 63.3625 239.59792Q63.159374 240.08229 62.659374 240.64479Q62.175 241.19167 61.05 242.14479Q60.096874 242.94167 59.815624 243.23854Q59.55 243.51979 59.378124 243.80104L63.596874 243.80104ZM65.05 242.56667L66.15938 242.47292Q66.28438 243.28542 66.72188 243.69167Q67.175 244.09792 67.81563 244.09792Q68.56563 244.09792 69.09688 243.51979Q69.62813 242.94167 69.62813 242.00417Q69.62813 241.09792 69.1125 240.58229Q68.6125 240.05104 67.78438 240.05104Q67.28438 240.05104 66.8625 240.28542Q66.45625 240.51979 66.22188 240.87917L65.2375 240.75417L66.06563 236.34792L70.34688 236.34792L70.34688 237.34792L66.90938 237.34792L66.45625 239.66042Q67.22188 239.11354 68.06563 239.11354Q69.19063 239.11354 69.95625 239.89479Q70.7375 240.67604 70.7375 241.91042Q70.7375 243.06667 70.06563 243.92604Q69.2375 244.95729 67.81563 244.95729Q66.64375 244.95729 65.89375 244.30104Q65.15938 243.64479 65.05 242.56667ZM72.05 240.58229Q72.05 239.05104 72.3625 238.12917Q72.675 237.19167 73.28438 236.69167Q73.90938 236.19167 74.84688 236.19167Q75.53438 236.19167 76.05 236.47292Q76.58125 236.75417 76.925 237.28542Q77.26875 237.80104 77.45625 238.55104Q77.64375 239.30104 77.64375 240.58229Q77.64375 242.09792 77.33125 243.01979Q77.03438 243.94167 76.40938 244.45729Q75.8 244.95729 74.84688 244.95729Q73.6125 244.95729 72.89375 244.06667Q72.05 243.00417 72.05 240.58229ZM73.12813 240.58229Q73.12813 242.69167 73.62813 243.39479Q74.12813 244.09792 74.84688 244.09792Q75.58125 244.09792 76.06563 243.39479Q76.56563 242.69167 76.56563 240.58229Q76.56563 238.45729 76.06563 237.76979Q75.58125 237.06667 74.83125 237.06667Q74.1125 237.06667 73.675 237.67604Q73.12813 238.45729 73.12813 240.58229Z" fill-rule="nonzero"/><path fill="#000000" d="M58.05 182.93333L59.159374 182.83958Q59.284374 183.65208 59.721874 184.05833Q60.175 184.46458 60.815624 184.46458Q61.565624 184.46458 62.096874 183.88646Q62.628124 183.30833 62.628124 182.37083Q62.628124 181.46458 62.1125 180.94896Q61.6125 180.41771 60.784374 180.41771Q60.284374 180.41771 59.8625 180.65208Q59.45625 180.88646 59.221874 181.24583L58.2375 181.12083L59.065624 176.71458L63.346874 176.71458L63.346874 177.71458L59.909374 177.71458L59.45625 180.02708Q60.221874 179.48021 61.065624 179.48021Q62.190624 179.48021 62.95625 180.26146Q63.7375 181.04271 63.7375 182.27708Q63.7375 183.43333 63.065624 184.29271Q62.2375 185.32396 60.815624 185.32396Q59.64375 185.32396 58.89375 184.66771Q58.159374 184.01146 58.05 182.93333ZM65.05 180.94896Q65.05 179.41771 65.3625 178.49583Q65.675 177.55833 66.28438 177.05833Q66.90938 176.55833 67.84688 176.55833Q68.53438 176.55833 69.05 176.83958Q69.58125 177.12083 69.925 177.65208Q70.26875 178.16771 70.45625 178.91771Q70.64375 179.66771 70.64375 180.94896Q70.64375 182.46458 70.33125 183.38646Q70.03438 184.30833 69.40938 184.82396Q68.8 185.32396 67.84688 185.32396Q66.6125 185.32396 65.89375 184.43333Q65.05 183.37083 65.05 180.94896ZM66.12813 180.94896Q66.12813 183.05833 66.62813 183.76146Q67.12813 184.46458 67.84688 184.46458Q68.58125 184.46458 69.06563 183.76146Q69.56563 183.05833 69.56563 180.94896Q69.56563 178.82396 69.06563 178.13646Q68.58125 177.43333 67.83125 177.43333Q67.1125 177.43333 66.675 178.04271Q66.12813 178.82396 66.12813 180.94896ZM72.05 180.94896Q72.05 179.41771 72.3625 178.49583Q72.675 177.55833 73.28438 177.05833Q73.90938 176.55833 74.84688 176.55833Q75.53438 176.55833 76.05 176.83958Q76.58125 177.12083 76.925 177.65208Q77.26875 178.16771 77.45625 178.91771Q77.64375 179.66771 77.64375 180.94896Q77.64375 182.46458 77.33125 183.38646Q77.03438 184.30833 76.40938 184.82396Q75.8 185.32396 74.84688 185.32396Q73.6125 185.32396 72.89375 184.43333Q72.05 183.37083 72.05 180.94896ZM73.12813 180.94896Q73.12813 183.05833 73.62813 183.76146Q74.12813 184.46458 74.84688 184.46458Q75.58125 184.46458 76.06563 183.76146Q76.56563 183.05833 76.56563 180.94896Q76.56563 178.82396 76.06563 178.13646Q75.58125 177.43333 74.83125 177.43333Q74.1125 177.43333 73.675 178.04271Q73.12813 178.82396 73.12813 180.94896Z" fill-rule="nonzero"/><path fill="#000000" d="M58.1125 118.08125L58.1125 117.06563L63.675 117.06563L63.675 117.89375Q62.8625 118.76875 62.05 120.22188Q61.253124 121.65938 60.815624 123.19063Q60.4875 124.26875 60.409374 125.55L59.315624 125.55Q59.33125 124.53438 59.70625 123.09688Q60.096874 121.65938 60.8 120.33125Q61.51875 119.00313 62.33125 118.08125L58.1125 118.08125ZM65.05 123.3L66.15938 123.20625Q66.28438 124.01875 66.72188 124.425Q67.175 124.83125 67.81563 124.83125Q68.56563 124.83125 69.09688 124.25313Q69.62813 123.675 69.62813 122.7375Q69.62813 121.83125 69.1125 121.31563Q68.6125 120.78438 67.78438 120.78438Q67.28438 120.78438 66.8625 121.01875Q66.45625 121.25313 66.22188 121.6125L65.2375 121.4875L66.06563 117.08125L70.34688 117.08125L70.34688 118.08125L66.90938 118.08125L66.45625 120.39375Q67.22188 119.84688 68.06563 119.84688Q69.19063 119.84688 69.95625 120.62813Q70.7375 121.40938 70.7375 122.64375Q70.7375 123.8 70.06563 124.65938Q69.2375 125.69063 67.81563 125.69063Q66.64375 125.69063 65.89375 125.03438Q65.15938 124.37813 65.05 123.3ZM72.05 121.31563Q72.05 119.78438 72.3625 118.8625Q72.675 117.925 73.28438 117.425Q73.90938 116.925 74.84688 116.925Q75.53438 116.925 76.05 117.20625Q76.58125 117.4875 76.925 118.01875Q77.26875 118.53438 77.45625 119.28438Q77.64375 120.03438 77.64375 121.31563Q77.64375 122.83125 77.33125 123.75313Q77.03438 124.675 76.40938 125.19063Q75.8 125.69063 74.84688 125.69063Q73.6125 125.69063 72.89375 124.8Q72.05 123.7375 72.05 121.31563ZM73.12813 121.31563Q73.12813 123.425 73.62813 124.12813Q74.12813 124.83125 74.84688 124.83125Q75.58125 124.83125 76.06563 124.12813Q76.56563 123.425 76.56563 121.31563Q76.56563 119.19063 76.06563 118.50313Q75.58125 117.8 74.83125 117.8Q74.1125 117.8 73.675 118.40938Q73.12813 119.19063 73.12813 121.31563Z" fill-rule="nonzero"/><path fill="#000000" d="M55.01875 65.916664L53.971874 65.916664L53.971874 59.197914Q53.58125 59.55729 52.95625 59.93229Q52.346874 60.291664 51.8625 60.46354L51.8625 59.447914Q52.7375 59.02604 53.39375 58.447914Q54.065624 57.854164 54.346874 57.291664L55.01875 57.291664L55.01875 65.916664ZM58.05 61.68229Q58.05 60.15104 58.3625 59.229164Q58.675 58.291664 59.284374 57.791664Q59.909374 57.291664 60.846874 57.291664Q61.534374 57.291664 62.05 57.572914Q62.58125 57.854164 62.925 58.385414Q63.26875 58.90104 63.45625 59.65104Q63.64375 60.40104 63.64375 61.68229Q63.64375 63.197914 63.33125 64.11979Q63.034374 65.041664 62.409374 65.55729Q61.8 66.05729 60.846874 66.05729Q59.6125 66.05729 58.89375 65.166664Q58.05 64.104164 58.05 61.68229ZM59.128124 61.68229Q59.128124 63.791664 59.628124 64.49479Q60.128124 65.197914 60.846874 65.197914Q61.58125 65.197914 62.065624 64.49479Q62.565624 63.791664 62.565624 61.68229Q62.565624 59.55729 62.065624 58.86979Q61.58125 58.166664 60.83125 58.166664Q60.1125 58.166664 59.675 58.77604Q59.128124 59.55729 59.128124 61.68229ZM65.05 61.68229Q65.05 60.15104 65.3625 59.229164Q65.675 58.291664 66.28438 57.791664Q66.90938 57.291664 67.84688 57.291664Q68.53438 57.291664 69.05 57.572914Q69.58125 57.854164 69.925 58.385414Q70.26875 58.90104 70.45625 59.65104Q70.64375 60.40104 70.64375 61.68229Q70.64375 63.197914 70.33125 64.11979Q70.03438 65.041664 69.40938 65.55729Q68.8 66.05729 67.84688 66.05729Q66.6125 66.05729 65.89375 65.166664Q65.05 64.104164 65.05 61.68229ZM66.12813 61.68229Q66.12813 63.791664 66.62813 64.49479Q67.12813 65.197914 67.84688 65.197914Q68.58125 65.197914 69.06563 64.49479Q69.56563 63.791664 69.56563 61.68229Q69.56563 59.55729 69.06563 58.86979Q68.58125 58.166664 67.83125 58.166664Q67.1125 58.166664 66.675 58.77604Q66.12813 59.55729 66.12813 61.68229ZM72.05 61.68229Q72.05 60.15104 72.3625 59.229164Q72.675 58.291664 73.28438 57.791664Q73.90938 57.291664 74.84688 57.291664Q75.53438 57.291664 76.05 57.572914Q76.58125 57.854164 76.925 58.385414Q77.26875 58.90104 77.45625 59.65104Q77.64375 60.40104 77.64375 61.68229Q77.64375 63.197914 77.33125 64.11979Q77.03438 65.041664 76.40938 65.55729Q75.8 66.05729 74.84688 66.05729Q73.6125 66.05729 72.89375 65.166664Q72.05 64.104164 72.05 61.68229ZM73.12813 61.68229Q73.12813 63.791664 73.62813 64.49479Q74.12813 65.197914 74.84688 65.197914Q75.58125 65.197914 76.06563 64.49479Q76.56563 63.791664 76.56563 61.68229Q76.56563 59.55729 76.06563 58.86979Q75.58125 58.166664 74.83125 58.166664Q74.1125 58.166664 73.675 58.77604Q73.12813 59.55729 73.12813 61.68229Z" fill-rule="nonzero"/><path fill="#000000" d="M127.65242 317.45L126.605545 317.45L126.605545 310.73126Q126.21492 311.09064 125.58992 311.46564Q124.980545 311.825 124.49617 311.9969L124.49617 310.98126Q125.37117 310.5594 126.02742 309.98126Q126.699295 309.3875 126.980545 308.825L127.65242 308.825L127.65242 317.45ZM130.68367 313.21564Q130.68367 311.6844 130.99617 310.7625Q131.30867 309.825 131.91805 309.325Q132.54305 308.825 133.48055 308.825Q134.16805 308.825 134.68367 309.10626Q135.21492 309.3875 135.55867 309.91876Q135.90242 310.4344 136.08992 311.1844Q136.27742 311.9344 136.27742 313.21564Q136.27742 314.73126 135.96492 315.65314Q135.66805 316.575 135.04305 317.09064Q134.43367 317.59064 133.48055 317.59064Q132.24617 317.59064 131.52742 316.7Q130.68367 315.6375 130.68367 313.21564ZM131.7618 313.21564Q131.7618 315.325 132.2618 316.02814Q132.7618 316.73126 133.48055 316.73126Q134.21492 316.73126 134.6993 316.02814Q135.1993 315.325 135.1993 313.21564Q135.1993 311.09064 134.6993 310.40314Q134.21492 309.7 133.46492 309.7Q132.74617 309.7 132.30867 310.3094Q131.7618 311.09064 131.7618 313.21564Z" fill-rule="nonzero"/><path fill="#000000" d="M195.25786 317.45L194.21098 317.45L194.21098 310.73126Q193.82036 311.09064 193.19536 311.46564Q192.58598 311.825 192.10161 311.9969L192.10161 310.98126Q192.97661 310.5594 193.63286 309.98126Q194.30473 309.3875 194.58598 308.825L195.25786 308.825L195.25786 317.45ZM202.25786 317.45L201.21098 317.45L201.21098 310.73126Q200.82036 311.09064 200.19536 311.46564Q199.58598 311.825 199.10161 311.9969L199.10161 310.98126Q199.97661 310.5594 200.63286 309.98126Q201.30473 309.3875 201.58598 308.825L202.25786 308.825L202.25786 317.45Z" fill-rule="nonzero"/><path fill="#000000" d="M262.8633 317.45L261.81644 317.45L261.81644 310.73126Q261.4258 311.09064 260.8008 311.46564Q260.19144 311.825 259.70706 311.9969L259.70706 310.98126Q260.58206 310.5594 261.2383 309.98126Q261.9102 309.3875 262.19144 308.825L262.8633 308.825L262.8633 317.45ZM271.44144 316.4344L271.44144 317.45L265.75394 317.45Q265.75394 317.075 265.87894 316.71564Q266.0977 316.1375 266.56644 315.575Q267.0508 315.0125 267.95706 314.27814Q269.3633 313.1219 269.8477 312.45Q270.3477 311.77814 270.3477 311.1844Q270.3477 310.5594 269.89456 310.1375Q269.44144 309.7 268.7227 309.7Q267.95706 309.7 267.50394 310.15314Q267.0508 310.60626 267.0352 311.41876L265.95706 311.3094Q266.06644 310.09064 266.7852 309.46564Q267.51956 308.825 268.75394 308.825Q269.9883 308.825 270.70706 309.5125Q271.4258 310.2 271.4258 311.21564Q271.4258 311.73126 271.20706 312.23126Q271.00394 312.71564 270.50394 313.27814Q270.01956 313.825 268.89456 314.77814Q267.94144 315.575 267.6602 315.8719Q267.39456 316.15314 267.2227 316.4344L271.44144 316.4344Z" fill-rule="nonzero"/><path fill="#000000" d="M330.46875 317.45L329.42188 317.45L329.42188 310.73126Q329.03125 311.09064 328.40625 311.46564Q327.79688 311.825 327.3125 311.9969L327.3125 310.98126Q328.1875 310.5594 328.84375 309.98126Q329.51562 309.3875 329.79688 308.825L330.46875 308.825L330.46875 317.45ZM333.5 315.1844L334.5625 315.04376Q334.73438 315.9344 335.17188 316.34064Q335.60938 316.73126 336.23438 316.73126Q336.98438 316.73126 337.5 316.21564Q338.01562 315.7 338.01562 314.9344Q338.01562 314.21564 337.53125 313.7469Q337.0625 313.2625 336.32812 313.2625Q336.03125 313.2625 335.57812 313.3875L335.70312 312.45Q335.8125 312.46564 335.875 312.46564Q336.54688 312.46564 337.07812 312.1219Q337.625 311.7625 337.625 311.02814Q337.625 310.45 337.23438 310.075Q336.84375 309.6844 336.21875 309.6844Q335.60938 309.6844 335.1875 310.075Q334.78125 310.46564 334.67188 311.23126L333.60938 311.04376Q333.79688 309.9969 334.48438 309.41876Q335.17188 308.825 336.1875 308.825Q336.89062 308.825 337.48438 309.1375Q338.07812 309.4344 338.39062 309.95Q338.70312 310.46564 338.70312 311.0594Q338.70312 311.60626 338.40625 312.075Q338.10938 312.52814 337.53125 312.79376Q338.28125 312.96564 338.70312 313.52814Q339.125 314.075 339.125 314.91876Q339.125 316.04376 338.29688 316.825Q337.48438 317.60626 336.23438 317.60626Q335.10938 317.60626 334.35938 316.9344Q333.60938 316.2469 333.5 315.1844Z" fill-rule="nonzero"/><path fill="#000000" d="M398.0742 317.45L397.0273 317.45L397.0273 310.73126Q396.6367 311.09064 396.0117 311.46564Q395.4023 311.825 394.91794 311.9969L394.91794 310.98126Q395.79294 310.5594 396.4492 309.98126Q397.12106 309.3875 397.4023 308.825L398.0742 308.825L398.0742 317.45ZM404.48044 317.45L404.48044 315.3875L400.7617 315.3875L400.7617 314.41876L404.68356 308.85626L405.54294 308.85626L405.54294 314.41876L406.6992 314.41876L406.6992 315.3875L405.54294 315.3875L405.54294 317.45L404.48044 317.45ZM404.48044 314.41876L404.48044 310.5594L401.79294 314.41876L404.48044 314.41876Z" fill-rule="nonzero"/><path fill="#000000" d="M465.67963 317.45L464.63275 317.45L464.63275 310.73126Q464.24213 311.09064 463.61713 311.46564Q463.00775 311.825 462.52338 311.9969L462.52338 310.98126Q463.39838 310.5594 464.05463 309.98126Q464.7265 309.3875 465.00775 308.825L465.67963 308.825L465.67963 317.45ZM468.71088 315.2L469.82025 315.10626Q469.94525 315.91876 470.38275 316.325Q470.83588 316.73126 471.4765 316.73126Q472.2265 316.73126 472.75775 316.15314Q473.289 315.575 473.289 314.6375Q473.289 313.73126 472.77338 313.21564Q472.27338 312.6844 471.44525 312.6844Q470.94525 312.6844 470.52338 312.91876Q470.11713 313.15314 469.88275 313.5125L468.89838 313.3875L469.7265 308.98126L474.00775 308.98126L474.00775 309.98126L470.57025 309.98126L470.11713 312.29376Q470.88275 311.7469 471.7265 311.7469Q472.8515 311.7469 473.61713 312.52814Q474.39838 313.3094 474.39838 314.54376Q474.39838 315.7 473.7265 316.5594Q472.89838 317.59064 471.4765 317.59064Q470.30463 317.59064 469.55463 316.9344Q468.82025 316.27814 468.71088 315.2Z" fill-rule="nonzero"/><path fill="#000000" d="M533.2851 317.45L532.2382 317.45L532.2382 310.73126Q531.8476 311.09064 531.2226 311.46564Q530.6132 311.825 530.12885 311.9969L530.12885 310.98126Q531.00385 310.5594 531.6601 309.98126Q532.332 309.3875 532.6132 308.825L533.2851 308.825L533.2851 317.45ZM541.7851 310.96564L540.7382 311.04376Q540.5976 310.41876 540.3476 310.1375Q539.9101 309.6844 539.2851 309.6844Q538.7851 309.6844 538.3945 309.96564Q537.9101 310.34064 537.6132 311.04376Q537.332 311.73126 537.31635 313.0125Q537.69135 312.4344 538.2382 312.15314Q538.8007 311.8719 539.4101 311.8719Q540.457 311.8719 541.19135 312.65314Q541.94135 313.4344 541.94135 314.65314Q541.94135 315.46564 541.582 316.16876Q541.2382 316.85626 540.62885 317.23126Q540.0195 317.59064 539.25385 317.59064Q537.9257 317.59064 537.0976 316.6219Q536.2695 315.65314 536.2695 313.4344Q536.2695 310.9344 537.19135 309.8094Q537.9882 308.825 539.3476 308.825Q540.3632 308.825 541.00385 309.40314Q541.6601 309.96564 541.7851 310.96564ZM537.4882 314.66876Q537.4882 315.21564 537.707 315.71564Q537.94135 316.2 538.3476 316.46564Q538.7695 316.73126 539.2382 316.73126Q539.8945 316.73126 540.37885 316.2Q540.8632 315.65314 540.8632 314.73126Q540.8632 313.84064 540.37885 313.325Q539.9101 312.8094 539.19135 312.8094Q538.4726 312.8094 537.9726 313.325Q537.4882 313.84064 537.4882 314.66876Z" fill-rule="nonzero"/><path fill="#757575" d="M266.75 31.940624L266.75 30.253124L272.8125 30.2375L272.8125 35.55Q271.40625 36.675 269.92188 37.2375Q268.4375 37.8 266.875 37.8Q264.76562 37.8 263.04688 36.89375Q261.32812 35.9875 260.4375 34.284374Q259.5625 32.565624 259.5625 30.45625Q259.5625 28.3625 260.4375 26.565624Q261.3125 24.753124 262.95312 23.878124Q264.59375 22.9875 266.73438 22.9875Q268.28125 22.9875 269.53125 23.4875Q270.79688 23.9875 271.5 24.89375Q272.21875 25.784374 272.59375 27.2375L270.89062 27.70625Q270.5625 26.6125 270.07812 25.9875Q269.60938 25.3625 268.71875 24.9875Q267.82812 24.6125 266.75 24.6125Q265.4375 24.6125 264.48438 25.003124Q263.54688 25.39375 262.96875 26.05Q262.39062 26.690624 262.0625 27.45625Q261.51562 28.784374 261.51562 30.346874Q261.51562 32.253124 262.17188 33.55Q262.84375 34.83125 264.09375 35.45625Q265.35938 36.08125 266.76562 36.08125Q268.0 36.08125 269.17188 35.6125Q270.34375 35.14375 270.95312 34.596874L270.95312 31.940624L266.75 31.940624ZM275.79688 37.55L275.79688 27.175L277.375 27.175L277.375 28.753124Q277.98438 27.64375 278.5 27.3Q279.01562 26.940624 279.625 26.940624Q280.51562 26.940624 281.4375 27.503124L280.82812 29.14375Q280.1875 28.753124 279.54688 28.753124Q278.96875 28.753124 278.5 29.1125Q278.04688 29.45625 277.84375 30.065624Q277.5625 31.003124 277.5625 32.1125L277.5625 37.55L275.79688 37.55ZM282.82812 25.253124L282.82812 23.2375L284.59375 23.2375L284.59375 25.253124L282.82812 25.253124ZM282.82812 37.55L282.82812 27.175L284.59375 27.175L284.59375 37.55L282.82812 37.55ZM286.78125 37.55L286.78125 23.2375L288.53125 23.2375L288.53125 37.55L286.78125 37.55ZM290.78125 37.55L290.78125 23.2375L292.53125 23.2375L292.53125 37.55L290.78125 37.55ZM301.92188 34.20625L303.73438 34.440624Q303.3125 36.01875 302.14062 36.909374Q300.98438 37.784374 299.17188 37.784374Q296.90625 37.784374 295.5625 36.39375Q294.23438 34.9875 294.23438 32.45625Q294.23438 29.83125 295.57812 28.39375Q296.92188 26.940624 299.07812 26.940624Q301.15625 26.940624 302.46875 28.3625Q303.79688 29.76875 303.79688 32.346874Q303.79688 32.503124 303.78125 32.815624L296.04688 32.815624Q296.14062 34.51875 297.01562 35.425Q297.89062 36.33125 299.1875 36.33125Q300.15625 36.33125 300.82812 35.83125Q301.51562 35.315624 301.92188 34.20625ZM296.14062 31.3625L301.9375 31.3625Q301.82812 30.065624 301.28125 29.409374Q300.4375 28.39375 299.09375 28.39375Q297.89062 28.39375 297.0625 29.20625Q296.23438 30.003124 296.14062 31.3625ZM314.03125 29.784374Q312.9375 29.378124 312.40625 28.64375Q311.89062 27.89375 311.89062 26.8625Q311.89062 25.3 313.01562 24.2375Q314.14062 23.175 316.0 23.175Q317.875 23.175 319.01562 24.26875Q320.15625 25.346874 320.15625 26.909374Q320.15625 27.909374 319.625 28.64375Q319.10938 29.378124 318.04688 29.784374Q319.375 30.221874 320.0625 31.175Q320.75 32.128124 320.75 33.45625Q320.75 35.3 319.4375 36.55Q318.14062 37.8 316.03125 37.8Q313.90625 37.8 312.60938 36.55Q311.3125 35.284374 311.3125 33.409374Q311.3125 32.01875 312.01562 31.08125Q312.73438 30.128124 314.03125 29.784374ZM313.6875 26.8Q313.6875 27.815624 314.34375 28.471874Q315.0 29.1125 316.03125 29.1125Q317.04688 29.1125 317.70312 28.471874Q318.35938 27.83125 318.35938 26.909374Q318.35938 25.940624 317.6875 25.284374Q317.01562 24.6125 316.01562 24.6125Q315.01562 24.6125 314.34375 25.26875Q313.6875 25.909374 313.6875 26.8ZM313.125 33.425Q313.125 34.175 313.46875 34.878124Q313.82812 35.58125 314.53125 35.971874Q315.23438 36.346874 316.04688 36.346874Q317.3125 36.346874 318.125 35.534374Q318.95312 34.721874 318.95312 33.471874Q318.95312 32.20625 318.10938 31.378124Q317.26562 30.55 315.98438 30.55Q314.75 30.55 313.9375 31.378124Q313.125 32.190624 313.125 33.425ZM321.64062 37.55L325.4375 32.159374L321.9375 27.175L324.125 27.175L325.71875 29.6125Q326.17188 30.3 326.4375 30.76875Q326.875 30.128124 327.23438 29.628124L328.98438 27.175L331.07812 27.175L327.5 32.065624L331.35938 37.55L329.20312 37.55L327.0625 34.33125L326.5 33.45625L323.78125 37.55L321.64062 37.55ZM334.03125 29.784374Q332.9375 29.378124 332.40625 28.64375Q331.89062 27.89375 331.89062 26.8625Q331.89062 25.3 333.01562 24.2375Q334.14062 23.175 336.0 23.175Q337.875 23.175 339.01562 24.26875Q340.15625 25.346874 340.15625 26.909374Q340.15625 27.909374 339.625 28.64375Q339.10938 29.378124 338.04688 29.784374Q339.375 30.221874 340.0625 31.175Q340.75 32.128124 340.75 33.45625Q340.75 35.3 339.4375 36.55Q338.14062 37.8 336.03125 37.8Q333.90625 37.8 332.60938 36.55Q331.3125 35.284374 331.3125 33.409374Q331.3125 32.01875 332.01562 31.08125Q332.73438 30.128124 334.03125 29.784374ZM333.6875 26.8Q333.6875 27.815624 334.34375 28.471874Q335.0 29.1125 336.03125 29.1125Q337.04688 29.1125 337.70312 28.471874Q338.35938 27.83125 338.35938 26.909374Q338.35938 25.940624 337.6875 25.284374Q337.01562 24.6125 336.01562 24.6125Q335.01562 24.6125 334.34375 25.26875Q333.6875 25.909374 333.6875 26.8ZM333.125 33.425Q333.125 34.175 333.46875 34.878124Q333.82812 35.58125 334.53125 35.971874Q335.23438 36.346874 336.04688 36.346874Q337.3125 36.346874 338.125 35.534374Q338.95312 34.721874 338.95312 33.471874Q338.95312 32.20625 338.10938 31.378124Q337.26562 30.55 335.98438 30.55Q334.75 30.55 333.9375 31.378124Q333.125 32.190624 333.125 33.425Z" fill-rule="nonzero"/></svg>